<?xml version="1.0" encoding="UTF-8" standalone="no"?>
<!DOCTYPE svg PUBLIC "-//W3C//DTD SVG 1.1//EN"
 "http://www.w3.org/Graphics/SVG/1.1/DTD/svg11.dtd">
<!-- Generated by graphviz version 2.38.0 (20140413.2041)
 -->
<!-- Title: G Pages: 1 -->
<svg width="453pt" height="104pt"
 viewBox="0.00 0.00 453.11 104.13" xmlns="http://www.w3.org/2000/svg" xmlns:xlink="http://www.w3.org/1999/xlink">
<g id="graph0" class="graph" transform="scale(1 1) rotate(0) translate(4 100.133)">
<title>G</title>
<polygon fill="white" stroke="none" points="-4,4 -4,-100.133 449.109,-100.133 449.109,4 -4,4"/>
<!-- OPEN -->
<g id="node1" class="node"><title>OPEN</title>
<polygon fill="lightgrey" stroke="red" points="54,-68.1326 0,-68.1326 0,-32.1326 54,-32.1326 54,-68.1326"/>
<text text-anchor="middle" x="27" y="-46.4326" font-family="Times New Roman,serif" font-size="14.00">OPEN</text>
</g>
<!-- CLOSED -->
<g id="node2" class="node"><title>CLOSED</title>
<polygon fill="none" stroke="red" points="445.319,-70.6768 445.319,-85.5885 420.47,-96.1326 385.328,-96.1326 360.479,-85.5885 360.479,-70.6768 385.328,-60.1326 420.47,-60.1326 445.319,-70.6768"/>
<text text-anchor="middle" x="402.899" y="-74.4326" font-family="Times New Roman,serif" font-size="14.00">Финиш</text>
</g>
<!-- OPEN&#45;&gt;CLOSED -->
<g id="edge4" class="edge"><title>OPEN&#45;&gt;CLOSED</title>
<path fill="none" stroke="darkgreen" stroke-width="2" d="M54.2039,-64.1597C65.236,-69.316 78.415,-74.5284 91,-77.1326 180.688,-95.6921 288.071,-90.0875 350.288,-84.1981"/>
<polygon fill="darkgreen" stroke="darkgreen" stroke-width="2" points="351.013,-87.6436 360.621,-83.1777 350.325,-80.6775 351.013,-87.6436"/>
</g>
<!-- RESOLVED -->
<g id="node4" class="node"><title>RESOLVED</title>
<ellipse fill="none" stroke="red" cx="148.845" cy="-50.1326" rx="57.6901" ry="18"/>
<text text-anchor="middle" x="148.845" y="-46.4326" font-family="Times New Roman,serif" font-size="14.00">RESOLVED</text>
</g>
<!-- OPEN&#45;&gt;RESOLVED -->
<g id="edge1" class="edge"><title>OPEN&#45;&gt;RESOLVED</title>
<path fill="none" stroke="darkgreen" d="M54.0046,-50.1326C61.9924,-50.1326 71.1793,-50.1326 80.6115,-50.1326"/>
<polygon fill="darkgreen" stroke="darkgreen" points="80.8976,-53.6327 90.8975,-50.1326 80.8975,-46.6327 80.8976,-53.6327"/>
</g>
<!-- VERIFIED -->
<g id="node3" class="node"><title>VERIFIED</title>
<path fill="none" stroke="red" d="M311.69,-68.1326C311.69,-68.1326 255.69,-68.1326 255.69,-68.1326 249.69,-68.1326 243.69,-62.1326 243.69,-56.1326 243.69,-56.1326 243.69,-44.1326 243.69,-44.1326 243.69,-38.1326 249.69,-32.1326 255.69,-32.1326 255.69,-32.1326 311.69,-32.1326 311.69,-32.1326 317.69,-32.1326 323.69,-38.1326 323.69,-44.1326 323.69,-44.1326 323.69,-56.1326 323.69,-56.1326 323.69,-62.1326 317.69,-68.1326 311.69,-68.1326"/>
<text text-anchor="middle" x="283.69" y="-46.4326" font-family="Times New Roman,serif" font-size="14.00">VERIFIED</text>
</g>
<!-- VERIFIED&#45;&gt;OPEN -->
<g id="edge5" class="edge"><title>VERIFIED&#45;&gt;OPEN</title>
<path fill="none" stroke="darkgreen" stroke-dasharray="5,2" d="M256.188,-32.1042C242.141,-23.6332 224.205,-14.4604 206.69,-10.1326 156.773,2.20127 140.375,4.21774 91,-10.1326 78.87,-13.6581 66.8412,-20.3004 56.5961,-27.1738"/>
<ellipse fill="darkgreen" stroke="darkgreen" cx="53.0839" cy="-29.6371" rx="4.00002" ry="4.00002"/>
<text text-anchor="middle" x="148.845" y="-13.5326" font-family="Times New Roman,serif" font-size="12.00" fill="blue">обнаружены ошибки</text>
</g>
<!-- VERIFIED&#45;&gt;CLOSED -->
<g id="edge3" class="edge"><title>VERIFIED&#45;&gt;CLOSED</title>
<path fill="none" stroke="darkgreen" d="M323.719,-59.4562C333.408,-61.7709 343.904,-64.2783 353.966,-66.682"/>
<polygon fill="darkgreen" stroke="darkgreen" points="353.298,-70.1207 363.837,-69.04 354.924,-63.3122 353.298,-70.1207"/>
</g>
<!-- RESOLVED&#45;&gt;VERIFIED -->
<g id="edge2" class="edge"><title>RESOLVED&#45;&gt;VERIFIED</title>
<path fill="none" stroke="darkgreen" d="M206.954,-50.1326C215.753,-50.1326 224.775,-50.1326 233.385,-50.1326"/>
<polygon fill="darkgreen" stroke="darkgreen" points="233.64,-53.6327 243.64,-50.1326 233.64,-46.6327 233.64,-53.6327"/>
</g>
</g>
</svg>
