<?xml version="1.0" encoding="UTF-8" standalone="no"?>
<!DOCTYPE svg PUBLIC "-//W3C//DTD SVG 1.1//EN"
 "http://www.w3.org/Graphics/SVG/1.1/DTD/svg11.dtd">
<!-- Generated by graphviz version 2.38.0 (20140413.2041)
 -->
<!-- Title: G Pages: 1 -->
<svg width="181pt" height="332pt"
 viewBox="0.00 0.00 181.49 332.00" xmlns="http://www.w3.org/2000/svg" xmlns:xlink="http://www.w3.org/1999/xlink">
<g id="graph0" class="graph" transform="scale(1 1) rotate(0) translate(4 328)">
<title>G</title>
<polygon fill="white" stroke="none" points="-4,4 -4,-328 177.491,-328 177.491,4 -4,4"/>
<!-- Рождение -->
<g id="node1" class="node"><title>Рождение</title>
<ellipse fill="none" stroke="black" cx="123.446" cy="-306" rx="50.0912" ry="18"/>
<text text-anchor="middle" x="123.446" y="-302.3" font-family="Times New Roman,serif" font-size="14.00">Рождение</text>
</g>
<!-- Юность -->
<g id="node2" class="node"><title>Юность</title>
<ellipse fill="none" stroke="black" cx="123.446" cy="-234" rx="42.7926" ry="18"/>
<text text-anchor="middle" x="123.446" y="-230.3" font-family="Times New Roman,serif" font-size="14.00">Юность</text>
</g>
<!-- Рождение&#45;&gt;Юность -->
<g id="edge1" class="edge"><title>Рождение&#45;&gt;Юность</title>
<path fill="none" stroke="black" d="M123.446,-287.697C123.446,-279.983 123.446,-270.712 123.446,-262.112"/>
<polygon fill="black" stroke="black" points="126.946,-262.104 123.446,-252.104 119.946,-262.104 126.946,-262.104"/>
</g>
<!-- Зрелость -->
<g id="node3" class="node"><title>Зрелость</title>
<ellipse fill="none" stroke="black" cx="86.4458" cy="-162" rx="46.2923" ry="18"/>
<text text-anchor="middle" x="86.4458" y="-158.3" font-family="Times New Roman,serif" font-size="14.00">Зрелость</text>
</g>
<!-- Юность&#45;&gt;Зрелость -->
<g id="edge2" class="edge"><title>Юность&#45;&gt;Зрелость</title>
<path fill="none" stroke="black" d="M114.489,-216.055C110.172,-207.887 104.899,-197.912 100.096,-188.824"/>
<polygon fill="black" stroke="black" points="103.087,-186.994 95.32,-179.789 96.8988,-190.266 103.087,-186.994"/>
</g>
<!-- Смерть -->
<g id="node5" class="node"><title>Смерть</title>
<ellipse fill="none" stroke="black" cx="122.446" cy="-18" rx="40.0939" ry="18"/>
<text text-anchor="middle" x="122.446" y="-14.3" font-family="Times New Roman,serif" font-size="14.00">Смерть</text>
</g>
<!-- Юность&#45;&gt;Смерть -->
<g id="edge5" class="edge"><title>Юность&#45;&gt;Смерть</title>
<path fill="none" stroke="black" d="M130.739,-216.179C134.777,-205.937 139.387,-192.464 141.446,-180 149.193,-133.096 138.446,-77.9988 130.237,-45.9381"/>
<polygon fill="black" stroke="black" points="133.543,-44.7517 127.581,-35.9936 126.78,-46.5582 133.543,-44.7517"/>
</g>
<!-- Старость -->
<g id="node4" class="node"><title>Старость</title>
<ellipse fill="none" stroke="black" cx="47.4458" cy="-90" rx="47.3916" ry="18"/>
<text text-anchor="middle" x="47.4458" y="-86.3" font-family="Times New Roman,serif" font-size="14.00">Старость</text>
</g>
<!-- Зрелость&#45;&gt;Старость -->
<g id="edge3" class="edge"><title>Зрелость&#45;&gt;Старость</title>
<path fill="none" stroke="black" d="M77.005,-144.055C72.4061,-135.801 66.7794,-125.701 61.674,-116.538"/>
<polygon fill="black" stroke="black" points="64.7242,-114.821 56.7997,-107.789 58.6092,-118.228 64.7242,-114.821"/>
</g>
<!-- Зрелость&#45;&gt;Смерть -->
<g id="edge6" class="edge"><title>Зрелость&#45;&gt;Смерть</title>
<path fill="none" stroke="black" d="M92.3964,-143.943C95.8787,-133.616 100.212,-120.139 103.446,-108 108.902,-87.5182 113.858,-64.0616 117.339,-46.3729"/>
<polygon fill="black" stroke="black" points="120.847,-46.665 119.307,-36.1827 113.974,-45.3374 120.847,-46.665"/>
</g>
<!-- Старость&#45;&gt;Смерть -->
<g id="edge4" class="edge"><title>Старость&#45;&gt;Смерть</title>
<path fill="none" stroke="black" d="M64.4645,-73.1159C74.5075,-63.7424 87.3777,-51.7302 98.44,-41.4054"/>
<polygon fill="black" stroke="black" points="100.83,-43.962 105.753,-34.5801 96.0541,-38.8446 100.83,-43.962"/>
</g>
</g>
</svg>
