<?xml version="1.0" encoding="UTF-8" standalone="no"?>
<!DOCTYPE svg PUBLIC "-//W3C//DTD SVG 1.1//EN"
 "http://www.w3.org/Graphics/SVG/1.1/DTD/svg11.dtd">
<!-- Generated by graphviz version 2.38.0 (20140413.2041)
 -->
<!-- Title: structs Pages: 1 -->
<svg width="161pt" height="151pt"
 viewBox="0.00 0.00 161.00 151.00" xmlns="http://www.w3.org/2000/svg" xmlns:xlink="http://www.w3.org/1999/xlink">
<g id="graph0" class="graph" transform="scale(1 1) rotate(0) translate(4 147)">
<title>structs</title>
<polygon fill="white" stroke="none" points="-4,4 -4,-147 157,-147 157,4 -4,4"/>
<!-- first -->
<g id="node1" class="node"><title>first</title>
<polygon fill="none" stroke="black" points="26,-73.5 26,-142.5 125,-142.5 125,-73.5 26,-73.5"/>
<text text-anchor="middle" x="42" y="-111.8" font-family="Times New Roman,serif" font-size="14.00">x1</text>
<text text-anchor="middle" x="42" y="-96.8" font-family="Times New Roman,serif" font-size="14.00"> all</text>
<polyline fill="none" stroke="black" points="58,-73.5 58,-142.5 "/>
<text text-anchor="middle" x="76.5" y="-127.3" font-family="Times New Roman,serif" font-size="14.00">x21</text>
<polyline fill="none" stroke="black" points="58,-119.5 95,-119.5 "/>
<text text-anchor="middle" x="76.5" y="-104.3" font-family="Times New Roman,serif" font-size="14.00">x22</text>
<polyline fill="none" stroke="black" points="58,-96.5 95,-96.5 "/>
<text text-anchor="middle" x="76.5" y="-81.3" font-family="Times New Roman,serif" font-size="14.00">x23</text>
<polyline fill="none" stroke="black" points="95,-73.5 95,-142.5 "/>
<text text-anchor="middle" x="110" y="-104.3" font-family="Times New Roman,serif" font-size="14.00">x3</text>
</g>
<!-- second -->
<g id="node2" class="node"><title>second</title>
<polygon fill="none" stroke="black" points="0,-0.5 0,-36.5 153,-36.5 153,-0.5 0,-0.5"/>
<text text-anchor="middle" x="25.5" y="-14.8" font-family="Times New Roman,serif" font-size="14.00">x22_1</text>
<polyline fill="none" stroke="black" points="51,-0.5 51,-36.5 "/>
<text text-anchor="middle" x="76.5" y="-14.8" font-family="Times New Roman,serif" font-size="14.00">x22_2</text>
<polyline fill="none" stroke="black" points="102,-0.5 102,-36.5 "/>
<text text-anchor="middle" x="127.5" y="-14.8" font-family="Times New Roman,serif" font-size="14.00">x22_3</text>
</g>
<!-- first&#45;&gt;second -->
<g id="edge1" class="edge"><title>first:f0&#45;&gt;second</title>
<path fill="none" stroke="black" d="M76.5,-96.4302C76.5,-83.9005 76.5,-63.4725 76.5,-46.8151"/>
<polygon fill="black" stroke="black" points="80.0001,-46.5342 76.5,-36.5342 73.0001,-46.5343 80.0001,-46.5342"/>
</g>
</g>
</svg>
