<?xml version="1.0" encoding="UTF-8" standalone="no"?>
<!DOCTYPE svg PUBLIC "-//W3C//DTD SVG 1.1//EN"
 "http://www.w3.org/Graphics/SVG/1.1/DTD/svg11.dtd">
<!-- Generated by graphviz version 2.38.0 (20140413.2041)
 -->
<!-- Title: G Pages: 1 -->
<svg width="345pt" height="131pt"
 viewBox="0.00 0.00 345.29 130.95" xmlns="http://www.w3.org/2000/svg" xmlns:xlink="http://www.w3.org/1999/xlink">
<g id="graph0" class="graph" transform="scale(1 1) rotate(0) translate(4 126.945)">
<title>G</title>
<polygon fill="white" stroke="none" points="-4,4 -4,-126.945 341.286,-126.945 341.286,4 -4,4"/>
<!-- SGML -->
<g id="node1" class="node"><title>SGML</title>
<g id="a_node1"><a xlink:href="SGML" xlink:title="SGML">
<ellipse fill="none" stroke="black" cx="36.3968" cy="-50.945" rx="36.2938" ry="18"/>
<text text-anchor="middle" x="36.3968" y="-47.245" font-family="Times New Roman,serif" font-size="14.00">SGML</text>
</a>
</g>
</g>
<!-- HTML -->
<g id="node2" class="node"><title>HTML</title>
<g id="a_node2"><a xlink:href="HTML" xlink:title="HTML">
<ellipse fill="none" stroke="black" cx="162.794" cy="-104.945" rx="36.2938" ry="18"/>
<text text-anchor="middle" x="162.794" y="-101.245" font-family="Times New Roman,serif" font-size="14.00">HTML</text>
</a>
</g>
</g>
<!-- SGML&#45;&gt;HTML -->
<g id="edge1" class="edge"><title>SGML&#45;&gt;HTML</title>
<path fill="none" stroke="black" d="M64.389,-62.6622C82.3203,-70.4461 106.072,-80.7568 125.632,-89.2477"/>
<polygon fill="black" stroke="black" points="124.287,-92.4793 134.854,-93.2507 127.075,-86.0581 124.287,-92.4793"/>
</g>
<!-- XML -->
<g id="node3" class="node"><title>XML</title>
<g id="a_node3"><a xlink:href="XML" xlink:title="XML">
<ellipse fill="none" stroke="black" cx="162.794" cy="-50.945" rx="30.5947" ry="18"/>
<text text-anchor="middle" x="162.794" y="-47.245" font-family="Times New Roman,serif" font-size="14.00">XML</text>
</a>
</g>
</g>
<!-- SGML&#45;&gt;XML -->
<g id="edge2" class="edge"><title>SGML&#45;&gt;XML</title>
<path fill="none" stroke="black" d="M73.0439,-50.945C88.2106,-50.945 105.97,-50.945 121.601,-50.945"/>
<polygon fill="black" stroke="black" points="122.025,-54.4451 132.025,-50.945 122.025,-47.4451 122.025,-54.4451"/>
</g>
<!-- XHTML -->
<g id="node4" class="node"><title>XHTML</title>
<g id="a_node4"><a xlink:href="http://www.w3schools.com/xhtml/" xlink:title="XHTML">
<ellipse fill="none" stroke="black" cx="295.04" cy="-50.945" rx="42.4939" ry="18"/>
<text text-anchor="middle" x="295.04" y="-47.245" font-family="Times New Roman,serif" font-size="14.00">XHTML</text>
</a>
</g>
</g>
<!-- SGML&#45;&gt;XHTML -->
<g id="edge5" class="edge"><title>SGML&#45;&gt;XHTML</title>
<g id="a_edge5"><a xlink:href="http://www.google.com" xlink:title="ссылка на Google">
<path fill="none" stroke="red" d="M56.7185,-35.9339C70.6218,-26.1242 90.2894,-14.193 109.794,-8.94504 155.287,3.29569 170.104,2.54207 215.794,-8.94504 232.597,-13.1698 249.727,-21.7794 263.658,-30.1098"/>
<polygon fill="red" stroke="red" points="261.975,-33.1849 272.315,-35.4948 265.672,-27.241 261.975,-33.1849"/>
</a>
</g>
<g id="a_edge5&#45;label"><a xlink:href="http://www.google.com" xlink:title="ссылка на Google">
<text text-anchor="middle" x="162.794" y="-12.745" font-family="Times New Roman,serif" font-size="14.00" fill="blue">ссылка на Google</text>
</a>
</g>
</g>
<!-- HTML&#45;&gt;XHTML -->
<g id="edge3" class="edge"><title>HTML&#45;&gt;XHTML</title>
<path fill="none" stroke="black" d="M191.097,-93.6249C209.515,-85.9891 234.108,-75.7929 254.637,-67.2812"/>
<polygon fill="black" stroke="black" points="256.148,-70.4439 264.045,-63.3809 253.467,-63.9777 256.148,-70.4439"/>
</g>
<!-- XML&#45;&gt;XHTML -->
<g id="edge4" class="edge"><title>XML&#45;&gt;XHTML</title>
<path fill="none" stroke="black" d="M193.348,-50.945C207.893,-50.945 225.851,-50.945 242.556,-50.945"/>
<polygon fill="black" stroke="black" points="242.754,-54.4451 252.754,-50.945 242.754,-47.4451 242.754,-54.4451"/>
</g>
</g>
</svg>
