<?xml version="1.0" encoding="UTF-8" standalone="no"?>
<!DOCTYPE svg PUBLIC "-//W3C//DTD SVG 1.1//EN"
 "http://www.w3.org/Graphics/SVG/1.1/DTD/svg11.dtd">
<!-- Generated by graphviz version 10.0.1 (20240210.2158)
 -->
<!-- Title: G Pages: 1 -->
<svg width="242pt" height="68pt"
 viewBox="0.00 0.00 242.00 67.75" xmlns="http://www.w3.org/2000/svg" xmlns:xlink="http://www.w3.org/1999/xlink">
<g id="graph0" class="graph" transform="scale(1 1) rotate(0) translate(4 63.75)">
<title>G</title>
<polygon fill="white" stroke="none" points="-4,4 -4,-63.75 238,-63.75 238,4 -4,4"/>
<text text-anchor="middle" x="117" y="-6.45" font-family="Times New Roman,serif" font-size="14.00">Node Shapes &#45; digraph G</text>
<!-- node1 -->
<g id="node1" class="node">
<title>node1</title>
<polygon fill="blue" stroke="blue" points="144,-59.75 90,-59.75 90,-23.75 144,-23.75 144,-59.75"/>
<text text-anchor="middle" x="117" y="-36.33" font-family="Times New Roman,serif" font-size="14.00">node1</text>
</g>
<!-- node2 -->
<g id="node2" class="node">
<title>node2</title>
<polygon fill="red" stroke="blue" points="234,-59.75 180,-59.75 180,-23.75 234,-23.75 234,-59.75"/>
<text text-anchor="middle" x="207" y="-36.33" font-family="Times New Roman,serif" font-size="14.00">node2</text>
</g>
<!-- node1&#45;&gt;node2 -->
<g id="edge2" class="edge">
<title>node1&#45;&gt;node2</title>
<path fill="none" stroke="black" d="M144.4,-41.75C151.89,-41.75 160.18,-41.75 168.2,-41.75"/>
<polygon fill="black" stroke="black" points="168.1,-45.25 178.1,-41.75 168.1,-38.25 168.1,-45.25"/>
</g>
<!-- node0 -->
<g id="node3" class="node">
<title>node0</title>
<polygon fill="none" stroke="blue" points="54,-59.75 0,-59.75 0,-23.75 54,-23.75 54,-59.75"/>
<text text-anchor="middle" x="27" y="-36.33" font-family="Times New Roman,serif" font-size="14.00">node0</text>
</g>
<!-- node0&#45;&gt;node1 -->
<g id="edge1" class="edge">
<title>node0&#45;&gt;node1</title>
<path fill="none" stroke="black" d="M54.4,-41.75C61.89,-41.75 70.18,-41.75 78.2,-41.75"/>
<polygon fill="black" stroke="black" points="78.1,-45.25 88.1,-41.75 78.1,-38.25 78.1,-45.25"/>
</g>
</g>
</svg>
