<?xml version="1.0" encoding="UTF-8" standalone="no"?>
<!DOCTYPE svg PUBLIC "-//W3C//DTD SVG 1.1//EN"
 "http://www.w3.org/Graphics/SVG/1.1/DTD/svg11.dtd">
<!-- Generated by graphviz version 10.0.1 (20240210.2158)
 -->
<!-- Title: R Pages: 1 -->
<svg width="297pt" height="69pt"
 viewBox="0.00 0.00 297.28 68.75" xmlns="http://www.w3.org/2000/svg" xmlns:xlink="http://www.w3.org/1999/xlink">
<g id="graph0" class="graph" transform="scale(1 1) rotate(0) translate(4 64.75)">
<title>R</title>
<polygon fill="white" stroke="none" points="-4,4 -4,-64.75 293.28,-64.75 293.28,4 -4,4"/>
<text text-anchor="middle" x="144.64" y="-6.45" font-family="Times New Roman,serif" font-size="14.00">Node Shapes &#45; digraph R</text>
<!-- node1 -->
<g id="node1" class="node">
<title>node1</title>
<path fill="none" stroke="black" d="M42,-60.25C42,-60.25 12,-60.25 12,-60.25 6,-60.25 0,-54.25 0,-48.25 0,-48.25 0,-36.25 0,-36.25 0,-30.25 6,-24.25 12,-24.25 12,-24.25 42,-24.25 42,-24.25 48,-24.25 54,-30.25 54,-36.25 54,-36.25 54,-48.25 54,-48.25 54,-54.25 48,-60.25 42,-60.25"/>
<text text-anchor="middle" x="27" y="-36.83" font-family="Times New Roman,serif" font-size="14.00">node1</text>
</g>
<!-- node2 -->
<g id="node2" class="node">
<title>node2</title>
<path fill="yellow" stroke="black" d="M126.29,-56C126.29,-56 101.22,-46.5 101.22,-46.5 95.61,-44.38 95.61,-40.12 101.22,-38 101.22,-38 126.29,-28.5 126.29,-28.5 131.91,-26.38 143.13,-26.38 148.74,-28.5 148.74,-28.5 173.81,-38 173.81,-38 179.42,-40.12 179.42,-44.38 173.81,-46.5 173.81,-46.5 148.74,-56 148.74,-56 143.13,-58.12 131.91,-58.12 126.29,-56"/>
<text text-anchor="middle" x="137.52" y="-36.83" font-family="Times New Roman,serif" font-size="14.00">node2</text>
</g>
<!-- node1&#45;&gt;node2 -->
<g id="edge1" class="edge">
<title>node1&#45;&gt;node2</title>
<path fill="none" stroke="black" d="M54.27,-42.25C61.35,-42.25 69.3,-42.25 77.4,-42.25"/>
<polygon fill="black" stroke="black" points="77.35,-45.75 87.35,-42.25 77.35,-38.75 77.35,-45.75"/>
</g>
<!-- node3 -->
<g id="node3" class="node">
<title>node3</title>
<path fill="none" stroke="black" d="M233.03,-24.25C233.03,-24.25 277.28,-24.25 277.28,-24.25 283.28,-24.25 289.28,-30.25 289.28,-36.25 289.28,-36.25 289.28,-48.25 289.28,-48.25 289.28,-54.25 283.28,-60.25 277.28,-60.25 277.28,-60.25 233.03,-60.25 233.03,-60.25 227.03,-60.25 221.03,-54.25 221.03,-48.25 221.03,-48.25 221.03,-36.25 221.03,-36.25 221.03,-30.25 227.03,-24.25 233.03,-24.25"/>
<text text-anchor="middle" x="232.03" y="-36.95" font-family="Times New Roman,serif" font-size="14.00">a</text>
<polyline fill="none" stroke="black" points="243.03,-24.5 243.03,-60.25"/>
<text text-anchor="middle" x="254.78" y="-36.95" font-family="Times New Roman,serif" font-size="14.00">b</text>
<polyline fill="none" stroke="black" points="266.53,-24.5 266.53,-60.25"/>
<text text-anchor="middle" x="277.91" y="-36.95" font-family="Times New Roman,serif" font-size="14.00">c</text>
</g>
<!-- node2&#45;&gt;node3 -->
<g id="edge2" class="edge">
<title>node2&#45;&gt;node3</title>
<path fill="none" stroke="black" d="M186.22,-42.25C193.81,-42.25 201.65,-42.25 209.18,-42.25"/>
<polygon fill="black" stroke="black" points="209.16,-45.75 219.16,-42.25 209.16,-38.75 209.16,-45.75"/>
</g>
</g>
</svg>
