<?xml version="1.0" encoding="UTF-8" standalone="no"?>
<!DOCTYPE svg PUBLIC "-//W3C//DTD SVG 1.1//EN"
 "http://www.w3.org/Graphics/SVG/1.1/DTD/svg11.dtd">
<!-- Generated by graphviz version 10.0.1 (20240210.2158)
 -->
<!-- Title: G Pages: 1 -->
<svg width="238pt" height="580pt"
 viewBox="0.00 0.00 238.10 579.50" xmlns="http://www.w3.org/2000/svg" xmlns:xlink="http://www.w3.org/1999/xlink">
<g id="graph0" class="graph" transform="scale(1 1) rotate(0) translate(4 575.5)">
<title>G</title>
<polygon fill="white" stroke="none" points="-4,4 -4,-575.5 234.1,-575.5 234.1,4 -4,4"/>
<text text-anchor="middle" x="115.05" y="-6.45" font-family="Times New Roman,serif" font-size="14.00">Entity relation diagram (Dot)</text>
<!-- name -->
<g id="node1" class="node">
<title>name</title>
<ellipse fill="none" stroke="black" cx="89.1" cy="-553.5" rx="30.11" ry="18"/>
<text text-anchor="middle" x="89.1" y="-548.08" font-family="Times New Roman,serif" font-size="14.00">name</text>
</g>
<!-- course -->
<g id="node2" class="node">
<title>course</title>
<ellipse fill="none" stroke="black" cx="163.1" cy="-480.5" rx="35.6" ry="18"/>
<text text-anchor="middle" x="163.1" y="-475.07" font-family="Times New Roman,serif" font-size="14.00">course</text>
</g>
<!-- name&#45;&#45;course -->
<g id="edge1" class="edge">
<title>name&#45;&#45;course</title>
<path fill="none" stroke="black" d="M104.44,-537.79C116.88,-525.85 134.38,-509.06 147.02,-496.93"/>
</g>
<!-- CI -->
<g id="node4" class="node">
<title>CI</title>
<ellipse fill="none" stroke="black" cx="148.1" cy="-392.75" rx="27" ry="18"/>
<text text-anchor="middle" x="148.1" y="-387.32" font-family="Times New Roman,serif" font-size="14.00">CI</text>
</g>
<!-- course&#45;&#45;CI -->
<g id="edge3" class="edge">
<title>course&#45;&#45;CI</title>
<path fill="none" stroke="black" d="M160.07,-462.15C157.47,-447.27 153.74,-425.95 151.14,-411.08"/>
<text text-anchor="middle" x="160.48" y="-431.2" font-family="Times New Roman,serif" font-size="14.00">n</text>
</g>
<!-- SC -->
<g id="node5" class="node">
<title>SC</title>
<ellipse fill="none" stroke="black" cx="203.1" cy="-41.75" rx="27" ry="18"/>
<text text-anchor="middle" x="203.1" y="-36.33" font-family="Times New Roman,serif" font-size="14.00">SC</text>
</g>
<!-- course&#45;&#45;SC -->
<g id="edge4" class="edge">
<title>course&#45;&#45;SC</title>
<path fill="none" stroke="black" d="M175.76,-463.46C187.48,-446.96 203.1,-420.03 203.1,-393.75 203.1,-393.75 203.1,-393.75 203.1,-128.5 203.1,-104.83 203.1,-77.48 203.1,-60.16"/>
<text text-anchor="middle" x="206.48" y="-255.7" font-family="Times New Roman,serif" font-size="14.00">n</text>
</g>
<!-- code -->
<g id="node3" class="node">
<title>code</title>
<ellipse fill="none" stroke="black" cx="166.1" cy="-553.5" rx="29.11" ry="18"/>
<text text-anchor="middle" x="166.1" y="-548.08" font-family="Times New Roman,serif" font-size="14.00">code</text>
</g>
<!-- code&#45;&#45;course -->
<g id="edge2" class="edge">
<title>code&#45;&#45;course</title>
<path fill="none" stroke="black" d="M165.38,-535.31C164.91,-524.15 164.29,-509.66 163.82,-498.53"/>
</g>
<!-- Institute -->
<g id="node6" class="node">
<title>Institute</title>
<ellipse fill="none" stroke="black" cx="123.1" cy="-305" rx="40.09" ry="18"/>
<text text-anchor="middle" x="123.1" y="-299.57" font-family="Times New Roman,serif" font-size="14.00">Institute</text>
</g>
<!-- CI&#45;&#45;Institute -->
<g id="edge5" class="edge">
<title>CI&#45;&#45;Institute</title>
<path fill="none" stroke="black" d="M143.16,-374.81C138.81,-359.87 132.5,-338.21 128.12,-323.2"/>
<text text-anchor="middle" x="139.6" y="-343.45" font-family="Times New Roman,serif" font-size="14.00">l</text>
</g>
<!-- Institute&#45;&#45;name -->
<g id="edge6" class="edge">
<title>Institute&#45;&#45;name</title>
<path fill="none" stroke="black" d="M120.2,-323.21C117.9,-337.11 114.65,-357.16 112.1,-374.75 103.62,-433.42 95.02,-503.2 91.18,-535.07"/>
</g>
<!-- SI -->
<g id="node7" class="node">
<title>SI</title>
<ellipse fill="none" stroke="black" cx="122.1" cy="-217.25" rx="27" ry="18"/>
<text text-anchor="middle" x="122.1" y="-211.82" font-family="Times New Roman,serif" font-size="14.00">SI</text>
</g>
<!-- Institute&#45;&#45;SI -->
<g id="edge7" class="edge">
<title>Institute&#45;&#45;SI</title>
<path fill="none" stroke="black" d="M122.9,-286.65C122.73,-271.77 122.48,-250.45 122.31,-235.58"/>
<text text-anchor="middle" x="124.6" y="-255.7" font-family="Times New Roman,serif" font-size="14.00">l</text>
</g>
<!-- student -->
<g id="node8" class="node">
<title>student</title>
<ellipse fill="none" stroke="black" cx="119.1" cy="-129.5" rx="37.59" ry="18"/>
<text text-anchor="middle" x="119.1" y="-124.08" font-family="Times New Roman,serif" font-size="14.00">student</text>
</g>
<!-- SI&#45;&#45;student -->
<g id="edge8" class="edge">
<title>SI&#45;&#45;student</title>
<path fill="none" stroke="black" d="M121.5,-198.9C120.98,-184.02 120.23,-162.7 119.71,-147.83"/>
<text text-anchor="middle" x="124.48" y="-167.95" font-family="Times New Roman,serif" font-size="14.00">n</text>
</g>
<!-- student&#45;&#45;name -->
<g id="edge9" class="edge">
<title>student&#45;&#45;name</title>
<path fill="none" stroke="black" d="M98.85,-145.09C80.1,-160.46 55.1,-186.53 55.1,-216.25 55.1,-481.5 55.1,-481.5 55.1,-481.5 55.1,-502.14 66.93,-523.13 76.64,-536.88"/>
</g>
<!-- student&#45;&#45;SC -->
<g id="edge12" class="edge">
<title>student&#45;&#45;SC</title>
<path fill="none" stroke="black" d="M134.51,-112.77C150.05,-96.91 173.83,-72.64 188.91,-57.24"/>
<text text-anchor="middle" x="173.35" y="-80.2" font-family="Times New Roman,serif" font-size="14.00">m</text>
</g>
<!-- grade -->
<g id="node9" class="node">
<title>grade</title>
<ellipse fill="none" stroke="black" cx="31.1" cy="-41.75" rx="31.1" ry="18"/>
<text text-anchor="middle" x="31.1" y="-36.33" font-family="Times New Roman,serif" font-size="14.00">grade</text>
</g>
<!-- student&#45;&#45;grade -->
<g id="edge10" class="edge">
<title>student&#45;&#45;grade</title>
<path fill="none" stroke="black" d="M102.96,-112.77C86.89,-97.11 62.38,-73.23 46.55,-57.8"/>
</g>
<!-- number -->
<g id="node10" class="node">
<title>number</title>
<ellipse fill="none" stroke="black" cx="119.1" cy="-41.75" rx="38.59" ry="18"/>
<text text-anchor="middle" x="119.1" y="-36.33" font-family="Times New Roman,serif" font-size="14.00">number</text>
</g>
<!-- student&#45;&#45;number -->
<g id="edge11" class="edge">
<title>student&#45;&#45;number</title>
<path fill="none" stroke="black" d="M119.1,-111.15C119.1,-96.27 119.1,-74.95 119.1,-60.08"/>
</g>
</g>
</svg>
