<?xml version="1.0" encoding="UTF-8" standalone="no"?>
<!DOCTYPE svg PUBLIC "-//W3C//DTD SVG 1.1//EN"
 "http://www.w3.org/Graphics/SVG/1.1/DTD/svg11.dtd">
<!-- Generated by graphviz version 10.0.1 (20240210.2158)
 -->
<!-- Title: G Pages: 1 -->
<svg width="340pt" height="208pt"
 viewBox="0.00 0.00 340.00 207.75" xmlns="http://www.w3.org/2000/svg" xmlns:xlink="http://www.w3.org/1999/xlink">
<g id="graph0" class="graph" transform="scale(1 1) rotate(0) translate(4 203.75)">
<title>G</title>
<polygon fill="white" stroke="none" points="-4,4 -4,-203.75 336,-203.75 336,4 -4,4"/>
<text text-anchor="middle" x="166" y="-6.45" font-family="Times New Roman,serif" font-size="14.00">Subgraph (cluster) sample</text>
<g id="clust1" class="cluster">
<title>cluster0</title>
<polygon fill="lightgrey" stroke="lightgrey" points="82,-115.75 82,-191.75 246,-191.75 246,-115.75 82,-115.75"/>
<text text-anchor="middle" x="164" y="-174.45" font-family="Times New Roman,serif" font-size="14.00">process #1</text>
</g>
<g id="clust2" class="cluster">
<title>cluster1</title>
<polygon fill="none" stroke="blue" points="172,-31.75 172,-107.75 250,-107.75 250,-31.75 172,-31.75"/>
<text text-anchor="middle" x="211" y="-90.45" font-family="Times New Roman,serif" font-size="14.00">process #2</text>
</g>
<!-- a0 -->
<g id="node1" class="node">
<title>a0</title>
<ellipse fill="white" stroke="white" cx="117" cy="-141.75" rx="27" ry="18"/>
<text text-anchor="middle" x="117" y="-136.32" font-family="Times New Roman,serif" font-size="14.00">a0</text>
</g>
<!-- a1 -->
<g id="node2" class="node">
<title>a1</title>
<ellipse fill="white" stroke="white" cx="211" cy="-141.75" rx="27" ry="18"/>
<text text-anchor="middle" x="211" y="-136.32" font-family="Times New Roman,serif" font-size="14.00">a1</text>
</g>
<!-- a0&#45;&gt;a1 -->
<g id="edge3" class="edge">
<title>a0&#45;&gt;a1</title>
<path fill="none" stroke="black" d="M144.12,-141.75C152.96,-141.75 163.01,-141.75 172.55,-141.75"/>
<polygon fill="black" stroke="black" points="172.3,-145.25 182.3,-141.75 172.3,-138.25 172.3,-145.25"/>
</g>
<!-- end -->
<g id="node5" class="node">
<title>end</title>
<ellipse fill="none" stroke="black" cx="305" cy="-99.75" rx="27" ry="18"/>
<text text-anchor="middle" x="305" y="-94.33" font-family="Times New Roman,serif" font-size="14.00">end</text>
</g>
<!-- a1&#45;&gt;end -->
<g id="edge4" class="edge">
<title>a1&#45;&gt;end</title>
<path fill="none" stroke="black" d="M233.8,-131.8C245.18,-126.6 259.31,-120.15 271.91,-114.4"/>
<polygon fill="black" stroke="black" points="273.01,-117.74 280.66,-110.41 270.11,-111.38 273.01,-117.74"/>
</g>
<!-- b0 -->
<g id="node3" class="node">
<title>b0</title>
<ellipse fill="lightgrey" stroke="black" cx="211" cy="-57.75" rx="27" ry="18"/>
<text text-anchor="middle" x="211" y="-52.33" font-family="Times New Roman,serif" font-size="14.00">b0</text>
</g>
<!-- b0&#45;&gt;end -->
<g id="edge5" class="edge">
<title>b0&#45;&gt;end</title>
<path fill="none" stroke="black" d="M233.8,-67.7C245.18,-72.9 259.31,-79.35 271.91,-85.1"/>
<polygon fill="black" stroke="black" points="270.11,-88.12 280.66,-89.09 273.01,-81.76 270.11,-88.12"/>
</g>
<!-- start -->
<g id="node4" class="node">
<title>start</title>
<ellipse fill="none" stroke="black" cx="27" cy="-118.75" rx="27" ry="18"/>
<text text-anchor="middle" x="27" y="-113.33" font-family="Times New Roman,serif" font-size="14.00">start</text>
</g>
<!-- start&#45;&gt;a0 -->
<g id="edge1" class="edge">
<title>start&#45;&gt;a0</title>
<path fill="none" stroke="black" d="M52.51,-125.16C61.12,-127.41 70.97,-129.98 80.3,-132.42"/>
<polygon fill="black" stroke="black" points="79.29,-135.77 89.85,-134.92 81.06,-129 79.29,-135.77"/>
</g>
<!-- start&#45;&gt;b0 -->
<g id="edge2" class="edge">
<title>start&#45;&gt;b0</title>
<path fill="none" stroke="black" d="M51.79,-110.78C83.4,-100.18 139.46,-81.39 175.65,-69.26"/>
<polygon fill="black" stroke="black" points="176.4,-72.7 184.77,-66.21 174.17,-66.07 176.4,-72.7"/>
</g>
</g>
</svg>
