<?xml version="1.0" encoding="UTF-8" standalone="no"?>
<!DOCTYPE svg PUBLIC "-//W3C//DTD SVG 1.1//EN"
 "http://www.w3.org/Graphics/SVG/1.1/DTD/svg11.dtd">
<!-- Generated by graphviz version 2.38.0 (20140413.2041)
 -->
<!-- Title: G Pages: 1 -->
<svg width="447pt" height="391pt"
 viewBox="0.00 0.00 447.47 391.00" xmlns="http://www.w3.org/2000/svg" xmlns:xlink="http://www.w3.org/1999/xlink">
<g id="graph0" class="graph" transform="scale(1 1) rotate(0) translate(4 387)">
<title>G</title>
<polygon fill="white" stroke="none" points="-4,4 -4,-387 443.47,-387 443.47,4 -4,4"/>
<text text-anchor="middle" x="219.735" y="-7.8" font-family="Times New Roman,serif" font-size="14.00">Entity relation diagram (Twopi)</text>
<!-- name -->
<g id="node1" class="node"><title>name</title>
<ellipse fill="none" stroke="black" cx="189.408" cy="-211.354" rx="29.795" ry="18"/>
<text text-anchor="middle" x="189.408" y="-207.654" font-family="Times New Roman,serif" font-size="14.00">name</text>
</g>
<!-- course -->
<g id="node2" class="node"><title>course</title>
<ellipse fill="none" stroke="black" cx="297.408" cy="-273.708" rx="35.194" ry="18"/>
<text text-anchor="middle" x="297.408" y="-270.008" font-family="Times New Roman,serif" font-size="14.00">course</text>
</g>
<!-- name&#45;&#45;course -->
<g id="edge1" class="edge"><title>name&#45;&#45;course</title>
<path fill="none" stroke="black" d="M211.004,-223.822C229.225,-234.342 255.257,-249.371 273.978,-260.18"/>
</g>
<!-- CI -->
<g id="node4" class="node"><title>CI</title>
<ellipse fill="none" stroke="black" cx="287.762" cy="-113" rx="27" ry="18"/>
<text text-anchor="middle" x="287.762" y="-109.3" font-family="Times New Roman,serif" font-size="14.00">CI</text>
</g>
<!-- course&#45;&#45;CI -->
<g id="edge3" class="edge"><title>course&#45;&#45;CI</title>
<path fill="none" stroke="black" d="M296.32,-255.585C294.468,-224.72 290.72,-162.291 288.861,-131.303"/>
<text text-anchor="middle" x="289.09" y="-197.244" font-family="Times New Roman,serif" font-size="14.00">n</text>
</g>
<!-- SC -->
<g id="node5" class="node"><title>SC</title>
<ellipse fill="none" stroke="black" cx="412.47" cy="-257" rx="27" ry="18"/>
<text text-anchor="middle" x="412.47" y="-253.3" font-family="Times New Roman,serif" font-size="14.00">SC</text>
</g>
<!-- course&#45;&#45;SC -->
<g id="edge4" class="edge"><title>course&#45;&#45;SC</title>
<path fill="none" stroke="black" d="M331.308,-268.785C348.676,-266.263 369.521,-263.236 385.738,-260.882"/>
<text text-anchor="middle" x="355.023" y="-268.633" font-family="Times New Roman,serif" font-size="14.00">n</text>
</g>
<!-- code -->
<g id="node3" class="node"><title>code</title>
<ellipse fill="none" stroke="black" cx="225.408" cy="-365" rx="28.6953" ry="18"/>
<text text-anchor="middle" x="225.408" y="-361.3" font-family="Times New Roman,serif" font-size="14.00">code</text>
</g>
<!-- code&#45;&#45;course -->
<g id="edge2" class="edge"><title>code&#45;&#45;course</title>
<path fill="none" stroke="black" d="M238.28,-348.679C251.224,-332.267 271.085,-307.084 284.16,-290.505"/>
</g>
<!-- Institute -->
<g id="node6" class="node"><title>Institute</title>
<ellipse fill="none" stroke="black" cx="225.408" cy="-149" rx="39.7935" ry="18"/>
<text text-anchor="middle" x="225.408" y="-145.3" font-family="Times New Roman,serif" font-size="14.00">Institute</text>
</g>
<!-- CI&#45;&#45;Institute -->
<g id="edge5" class="edge"><title>CI&#45;&#45;Institute</title>
<path fill="none" stroke="black" d="M267.345,-124.788C261.804,-127.987 255.747,-131.484 250.002,-134.801"/>
<text text-anchor="middle" x="256.673" y="-118.594" font-family="Times New Roman,serif" font-size="14.00">l</text>
</g>
<!-- Institute&#45;&#45;name -->
<g id="edge6" class="edge"><title>Institute&#45;&#45;name</title>
<path fill="none" stroke="black" d="M215.188,-166.701C210.199,-175.342 204.223,-185.694 199.281,-194.254"/>
</g>
<!-- SI -->
<g id="node7" class="node"><title>SI</title>
<ellipse fill="none" stroke="black" cx="225.408" cy="-77" rx="27" ry="18"/>
<text text-anchor="middle" x="225.408" y="-73.3" font-family="Times New Roman,serif" font-size="14.00">SI</text>
</g>
<!-- Institute&#45;&#45;SI -->
<g id="edge7" class="edge"><title>Institute&#45;&#45;SI</title>
<path fill="none" stroke="black" d="M225.408,-130.831C225.408,-120 225.408,-106.288 225.408,-95.4133"/>
<text text-anchor="middle" x="223.408" y="-116.922" font-family="Times New Roman,serif" font-size="14.00">l</text>
</g>
<!-- student -->
<g id="node8" class="node"><title>student</title>
<ellipse fill="none" stroke="black" cx="81.4081" cy="-149" rx="37.0935" ry="18"/>
<text text-anchor="middle" x="81.4081" y="-145.3" font-family="Times New Roman,serif" font-size="14.00">student</text>
</g>
<!-- SI&#45;&#45;student -->
<g id="edge8" class="edge"><title>SI&#45;&#45;student</title>
<path fill="none" stroke="black" d="M203.538,-87.9353C177.731,-100.839 134.867,-122.271 107.392,-136.008"/>
<text text-anchor="middle" x="151.965" y="-115.772" font-family="Times New Roman,serif" font-size="14.00">n</text>
</g>
<!-- student&#45;&#45;name -->
<g id="edge9" class="edge"><title>student&#45;&#45;name</title>
<path fill="none" stroke="black" d="M105.377,-162.838C124.02,-173.602 149.666,-188.408 167.707,-198.825"/>
</g>
<!-- student&#45;&#45;SC -->
<g id="edge12" class="edge"><title>student&#45;&#45;SC</title>
<path fill="none" stroke="black" d="M112.256,-159.063C177.588,-180.376 328.757,-229.691 388.013,-249.022"/>
<text text-anchor="middle" x="244.635" y="-207.843" font-family="Times New Roman,serif" font-size="14.00">m</text>
</g>
<!-- grade -->
<g id="node9" class="node"><title>grade</title>
<ellipse fill="none" stroke="black" cx="38.3466" cy="-257" rx="30.5947" ry="18"/>
<text text-anchor="middle" x="38.3466" y="-253.3" font-family="Times New Roman,serif" font-size="14.00">grade</text>
</g>
<!-- student&#45;&#45;grade -->
<g id="edge10" class="edge"><title>student&#45;&#45;grade</title>
<path fill="none" stroke="black" d="M74.2974,-166.834C66.3188,-186.845 53.4508,-219.118 45.4679,-239.14"/>
</g>
<!-- number -->
<g id="node10" class="node"><title>number</title>
<ellipse fill="none" stroke="black" cx="38.3466" cy="-41" rx="38.1938" ry="18"/>
<text text-anchor="middle" x="38.3466" y="-37.3" font-family="Times New Roman,serif" font-size="14.00">number</text>
</g>
<!-- student&#45;&#45;number -->
<g id="edge11" class="edge"><title>student&#45;&#45;number</title>
<path fill="none" stroke="black" d="M74.2974,-131.166C66.3188,-111.155 53.4508,-78.882 45.4679,-58.8605"/>
</g>
</g>
</svg>
