<?xml version="1.0" encoding="UTF-8" standalone="no"?>
<!DOCTYPE svg PUBLIC "-//W3C//DTD SVG 1.1//EN"
 "http://www.w3.org/Graphics/SVG/1.1/DTD/svg11.dtd">
<!-- Generated by graphviz version 2.38.0 (20140413.2041)
 -->
<!-- Title: G Pages: 1 -->
<svg width="341pt" height="205pt"
 viewBox="0.00 0.00 341.00 205.00" xmlns="http://www.w3.org/2000/svg" xmlns:xlink="http://www.w3.org/1999/xlink">
<g id="graph0" class="graph" transform="scale(1 1) rotate(0) translate(4 201)">
<title>G</title>
<polygon fill="white" stroke="none" points="-4,4 -4,-201 337,-201 337,4 -4,4"/>
<text text-anchor="middle" x="166.5" y="-7.8" font-family="Times New Roman,serif" font-size="14.00">Subgraph (cluster) sample</text>
<g id="clust2" class="cluster"><title>cluster1</title>
<polygon fill="none" stroke="blue" points="82,-31 82,-106 161,-106 161,-31 82,-31"/>
<text text-anchor="middle" x="121.5" y="-90.8" font-family="Times New Roman,serif" font-size="14.00">process #2</text>
</g>
<g id="clust1" class="cluster"><title>cluster0</title>
<polygon fill="lightgrey" stroke="lightgrey" points="86,-114 86,-189 251,-189 251,-114 86,-114"/>
<text text-anchor="middle" x="168.5" y="-173.8" font-family="Times New Roman,serif" font-size="14.00">process #1</text>
</g>
<!-- a0 -->
<g id="node1" class="node"><title>a0</title>
<ellipse fill="white" stroke="white" cx="121" cy="-140" rx="27" ry="18"/>
<text text-anchor="middle" x="121" y="-136.3" font-family="Times New Roman,serif" font-size="14.00">a0</text>
</g>
<!-- a1 -->
<g id="node2" class="node"><title>a1</title>
<ellipse fill="white" stroke="white" cx="216" cy="-140" rx="27" ry="18"/>
<text text-anchor="middle" x="216" y="-136.3" font-family="Times New Roman,serif" font-size="14.00">a1</text>
</g>
<!-- a0&#45;&gt;a1 -->
<g id="edge3" class="edge"><title>a0&#45;&gt;a1</title>
<path fill="none" stroke="black" d="M148.401,-140C157.807,-140 168.572,-140 178.665,-140"/>
<polygon fill="black" stroke="black" points="178.855,-143.5 188.855,-140 178.855,-136.5 178.855,-143.5"/>
</g>
<!-- end -->
<g id="node5" class="node"><title>end</title>
<ellipse fill="none" stroke="black" cx="306" cy="-107" rx="27" ry="18"/>
<text text-anchor="middle" x="306" y="-103.3" font-family="Times New Roman,serif" font-size="14.00">end</text>
</g>
<!-- a1&#45;&gt;end -->
<g id="edge4" class="edge"><title>a1&#45;&gt;end</title>
<path fill="none" stroke="black" d="M240.121,-131.33C250.024,-127.616 261.764,-123.213 272.517,-119.181"/>
<polygon fill="black" stroke="black" points="273.899,-122.401 282.033,-115.612 271.441,-115.847 273.899,-122.401"/>
</g>
<!-- b0 -->
<g id="node3" class="node"><title>b0</title>
<ellipse fill="lightgrey" stroke="black" cx="121" cy="-57" rx="27" ry="18"/>
<text text-anchor="middle" x="121" y="-53.3" font-family="Times New Roman,serif" font-size="14.00">b0</text>
</g>
<!-- b0&#45;&gt;end -->
<g id="edge5" class="edge"><title>b0&#45;&gt;end</title>
<path fill="none" stroke="black" d="M146.301,-63.6396C178.294,-72.381 234.716,-87.7968 270.951,-97.697"/>
<polygon fill="black" stroke="black" points="270.03,-101.073 280.599,-100.333 271.875,-94.321 270.03,-101.073"/>
</g>
<!-- start -->
<g id="node4" class="node"><title>start</title>
<ellipse fill="none" stroke="black" cx="27" cy="-98" rx="27" ry="18"/>
<text text-anchor="middle" x="27" y="-94.3" font-family="Times New Roman,serif" font-size="14.00">start</text>
</g>
<!-- start&#45;&gt;a0 -->
<g id="edge1" class="edge"><title>start&#45;&gt;a0</title>
<path fill="none" stroke="black" d="M49.8027,-107.953C61.4893,-113.289 76.0889,-119.954 88.9423,-125.821"/>
<polygon fill="black" stroke="black" points="87.8034,-129.149 98.3538,-130.118 90.7104,-122.781 87.8034,-129.149"/>
</g>
<!-- start&#45;&gt;b0 -->
<g id="edge2" class="edge"><title>start&#45;&gt;b0</title>
<path fill="none" stroke="black" d="M49.8027,-88.2836C61.4046,-83.1132 75.8774,-76.6633 88.6626,-70.9656"/>
<polygon fill="black" stroke="black" points="90.3257,-74.0563 98.035,-66.7888 87.4762,-67.6625 90.3257,-74.0563"/>
</g>
</g>
</svg>
