<?xml version="1.0" encoding="UTF-8" standalone="no"?>
<!DOCTYPE svg PUBLIC "-//W3C//DTD SVG 1.1//EN"
 "http://www.w3.org/Graphics/SVG/1.1/DTD/svg11.dtd">
<!-- Generated by graphviz version 10.0.1 (20240210.2158)
 -->
<!-- Title: structs Pages: 1 -->
<svg width="303pt" height="334pt"
 viewBox="0.00 0.00 303.00 333.75" xmlns="http://www.w3.org/2000/svg" xmlns:xlink="http://www.w3.org/1999/xlink">
<g id="graph0" class="graph" transform="scale(1 1) rotate(0) translate(4 329.75)">
<title>structs</title>
<polygon fill="white" stroke="none" points="-4,4 -4,-329.75 299,-329.75 299,4 -4,4"/>
<text text-anchor="middle" x="147.5" y="-6.45" font-family="Times New Roman,serif" font-size="14.00">Flat Trie</text>
<!-- l1 -->
<g id="node1" class="node">
<title>l1</title>
<polygon fill="none" stroke="black" points="87.62,-277.75 87.62,-325.25 157.38,-325.25 157.38,-277.75 87.62,-277.75"/>
<text text-anchor="middle" x="99" y="-307.95" font-family="Times New Roman,serif" font-size="14.00">!</text>
<polyline fill="none" stroke="black" points="87.62,-301.5 110.38,-301.5"/>
<text text-anchor="middle" x="99" y="-284.2" font-family="Times New Roman,serif" font-size="14.00">0</text>
<polyline fill="none" stroke="black" points="110.38,-277.75 110.38,-325.25"/>
<text text-anchor="middle" x="122.5" y="-307.95" font-family="Times New Roman,serif" font-size="14.00">+</text>
<polyline fill="none" stroke="black" points="110.38,-301.5 134.62,-301.5"/>
<text text-anchor="middle" x="122.5" y="-284.2" font-family="Times New Roman,serif" font-size="14.00">1</text>
<polyline fill="none" stroke="black" points="134.62,-277.75 134.62,-325.25"/>
<text text-anchor="middle" x="146" y="-307.95" font-family="Times New Roman,serif" font-size="14.00">&#45;</text>
<polyline fill="none" stroke="black" points="134.62,-301.5 157.38,-301.5"/>
<text text-anchor="middle" x="146" y="-284.2" font-family="Times New Roman,serif" font-size="14.00">2</text>
</g>
<!-- l2 -->
<g id="node2" class="node">
<title>l2</title>
<polygon fill="none" stroke="black" points="15.25,-193.25 15.25,-240.75 275.75,-240.75 275.75,-193.25 15.25,-193.25"/>
<text text-anchor="middle" x="27.38" y="-223.45" font-family="Times New Roman,serif" font-size="14.00">+</text>
<polyline fill="none" stroke="black" points="15.25,-217 39.5,-217"/>
<text text-anchor="middle" x="27.38" y="-199.7" font-family="Times New Roman,serif" font-size="14.00">4</text>
<polyline fill="none" stroke="black" points="39.5,-193.25 39.5,-240.75"/>
<text text-anchor="middle" x="50.88" y="-223.45" font-family="Times New Roman,serif" font-size="14.00">&#45;</text>
<polyline fill="none" stroke="black" points="39.5,-217 62.25,-217"/>
<text text-anchor="middle" x="50.88" y="-199.7" font-family="Times New Roman,serif" font-size="14.00">5</text>
<polyline fill="none" stroke="black" points="62.25,-193.25 62.25,-240.75"/>
<text text-anchor="middle" x="74.38" y="-223.45" font-family="Times New Roman,serif" font-size="14.00">=</text>
<polyline fill="none" stroke="black" points="62.25,-217 86.5,-217"/>
<text text-anchor="middle" x="74.38" y="-199.7" font-family="Times New Roman,serif" font-size="14.00">6</text>
<polyline fill="none" stroke="black" points="86.5,-193.25 86.5,-240.75"/>
<text text-anchor="middle" x="98.62" y="-223.45" font-family="Times New Roman,serif" font-size="14.00">&gt;</text>
<polyline fill="none" stroke="black" points="86.5,-217 110.75,-217"/>
<text text-anchor="middle" x="98.62" y="-199.7" font-family="Times New Roman,serif" font-size="14.00">7</text>
<polyline fill="none" stroke="black" points="110.75,-193.25 110.75,-240.75"/>
<text text-anchor="middle" x="122.88" y="-223.45" font-family="Times New Roman,serif" font-size="14.00">+</text>
<polyline fill="none" stroke="black" points="110.75,-217 135,-217"/>
<text text-anchor="middle" x="122.88" y="-199.7" font-family="Times New Roman,serif" font-size="14.00">8</text>
<polyline fill="none" stroke="black" points="135,-193.25 135,-240.75"/>
<text text-anchor="middle" x="146.38" y="-223.45" font-family="Times New Roman,serif" font-size="14.00">&#45;</text>
<polyline fill="none" stroke="black" points="135,-217 157.75,-217"/>
<text text-anchor="middle" x="146.38" y="-199.7" font-family="Times New Roman,serif" font-size="14.00">9</text>
<polyline fill="none" stroke="black" points="157.75,-193.25 157.75,-240.75"/>
<text text-anchor="middle" x="172.5" y="-223.45" font-family="Times New Roman,serif" font-size="14.00">=</text>
<polyline fill="none" stroke="black" points="157.75,-217 187.25,-217"/>
<text text-anchor="middle" x="172.5" y="-199.7" font-family="Times New Roman,serif" font-size="14.00">10</text>
<polyline fill="none" stroke="black" points="187.25,-193.25 187.25,-240.75"/>
<text text-anchor="middle" x="202" y="-223.45" font-family="Times New Roman,serif" font-size="14.00">&#45;</text>
<polyline fill="none" stroke="black" points="187.25,-217 216.75,-217"/>
<text text-anchor="middle" x="202" y="-199.7" font-family="Times New Roman,serif" font-size="14.00">11</text>
<polyline fill="none" stroke="black" points="216.75,-193.25 216.75,-240.75"/>
<text text-anchor="middle" x="231.5" y="-223.45" font-family="Times New Roman,serif" font-size="14.00">=</text>
<polyline fill="none" stroke="black" points="216.75,-217 246.25,-217"/>
<text text-anchor="middle" x="231.5" y="-199.7" font-family="Times New Roman,serif" font-size="14.00">12</text>
<polyline fill="none" stroke="black" points="246.25,-193.25 246.25,-240.75"/>
<text text-anchor="middle" x="261" y="-223.45" font-family="Times New Roman,serif" font-size="14.00">&gt;</text>
<polyline fill="none" stroke="black" points="246.25,-217 275.75,-217"/>
<text text-anchor="middle" x="261" y="-199.7" font-family="Times New Roman,serif" font-size="14.00">13</text>
</g>
<!-- l1&#45;&gt;l2 -->
<g id="edge1" class="edge">
<title>l1:f0&#45;&gt;l2:t4</title>
<path fill="none" stroke="black" d="M98.5,-277.25C98.5,-246.57 45.11,-268.63 30.92,-251.96"/>
<polygon fill="black" stroke="black" points="34.34,-251.15 27.96,-242.69 27.67,-253.28 34.34,-251.15"/>
</g>
<!-- l1&#45;&gt;l2 -->
<g id="edge2" class="edge">
<title>l1:f1&#45;&gt;l2:t8</title>
<path fill="none" stroke="black" d="M122.5,-277.25C122.5,-265.88 122.5,-260.57 122.5,-252.7"/>
<polygon fill="black" stroke="black" points="126,-252.76 122.5,-242.76 119,-252.76 126,-252.76"/>
</g>
<!-- l1&#45;&gt;l2 -->
<g id="edge3" class="edge">
<title>l1:f2&#45;&gt;l2:t11</title>
<path fill="none" stroke="black" d="M146.5,-277.25C146.5,-252.52 185.63,-264.65 198.47,-252.02"/>
<polygon fill="black" stroke="black" points="201.74,-253.26 201.97,-242.67 195.19,-250.81 201.74,-253.26"/>
</g>
<!-- l3 -->
<g id="node3" class="node">
<title>l3</title>
<polygon fill="none" stroke="black" points="0,-108.75 0,-156.25 295,-156.25 295,-108.75 0,-108.75"/>
<text text-anchor="middle" x="14.75" y="-138.95" font-family="Times New Roman,serif" font-size="14.00">+</text>
<polyline fill="none" stroke="black" points="0,-132.5 29.5,-132.5"/>
<text text-anchor="middle" x="14.75" y="-115.2" font-family="Times New Roman,serif" font-size="14.00">14</text>
<polyline fill="none" stroke="black" points="29.5,-108.75 29.5,-156.25"/>
<text text-anchor="middle" x="44.25" y="-138.95" font-family="Times New Roman,serif" font-size="14.00">&#45;</text>
<polyline fill="none" stroke="black" points="29.5,-132.5 59,-132.5"/>
<text text-anchor="middle" x="44.25" y="-115.2" font-family="Times New Roman,serif" font-size="14.00">15</text>
<polyline fill="none" stroke="black" points="59,-108.75 59,-156.25"/>
<text text-anchor="middle" x="73.75" y="-138.95" font-family="Times New Roman,serif" font-size="14.00">=</text>
<polyline fill="none" stroke="black" points="59,-132.5 88.5,-132.5"/>
<text text-anchor="middle" x="73.75" y="-115.2" font-family="Times New Roman,serif" font-size="14.00">16</text>
<polyline fill="none" stroke="black" points="88.5,-108.75 88.5,-156.25"/>
<text text-anchor="middle" x="103.25" y="-138.95" font-family="Times New Roman,serif" font-size="14.00">&gt;</text>
<polyline fill="none" stroke="black" points="88.5,-132.5 118,-132.5"/>
<text text-anchor="middle" x="103.25" y="-115.2" font-family="Times New Roman,serif" font-size="14.00">17</text>
<polyline fill="none" stroke="black" points="118,-108.75 118,-156.25"/>
<text text-anchor="middle" x="132.75" y="-138.95" font-family="Times New Roman,serif" font-size="14.00">+</text>
<polyline fill="none" stroke="black" points="118,-132.5 147.5,-132.5"/>
<text text-anchor="middle" x="132.75" y="-115.2" font-family="Times New Roman,serif" font-size="14.00">18</text>
<polyline fill="none" stroke="black" points="147.5,-108.75 147.5,-156.25"/>
<text text-anchor="middle" x="162.25" y="-138.95" font-family="Times New Roman,serif" font-size="14.00">&#45;</text>
<polyline fill="none" stroke="black" points="147.5,-132.5 177,-132.5"/>
<text text-anchor="middle" x="162.25" y="-115.2" font-family="Times New Roman,serif" font-size="14.00">19</text>
<polyline fill="none" stroke="black" points="177,-108.75 177,-156.25"/>
<text text-anchor="middle" x="191.75" y="-138.95" font-family="Times New Roman,serif" font-size="14.00">!</text>
<polyline fill="none" stroke="black" points="177,-132.5 206.5,-132.5"/>
<text text-anchor="middle" x="191.75" y="-115.2" font-family="Times New Roman,serif" font-size="14.00">20</text>
<polyline fill="none" stroke="black" points="206.5,-108.75 206.5,-156.25"/>
<text text-anchor="middle" x="221.25" y="-138.95" font-family="Times New Roman,serif" font-size="14.00">=</text>
<polyline fill="none" stroke="black" points="206.5,-132.5 236,-132.5"/>
<text text-anchor="middle" x="221.25" y="-115.2" font-family="Times New Roman,serif" font-size="14.00">21</text>
<polyline fill="none" stroke="black" points="236,-108.75 236,-156.25"/>
<text text-anchor="middle" x="250.75" y="-138.95" font-family="Times New Roman,serif" font-size="14.00">&gt;</text>
<polyline fill="none" stroke="black" points="236,-132.5 265.5,-132.5"/>
<text text-anchor="middle" x="250.75" y="-115.2" font-family="Times New Roman,serif" font-size="14.00">22</text>
<polyline fill="none" stroke="black" points="265.5,-108.75 265.5,-156.25"/>
<text text-anchor="middle" x="280.25" y="-138.95" font-family="Times New Roman,serif" font-size="14.00">&gt;</text>
<polyline fill="none" stroke="black" points="265.5,-132.5 295,-132.5"/>
<text text-anchor="middle" x="280.25" y="-115.2" font-family="Times New Roman,serif" font-size="14.00">23</text>
</g>
<!-- l2&#45;&gt;l3 -->
<g id="edge4" class="edge">
<title>l2:f6&#45;&gt;l3:t14</title>
<path fill="none" stroke="black" d="M74.5,-192.75C74.5,-166.51 31.79,-181.06 18.44,-167.57"/>
<polygon fill="black" stroke="black" points="21.73,-166.37 15.02,-158.17 15.15,-168.77 21.73,-166.37"/>
</g>
<!-- l2&#45;&gt;l3 -->
<g id="edge5" class="edge">
<title>l2:f8&#45;&gt;l3:t18</title>
<path fill="none" stroke="black" d="M122.5,-192.75C122.5,-180.81 127.67,-176.02 130.57,-168.1"/>
<polygon fill="black" stroke="black" points="134.02,-168.69 132.25,-158.24 127.12,-167.51 134.02,-168.69"/>
</g>
<!-- l2&#45;&gt;l3 -->
<g id="edge6" class="edge">
<title>l2:f11&#45;&gt;l3:t20</title>
<path fill="none" stroke="black" d="M202.5,-192.75C202.5,-180.59 196.69,-175.93 193.52,-167.87"/>
<polygon fill="black" stroke="black" points="197,-167.45 191.77,-158.24 190.11,-168.7 197,-167.45"/>
</g>
<!-- l2&#45;&gt;l3 -->
<g id="edge7" class="edge">
<title>l2:f12&#45;&gt;l3:t23</title>
<path fill="none" stroke="black" d="M231.5,-192.75C231.5,-170.58 264.47,-178.74 276.32,-167.47"/>
<polygon fill="black" stroke="black" points="279.58,-168.75 279.95,-158.16 273.06,-166.21 279.58,-168.75"/>
</g>
<!-- l4 -->
<g id="node4" class="node">
<title>l4</title>
<polygon fill="none" stroke="black" points="58.75,-24.25 58.75,-71.75 206.25,-71.75 206.25,-24.25 58.75,-24.25"/>
<text text-anchor="middle" x="73.5" y="-54.45" font-family="Times New Roman,serif" font-size="14.00">!</text>
<polyline fill="none" stroke="black" points="58.75,-48 88.25,-48"/>
<text text-anchor="middle" x="73.5" y="-30.7" font-family="Times New Roman,serif" font-size="14.00">24</text>
<polyline fill="none" stroke="black" points="88.25,-24.25 88.25,-71.75"/>
<text text-anchor="middle" x="103" y="-54.45" font-family="Times New Roman,serif" font-size="14.00">+</text>
<polyline fill="none" stroke="black" points="88.25,-48 117.75,-48"/>
<text text-anchor="middle" x="103" y="-30.7" font-family="Times New Roman,serif" font-size="14.00">25</text>
<polyline fill="none" stroke="black" points="117.75,-24.25 117.75,-71.75"/>
<text text-anchor="middle" x="132.5" y="-54.45" font-family="Times New Roman,serif" font-size="14.00">&#45;</text>
<polyline fill="none" stroke="black" points="117.75,-48 147.25,-48"/>
<text text-anchor="middle" x="132.5" y="-30.7" font-family="Times New Roman,serif" font-size="14.00">26</text>
<polyline fill="none" stroke="black" points="147.25,-24.25 147.25,-71.75"/>
<text text-anchor="middle" x="162" y="-54.45" font-family="Times New Roman,serif" font-size="14.00">=</text>
<polyline fill="none" stroke="black" points="147.25,-48 176.75,-48"/>
<text text-anchor="middle" x="162" y="-30.7" font-family="Times New Roman,serif" font-size="14.00">27</text>
<polyline fill="none" stroke="black" points="176.75,-24.25 176.75,-71.75"/>
<text text-anchor="middle" x="191.5" y="-54.45" font-family="Times New Roman,serif" font-size="14.00">&gt;</text>
<polyline fill="none" stroke="black" points="176.75,-48 206.25,-48"/>
<text text-anchor="middle" x="191.5" y="-30.7" font-family="Times New Roman,serif" font-size="14.00">28</text>
</g>
<!-- l3&#45;&gt;l4 -->
<g id="edge8" class="edge">
<title>l3:f16&#45;&gt;l4:t24</title>
<path fill="none" stroke="black" d="M73.5,-108.25C73.5,-96.88 73.5,-91.57 73.5,-83.7"/>
<polygon fill="black" stroke="black" points="77,-83.76 73.5,-73.76 70,-83.76 77,-83.76"/>
</g>
</g>
</svg>
