<svg xmlns="http://www.w3.org/2000/svg" xmlns:xlink="http://www.w3.org/1999/xlink" contentStyleType="text/css" height="691px" preserveAspectRatio="none" style="width:441px;height:691px;background:#FFFFFF;" version="1.1" viewBox="0 0 441 691" width="441px" zoomAndPan="magnify"><defs/><g><text fill="#000000" font-family="sans-serif" font-size="14" font-weight="bold" lengthAdjust="spacing" textLength="149.4131" x="10" y="24.5332">grammars_expression</text><rect fill="#F1F1F1" height="27.6094" rx="5" ry="5" style="stroke:#181818;stroke-width:1.5;" width="103.3652" x="64" y="37.6094"/><text fill="#000000" font-family="sans-serif" font-size="14" lengthAdjust="spacing" textLength="93.3652" x="69" y="57.1426">atomic_symbol</text><line style="stroke:#181818;stroke-width:1.5;" x1="40" x2="64" y1="51.4141" y2="51.4141"/><line style="stroke:#181818;stroke-width:1.5;" x1="167.3652" x2="396.1924" y1="51.4141" y2="51.4141"/><line style="stroke:#181818;stroke-width:1.5;" x1="64" x2="64" y1="89.0234" y2="89.0234"/><rect fill="none" height="27.6094" style="stroke:#181818;stroke-width:0.5;" width="14.6621" x="64" y="75.2188"/><text fill="#000000" font-family="sans-serif" font-size="14" lengthAdjust="spacing" textLength="4.6621" x="69" y="94.752">(</text><line style="stroke:#181818;stroke-width:1.5;" x1="78.6621" x2="98.6621" y1="89.0234" y2="89.0234"/><rect fill="#F1F1F1" height="27.6094" rx="5" ry="5" style="stroke:#181818;stroke-width:1.5;" width="92.4893" x="98.6621" y="75.2188"/><text fill="#000000" font-family="sans-serif" font-size="14" lengthAdjust="spacing" textLength="82.4893" x="103.6621" y="94.752">s_expression</text><line style="stroke:#181818;stroke-width:1.5;" x1="191.1514" x2="211.1514" y1="89.0234" y2="89.0234"/><rect fill="none" height="27.6094" style="stroke:#181818;stroke-width:0.5;" width="13.8896" x="211.1514" y="75.2188"/><text fill="#000000" font-family="sans-serif" font-size="14" lengthAdjust="spacing" textLength="3.8896" x="216.1514" y="94.752">.</text><line style="stroke:#181818;stroke-width:1.5;" x1="225.041" x2="245.041" y1="89.0234" y2="89.0234"/><rect fill="#F1F1F1" height="27.6094" rx="5" ry="5" style="stroke:#181818;stroke-width:1.5;" width="92.4893" x="245.041" y="75.2188"/><text fill="#000000" font-family="sans-serif" font-size="14" lengthAdjust="spacing" textLength="82.4893" x="250.041" y="94.752">s_expression</text><line style="stroke:#181818;stroke-width:1.5;" x1="337.5303" x2="357.5303" y1="89.0234" y2="89.0234"/><rect fill="none" height="27.6094" style="stroke:#181818;stroke-width:0.5;" width="14.6621" x="357.5303" y="75.2188"/><text fill="#000000" font-family="sans-serif" font-size="14" lengthAdjust="spacing" textLength="4.6621" x="362.5303" y="94.752">)</text><path d="M52,77.0234 C52,86.0234 55,89.0234 64,89.0234 " fill="none" style="stroke:#181818;stroke-width:1.5;"/><line style="stroke:#181818;stroke-width:1.5;" x1="372.1924" x2="372.1924" y1="89.0234" y2="89.0234"/><path d="M384.1924,77.0234 C384.1924,86.0234 381.1924,89.0234 372.1924,89.0234 " fill="none" style="stroke:#181818;stroke-width:1.5;"/><rect fill="#F1F1F1" height="27.6094" rx="5" ry="5" style="stroke:#181818;stroke-width:1.5;" width="27.1104" x="64" y="112.8281"/><text fill="#000000" font-family="sans-serif" font-size="14" lengthAdjust="spacing" textLength="17.1104" x="69" y="132.3613">list</text><line style="stroke:#181818;stroke-width:1.5;" x1="91.1104" x2="372.1924" y1="126.6328" y2="126.6328"/><path d="M229.6514,126.6328 L229.6514,123.6328 L235.6514,126.6328 L229.6514,129.6328 L229.6514,126.6328 " fill="#181818" style="stroke:#181818;stroke-width:1.5;"/><path d="M52,114.6328 C52,123.6328 55,126.6328 64,126.6328 " fill="none" style="stroke:#181818;stroke-width:1.5;"/><line style="stroke:#181818;stroke-width:1.5;" x1="52" x2="52" y1="63.4141" y2="114.6328"/><path d="M40,51.4141 C49,51.4141 52,54.4141 52,63.4141 " fill="none" style="stroke:#181818;stroke-width:1.5;"/><path d="M384.1924,114.6328 C384.1924,123.6328 381.1924,126.6328 372.1924,126.6328 " fill="none" style="stroke:#181818;stroke-width:1.5;"/><line style="stroke:#181818;stroke-width:1.5;" x1="384.1924" x2="384.1924" y1="63.4141" y2="114.6328"/><path d="M384.1924,63.4141 C384.1924,54.4141 387.1924,51.4141 396.1924,51.4141 " fill="none" style="stroke:#181818;stroke-width:1.5;"/><ellipse cx="14" cy="51.4141" fill="none" rx="4" ry="4" style="stroke:#181818;stroke-width:2.0;"/><ellipse cx="426.1924" cy="51.4141" fill="#181818" rx="4" ry="4" style="stroke:#181818;stroke-width:1.0;"/><line style="stroke:#181818;stroke-width:1.5;" x1="18" x2="40" y1="51.4141" y2="51.4141"/><line style="stroke:#181818;stroke-width:1.5;" x1="396.1924" x2="422.1924" y1="51.4141" y2="51.4141"/><path d="M407.1924,51.4141 L407.1924,48.4141 L413.1924,51.4141 L407.1924,54.4141 L407.1924,51.4141 " fill="#181818" style="stroke:#181818;stroke-width:1.5;"/><text fill="#000000" font-family="sans-serif" font-size="14" font-weight="bold" lengthAdjust="spacing" textLength="20.2275" x="10" y="169.9707">list</text><line style="stroke:#181818;stroke-width:1.5;" x1="40" x2="40" y1="224.8516" y2="224.8516"/><rect fill="none" height="27.6094" style="stroke:#181818;stroke-width:0.5;" width="14.6621" x="40" y="211.0469"/><text fill="#000000" font-family="sans-serif" font-size="14" lengthAdjust="spacing" textLength="4.6621" x="45" y="230.5801">(</text><line style="stroke:#181818;stroke-width:1.5;" x1="54.6621" x2="74.6621" y1="224.8516" y2="224.8516"/><rect fill="#F1F1F1" height="27.6094" rx="5" ry="5" style="stroke:#181818;stroke-width:1.5;" width="92.4893" x="74.6621" y="211.0469"/><text fill="#000000" font-family="sans-serif" font-size="14" lengthAdjust="spacing" textLength="82.4893" x="79.6621" y="230.5801">s_expression</text><line style="stroke:#181818;stroke-width:1.5;" x1="167.1514" x2="187.1514" y1="224.8516" y2="224.8516"/><path d="M195.1514,216.8516 C195.1514,222.8516 193.1514,224.8516 187.1514,224.8516 " fill="none" style="stroke:#181818;stroke-width:1.5;"/><line style="stroke:#181818;stroke-width:1.5;" x1="195.1514" x2="195.1514" y1="196.0469" y2="216.8516"/><path d="M195.1514,196.0469 C195.1514,190.0469 197.1514,188.0469 203.1514,188.0469 " fill="none" style="stroke:#181818;stroke-width:1.5;"/><line style="stroke:#181818;stroke-width:1.5;" x1="203.1514" x2="323.6406" y1="188.0469" y2="188.0469"/><path d="M249.3471,188.0469 L249.3471,185.0469 L255.3471,188.0469 L249.3471,191.0469 L249.3471,188.0469 " fill="#181818" style="stroke:#181818;stroke-width:1.5;"/><path d="M331.6406,216.8516 C331.6406,222.8516 333.6406,224.8516 339.6406,224.8516 " fill="none" style="stroke:#181818;stroke-width:1.5;"/><line style="stroke:#181818;stroke-width:1.5;" x1="331.6406" x2="331.6406" y1="196.0469" y2="216.8516"/><path d="M323.6406,188.0469 C329.6406,188.0469 331.6406,190.0469 331.6406,196.0469 " fill="none" style="stroke:#181818;stroke-width:1.5;"/><line style="stroke:#181818;stroke-width:1.5;" x1="187.1514" x2="202.1514" y1="224.8516" y2="224.8516"/><line style="stroke:#181818;stroke-width:1.5;" x1="324.6406" x2="339.6406" y1="224.8516" y2="224.8516"/><path d="M210.1514,216.8516 C210.1514,222.8516 212.1514,224.8516 218.1514,224.8516 " fill="none" style="stroke:#181818;stroke-width:1.5;"/><line style="stroke:#181818;stroke-width:1.5;" x1="210.1514" x2="210.1514" y1="212.0469" y2="216.8516"/><path d="M210.1514,212.0469 C210.1514,206.0469 212.1514,204.0469 218.1514,204.0469 " fill="none" style="stroke:#181818;stroke-width:1.5;"/><line style="stroke:#181818;stroke-width:1.5;" x1="217.1514" x2="309.6406" y1="204.0469" y2="204.0469"/><path d="M270.6449,204.0469 L270.6449,201.0469 L264.6449,204.0469 L270.6449,207.0469 L270.6449,204.0469 " fill="#181818" style="stroke:#181818;stroke-width:1.5;"/><path d="M316.6406,216.8516 C316.6406,222.8516 314.6406,224.8516 308.6406,224.8516 " fill="none" style="stroke:#181818;stroke-width:1.5;"/><line style="stroke:#181818;stroke-width:1.5;" x1="316.6406" x2="316.6406" y1="212.0469" y2="216.8516"/><path d="M308.6406,204.0469 C314.6406,204.0469 316.6406,206.0469 316.6406,212.0469 " fill="none" style="stroke:#181818;stroke-width:1.5;"/><line style="stroke:#181818;stroke-width:1.5;" x1="202.1514" x2="217.1514" y1="224.8516" y2="224.8516"/><line style="stroke:#181818;stroke-width:1.5;" x1="309.6406" x2="324.6406" y1="224.8516" y2="224.8516"/><rect fill="#F1F1F1" height="27.6094" rx="5" ry="5" style="stroke:#181818;stroke-width:1.5;" width="92.4893" x="217.1514" y="211.0469"/><text fill="#000000" font-family="sans-serif" font-size="14" lengthAdjust="spacing" textLength="82.4893" x="222.1514" y="230.5801">s_expression</text><line style="stroke:#181818;stroke-width:1.5;" x1="339.6406" x2="359.6406" y1="224.8516" y2="224.8516"/><rect fill="none" height="27.6094" style="stroke:#181818;stroke-width:0.5;" width="14.6621" x="359.6406" y="211.0469"/><text fill="#000000" font-family="sans-serif" font-size="14" lengthAdjust="spacing" textLength="4.6621" x="364.6406" y="230.5801">)</text><ellipse cx="14" cy="224.8516" fill="none" rx="4" ry="4" style="stroke:#181818;stroke-width:2.0;"/><ellipse cx="404.3027" cy="224.8516" fill="#181818" rx="4" ry="4" style="stroke:#181818;stroke-width:1.0;"/><line style="stroke:#181818;stroke-width:1.5;" x1="18" x2="40" y1="224.8516" y2="224.8516"/><line style="stroke:#181818;stroke-width:1.5;" x1="374.3027" x2="400.3027" y1="224.8516" y2="224.8516"/><path d="M385.3027,224.8516 L385.3027,221.8516 L391.3027,224.8516 L385.3027,227.8516 L385.3027,224.8516 " fill="#181818" style="stroke:#181818;stroke-width:1.5;"/><text fill="#000000" font-family="sans-serif" font-size="14" font-weight="bold" lengthAdjust="spacing" textLength="101.9238" x="10" y="268.1895">atomic_symbol</text><line style="stroke:#181818;stroke-width:1.5;" x1="40" x2="40" y1="295.0703" y2="295.0703"/><rect fill="#F1F1F1" height="27.6094" rx="5" ry="5" style="stroke:#181818;stroke-width:1.5;" width="41.124" x="40" y="281.2656"/><text fill="#000000" font-family="sans-serif" font-size="14" lengthAdjust="spacing" textLength="31.124" x="45" y="300.7988">letter</text><line style="stroke:#181818;stroke-width:1.5;" x1="81.124" x2="101.124" y1="295.0703" y2="295.0703"/><rect fill="#F1F1F1" height="27.6094" rx="5" ry="5" style="stroke:#181818;stroke-width:1.5;" width="73.0342" x="101.124" y="281.2656"/><text fill="#000000" font-family="sans-serif" font-size="14" lengthAdjust="spacing" textLength="63.0342" x="106.124" y="300.7988">atom_part</text><ellipse cx="14" cy="295.0703" fill="none" rx="4" ry="4" style="stroke:#181818;stroke-width:2.0;"/><ellipse cx="204.1582" cy="295.0703" fill="#181818" rx="4" ry="4" style="stroke:#181818;stroke-width:1.0;"/><line style="stroke:#181818;stroke-width:1.5;" x1="18" x2="40" y1="295.0703" y2="295.0703"/><line style="stroke:#181818;stroke-width:1.5;" x1="174.1582" x2="200.1582" y1="295.0703" y2="295.0703"/><path d="M185.1582,295.0703 L185.1582,292.0703 L191.1582,295.0703 L185.1582,298.0703 L185.1582,295.0703 " fill="#181818" style="stroke:#181818;stroke-width:1.5;"/><text fill="#000000" font-family="sans-serif" font-size="14" font-weight="bold" lengthAdjust="spacing" textLength="67.6826" x="10" y="338.4082">atom_part</text><rect fill="#F1F1F1" height="27.6094" rx="5" ry="5" style="stroke:#181818;stroke-width:1.5;" width="48.124" x="64" y="351.4844"/><text fill="#000000" font-family="sans-serif" font-size="14" lengthAdjust="spacing" textLength="38.124" x="69" y="371.0176">empty</text><line style="stroke:#181818;stroke-width:1.5;" x1="40" x2="64" y1="365.2891" y2="365.2891"/><line style="stroke:#181818;stroke-width:1.5;" x1="112.124" x2="238.5029" y1="365.2891" y2="365.2891"/><line style="stroke:#181818;stroke-width:1.5;" x1="64" x2="64" y1="402.8984" y2="402.8984"/><rect fill="#F1F1F1" height="27.6094" rx="5" ry="5" style="stroke:#181818;stroke-width:1.5;" width="41.124" x="64" y="389.0938"/><text fill="#000000" font-family="sans-serif" font-size="14" lengthAdjust="spacing" textLength="31.124" x="69" y="408.627">letter</text><line style="stroke:#181818;stroke-width:1.5;" x1="105.124" x2="125.124" y1="402.8984" y2="402.8984"/><rect fill="#F1F1F1" height="27.6094" rx="5" ry="5" style="stroke:#181818;stroke-width:1.5;" width="73.0342" x="125.124" y="389.0938"/><text fill="#000000" font-family="sans-serif" font-size="14" lengthAdjust="spacing" textLength="63.0342" x="130.124" y="408.627">atom_part</text><path d="M52,390.8984 C52,399.8984 55,402.8984 64,402.8984 " fill="none" style="stroke:#181818;stroke-width:1.5;"/><line style="stroke:#181818;stroke-width:1.5;" x1="198.1582" x2="214.5029" y1="402.8984" y2="402.8984"/><path d="M226.5029,390.8984 C226.5029,399.8984 223.5029,402.8984 214.5029,402.8984 " fill="none" style="stroke:#181818;stroke-width:1.5;"/><line style="stroke:#181818;stroke-width:1.5;" x1="64" x2="64" y1="440.5078" y2="440.5078"/><rect fill="#F1F1F1" height="27.6094" rx="5" ry="5" style="stroke:#181818;stroke-width:1.5;" width="57.4688" x="64" y="426.7031"/><text fill="#000000" font-family="sans-serif" font-size="14" lengthAdjust="spacing" textLength="47.4688" x="69" y="446.2363">number</text><line style="stroke:#181818;stroke-width:1.5;" x1="121.4688" x2="141.4688" y1="440.5078" y2="440.5078"/><rect fill="#F1F1F1" height="27.6094" rx="5" ry="5" style="stroke:#181818;stroke-width:1.5;" width="73.0342" x="141.4688" y="426.7031"/><text fill="#000000" font-family="sans-serif" font-size="14" lengthAdjust="spacing" textLength="63.0342" x="146.4688" y="446.2363">atom_part</text><line style="stroke:#181818;stroke-width:1.5;" x1="214.5029" x2="214.5029" y1="440.5078" y2="440.5078"/><path d="M52,428.5078 C52,437.5078 55,440.5078 64,440.5078 " fill="none" style="stroke:#181818;stroke-width:1.5;"/><line style="stroke:#181818;stroke-width:1.5;" x1="52" x2="52" y1="377.2891" y2="428.5078"/><path d="M40,365.2891 C49,365.2891 52,368.2891 52,377.2891 " fill="none" style="stroke:#181818;stroke-width:1.5;"/><path d="M226.5029,428.5078 C226.5029,437.5078 223.5029,440.5078 214.5029,440.5078 " fill="none" style="stroke:#181818;stroke-width:1.5;"/><line style="stroke:#181818;stroke-width:1.5;" x1="226.5029" x2="226.5029" y1="377.2891" y2="428.5078"/><path d="M226.5029,377.2891 C226.5029,368.2891 229.5029,365.2891 238.5029,365.2891 " fill="none" style="stroke:#181818;stroke-width:1.5;"/><ellipse cx="14" cy="365.2891" fill="none" rx="4" ry="4" style="stroke:#181818;stroke-width:2.0;"/><ellipse cx="268.5029" cy="365.2891" fill="#181818" rx="4" ry="4" style="stroke:#181818;stroke-width:1.0;"/><line style="stroke:#181818;stroke-width:1.5;" x1="18" x2="40" y1="365.2891" y2="365.2891"/><line style="stroke:#181818;stroke-width:1.5;" x1="238.5029" x2="264.5029" y1="365.2891" y2="365.2891"/><path d="M249.5029,365.2891 L249.5029,362.2891 L255.5029,365.2891 L249.5029,368.2891 L249.5029,365.2891 " fill="#181818" style="stroke:#181818;stroke-width:1.5;"/><text fill="#000000" font-family="sans-serif" font-size="14" font-weight="bold" lengthAdjust="spacing" textLength="34.2344" x="10" y="483.8457">letter</text><rect fill="none" height="27.6094" style="stroke:#181818;stroke-width:1.0;stroke-dasharray:5.0,5.0;" width="37.2275" x="40" y="496.9219"/><text fill="#000000" font-family="sans-serif" font-size="14" lengthAdjust="spacing" textLength="19.4482" x="48.8896" y="516.4551">a-z</text><ellipse cx="14" cy="510.7266" fill="none" rx="4" ry="4" style="stroke:#181818;stroke-width:2.0;"/><ellipse cx="107.2275" cy="510.7266" fill="#181818" rx="4" ry="4" style="stroke:#181818;stroke-width:1.0;"/><line style="stroke:#181818;stroke-width:1.5;" x1="18" x2="40" y1="510.7266" y2="510.7266"/><line style="stroke:#181818;stroke-width:1.5;" x1="77.2275" x2="103.2275" y1="510.7266" y2="510.7266"/><path d="M88.2275,510.7266 L88.2275,507.7266 L94.2275,510.7266 L88.2275,513.7266 L88.2275,510.7266 " fill="#181818" style="stroke:#181818;stroke-width:1.5;"/><text fill="#000000" font-family="sans-serif" font-size="14" font-weight="bold" lengthAdjust="spacing" textLength="51.3379" x="10" y="554.0645">number</text><rect fill="none" height="27.6094" style="stroke:#181818;stroke-width:1.0;stroke-dasharray:5.0,5.0;" width="38.0137" x="40" y="567.1406"/><text fill="#000000" font-family="sans-serif" font-size="14" lengthAdjust="spacing" textLength="20.2344" x="48.8896" y="586.6738">1-9</text><ellipse cx="14" cy="580.9453" fill="none" rx="4" ry="4" style="stroke:#181818;stroke-width:2.0;"/><ellipse cx="108.0137" cy="580.9453" fill="#181818" rx="4" ry="4" style="stroke:#181818;stroke-width:1.0;"/><line style="stroke:#181818;stroke-width:1.5;" x1="18" x2="40" y1="580.9453" y2="580.9453"/><line style="stroke:#181818;stroke-width:1.5;" x1="78.0137" x2="104.0137" y1="580.9453" y2="580.9453"/><path d="M89.0137,580.9453 L89.0137,577.9453 L95.0137,580.9453 L89.0137,583.9453 L89.0137,580.9453 " fill="#181818" style="stroke:#181818;stroke-width:1.5;"/><text fill="#000000" font-family="sans-serif" font-size="14" font-weight="bold" lengthAdjust="spacing" textLength="41.2344" x="10" y="624.2832">empty</text><rect fill="none" height="27.6094" style="stroke:#181818;stroke-width:0.5;" width="13.8896" x="40" y="637.3594"/><text fill="#000000" font-family="sans-serif" font-size="14" lengthAdjust="spacing" textLength="3.8896" x="45" y="656.8926">&#160;</text><ellipse cx="14" cy="651.1641" fill="none" rx="4" ry="4" style="stroke:#181818;stroke-width:2.0;"/><ellipse cx="83.8896" cy="651.1641" fill="#181818" rx="4" ry="4" style="stroke:#181818;stroke-width:1.0;"/><line style="stroke:#181818;stroke-width:1.5;" x1="18" x2="40" y1="651.1641" y2="651.1641"/><line style="stroke:#181818;stroke-width:1.5;" x1="53.8896" x2="79.8896" y1="651.1641" y2="651.1641"/><path d="M64.8896,651.1641 L64.8896,648.1641 L70.8896,651.1641 L64.8896,654.1641 L64.8896,651.1641 " fill="#181818" style="stroke:#181818;stroke-width:1.5;"/><!--SRC=[xLFVQzim47xNNt64mXA8JHpI9dCepPPaxRe4IhFsIM1aMt7LMPAHpY7PZ_zzPuTkQpSOx7b-4AVllhlxTBwRUHGEPMgsx1MygT4MqaWdKERmtkHo7yE0FlBDhTR2v50g8sDOn7ofVUPKXT9mgNt-YJ-AdU2JC3eT9cUZL25FbMd1KEub18_2mMNClTqYNzYCLxKkULKAWsG4KJWS34VXE6neWOLtCKyAXGzrockTYW2jBVtHr7bGLJod54eNuG-z_0IbhauIloiWmFRC7eJp4g76xUJVCuQDKbOuGGrmFf7xoadlbJLm3WAjLbdY3pgr9No5JhVJXryvVUY4lqEz3d5BvN7AcfCI_I7moxCxV6lZfknvoNCe9Q9q_LPAKj7FF59Qazpq0ZmqrLxI23Fq-XUXHnh5NO08FiF5b1r9BH85hnlac98q0ycPIHgJPdpOxESe_M_Mtvfrqmp-tNe5E-bQnKyBqDq8X8siO326Q1H7apWQmthp0HftZtKlRrRWRUqo2JbrmwcqHehliMlQDBYj3IfD2zhSkX_NFTWidq1OcfrorcXfa5tVhuyakBAugIosvBDHy5OrvHt9WlirMyYjg4kaqCpcoXGnpAjeU1gnbJ15BGggv6esjrJ17MAulViE]--></g></svg>