<svg xmlns="http://www.w3.org/2000/svg" xmlns:xlink="http://www.w3.org/1999/xlink" contentStyleType="text/css" height="483px" preserveAspectRatio="none" style="width:1389px;height:483px;background:#FFFFFF;" version="1.1" viewBox="0 0 1389 483" width="1389px" zoomAndPan="magnify"><defs/><g><path d="M19.5,7 L1363.8887,7 A12.5,12.5 0 0 1 1376.3887,19.5 L1376.3887,34.6094 L7,34.6094 L7,19.5 A12.5,12.5 0 0 1 19.5,7 " fill="#F1F1F1" style="stroke:#F1F1F1;stroke-width:1.0;"/><rect fill="none" height="470.6094" rx="12.5" ry="12.5" style="stroke:#181818;stroke-width:0.5;" width="1369.3887" x="7" y="7"/><line style="stroke:#181818;stroke-width:0.5;" x1="7" x2="1376.3887" y1="34.6094" y2="34.6094"/><text fill="#000000" font-family="sans-serif" font-size="14" lengthAdjust="spacing" textLength="39.6826" x="671.853" y="26.5332">Player</text><ellipse cx="773" cy="71.6094" fill="#222222" rx="10" ry="10" style="stroke:#222222;stroke-width:1.0;"/><g id="Player.Empty"><rect fill="#F1F1F1" height="50" rx="12.5" ry="12.5" style="stroke:#181818;stroke-width:0.5;" width="59.6758" x="801" y="46.6094"/><line style="stroke:#181818;stroke-width:0.5;" x1="801" x2="860.6758" y1="74.2188" y2="74.2188"/><text fill="#000000" font-family="sans-serif" font-size="14" lengthAdjust="spacing" textLength="39.6758" x="811" y="66.1426">Empty</text></g><g id="Player.Stopped"><rect fill="#F1F1F1" height="52.7031" rx="12.5" ry="12.5" style="stroke:#181818;stroke-width:0.5;" width="100.0566" x="292" y="188.6094"/><line style="stroke:#181818;stroke-width:0.5;" x1="292" x2="392.0566" y1="216.2188" y2="216.2188"/><text fill="#000000" font-family="sans-serif" font-size="14" lengthAdjust="spacing" textLength="52.1582" x="315.9492" y="208.1426">Stopped</text><text fill="#000000" font-family="sans-serif" font-size="12" lengthAdjust="spacing" textLength="80.0566" x="297" y="233.6758">flag CDLoaded</text></g><g id="Player.Playing"><rect fill="#F1F1F1" height="67.7969" rx="12.5" ry="12.5" style="stroke:#181818;stroke-width:0.5;" width="201.418" x="193.5" y="295.6094"/><line style="stroke:#181818;stroke-width:0.5;" x1="193.5" x2="394.918" y1="323.2188" y2="323.2188"/><text fill="#000000" font-family="sans-serif" font-size="14" lengthAdjust="spacing" textLength="45.917" x="271.2505" y="315.1426">Playing</text><text fill="#000000" font-family="sans-serif" font-size="12" lengthAdjust="spacing" textLength="80.0566" x="198.5" y="340.6758">flag CDLoaded</text><text fill="#000000" font-family="sans-serif" font-size="12" lengthAdjust="spacing" textLength="181.418" x="198.5" y="355.7695">entry start_playback [always_true]</text></g><g id="Player.Open"><rect fill="#F1F1F1" height="50" rx="12.5" ry="12.5" style="stroke:#181818;stroke-width:0.5;" width="54.248" x="533" y="417.6094"/><line style="stroke:#181818;stroke-width:0.5;" x1="533" x2="587.248" y1="445.2188" y2="445.2188"/><text fill="#000000" font-family="sans-serif" font-size="14" lengthAdjust="spacing" textLength="34.248" x="543" y="437.1426">Open</text></g><g id="Player.Paused"><rect fill="#F1F1F1" height="67.7969" rx="12.5" ry="12.5" style="stroke:#181818;stroke-width:0.5;" width="136.7422" x="605.5" y="295.6094"/><line style="stroke:#181818;stroke-width:0.5;" x1="605.5" x2="742.2422" y1="323.2188" y2="323.2188"/><text fill="#000000" font-family="sans-serif" font-size="14" lengthAdjust="spacing" textLength="47.4824" x="650.1299" y="315.1426">Paused</text><text fill="#000000" font-family="sans-serif" font-size="12" lengthAdjust="spacing" textLength="116.7422" x="610.5" y="340.6758">entry pause_playback</text><text fill="#000000" font-family="sans-serif" font-size="12" lengthAdjust="spacing" textLength="80.0566" x="610.5" y="355.7695">flag CDLoaded</text></g><!--link *start*Player to Empty--><g id="link_*start*Player_Empty"><path d="M783.12,71.6094 C787.8,71.6094 792.33,71.6094 792.33,71.6094 C792.33,71.6094 790.3,71.6094 794.64,71.6094 " fill="none" id="*start*Player-to-Empty" style="stroke:#181818;stroke-width:1.0;"/><polygon fill="#181818" points="800.64,71.6094,791.64,67.6094,795.64,71.6094,791.64,75.6094,800.64,71.6094" style="stroke:#181818;stroke-width:1.0;"/></g><!--link Stopped to Playing--><g id="link_Stopped_Playing"><path d="M314.39,241.6694 C304.16,251.1294 295,259.6094 295,259.6094 C295,259.6094 294.8284,271.68 294.5684,289.32 " fill="none" id="Stopped-to-Playing" style="stroke:#181818;stroke-width:1.0;"/><polygon fill="#181818" points="294.48,295.3194,298.6122,286.3793,294.5537,290.3199,290.6131,286.2614,294.48,295.3194" style="stroke:#181818;stroke-width:1.0;"/><text fill="#000000" font-family="sans-serif" font-size="13" lengthAdjust="spacing" textLength="23.8481" x="296" y="274.1045">play</text></g><!--link Stopped to Open--><g id="link_Stopped_Open"><path d="M291.73,228.4394 C200.72,250.7694 18,295.6094 18,295.6094 C18,295.6094 18,363.6094 18,363.6094 C18,363.6094 416.9012,421.0146 526.8112,436.8346 " fill="none" id="Stopped-to-Open" style="stroke:#181818;stroke-width:1.0;"/><polygon fill="#181818" points="532.75,437.6894,524.4117,432.448,527.801,436.977,523.2719,440.3664,532.75,437.6894" style="stroke:#181818;stroke-width:1.0;"/><text fill="#000000" font-family="sans-serif" font-size="13" lengthAdjust="spacing" textLength="164.0552" x="19" y="335.1045">open_close    / open_drawer</text></g><!--link Stopped to Stopped--><g id="link_Stopped_Stopped"><path d="M392.11,207.1494 C402.52,207.9894 410,210.6394 410,215.1094 C410,219.5794 408.5006,221.7468 398.0906,222.5868 " fill="none" id="Stopped-to-Stopped" style="stroke:#181818;stroke-width:1.0;"/><polygon fill="#181818" points="392.11,223.0694,401.4026,226.3325,397.0938,222.6672,400.7591,218.3585,392.11,223.0694" style="stroke:#181818;stroke-width:1.0;"/><text fill="#000000" font-family="sans-serif" font-size="13" lengthAdjust="spacing" textLength="24.5718" x="416" y="220.6045">stop</text></g><!--link Open to Empty--><g id="link_Open_Empty"><path d="M587.07,437.6194 C658.21,427.1394 845,399.6094 845,399.6094 C845,399.6094 1033,330.6094 1033,330.6094 C1033,141.6094 1033,141.6094 1033,141.6094 C1033,141.6094 923.2678,104.129 866.9178,84.879 " fill="none" id="Open-to-Empty" style="stroke:#181818;stroke-width:1.0;"/><polygon fill="#181818" points="861.24,82.9394,868.4637,89.634,865.9715,84.5557,871.0498,82.0636,861.24,82.9394" style="stroke:#181818;stroke-width:1.0;"/><text fill="#000000" font-family="sans-serif" font-size="13" lengthAdjust="spacing" textLength="332.3887" x="1034" y="220.6045">open_close    / close_drawer               [can_close_drawer]</text></g><!--link Empty to Open--><g id="link_Empty_Open"><path d="M831,96.7394 C831,116.6394 831,141.6094 831,141.6094 C831,141.6094 831,141.6094 831,330.6094 C831,330.6094 817,399.6094 817,399.6094 C817,399.6094 658.9215,425.4419 592.9415,436.2219 " fill="none" id="Empty-to-Open" style="stroke:#181818;stroke-width:1.0;"/><polygon fill="#181818" points="587.02,437.1894,596.5472,439.6858,591.9546,436.3832,595.2573,431.7905,587.02,437.1894" style="stroke:#181818;stroke-width:1.0;"/><text fill="#000000" font-family="sans-serif" font-size="13" lengthAdjust="spacing" textLength="164.0552" x="832" y="220.6045">open_close    / open_drawer</text></g><!--link Empty to Stopped--><g id="link_Empty_Stopped"><path d="M800.66,91.2794 C795.62,94.3794 792,96.6094 792,96.6094 C792,96.6094 393,133.6094 393,133.6094 C393,133.6094 376.5405,159.5906 361.6305,183.1306 " fill="none" id="Empty-to-Stopped" style="stroke:#181818;stroke-width:1.0;"/><polygon fill="#181818" points="358.42,188.1994,366.615,182.7365,361.0954,183.9754,359.8566,178.4559,358.42,188.1994" style="stroke:#181818;stroke-width:1.0;"/><text fill="#000000" font-family="sans-serif" font-size="13" lengthAdjust="spacing" textLength="422.0049" x="394" y="148.1045">cd_detected   / store_cd_info              [good_disk_format &amp;&amp; always_true]</text></g><!--link Playing to Stopped--><g id="link_Playing_Stopped"><path d="M310.91,295.4494 C315.87,285.7094 320,277.6094 320,277.6094 C320,277.6094 324.7484,264.3385 330.7784,247.4885 " fill="none" id="Playing-to-Stopped" style="stroke:#181818;stroke-width:1.0;"/><polygon fill="#181818" points="332.8,241.8394,326.0015,248.9654,331.1153,246.547,333.5337,251.6609,332.8,241.8394" style="stroke:#181818;stroke-width:1.0;"/><text fill="#000000" font-family="sans-serif" font-size="13" lengthAdjust="spacing" textLength="151.0234" x="327" y="274.1045">stop          / stop_playback</text></g><!--link Playing to Paused--><g id="link_Playing_Paused"><path d="M394.61,340.8794 C439.09,345.8594 481.5,350.6094 481.5,350.6094 C481.5,350.6094 518.5,350.6094 518.5,350.6094 C518.5,350.6094 557.7441,345.3131 599.3941,339.6831 " fill="none" id="Playing-to-Paused" style="stroke:#181818;stroke-width:1.0;"/><polygon fill="#181818" points="605.34,338.8794,595.8853,336.121,600.3851,339.5492,596.9569,344.0489,605.34,338.8794" style="stroke:#181818;stroke-width:1.0;"/><text fill="#000000" font-family="sans-serif" font-size="13" lengthAdjust="spacing" textLength="35.4199" x="482.5" y="347.1045">pause</text></g><!--link Playing to Open--><g id="link_Playing_Open"><path d="M296.89,363.8994 C298.43,381.5394 300,399.6094 300,399.6094 C300,399.6094 459.9867,425.4529 526.7467,436.2329 " fill="none" id="Playing-to-Open" style="stroke:#181818;stroke-width:1.0;"/><polygon fill="#181818" points="532.67,437.1894,524.4227,431.8058,527.7339,436.3923,523.1475,439.7035,532.67,437.1894" style="stroke:#181818;stroke-width:1.0;"/><text fill="#000000" font-family="sans-serif" font-size="13" lengthAdjust="spacing" textLength="254.3887" x="301" y="396.1045">open_close    / stop_playback, open_drawer</text></g><!--link Paused to Playing--><g id="link_Paused_Playing"><path d="M605.44,329.6094 C546.71,329.6094 467.35,329.6094 400.84,329.6094 " fill="none" id="Paused-to-Playing" style="stroke:#181818;stroke-width:1.0;"/><polygon fill="#181818" points="394.84,329.6094,403.84,333.6094,399.84,329.6094,403.84,325.6094,394.84,329.6094" style="stroke:#181818;stroke-width:1.0;"/><text fill="#000000" font-family="sans-serif" font-size="13" lengthAdjust="spacing" textLength="191.5088" x="404.5" y="323.1045">end_pause     / resume_playback</text></g><!--link Paused to Stopped--><g id="link_Paused_Stopped"><path d="M605.31,303.7994 C550.56,284.0194 483,259.6094 483,259.6094 C483,259.6094 438.3735,245.8377 397.8435,233.3377 " fill="none" id="Paused-to-Stopped" style="stroke:#181818;stroke-width:1.0;"/><polygon fill="#181818" points="392.11,231.5694,399.5314,238.0442,396.8879,233.043,401.8891,230.3995,392.11,231.5694" style="stroke:#181818;stroke-width:1.0;"/><text fill="#000000" font-family="sans-serif" font-size="13" lengthAdjust="spacing" textLength="151.0234" x="530" y="274.1045">stop          / stop_playback</text></g><!--link Paused to Open--><g id="link_Paused_Open"><path d="M605.34,361.5994 C581.67,372.2794 561,381.6094 561,381.6094 C561,381.6094 560.7806,394.8602 560.5006,411.5502 " fill="none" id="Paused-to-Open" style="stroke:#181818;stroke-width:1.0;"/><polygon fill="#181818" points="560.4,417.5494,564.5504,408.6177,560.4839,412.5501,556.5515,408.4835,560.4,417.5494" style="stroke:#181818;stroke-width:1.0;"/><text fill="#000000" font-family="sans-serif" font-size="13" lengthAdjust="spacing" textLength="254.3887" x="562" y="396.1045">open_close    / stop_playback, open_drawer</text></g><!--SRC=[fLCzQyCm4DtpAsxAK5goU-ZITYkqa344SRNEnaIMX2mJJEb_hoIxaJ-mJ5jDTxwdU_UUpW3nD9TAQZHOWwWasKuJQ2Kwd-nWZBDe2Tu5TcG-9nL_JdVdXqTugRNj5hMZLLeJ3x43-HQLB5sIWNRn5lvDa-mB6IWNiroeXdn-w7Dky4fcgqrCCwT5wTtYGYGA5uAO5TuG3iHp9t8Se4Fzl22AdHtHME7l14xRZ2Hca7F6oL9kW-235so8kQ-LBDHitb8fXwwQ2okKgT72VWyehjWrp9gMbkF71-p7lpdR6nk1WLSp_yWVc5_IZTnYODlqx-KMmyURp0dZ9iptIHyZxs8_IN8MHXdq66hQcXAAngt-PSsiqT-KhXgOGI6mXAVdLuMSU097qfhE__p6taZWbDwFOVQVoy70RQbRCyNjNiTzVGC0]--></g></svg>