<?xml version="1.0" encoding="UTF-8" standalone="no"?>
<!DOCTYPE svg PUBLIC "-//W3C//DTD SVG 1.1//EN"
 "http://www.w3.org/Graphics/SVG/1.1/DTD/svg11.dtd">
<!-- Generated by graphviz version 2.38.0 (20140413.2041)
 -->
<!-- Title: G Pages: 1 -->
<svg width="181pt" height="355pt"
 viewBox="0.00 0.00 181.49 355.00" xmlns="http://www.w3.org/2000/svg" xmlns:xlink="http://www.w3.org/1999/xlink">
<g id="graph0" class="graph" transform="scale(1 1) rotate(0) translate(4 351)">
<title>G</title>
<polygon fill="white" stroke="none" points="-4,4 -4,-351 177.491,-351 177.491,4 -4,4"/>
<text text-anchor="middle" x="86.7457" y="-7.8" font-family="Times New Roman,serif" font-size="14.00">Life flow</text>
<!-- Рождение -->
<g id="node1" class="node"><title>Рождение</title>
<ellipse fill="none" stroke="black" cx="123.446" cy="-329" rx="50.0912" ry="18"/>
<text text-anchor="middle" x="123.446" y="-325.3" font-family="Times New Roman,serif" font-size="14.00">Рождение</text>
</g>
<!-- Юность -->
<g id="node2" class="node"><title>Юность</title>
<ellipse fill="none" stroke="black" cx="123.446" cy="-257" rx="42.7926" ry="18"/>
<text text-anchor="middle" x="123.446" y="-253.3" font-family="Times New Roman,serif" font-size="14.00">Юность</text>
</g>
<!-- Рождение&#45;&gt;Юность -->
<g id="edge1" class="edge"><title>Рождение&#45;&gt;Юность</title>
<path fill="none" stroke="black" d="M123.446,-310.697C123.446,-302.983 123.446,-293.712 123.446,-285.112"/>
<polygon fill="black" stroke="black" points="126.946,-285.104 123.446,-275.104 119.946,-285.104 126.946,-285.104"/>
</g>
<!-- Зрелость -->
<g id="node3" class="node"><title>Зрелость</title>
<ellipse fill="none" stroke="black" cx="86.4458" cy="-185" rx="46.2923" ry="18"/>
<text text-anchor="middle" x="86.4458" y="-181.3" font-family="Times New Roman,serif" font-size="14.00">Зрелость</text>
</g>
<!-- Юность&#45;&gt;Зрелость -->
<g id="edge2" class="edge"><title>Юность&#45;&gt;Зрелость</title>
<path fill="none" stroke="black" d="M114.489,-239.055C110.172,-230.887 104.899,-220.912 100.096,-211.824"/>
<polygon fill="black" stroke="black" points="103.087,-209.994 95.32,-202.789 96.8988,-213.266 103.087,-209.994"/>
</g>
<!-- Смерть -->
<g id="node5" class="node"><title>Смерть</title>
<ellipse fill="none" stroke="black" cx="122.446" cy="-41" rx="40.0939" ry="18"/>
<text text-anchor="middle" x="122.446" y="-37.3" font-family="Times New Roman,serif" font-size="14.00">Смерть</text>
</g>
<!-- Юность&#45;&gt;Смерть -->
<g id="edge5" class="edge"><title>Юность&#45;&gt;Смерть</title>
<path fill="none" stroke="black" d="M130.739,-239.179C134.777,-228.937 139.387,-215.464 141.446,-203 149.193,-156.096 138.446,-100.999 130.237,-68.9381"/>
<polygon fill="black" stroke="black" points="133.543,-67.7517 127.581,-58.9936 126.78,-69.5582 133.543,-67.7517"/>
</g>
<!-- Старость -->
<g id="node4" class="node"><title>Старость</title>
<ellipse fill="none" stroke="black" cx="47.4458" cy="-113" rx="47.3916" ry="18"/>
<text text-anchor="middle" x="47.4458" y="-109.3" font-family="Times New Roman,serif" font-size="14.00">Старость</text>
</g>
<!-- Зрелость&#45;&gt;Старость -->
<g id="edge3" class="edge"><title>Зрелость&#45;&gt;Старость</title>
<path fill="none" stroke="black" d="M77.005,-167.055C72.4061,-158.801 66.7794,-148.701 61.674,-139.538"/>
<polygon fill="black" stroke="black" points="64.7242,-137.821 56.7997,-130.789 58.6092,-141.228 64.7242,-137.821"/>
</g>
<!-- Зрелость&#45;&gt;Смерть -->
<g id="edge6" class="edge"><title>Зрелость&#45;&gt;Смерть</title>
<path fill="none" stroke="black" d="M92.3964,-166.943C95.8787,-156.616 100.212,-143.139 103.446,-131 108.902,-110.518 113.858,-87.0616 117.339,-69.3729"/>
<polygon fill="black" stroke="black" points="120.847,-69.665 119.307,-59.1827 113.974,-68.3374 120.847,-69.665"/>
</g>
<!-- Старость&#45;&gt;Смерть -->
<g id="edge4" class="edge"><title>Старость&#45;&gt;Смерть</title>
<path fill="none" stroke="black" d="M64.4645,-96.1159C74.5075,-86.7424 87.3777,-74.7302 98.44,-64.4054"/>
<polygon fill="black" stroke="black" points="100.83,-66.962 105.753,-57.5801 96.0541,-61.8446 100.83,-66.962"/>
</g>
</g>
</svg>
