<?xml version="1.0" encoding="UTF-8" standalone="no"?>
<!DOCTYPE svg PUBLIC "-//W3C//DTD SVG 1.1//EN"
 "http://www.w3.org/Graphics/SVG/1.1/DTD/svg11.dtd">
<!-- Generated by graphviz version 2.38.0 (20140413.2041)
 -->
<!-- Title: structs Pages: 1 -->
<svg width="266pt" height="174pt"
 viewBox="0.00 0.00 266.00 174.00" xmlns="http://www.w3.org/2000/svg" xmlns:xlink="http://www.w3.org/1999/xlink">
<g id="graph0" class="graph" transform="scale(1 1) rotate(0) translate(4 170)">
<title>structs</title>
<polygon fill="white" stroke="none" points="-4,4 -4,-170 262,-170 262,4 -4,4"/>
<text text-anchor="middle" x="129" y="-7.8" font-family="Times New Roman,serif" font-size="14.00">Node Shapes &#45; digraph structs</text>
<!-- struct1 -->
<g id="node1" class="node"><title>struct1</title>
<polygon fill="none" stroke="black" points="10,-129.5 10,-165.5 143,-165.5 143,-129.5 10,-129.5"/>
<text text-anchor="middle" x="27" y="-143.8" font-family="Times New Roman,serif" font-size="14.00">left</text>
<polyline fill="none" stroke="black" points="44,-129.5 44,-165.5 "/>
<text text-anchor="middle" x="73" y="-143.8" font-family="Times New Roman,serif" font-size="14.00">mid dle</text>
<polyline fill="none" stroke="black" points="102,-129.5 102,-165.5 "/>
<text text-anchor="middle" x="122.5" y="-143.8" font-family="Times New Roman,serif" font-size="14.00">right</text>
</g>
<!-- struct2 -->
<g id="node2" class="node"><title>struct2</title>
<polygon fill="none" stroke="black" points="0,-40 0,-76 75,-76 75,-40 0,-40"/>
<text text-anchor="middle" x="18.5" y="-54.3" font-family="Times New Roman,serif" font-size="14.00">one</text>
<polyline fill="none" stroke="black" points="37,-40 37,-76 "/>
<text text-anchor="middle" x="56" y="-54.3" font-family="Times New Roman,serif" font-size="14.00">two</text>
</g>
<!-- struct1&#45;&gt;struct2 -->
<g id="edge1" class="edge"><title>struct1:f1&#45;&gt;struct2:f0</title>
<path fill="none" stroke="black" d="M72.5,-129C72.5,-99.586 30.4147,-107.547 20.5509,-86.8922"/>
<polygon fill="black" stroke="black" points="23.9573,-86.0812 18.5,-77 17.1031,-87.5023 23.9573,-86.0812"/>
</g>
<!-- struct3 -->
<g id="node3" class="node"><title>struct3</title>
<polygon fill="none" stroke="black" points="93,-23.5 93,-92.5 258,-92.5 258,-23.5 93,-23.5"/>
<text text-anchor="middle" x="117.5" y="-61.8" font-family="Times New Roman,serif" font-size="14.00">hello</text>
<text text-anchor="middle" x="117.5" y="-46.8" font-family="Times New Roman,serif" font-size="14.00">world</text>
<polyline fill="none" stroke="black" points="142,-23.5 142,-92.5 "/>
<text text-anchor="middle" x="177" y="-77.3" font-family="Times New Roman,serif" font-size="14.00">b</text>
<polyline fill="none" stroke="black" points="142,-69.5 212,-69.5 "/>
<text text-anchor="middle" x="153.5" y="-54.3" font-family="Times New Roman,serif" font-size="14.00">c</text>
<polyline fill="none" stroke="black" points="165,-46.5 165,-69.5 "/>
<text text-anchor="middle" x="177" y="-54.3" font-family="Times New Roman,serif" font-size="14.00">d</text>
<polyline fill="none" stroke="black" points="189,-46.5 189,-69.5 "/>
<text text-anchor="middle" x="200.5" y="-54.3" font-family="Times New Roman,serif" font-size="14.00">e</text>
<polyline fill="none" stroke="black" points="142,-46.5 212,-46.5 "/>
<text text-anchor="middle" x="177" y="-31.3" font-family="Times New Roman,serif" font-size="14.00">f</text>
<polyline fill="none" stroke="black" points="212,-23.5 212,-92.5 "/>
<text text-anchor="middle" x="223.5" y="-54.3" font-family="Times New Roman,serif" font-size="14.00">g</text>
<polyline fill="none" stroke="black" points="235,-23.5 235,-92.5 "/>
<text text-anchor="middle" x="246.5" y="-54.3" font-family="Times New Roman,serif" font-size="14.00">h</text>
</g>
<!-- struct1&#45;&gt;struct3 -->
<g id="edge2" class="edge"><title>struct1:f2&#45;&gt;struct3:here</title>
<path fill="none" stroke="black" d="M122.5,-129C122.5,-117.007 142.359,-93.7913 158.211,-77.1701"/>
<polygon fill="black" stroke="black" points="161.096,-79.2241 165.566,-69.6184 156.081,-74.34 161.096,-79.2241"/>
</g>
</g>
</svg>
