<?xml version="1.0" encoding="UTF-8" standalone="no"?>
<!DOCTYPE svg PUBLIC "-//W3C//DTD SVG 1.1//EN"
 "http://www.w3.org/Graphics/SVG/1.1/DTD/svg11.dtd">
<!-- Generated by graphviz version 2.38.0 (20140413.2041)
 -->
<!-- Title: G Pages: 1 -->
<svg width="242pt" height="67pt"
 viewBox="0.00 0.00 242.00 67.00" xmlns="http://www.w3.org/2000/svg" xmlns:xlink="http://www.w3.org/1999/xlink">
<g id="graph0" class="graph" transform="scale(1 1) rotate(0) translate(4 63)">
<title>G</title>
<polygon fill="white" stroke="none" points="-4,4 -4,-63 238,-63 238,4 -4,4"/>
<text text-anchor="middle" x="117" y="-7.8" font-family="Times New Roman,serif" font-size="14.00">Node Shapes &#45; digraph G</text>
<!-- node1 -->
<g id="node1" class="node"><title>node1</title>
<polygon fill="blue" stroke="blue" points="144,-59 90,-59 90,-23 144,-23 144,-59"/>
<text text-anchor="middle" x="117" y="-37.3" font-family="Times New Roman,serif" font-size="14.00">node1</text>
</g>
<!-- node2 -->
<g id="node2" class="node"><title>node2</title>
<polygon fill="red" stroke="blue" points="234,-59 180,-59 180,-23 234,-23 234,-59"/>
<text text-anchor="middle" x="207" y="-37.3" font-family="Times New Roman,serif" font-size="14.00">node2</text>
</g>
<!-- node1&#45;&gt;node2 -->
<g id="edge2" class="edge"><title>node1&#45;&gt;node2</title>
<path fill="none" stroke="black" d="M144.403,-41C152.393,-41 161.311,-41 169.824,-41"/>
<polygon fill="black" stroke="black" points="169.919,-44.5001 179.919,-41 169.919,-37.5001 169.919,-44.5001"/>
</g>
<!-- node0 -->
<g id="node3" class="node"><title>node0</title>
<polygon fill="none" stroke="blue" points="54,-59 0,-59 0,-23 54,-23 54,-59"/>
<text text-anchor="middle" x="27" y="-37.3" font-family="Times New Roman,serif" font-size="14.00">node0</text>
</g>
<!-- node0&#45;&gt;node1 -->
<g id="edge1" class="edge"><title>node0&#45;&gt;node1</title>
<path fill="none" stroke="black" d="M54.4029,-41C62.3932,-41 71.3106,-41 79.8241,-41"/>
<polygon fill="black" stroke="black" points="79.919,-44.5001 89.919,-41 79.919,-37.5001 79.919,-44.5001"/>
</g>
</g>
</svg>
