<?xml version="1.0" encoding="UTF-8" standalone="no"?>
<!DOCTYPE svg PUBLIC "-//W3C//DTD SVG 1.1//EN"
 "http://www.w3.org/Graphics/SVG/1.1/DTD/svg11.dtd">
<!-- Generated by graphviz version 10.0.1 (20240210.2158)
 -->
<!-- Title: G Pages: 1 -->
<svg width="244pt" height="443pt"
 viewBox="0.00 0.00 182.63 332.00" xmlns="http://www.w3.org/2000/svg" xmlns:xlink="http://www.w3.org/1999/xlink">
<g id="graph0" class="graph" transform="scale(1.33333 1.33333) rotate(0) translate(4 328)">
<title>G</title>
<polygon fill="white" stroke="none" points="-4,4 -4,-328 178.63,-328 178.63,4 -4,4"/>
<!-- Рождение -->
<g id="node1" class="node">
<title>Рождение</title>
<ellipse fill="none" stroke="black" cx="124.07" cy="-306" rx="50.56" ry="18"/>
<text text-anchor="middle" x="124.07" y="-300.57" font-family="Times New Roman,serif" font-size="14.00">Рождение</text>
</g>
<!-- Юность -->
<g id="node2" class="node">
<title>Юность</title>
<ellipse fill="none" stroke="black" cx="124.07" cy="-234" rx="43.58" ry="18"/>
<text text-anchor="middle" x="124.07" y="-228.57" font-family="Times New Roman,serif" font-size="14.00">Юность</text>
</g>
<!-- Рождение&#45;&gt;Юность -->
<g id="edge1" class="edge">
<title>Рождение&#45;&gt;Юность</title>
<path fill="none" stroke="black" d="M124.07,-287.7C124.07,-280.41 124.07,-271.73 124.07,-263.54"/>
<polygon fill="black" stroke="black" points="127.57,-263.62 124.07,-253.62 120.57,-263.62 127.57,-263.62"/>
</g>
<!-- Зрелость -->
<g id="node3" class="node">
<title>Зрелость</title>
<ellipse fill="none" stroke="black" cx="87.07" cy="-162" rx="47.07" ry="18"/>
<text text-anchor="middle" x="87.07" y="-156.57" font-family="Times New Roman,serif" font-size="14.00">Зрелость</text>
</g>
<!-- Юность&#45;&gt;Зрелость -->
<g id="edge2" class="edge">
<title>Юность&#45;&gt;Зрелость</title>
<path fill="none" stroke="black" d="M115.11,-216.05C110.93,-208.14 105.86,-198.54 101.18,-189.69"/>
<polygon fill="black" stroke="black" points="104.42,-188.33 96.65,-181.13 98.23,-191.6 104.42,-188.33"/>
</g>
<!-- Смерть -->
<g id="node5" class="node">
<title>Смерть</title>
<ellipse fill="none" stroke="black" cx="124.07" cy="-18" rx="40.58" ry="18"/>
<text text-anchor="middle" x="124.07" y="-12.57" font-family="Times New Roman,serif" font-size="14.00">Смерть</text>
</g>
<!-- Юность&#45;&gt;Смерть -->
<g id="edge5" class="edge">
<title>Юность&#45;&gt;Смерть</title>
<path fill="none" stroke="black" d="M131.77,-216.22C136.03,-205.99 140.89,-192.52 143.07,-180 151.14,-133.57 140.53,-79 132.22,-46.8"/>
<polygon fill="black" stroke="black" points="135.68,-46.21 129.69,-37.47 128.92,-48.04 135.68,-46.21"/>
</g>
<!-- Старость -->
<g id="node4" class="node">
<title>Старость</title>
<ellipse fill="none" stroke="black" cx="48.07" cy="-90" rx="48.07" ry="18"/>
<text text-anchor="middle" x="48.07" y="-84.58" font-family="Times New Roman,serif" font-size="14.00">Старость</text>
</g>
<!-- Зрелость&#45;&gt;Старость -->
<g id="edge3" class="edge">
<title>Зрелость&#45;&gt;Старость</title>
<path fill="none" stroke="black" d="M77.63,-144.05C73.22,-136.14 67.87,-126.54 62.94,-117.69"/>
<polygon fill="black" stroke="black" points="66.08,-116.14 58.16,-109.11 59.97,-119.55 66.08,-116.14"/>
</g>
<!-- Зрелость&#45;&gt;Смерть -->
<g id="edge6" class="edge">
<title>Зрелость&#45;&gt;Смерть</title>
<path fill="none" stroke="black" d="M93.42,-143.97C97.12,-133.66 101.71,-120.18 105.07,-108 110.59,-87.95 115.46,-64.99 118.89,-47.41"/>
<polygon fill="black" stroke="black" points="122.3,-48.17 120.73,-37.69 115.43,-46.86 122.3,-48.17"/>
</g>
<!-- Старость&#45;&gt;Смерть -->
<g id="edge4" class="edge">
<title>Старость&#45;&gt;Смерть</title>
<path fill="none" stroke="black" d="M65.7,-72.76C75.52,-63.71 87.93,-52.29 98.78,-42.3"/>
<polygon fill="black" stroke="black" points="100.96,-45.04 105.95,-35.69 96.22,-39.89 100.96,-45.04"/>
</g>
</g>
</svg>
