<?xml version="1.0" encoding="UTF-8" standalone="no"?>
<!DOCTYPE svg PUBLIC "-//W3C//DTD SVG 1.1//EN"
 "http://www.w3.org/Graphics/SVG/1.1/DTD/svg11.dtd">
<!-- Generated by graphviz version 10.0.1 (20240210.2158)
 -->
<!-- Title: structs Pages: 1 -->
<svg width="160pt" height="153pt"
 viewBox="0.00 0.00 159.50 153.25" xmlns="http://www.w3.org/2000/svg" xmlns:xlink="http://www.w3.org/1999/xlink">
<g id="graph0" class="graph" transform="scale(1 1) rotate(0) translate(4 149.25)">
<title>structs</title>
<polygon fill="white" stroke="none" points="-4,4 -4,-149.25 155.5,-149.25 155.5,4 -4,4"/>
<!-- first -->
<g id="node1" class="node">
<title>first</title>
<polygon fill="none" stroke="black" points="26,-73.5 26,-144.75 123.5,-144.75 123.5,-73.5 26,-73.5"/>
<text text-anchor="middle" x="41.88" y="-111.58" font-family="Times New Roman,serif" font-size="14.00">x1</text>
<text text-anchor="middle" x="41.88" y="-95.83" font-family="Times New Roman,serif" font-size="14.00"> all</text>
<polyline fill="none" stroke="black" points="57.75,-73.5 57.75,-144.75"/>
<text text-anchor="middle" x="75.88" y="-127.45" font-family="Times New Roman,serif" font-size="14.00">x21</text>
<polyline fill="none" stroke="black" points="57.75,-121 94,-121"/>
<text text-anchor="middle" x="75.88" y="-103.7" font-family="Times New Roman,serif" font-size="14.00">x22</text>
<polyline fill="none" stroke="black" points="57.75,-97.25 94,-97.25"/>
<text text-anchor="middle" x="75.88" y="-79.95" font-family="Times New Roman,serif" font-size="14.00">x23</text>
<polyline fill="none" stroke="black" points="94,-73.5 94,-144.75"/>
<text text-anchor="middle" x="108.75" y="-103.7" font-family="Times New Roman,serif" font-size="14.00">x3</text>
</g>
<!-- second -->
<g id="node2" class="node">
<title>second</title>
<polygon fill="none" stroke="black" points="0,-0.5 0,-36.5 151.5,-36.5 151.5,-0.5 0,-0.5"/>
<text text-anchor="middle" x="25.25" y="-13.07" font-family="Times New Roman,serif" font-size="14.00">x22_1</text>
<polyline fill="none" stroke="black" points="50.5,-0.5 50.5,-36.5"/>
<text text-anchor="middle" x="75.75" y="-13.07" font-family="Times New Roman,serif" font-size="14.00">x22_2</text>
<polyline fill="none" stroke="black" points="101,-0.5 101,-36.5"/>
<text text-anchor="middle" x="126.25" y="-13.07" font-family="Times New Roman,serif" font-size="14.00">x22_3</text>
</g>
<!-- first&#45;&gt;second -->
<g id="edge1" class="edge">
<title>first:f0&#45;&gt;second</title>
<path fill="none" stroke="black" d="M75.75,-97.04C75.75,-84.58 75.75,-64.7 75.75,-48.2"/>
<polygon fill="black" stroke="black" points="79.25,-48.44 75.75,-38.44 72.25,-48.44 79.25,-48.44"/>
</g>
</g>
</svg>
