<?xml version="1.0" encoding="UTF-8" standalone="no"?>
<!DOCTYPE svg PUBLIC "-//W3C//DTD SVG 1.1//EN"
 "http://www.w3.org/Graphics/SVG/1.1/DTD/svg11.dtd">
<!-- Generated by graphviz version 10.0.1 (20240210.2158)
 -->
<!-- Title: G Pages: 1 -->
<svg width="346pt" height="132pt"
 viewBox="0.00 0.00 346.35 131.70" xmlns="http://www.w3.org/2000/svg" xmlns:xlink="http://www.w3.org/1999/xlink">
<g id="graph0" class="graph" transform="scale(1 1) rotate(0) translate(4 127.7)">
<title>G</title>
<polygon fill="white" stroke="none" points="-4,4 -4,-127.7 342.35,-127.7 342.35,4 -4,4"/>
<!-- SGML -->
<g id="node1" class="node">
<title>SGML</title>
<g id="a_node1"><a xlink:href="SGML" xlink:title="SGML">
<ellipse fill="none" stroke="black" cx="36.59" cy="-51.7" rx="36.59" ry="18"/>
<text text-anchor="middle" x="36.59" y="-46.27" font-family="Times New Roman,serif" font-size="14.00">SGML</text>
</a>
</g>
</g>
<!-- HTML -->
<g id="node2" class="node">
<title>HTML</title>
<g id="a_node2"><a xlink:href="HTML" xlink:title="HTML">
<ellipse fill="none" stroke="black" cx="162.69" cy="-105.7" rx="36.59" ry="18"/>
<text text-anchor="middle" x="162.69" y="-100.27" font-family="Times New Roman,serif" font-size="14.00">HTML</text>
</a>
</g>
</g>
<!-- SGML&#45;&gt;HTML -->
<g id="edge1" class="edge">
<title>SGML&#45;&gt;HTML</title>
<path fill="none" stroke="black" d="M64.83,-63.55C82.2,-71.11 104.96,-81.01 124.06,-89.32"/>
<polygon fill="black" stroke="black" points="122.56,-92.49 133.13,-93.27 125.36,-86.07 122.56,-92.49"/>
</g>
<!-- XML -->
<g id="node3" class="node">
<title>XML</title>
<g id="a_node3"><a xlink:href="XML" xlink:title="XML">
<ellipse fill="none" stroke="black" cx="162.69" cy="-51.7" rx="30.61" ry="18"/>
<text text-anchor="middle" x="162.69" y="-46.27" font-family="Times New Roman,serif" font-size="14.00">XML</text>
</a>
</g>
</g>
<!-- SGML&#45;&gt;XML -->
<g id="edge2" class="edge">
<title>SGML&#45;&gt;XML</title>
<path fill="none" stroke="black" d="M73.49,-51.7C88.2,-51.7 105.32,-51.7 120.54,-51.7"/>
<polygon fill="black" stroke="black" points="120.22,-55.2 130.22,-51.7 120.22,-48.2 120.22,-55.2"/>
</g>
<!-- XHTML -->
<g id="node4" class="node">
<title>XHTML</title>
<g id="a_node4"><a xlink:href="http://www.w3schools.com/xhtml/" xlink:title="XHTML">
<ellipse fill="none" stroke="black" cx="295.27" cy="-51.7" rx="43.08" ry="18"/>
<text text-anchor="middle" x="295.27" y="-46.27" font-family="Times New Roman,serif" font-size="14.00">XHTML</text>
</a>
</g>
</g>
<!-- SGML&#45;&gt;XHTML -->
<g id="edge5" class="edge">
<title>SGML&#45;&gt;XHTML</title>
<g id="a_edge5"><a xlink:href="http://www.google.com" xlink:title="ссылка на Google">
<path fill="none" stroke="red" d="M56.93,-36.42C70.86,-26.44 90.57,-14.29 110.19,-8.95 155.21,3.33 169.94,2.5 215.19,-8.95 231.87,-13.17 248.84,-21.68 262.77,-30.01"/>
<polygon fill="red" stroke="red" points="260.71,-32.84 271.04,-35.17 264.41,-26.9 260.71,-32.84"/>
</a>
</g>
<g id="a_edge5&#45;label"><a xlink:href="http://www.google.com" xlink:title="ссылка на Google">
<text text-anchor="middle" x="162.69" y="-12.15" font-family="Times New Roman,serif" font-size="14.00" fill="blue">ссылка на Google</text>
</a>
</g>
</g>
<!-- HTML&#45;&gt;XHTML -->
<g id="edge3" class="edge">
<title>HTML&#45;&gt;XHTML</title>
<path fill="none" stroke="black" d="M191.38,-94.24C209.4,-86.79 233.22,-76.94 253.4,-68.59"/>
<polygon fill="black" stroke="black" points="254.58,-71.9 262.48,-64.84 251.9,-65.43 254.58,-71.9"/>
</g>
<!-- XML&#45;&gt;XHTML -->
<g id="edge4" class="edge">
<title>XML&#45;&gt;XHTML</title>
<path fill="none" stroke="black" d="M193.64,-51.7C207.58,-51.7 224.59,-51.7 240.63,-51.7"/>
<polygon fill="black" stroke="black" points="240.56,-55.2 250.56,-51.7 240.56,-48.2 240.56,-55.2"/>
</g>
</g>
</svg>
