<?xml version="1.0" encoding="UTF-8" standalone="no"?>
<!DOCTYPE svg PUBLIC "-//W3C//DTD SVG 1.1//EN"
 "http://www.w3.org/Graphics/SVG/1.1/DTD/svg11.dtd">
<!-- Generated by graphviz version 10.0.1 (20240210.2158)
 -->
<!-- Title: structs Pages: 1 -->
<svg width="303pt" height="310pt"
 viewBox="0.00 0.00 303.00 310.00" xmlns="http://www.w3.org/2000/svg" xmlns:xlink="http://www.w3.org/1999/xlink">
<g id="graph0" class="graph" transform="scale(1 1) rotate(0) translate(4 306)">
<title>structs</title>
<polygon fill="white" stroke="none" points="-4,4 -4,-306 299,-306 299,4 -4,4"/>
<!-- l1 -->
<g id="node1" class="node">
<title>l1</title>
<polygon fill="none" stroke="black" points="87.62,-254 87.62,-301.5 157.38,-301.5 157.38,-254 87.62,-254"/>
<text text-anchor="middle" x="99" y="-284.2" font-family="Times New Roman,serif" font-size="14.00">!</text>
<polyline fill="none" stroke="black" points="87.62,-277.75 110.38,-277.75"/>
<text text-anchor="middle" x="99" y="-260.45" font-family="Times New Roman,serif" font-size="14.00">0</text>
<polyline fill="none" stroke="black" points="110.38,-254 110.38,-301.5"/>
<text text-anchor="middle" x="122.5" y="-284.2" font-family="Times New Roman,serif" font-size="14.00">+</text>
<polyline fill="none" stroke="black" points="110.38,-277.75 134.62,-277.75"/>
<text text-anchor="middle" x="122.5" y="-260.45" font-family="Times New Roman,serif" font-size="14.00">1</text>
<polyline fill="none" stroke="black" points="134.62,-254 134.62,-301.5"/>
<text text-anchor="middle" x="146" y="-284.2" font-family="Times New Roman,serif" font-size="14.00">&#45;</text>
<polyline fill="none" stroke="black" points="134.62,-277.75 157.38,-277.75"/>
<text text-anchor="middle" x="146" y="-260.45" font-family="Times New Roman,serif" font-size="14.00">2</text>
</g>
<!-- l2 -->
<g id="node2" class="node">
<title>l2</title>
<polygon fill="none" stroke="black" points="15.25,-169.5 15.25,-217 275.75,-217 275.75,-169.5 15.25,-169.5"/>
<text text-anchor="middle" x="27.38" y="-199.7" font-family="Times New Roman,serif" font-size="14.00">+</text>
<polyline fill="none" stroke="black" points="15.25,-193.25 39.5,-193.25"/>
<text text-anchor="middle" x="27.38" y="-175.95" font-family="Times New Roman,serif" font-size="14.00">4</text>
<polyline fill="none" stroke="black" points="39.5,-169.5 39.5,-217"/>
<text text-anchor="middle" x="50.88" y="-199.7" font-family="Times New Roman,serif" font-size="14.00">&#45;</text>
<polyline fill="none" stroke="black" points="39.5,-193.25 62.25,-193.25"/>
<text text-anchor="middle" x="50.88" y="-175.95" font-family="Times New Roman,serif" font-size="14.00">5</text>
<polyline fill="none" stroke="black" points="62.25,-169.5 62.25,-217"/>
<text text-anchor="middle" x="74.38" y="-199.7" font-family="Times New Roman,serif" font-size="14.00">=</text>
<polyline fill="none" stroke="black" points="62.25,-193.25 86.5,-193.25"/>
<text text-anchor="middle" x="74.38" y="-175.95" font-family="Times New Roman,serif" font-size="14.00">6</text>
<polyline fill="none" stroke="black" points="86.5,-169.5 86.5,-217"/>
<text text-anchor="middle" x="98.62" y="-199.7" font-family="Times New Roman,serif" font-size="14.00">&gt;</text>
<polyline fill="none" stroke="black" points="86.5,-193.25 110.75,-193.25"/>
<text text-anchor="middle" x="98.62" y="-175.95" font-family="Times New Roman,serif" font-size="14.00">7</text>
<polyline fill="none" stroke="black" points="110.75,-169.5 110.75,-217"/>
<text text-anchor="middle" x="122.88" y="-199.7" font-family="Times New Roman,serif" font-size="14.00">+</text>
<polyline fill="none" stroke="black" points="110.75,-193.25 135,-193.25"/>
<text text-anchor="middle" x="122.88" y="-175.95" font-family="Times New Roman,serif" font-size="14.00">8</text>
<polyline fill="none" stroke="black" points="135,-169.5 135,-217"/>
<text text-anchor="middle" x="146.38" y="-199.7" font-family="Times New Roman,serif" font-size="14.00">&#45;</text>
<polyline fill="none" stroke="black" points="135,-193.25 157.75,-193.25"/>
<text text-anchor="middle" x="146.38" y="-175.95" font-family="Times New Roman,serif" font-size="14.00">9</text>
<polyline fill="none" stroke="black" points="157.75,-169.5 157.75,-217"/>
<text text-anchor="middle" x="172.5" y="-199.7" font-family="Times New Roman,serif" font-size="14.00">=</text>
<polyline fill="none" stroke="black" points="157.75,-193.25 187.25,-193.25"/>
<text text-anchor="middle" x="172.5" y="-175.95" font-family="Times New Roman,serif" font-size="14.00">10</text>
<polyline fill="none" stroke="black" points="187.25,-169.5 187.25,-217"/>
<text text-anchor="middle" x="202" y="-199.7" font-family="Times New Roman,serif" font-size="14.00">&#45;</text>
<polyline fill="none" stroke="black" points="187.25,-193.25 216.75,-193.25"/>
<text text-anchor="middle" x="202" y="-175.95" font-family="Times New Roman,serif" font-size="14.00">11</text>
<polyline fill="none" stroke="black" points="216.75,-169.5 216.75,-217"/>
<text text-anchor="middle" x="231.5" y="-199.7" font-family="Times New Roman,serif" font-size="14.00">=</text>
<polyline fill="none" stroke="black" points="216.75,-193.25 246.25,-193.25"/>
<text text-anchor="middle" x="231.5" y="-175.95" font-family="Times New Roman,serif" font-size="14.00">12</text>
<polyline fill="none" stroke="black" points="246.25,-169.5 246.25,-217"/>
<text text-anchor="middle" x="261" y="-199.7" font-family="Times New Roman,serif" font-size="14.00">&gt;</text>
<polyline fill="none" stroke="black" points="246.25,-193.25 275.75,-193.25"/>
<text text-anchor="middle" x="261" y="-175.95" font-family="Times New Roman,serif" font-size="14.00">13</text>
</g>
<!-- l1&#45;&gt;l2 -->
<g id="edge1" class="edge">
<title>l1:f0&#45;&gt;l2:t4</title>
<path fill="none" stroke="black" d="M98.5,-253.5C98.5,-222.82 45.11,-244.88 30.92,-228.21"/>
<polygon fill="black" stroke="black" points="34.34,-227.4 27.96,-218.94 27.67,-229.53 34.34,-227.4"/>
</g>
<!-- l1&#45;&gt;l2 -->
<g id="edge2" class="edge">
<title>l1:f1&#45;&gt;l2:t8</title>
<path fill="none" stroke="black" d="M122.5,-253.5C122.5,-242.12 122.5,-236.82 122.5,-228.95"/>
<polygon fill="black" stroke="black" points="126,-229.01 122.5,-219.01 119,-229.01 126,-229.01"/>
</g>
<!-- l1&#45;&gt;l2 -->
<g id="edge3" class="edge">
<title>l1:f2&#45;&gt;l2:t11</title>
<path fill="none" stroke="black" d="M146.5,-253.5C146.5,-228.77 185.63,-240.9 198.47,-228.27"/>
<polygon fill="black" stroke="black" points="201.74,-229.51 201.97,-218.92 195.19,-227.06 201.74,-229.51"/>
</g>
<!-- l3 -->
<g id="node3" class="node">
<title>l3</title>
<polygon fill="none" stroke="black" points="0,-85 0,-132.5 295,-132.5 295,-85 0,-85"/>
<text text-anchor="middle" x="14.75" y="-115.2" font-family="Times New Roman,serif" font-size="14.00">+</text>
<polyline fill="none" stroke="black" points="0,-108.75 29.5,-108.75"/>
<text text-anchor="middle" x="14.75" y="-91.45" font-family="Times New Roman,serif" font-size="14.00">14</text>
<polyline fill="none" stroke="black" points="29.5,-85 29.5,-132.5"/>
<text text-anchor="middle" x="44.25" y="-115.2" font-family="Times New Roman,serif" font-size="14.00">&#45;</text>
<polyline fill="none" stroke="black" points="29.5,-108.75 59,-108.75"/>
<text text-anchor="middle" x="44.25" y="-91.45" font-family="Times New Roman,serif" font-size="14.00">15</text>
<polyline fill="none" stroke="black" points="59,-85 59,-132.5"/>
<text text-anchor="middle" x="73.75" y="-115.2" font-family="Times New Roman,serif" font-size="14.00">=</text>
<polyline fill="none" stroke="black" points="59,-108.75 88.5,-108.75"/>
<text text-anchor="middle" x="73.75" y="-91.45" font-family="Times New Roman,serif" font-size="14.00">16</text>
<polyline fill="none" stroke="black" points="88.5,-85 88.5,-132.5"/>
<text text-anchor="middle" x="103.25" y="-115.2" font-family="Times New Roman,serif" font-size="14.00">&gt;</text>
<polyline fill="none" stroke="black" points="88.5,-108.75 118,-108.75"/>
<text text-anchor="middle" x="103.25" y="-91.45" font-family="Times New Roman,serif" font-size="14.00">17</text>
<polyline fill="none" stroke="black" points="118,-85 118,-132.5"/>
<text text-anchor="middle" x="132.75" y="-115.2" font-family="Times New Roman,serif" font-size="14.00">+</text>
<polyline fill="none" stroke="black" points="118,-108.75 147.5,-108.75"/>
<text text-anchor="middle" x="132.75" y="-91.45" font-family="Times New Roman,serif" font-size="14.00">18</text>
<polyline fill="none" stroke="black" points="147.5,-85 147.5,-132.5"/>
<text text-anchor="middle" x="162.25" y="-115.2" font-family="Times New Roman,serif" font-size="14.00">&#45;</text>
<polyline fill="none" stroke="black" points="147.5,-108.75 177,-108.75"/>
<text text-anchor="middle" x="162.25" y="-91.45" font-family="Times New Roman,serif" font-size="14.00">19</text>
<polyline fill="none" stroke="black" points="177,-85 177,-132.5"/>
<text text-anchor="middle" x="191.75" y="-115.2" font-family="Times New Roman,serif" font-size="14.00">!</text>
<polyline fill="none" stroke="black" points="177,-108.75 206.5,-108.75"/>
<text text-anchor="middle" x="191.75" y="-91.45" font-family="Times New Roman,serif" font-size="14.00">20</text>
<polyline fill="none" stroke="black" points="206.5,-85 206.5,-132.5"/>
<text text-anchor="middle" x="221.25" y="-115.2" font-family="Times New Roman,serif" font-size="14.00">=</text>
<polyline fill="none" stroke="black" points="206.5,-108.75 236,-108.75"/>
<text text-anchor="middle" x="221.25" y="-91.45" font-family="Times New Roman,serif" font-size="14.00">21</text>
<polyline fill="none" stroke="black" points="236,-85 236,-132.5"/>
<text text-anchor="middle" x="250.75" y="-115.2" font-family="Times New Roman,serif" font-size="14.00">&gt;</text>
<polyline fill="none" stroke="black" points="236,-108.75 265.5,-108.75"/>
<text text-anchor="middle" x="250.75" y="-91.45" font-family="Times New Roman,serif" font-size="14.00">22</text>
<polyline fill="none" stroke="black" points="265.5,-85 265.5,-132.5"/>
<text text-anchor="middle" x="280.25" y="-115.2" font-family="Times New Roman,serif" font-size="14.00">&gt;</text>
<polyline fill="none" stroke="black" points="265.5,-108.75 295,-108.75"/>
<text text-anchor="middle" x="280.25" y="-91.45" font-family="Times New Roman,serif" font-size="14.00">23</text>
</g>
<!-- l2&#45;&gt;l3 -->
<g id="edge4" class="edge">
<title>l2:f6&#45;&gt;l3:t14</title>
<path fill="none" stroke="black" d="M74.5,-169C74.5,-142.76 31.79,-157.31 18.44,-143.82"/>
<polygon fill="black" stroke="black" points="21.73,-142.62 15.02,-134.42 15.15,-145.02 21.73,-142.62"/>
</g>
<!-- l2&#45;&gt;l3 -->
<g id="edge5" class="edge">
<title>l2:f8&#45;&gt;l3:t18</title>
<path fill="none" stroke="black" d="M122.5,-169C122.5,-157.06 127.67,-152.27 130.57,-144.35"/>
<polygon fill="black" stroke="black" points="134.02,-144.94 132.25,-134.49 127.12,-143.76 134.02,-144.94"/>
</g>
<!-- l2&#45;&gt;l3 -->
<g id="edge6" class="edge">
<title>l2:f11&#45;&gt;l3:t20</title>
<path fill="none" stroke="black" d="M202.5,-169C202.5,-156.84 196.69,-152.18 193.52,-144.12"/>
<polygon fill="black" stroke="black" points="197,-143.7 191.77,-134.49 190.11,-144.95 197,-143.7"/>
</g>
<!-- l2&#45;&gt;l3 -->
<g id="edge7" class="edge">
<title>l2:f12&#45;&gt;l3:t23</title>
<path fill="none" stroke="black" d="M231.5,-169C231.5,-146.83 264.47,-154.99 276.32,-143.72"/>
<polygon fill="black" stroke="black" points="279.58,-145 279.95,-134.41 273.06,-142.46 279.58,-145"/>
</g>
<!-- l4 -->
<g id="node4" class="node">
<title>l4</title>
<polygon fill="none" stroke="black" points="58.75,-0.5 58.75,-48 206.25,-48 206.25,-0.5 58.75,-0.5"/>
<text text-anchor="middle" x="73.5" y="-30.7" font-family="Times New Roman,serif" font-size="14.00">!</text>
<polyline fill="none" stroke="black" points="58.75,-24.25 88.25,-24.25"/>
<text text-anchor="middle" x="73.5" y="-6.95" font-family="Times New Roman,serif" font-size="14.00">24</text>
<polyline fill="none" stroke="black" points="88.25,-0.5 88.25,-48"/>
<text text-anchor="middle" x="103" y="-30.7" font-family="Times New Roman,serif" font-size="14.00">+</text>
<polyline fill="none" stroke="black" points="88.25,-24.25 117.75,-24.25"/>
<text text-anchor="middle" x="103" y="-6.95" font-family="Times New Roman,serif" font-size="14.00">25</text>
<polyline fill="none" stroke="black" points="117.75,-0.5 117.75,-48"/>
<text text-anchor="middle" x="132.5" y="-30.7" font-family="Times New Roman,serif" font-size="14.00">&#45;</text>
<polyline fill="none" stroke="black" points="117.75,-24.25 147.25,-24.25"/>
<text text-anchor="middle" x="132.5" y="-6.95" font-family="Times New Roman,serif" font-size="14.00">26</text>
<polyline fill="none" stroke="black" points="147.25,-0.5 147.25,-48"/>
<text text-anchor="middle" x="162" y="-30.7" font-family="Times New Roman,serif" font-size="14.00">=</text>
<polyline fill="none" stroke="black" points="147.25,-24.25 176.75,-24.25"/>
<text text-anchor="middle" x="162" y="-6.95" font-family="Times New Roman,serif" font-size="14.00">27</text>
<polyline fill="none" stroke="black" points="176.75,-0.5 176.75,-48"/>
<text text-anchor="middle" x="191.5" y="-30.7" font-family="Times New Roman,serif" font-size="14.00">&gt;</text>
<polyline fill="none" stroke="black" points="176.75,-24.25 206.25,-24.25"/>
<text text-anchor="middle" x="191.5" y="-6.95" font-family="Times New Roman,serif" font-size="14.00">28</text>
</g>
<!-- l3&#45;&gt;l4 -->
<g id="edge8" class="edge">
<title>l3:f16&#45;&gt;l4:t24</title>
<path fill="none" stroke="black" d="M73.5,-84.5C73.5,-73.12 73.5,-67.82 73.5,-59.95"/>
<polygon fill="black" stroke="black" points="77,-60.01 73.5,-50.01 70,-60.01 77,-60.01"/>
</g>
</g>
</svg>
