<?xml version="1.0" encoding="UTF-8" standalone="no"?>
<!DOCTYPE svg PUBLIC "-//W3C//DTD SVG 1.1//EN"
 "http://www.w3.org/Graphics/SVG/1.1/DTD/svg11.dtd">
<!-- Generated by graphviz version 2.38.0 (20140413.2041)
 -->
<!-- Title: brackets Pages: 1 -->
<svg width="196pt" height="55pt"
 viewBox="0.00 0.00 196.00 55.00" xmlns="http://www.w3.org/2000/svg" xmlns:xlink="http://www.w3.org/1999/xlink">
<g id="graph0" class="graph" transform="scale(1 1) rotate(0) translate(4 51)">
<title>brackets</title>
<polygon fill="white" stroke="none" points="-4,4 -4,-51 192,-51 192,4 -4,4"/>
<!-- L0 -->
<g id="node1" class="node"><title>L0</title>
<polygon fill="none" stroke="black" points="0,-0.5 0,-46.5 188,-46.5 188,-0.5 0,-0.5"/>
<text text-anchor="middle" x="11.5" y="-31.3" font-family="Times New Roman,serif" font-size="14.00">(</text>
<polyline fill="none" stroke="black" points="0,-23.5 23,-23.5 "/>
<text text-anchor="middle" x="11.5" y="-8.3" font-family="Times New Roman,serif" font-size="14.00">0</text>
<polyline fill="none" stroke="black" points="23,-0.5 23,-46.5 "/>
<text text-anchor="middle" x="34.5" y="-31.3" font-family="Times New Roman,serif" font-size="14.00">)</text>
<polyline fill="none" stroke="black" points="23,-23.5 46,-23.5 "/>
<text text-anchor="middle" x="34.5" y="-8.3" font-family="Times New Roman,serif" font-size="14.00">1</text>
<polyline fill="none" stroke="black" points="46,-0.5 46,-46.5 "/>
<text text-anchor="middle" x="58.5" y="-31.3" font-family="Times New Roman,serif" font-size="14.00">&lt;</text>
<polyline fill="none" stroke="black" points="46,-23.5 71,-23.5 "/>
<text text-anchor="middle" x="58.5" y="-8.3" font-family="Times New Roman,serif" font-size="14.00">2</text>
<polyline fill="none" stroke="black" points="71,-0.5 71,-46.5 "/>
<text text-anchor="middle" x="83.5" y="-31.3" font-family="Times New Roman,serif" font-size="14.00">&gt;</text>
<polyline fill="none" stroke="black" points="71,-23.5 96,-23.5 "/>
<text text-anchor="middle" x="83.5" y="-8.3" font-family="Times New Roman,serif" font-size="14.00">3</text>
<polyline fill="none" stroke="black" points="96,-0.5 96,-46.5 "/>
<text text-anchor="middle" x="107.5" y="-31.3" font-family="Times New Roman,serif" font-size="14.00">[</text>
<polyline fill="none" stroke="black" points="96,-23.5 119,-23.5 "/>
<text text-anchor="middle" x="107.5" y="-8.3" font-family="Times New Roman,serif" font-size="14.00">4</text>
<polyline fill="none" stroke="black" points="119,-0.5 119,-46.5 "/>
<text text-anchor="middle" x="130.5" y="-31.3" font-family="Times New Roman,serif" font-size="14.00">]</text>
<polyline fill="none" stroke="black" points="119,-23.5 142,-23.5 "/>
<text text-anchor="middle" x="130.5" y="-8.3" font-family="Times New Roman,serif" font-size="14.00">5</text>
<polyline fill="none" stroke="black" points="142,-0.5 142,-46.5 "/>
<text text-anchor="middle" x="153.5" y="-31.3" font-family="Times New Roman,serif" font-size="14.00">{</text>
<polyline fill="none" stroke="black" points="142,-23.5 165,-23.5 "/>
<text text-anchor="middle" x="153.5" y="-8.3" font-family="Times New Roman,serif" font-size="14.00">6</text>
<polyline fill="none" stroke="black" points="165,-0.5 165,-46.5 "/>
<text text-anchor="middle" x="176.5" y="-31.3" font-family="Times New Roman,serif" font-size="14.00">}</text>
<polyline fill="none" stroke="black" points="165,-23.5 188,-23.5 "/>
<text text-anchor="middle" x="176.5" y="-8.3" font-family="Times New Roman,serif" font-size="14.00">7</text>
</g>
</g>
</svg>
