<?xml version="1.0" encoding="UTF-8" standalone="no"?>
<!DOCTYPE svg PUBLIC "-//W3C//DTD SVG 1.1//EN"
 "http://www.w3.org/Graphics/SVG/1.1/DTD/svg11.dtd">
<!-- Generated by graphviz version 2.38.0 (20140413.2041)
 -->
<!-- Title: operators Pages: 1 -->
<svg width="758pt" height="221pt"
 viewBox="0.00 0.00 758.00 221.00" xmlns="http://www.w3.org/2000/svg" xmlns:xlink="http://www.w3.org/1999/xlink">
<g id="graph0" class="graph" transform="scale(1 1) rotate(0) translate(4 217)">
<title>operators</title>
<polygon fill="white" stroke="none" points="-4,4 -4,-217 754,-217 754,4 -4,4"/>
<!-- L0 -->
<g id="node1" class="node"><title>L0</title>
<polygon fill="none" stroke="black" points="177.5,-166.5 177.5,-212.5 660.5,-212.5 660.5,-166.5 177.5,-166.5"/>
<text text-anchor="middle" x="189" y="-197.3" font-family="Times New Roman,serif" font-size="14.00">!</text>
<polyline fill="none" stroke="black" points="177.5,-189.5 200.5,-189.5 "/>
<text text-anchor="middle" x="189" y="-174.3" font-family="Times New Roman,serif" font-size="14.00">0</text>
<polyline fill="none" stroke="black" points="200.5,-166.5 200.5,-212.5 "/>
<text text-anchor="middle" x="215" y="-197.3" font-family="Times New Roman,serif" font-size="14.00">%</text>
<polyline fill="none" stroke="black" points="200.5,-189.5 229.5,-189.5 "/>
<text text-anchor="middle" x="215" y="-174.3" font-family="Times New Roman,serif" font-size="14.00">1</text>
<polyline fill="none" stroke="black" points="229.5,-166.5 229.5,-212.5 "/>
<text text-anchor="middle" x="243.5" y="-197.3" font-family="Times New Roman,serif" font-size="14.00">&amp;</text>
<polyline fill="none" stroke="black" points="229.5,-189.5 257.5,-189.5 "/>
<text text-anchor="middle" x="243.5" y="-174.3" font-family="Times New Roman,serif" font-size="14.00">2</text>
<polyline fill="none" stroke="black" points="257.5,-166.5 257.5,-212.5 "/>
<text text-anchor="middle" x="269" y="-197.3" font-family="Times New Roman,serif" font-size="14.00">*</text>
<polyline fill="none" stroke="black" points="257.5,-189.5 280.5,-189.5 "/>
<text text-anchor="middle" x="269" y="-174.3" font-family="Times New Roman,serif" font-size="14.00">3</text>
<polyline fill="none" stroke="black" points="280.5,-166.5 280.5,-212.5 "/>
<text text-anchor="middle" x="293" y="-197.3" font-family="Times New Roman,serif" font-size="14.00">+</text>
<polyline fill="none" stroke="black" points="280.5,-189.5 305.5,-189.5 "/>
<text text-anchor="middle" x="293" y="-174.3" font-family="Times New Roman,serif" font-size="14.00">4</text>
<polyline fill="none" stroke="black" points="305.5,-166.5 305.5,-212.5 "/>
<text text-anchor="middle" x="317" y="-197.3" font-family="Times New Roman,serif" font-size="14.00">,</text>
<polyline fill="none" stroke="black" points="305.5,-189.5 328.5,-189.5 "/>
<text text-anchor="middle" x="317" y="-174.3" font-family="Times New Roman,serif" font-size="14.00">5</text>
<polyline fill="none" stroke="black" points="328.5,-166.5 328.5,-212.5 "/>
<text text-anchor="middle" x="340" y="-197.3" font-family="Times New Roman,serif" font-size="14.00">&#45;</text>
<polyline fill="none" stroke="black" points="328.5,-189.5 351.5,-189.5 "/>
<text text-anchor="middle" x="340" y="-174.3" font-family="Times New Roman,serif" font-size="14.00">6</text>
<polyline fill="none" stroke="black" points="351.5,-166.5 351.5,-212.5 "/>
<text text-anchor="middle" x="363" y="-197.3" font-family="Times New Roman,serif" font-size="14.00">.</text>
<polyline fill="none" stroke="black" points="351.5,-189.5 374.5,-189.5 "/>
<text text-anchor="middle" x="363" y="-174.3" font-family="Times New Roman,serif" font-size="14.00">7</text>
<polyline fill="none" stroke="black" points="374.5,-166.5 374.5,-212.5 "/>
<text text-anchor="middle" x="386" y="-197.3" font-family="Times New Roman,serif" font-size="14.00">/</text>
<polyline fill="none" stroke="black" points="374.5,-189.5 397.5,-189.5 "/>
<text text-anchor="middle" x="386" y="-174.3" font-family="Times New Roman,serif" font-size="14.00">8</text>
<polyline fill="none" stroke="black" points="397.5,-166.5 397.5,-212.5 "/>
<text text-anchor="middle" x="409" y="-197.3" font-family="Times New Roman,serif" font-size="14.00">:</text>
<polyline fill="none" stroke="black" points="397.5,-189.5 420.5,-189.5 "/>
<text text-anchor="middle" x="409" y="-174.3" font-family="Times New Roman,serif" font-size="14.00">9</text>
<polyline fill="none" stroke="black" points="420.5,-166.5 420.5,-212.5 "/>
<text text-anchor="middle" x="435.5" y="-197.3" font-family="Times New Roman,serif" font-size="14.00">;</text>
<polyline fill="none" stroke="black" points="420.5,-189.5 450.5,-189.5 "/>
<text text-anchor="middle" x="435.5" y="-174.3" font-family="Times New Roman,serif" font-size="14.00">10</text>
<polyline fill="none" stroke="black" points="450.5,-166.5 450.5,-212.5 "/>
<text text-anchor="middle" x="465.5" y="-197.3" font-family="Times New Roman,serif" font-size="14.00">&lt;</text>
<polyline fill="none" stroke="black" points="450.5,-189.5 480.5,-189.5 "/>
<text text-anchor="middle" x="465.5" y="-174.3" font-family="Times New Roman,serif" font-size="14.00">11</text>
<polyline fill="none" stroke="black" points="480.5,-166.5 480.5,-212.5 "/>
<text text-anchor="middle" x="495.5" y="-197.3" font-family="Times New Roman,serif" font-size="14.00">=</text>
<polyline fill="none" stroke="black" points="480.5,-189.5 510.5,-189.5 "/>
<text text-anchor="middle" x="495.5" y="-174.3" font-family="Times New Roman,serif" font-size="14.00">12</text>
<polyline fill="none" stroke="black" points="510.5,-166.5 510.5,-212.5 "/>
<text text-anchor="middle" x="525.5" y="-197.3" font-family="Times New Roman,serif" font-size="14.00">&gt;</text>
<polyline fill="none" stroke="black" points="510.5,-189.5 540.5,-189.5 "/>
<text text-anchor="middle" x="525.5" y="-174.3" font-family="Times New Roman,serif" font-size="14.00">13</text>
<polyline fill="none" stroke="black" points="540.5,-166.5 540.5,-212.5 "/>
<text text-anchor="middle" x="555.5" y="-197.3" font-family="Times New Roman,serif" font-size="14.00">?</text>
<polyline fill="none" stroke="black" points="540.5,-189.5 570.5,-189.5 "/>
<text text-anchor="middle" x="555.5" y="-174.3" font-family="Times New Roman,serif" font-size="14.00">14</text>
<polyline fill="none" stroke="black" points="570.5,-166.5 570.5,-212.5 "/>
<text text-anchor="middle" x="585.5" y="-197.3" font-family="Times New Roman,serif" font-size="14.00">^</text>
<polyline fill="none" stroke="black" points="570.5,-189.5 600.5,-189.5 "/>
<text text-anchor="middle" x="585.5" y="-174.3" font-family="Times New Roman,serif" font-size="14.00">15</text>
<polyline fill="none" stroke="black" points="600.5,-166.5 600.5,-212.5 "/>
<text text-anchor="middle" x="615.5" y="-197.3" font-family="Times New Roman,serif" font-size="14.00">|</text>
<polyline fill="none" stroke="black" points="600.5,-189.5 630.5,-189.5 "/>
<text text-anchor="middle" x="615.5" y="-174.3" font-family="Times New Roman,serif" font-size="14.00">16</text>
<polyline fill="none" stroke="black" points="630.5,-166.5 630.5,-212.5 "/>
<text text-anchor="middle" x="645.5" y="-197.3" font-family="Times New Roman,serif" font-size="14.00">~</text>
<polyline fill="none" stroke="black" points="630.5,-189.5 660.5,-189.5 "/>
<text text-anchor="middle" x="645.5" y="-174.3" font-family="Times New Roman,serif" font-size="14.00">17</text>
</g>
<!-- L1 -->
<g id="node2" class="node"><title>L1</title>
<polygon fill="none" stroke="black" points="0,-83.5 0,-129.5 750,-129.5 750,-83.5 0,-83.5"/>
<text text-anchor="middle" x="15" y="-114.3" font-family="Times New Roman,serif" font-size="14.00">=</text>
<polyline fill="none" stroke="black" points="0,-106.5 30,-106.5 "/>
<text text-anchor="middle" x="15" y="-91.3" font-family="Times New Roman,serif" font-size="14.00">18</text>
<polyline fill="none" stroke="black" points="30,-83.5 30,-129.5 "/>
<text text-anchor="middle" x="45" y="-114.3" font-family="Times New Roman,serif" font-size="14.00">=</text>
<polyline fill="none" stroke="black" points="30,-106.5 60,-106.5 "/>
<text text-anchor="middle" x="45" y="-91.3" font-family="Times New Roman,serif" font-size="14.00">19</text>
<polyline fill="none" stroke="black" points="60,-83.5 60,-129.5 "/>
<text text-anchor="middle" x="75" y="-114.3" font-family="Times New Roman,serif" font-size="14.00">&amp;</text>
<polyline fill="none" stroke="black" points="60,-106.5 90,-106.5 "/>
<text text-anchor="middle" x="75" y="-91.3" font-family="Times New Roman,serif" font-size="14.00">20</text>
<polyline fill="none" stroke="black" points="90,-83.5 90,-129.5 "/>
<text text-anchor="middle" x="105" y="-114.3" font-family="Times New Roman,serif" font-size="14.00">=</text>
<polyline fill="none" stroke="black" points="90,-106.5 120,-106.5 "/>
<text text-anchor="middle" x="105" y="-91.3" font-family="Times New Roman,serif" font-size="14.00">21</text>
<polyline fill="none" stroke="black" points="120,-83.5 120,-129.5 "/>
<text text-anchor="middle" x="135" y="-114.3" font-family="Times New Roman,serif" font-size="14.00">/</text>
<polyline fill="none" stroke="black" points="120,-106.5 150,-106.5 "/>
<text text-anchor="middle" x="135" y="-91.3" font-family="Times New Roman,serif" font-size="14.00">22</text>
<polyline fill="none" stroke="black" points="150,-83.5 150,-129.5 "/>
<text text-anchor="middle" x="165" y="-114.3" font-family="Times New Roman,serif" font-size="14.00">=</text>
<polyline fill="none" stroke="black" points="150,-106.5 180,-106.5 "/>
<text text-anchor="middle" x="165" y="-91.3" font-family="Times New Roman,serif" font-size="14.00">23</text>
<polyline fill="none" stroke="black" points="180,-83.5 180,-129.5 "/>
<text text-anchor="middle" x="195" y="-114.3" font-family="Times New Roman,serif" font-size="14.00">+</text>
<polyline fill="none" stroke="black" points="180,-106.5 210,-106.5 "/>
<text text-anchor="middle" x="195" y="-91.3" font-family="Times New Roman,serif" font-size="14.00">24</text>
<polyline fill="none" stroke="black" points="210,-83.5 210,-129.5 "/>
<text text-anchor="middle" x="225" y="-114.3" font-family="Times New Roman,serif" font-size="14.00">=</text>
<polyline fill="none" stroke="black" points="210,-106.5 240,-106.5 "/>
<text text-anchor="middle" x="225" y="-91.3" font-family="Times New Roman,serif" font-size="14.00">25</text>
<polyline fill="none" stroke="black" points="240,-83.5 240,-129.5 "/>
<text text-anchor="middle" x="255" y="-114.3" font-family="Times New Roman,serif" font-size="14.00">&#45;</text>
<polyline fill="none" stroke="black" points="240,-106.5 270,-106.5 "/>
<text text-anchor="middle" x="255" y="-91.3" font-family="Times New Roman,serif" font-size="14.00">26</text>
<polyline fill="none" stroke="black" points="270,-83.5 270,-129.5 "/>
<text text-anchor="middle" x="285" y="-114.3" font-family="Times New Roman,serif" font-size="14.00">=</text>
<polyline fill="none" stroke="black" points="270,-106.5 300,-106.5 "/>
<text text-anchor="middle" x="285" y="-91.3" font-family="Times New Roman,serif" font-size="14.00">27</text>
<polyline fill="none" stroke="black" points="300,-83.5 300,-129.5 "/>
<text text-anchor="middle" x="315" y="-114.3" font-family="Times New Roman,serif" font-size="14.00">&gt;</text>
<polyline fill="none" stroke="black" points="300,-106.5 330,-106.5 "/>
<text text-anchor="middle" x="315" y="-91.3" font-family="Times New Roman,serif" font-size="14.00">28</text>
<polyline fill="none" stroke="black" points="330,-83.5 330,-129.5 "/>
<text text-anchor="middle" x="345" y="-114.3" font-family="Times New Roman,serif" font-size="14.00">*</text>
<polyline fill="none" stroke="black" points="330,-106.5 360,-106.5 "/>
<text text-anchor="middle" x="345" y="-91.3" font-family="Times New Roman,serif" font-size="14.00">29</text>
<polyline fill="none" stroke="black" points="360,-83.5 360,-129.5 "/>
<text text-anchor="middle" x="375" y="-114.3" font-family="Times New Roman,serif" font-size="14.00">.</text>
<polyline fill="none" stroke="black" points="360,-106.5 390,-106.5 "/>
<text text-anchor="middle" x="375" y="-91.3" font-family="Times New Roman,serif" font-size="14.00">30</text>
<polyline fill="none" stroke="black" points="390,-83.5 390,-129.5 "/>
<text text-anchor="middle" x="405" y="-114.3" font-family="Times New Roman,serif" font-size="14.00">*</text>
<polyline fill="none" stroke="black" points="390,-106.5 420,-106.5 "/>
<text text-anchor="middle" x="405" y="-91.3" font-family="Times New Roman,serif" font-size="14.00">31</text>
<polyline fill="none" stroke="black" points="420,-83.5 420,-129.5 "/>
<text text-anchor="middle" x="435" y="-114.3" font-family="Times New Roman,serif" font-size="14.00">/</text>
<polyline fill="none" stroke="black" points="420,-106.5 450,-106.5 "/>
<text text-anchor="middle" x="435" y="-91.3" font-family="Times New Roman,serif" font-size="14.00">32</text>
<polyline fill="none" stroke="black" points="450,-83.5 450,-129.5 "/>
<text text-anchor="middle" x="465" y="-114.3" font-family="Times New Roman,serif" font-size="14.00">=</text>
<polyline fill="none" stroke="black" points="450,-106.5 480,-106.5 "/>
<text text-anchor="middle" x="465" y="-91.3" font-family="Times New Roman,serif" font-size="14.00">33</text>
<polyline fill="none" stroke="black" points="480,-83.5 480,-129.5 "/>
<text text-anchor="middle" x="495" y="-114.3" font-family="Times New Roman,serif" font-size="14.00">:</text>
<polyline fill="none" stroke="black" points="480,-106.5 510,-106.5 "/>
<text text-anchor="middle" x="495" y="-91.3" font-family="Times New Roman,serif" font-size="14.00">34</text>
<polyline fill="none" stroke="black" points="510,-83.5 510,-129.5 "/>
<text text-anchor="middle" x="525" y="-114.3" font-family="Times New Roman,serif" font-size="14.00">&lt;</text>
<polyline fill="none" stroke="black" points="510,-106.5 540,-106.5 "/>
<text text-anchor="middle" x="525" y="-91.3" font-family="Times New Roman,serif" font-size="14.00">35</text>
<polyline fill="none" stroke="black" points="540,-83.5 540,-129.5 "/>
<text text-anchor="middle" x="555" y="-114.3" font-family="Times New Roman,serif" font-size="14.00">=</text>
<polyline fill="none" stroke="black" points="540,-106.5 570,-106.5 "/>
<text text-anchor="middle" x="555" y="-91.3" font-family="Times New Roman,serif" font-size="14.00">36</text>
<polyline fill="none" stroke="black" points="570,-83.5 570,-129.5 "/>
<text text-anchor="middle" x="585" y="-114.3" font-family="Times New Roman,serif" font-size="14.00">=</text>
<polyline fill="none" stroke="black" points="570,-106.5 600,-106.5 "/>
<text text-anchor="middle" x="585" y="-91.3" font-family="Times New Roman,serif" font-size="14.00">37</text>
<polyline fill="none" stroke="black" points="600,-83.5 600,-129.5 "/>
<text text-anchor="middle" x="615" y="-114.3" font-family="Times New Roman,serif" font-size="14.00">=</text>
<polyline fill="none" stroke="black" points="600,-106.5 630,-106.5 "/>
<text text-anchor="middle" x="615" y="-91.3" font-family="Times New Roman,serif" font-size="14.00">38</text>
<polyline fill="none" stroke="black" points="630,-83.5 630,-129.5 "/>
<text text-anchor="middle" x="645" y="-114.3" font-family="Times New Roman,serif" font-size="14.00">&gt;</text>
<polyline fill="none" stroke="black" points="630,-106.5 660,-106.5 "/>
<text text-anchor="middle" x="645" y="-91.3" font-family="Times New Roman,serif" font-size="14.00">39</text>
<polyline fill="none" stroke="black" points="660,-83.5 660,-129.5 "/>
<text text-anchor="middle" x="675" y="-114.3" font-family="Times New Roman,serif" font-size="14.00">=</text>
<polyline fill="none" stroke="black" points="660,-106.5 690,-106.5 "/>
<text text-anchor="middle" x="675" y="-91.3" font-family="Times New Roman,serif" font-size="14.00">40</text>
<polyline fill="none" stroke="black" points="690,-83.5 690,-129.5 "/>
<text text-anchor="middle" x="705" y="-114.3" font-family="Times New Roman,serif" font-size="14.00">=</text>
<polyline fill="none" stroke="black" points="690,-106.5 720,-106.5 "/>
<text text-anchor="middle" x="705" y="-91.3" font-family="Times New Roman,serif" font-size="14.00">41</text>
<polyline fill="none" stroke="black" points="720,-83.5 720,-129.5 "/>
<text text-anchor="middle" x="735" y="-114.3" font-family="Times New Roman,serif" font-size="14.00">|</text>
<polyline fill="none" stroke="black" points="720,-106.5 750,-106.5 "/>
<text text-anchor="middle" x="735" y="-91.3" font-family="Times New Roman,serif" font-size="14.00">42</text>
</g>
<!-- L0&#45;&gt;L1 -->
<g id="edge1" class="edge"><title>L0:O0&#45;&gt;L1:I18</title>
<path fill="none" stroke="black" d="M189,-166C189,-90.8849 31.5773,-197.542 16.204,-140.178"/>
<polygon fill="black" stroke="black" points="19.6507,-139.52 15,-130 12.6991,-140.342 19.6507,-139.52"/>
</g>
<!-- L0&#45;&gt;L1 -->
<g id="edge2" class="edge"><title>L0:O1&#45;&gt;L1:I19</title>
<path fill="none" stroke="black" d="M215,-166C215,-92.54 61.1963,-196.129 46.1764,-139.959"/>
<polygon fill="black" stroke="black" points="49.649,-139.52 45,-130 42.6973,-140.342 49.649,-139.52"/>
</g>
<!-- L0&#45;&gt;L1 -->
<g id="edge3" class="edge"><title>L0:O2&#45;&gt;L1:I20</title>
<path fill="none" stroke="black" d="M243,-166C243,-93.516 91.6293,-195.005 76.2557,-140.19"/>
<polygon fill="black" stroke="black" points="79.6968,-139.497 75,-130 72.7494,-140.353 79.6968,-139.497"/>
</g>
<!-- L0&#45;&gt;L1 -->
<g id="edge4" class="edge"><title>L0:O3&#45;&gt;L1:I22</title>
<path fill="none" stroke="black" d="M269,-166C269,-108.187 151.227,-181.333 136.505,-139.889"/>
<polygon fill="black" stroke="black" points="139.965,-139.36 135,-130 133.044,-140.413 139.965,-139.36"/>
</g>
<!-- L0&#45;&gt;L1 -->
<g id="edge5" class="edge"><title>L0:O4&#45;&gt;L1:I24</title>
<path fill="none" stroke="black" d="M293,-166C293,-123.586 211.12,-167.401 197.047,-139.807"/>
<polygon fill="black" stroke="black" points="200.469,-139.074 195,-130 193.617,-140.504 200.469,-139.074"/>
</g>
<!-- L0&#45;&gt;L1 -->
<g id="edge6" class="edge"><title>L0:O6&#45;&gt;L1:I26</title>
<path fill="none" stroke="black" d="M340,-166C340,-129.14 271.389,-162.57 257.452,-139.988"/>
<polygon fill="black" stroke="black" points="260.783,-138.877 255,-130 253.985,-140.546 260.783,-138.877"/>
</g>
<!-- L0&#45;&gt;L1 -->
<g id="edge7" class="edge"><title>L0:O7&#45;&gt;L1:I29</title>
<path fill="none" stroke="black" d="M363,-166C363,-152.164 352.232,-148.896 347.353,-139.849"/>
<polygon fill="black" stroke="black" points="350.728,-138.913 345,-130 343.92,-140.54 350.728,-138.913"/>
</g>
<!-- L0&#45;&gt;L1 -->
<g id="edge8" class="edge"><title>L0:O8&#45;&gt;L1:I31</title>
<path fill="none" stroke="black" d="M386,-166C386,-152.007 397.366,-148.947 402.516,-139.908"/>
<polygon fill="black" stroke="black" points="405.963,-140.551 405,-130 399.173,-138.849 405.963,-140.551"/>
</g>
<!-- L0&#45;&gt;L1 -->
<g id="edge9" class="edge"><title>L0:O9&#45;&gt;L1:I34</title>
<path fill="none" stroke="black" d="M409,-166C409,-128.611 479.023,-163.123 492.7,-139.777"/>
<polygon fill="black" stroke="black" points="496.117,-140.536 495,-130 489.303,-138.933 496.117,-140.536"/>
</g>
<!-- L0&#45;&gt;L1 -->
<g id="edge10" class="edge"><title>L0:O11&#45;&gt;L1:I35</title>
<path fill="none" stroke="black" d="M466,-166C466,-139.602 509.573,-154.675 521.828,-139.94"/>
<polygon fill="black" stroke="black" points="525.294,-140.591 525,-130 518.625,-138.463 525.294,-140.591"/>
</g>
<!-- L0&#45;&gt;L1 -->
<g id="edge11" class="edge"><title>L0:O12&#45;&gt;L1:I37</title>
<path fill="none" stroke="black" d="M496,-166C496,-127.498 568.466,-163.91 582.619,-140.04"/>
<polygon fill="black" stroke="black" points="586.098,-140.538 585,-130 579.287,-138.923 586.098,-140.538"/>
</g>
<!-- L0&#45;&gt;L1 -->
<g id="edge12" class="edge"><title>L0:O13&#45;&gt;L1:I38</title>
<path fill="none" stroke="black" d="M526,-166C526,-127.498 598.466,-163.91 612.619,-140.04"/>
<polygon fill="black" stroke="black" points="616.098,-140.538 615,-130 609.287,-138.923 616.098,-140.538"/>
</g>
<!-- L0&#45;&gt;L1 -->
<g id="edge13" class="edge"><title>L0:O15&#45;&gt;L1:I40</title>
<path fill="none" stroke="black" d="M586,-166C586,-127.498 658.466,-163.91 672.619,-140.04"/>
<polygon fill="black" stroke="black" points="676.098,-140.538 675,-130 669.287,-138.923 676.098,-140.538"/>
</g>
<!-- L0&#45;&gt;L1 -->
<g id="edge14" class="edge"><title>L0:O16&#45;&gt;L1:I41</title>
<path fill="none" stroke="black" d="M616,-166C616,-127.498 688.466,-163.91 702.619,-140.04"/>
<polygon fill="black" stroke="black" points="706.098,-140.538 705,-130 699.287,-138.923 706.098,-140.538"/>
</g>
<!-- L2 -->
<g id="node3" class="node"><title>L2</title>
<polygon fill="none" stroke="black" points="450,-0.5 450,-46.5 600,-46.5 600,-0.5 450,-0.5"/>
<text text-anchor="middle" x="465" y="-31.3" font-family="Times New Roman,serif" font-size="14.00">*</text>
<polyline fill="none" stroke="black" points="450,-23.5 480,-23.5 "/>
<text text-anchor="middle" x="465" y="-8.3" font-family="Times New Roman,serif" font-size="14.00">43</text>
<polyline fill="none" stroke="black" points="480,-0.5 480,-46.5 "/>
<text text-anchor="middle" x="495" y="-31.3" font-family="Times New Roman,serif" font-size="14.00">.</text>
<polyline fill="none" stroke="black" points="480,-23.5 510,-23.5 "/>
<text text-anchor="middle" x="495" y="-8.3" font-family="Times New Roman,serif" font-size="14.00">44</text>
<polyline fill="none" stroke="black" points="510,-0.5 510,-46.5 "/>
<text text-anchor="middle" x="525" y="-31.3" font-family="Times New Roman,serif" font-size="14.00">=</text>
<polyline fill="none" stroke="black" points="510,-23.5 540,-23.5 "/>
<text text-anchor="middle" x="525" y="-8.3" font-family="Times New Roman,serif" font-size="14.00">45</text>
<polyline fill="none" stroke="black" points="540,-0.5 540,-46.5 "/>
<text text-anchor="middle" x="555" y="-31.3" font-family="Times New Roman,serif" font-size="14.00">&gt;</text>
<polyline fill="none" stroke="black" points="540,-23.5 570,-23.5 "/>
<text text-anchor="middle" x="555" y="-8.3" font-family="Times New Roman,serif" font-size="14.00">46</text>
<polyline fill="none" stroke="black" points="570,-0.5 570,-46.5 "/>
<text text-anchor="middle" x="585" y="-31.3" font-family="Times New Roman,serif" font-size="14.00">=</text>
<polyline fill="none" stroke="black" points="570,-23.5 600,-23.5 "/>
<text text-anchor="middle" x="585" y="-8.3" font-family="Times New Roman,serif" font-size="14.00">47</text>
</g>
<!-- L1&#45;&gt;L2 -->
<g id="edge15" class="edge"><title>L1:O28&#45;&gt;L2:I43</title>
<path fill="none" stroke="black" d="M315,-83C315,-54.2452 399.832,-38.4849 438.895,-35.885"/>
<polygon fill="black" stroke="black" points="439.141,-39.3783 449,-35.5 438.874,-32.3834 439.141,-39.3783"/>
</g>
<!-- L1&#45;&gt;L2 -->
<g id="edge16" class="edge"><title>L1:O30&#45;&gt;L2:I44</title>
<path fill="none" stroke="black" d="M375,-83C375,-31.2335 478.718,-92.7315 493.304,-56.8929"/>
<polygon fill="black" stroke="black" points="496.76,-57.4477 495,-47 489.86,-56.2646 496.76,-57.4477"/>
</g>
<!-- L1&#45;&gt;L2 -->
<g id="edge17" class="edge"><title>L1:O35&#45;&gt;L2:I45</title>
<path fill="none" stroke="black" d="M525,-83C525,-71 525,-65.75 525,-57.125"/>
<polygon fill="black" stroke="black" points="528.5,-57 525,-47 521.5,-57 528.5,-57"/>
</g>
<!-- L1&#45;&gt;L2 -->
<g id="edge18" class="edge"><title>L1:O36&#45;&gt;L2:I46</title>
<path fill="none" stroke="black" d="M555,-83C555,-71 555,-65.75 555,-57.125"/>
<polygon fill="black" stroke="black" points="558.5,-57 555,-47 551.5,-57 558.5,-57"/>
</g>
<!-- L1&#45;&gt;L2 -->
<g id="edge19" class="edge"><title>L1:O39&#45;&gt;L2:I47</title>
<path fill="none" stroke="black" d="M645,-83C645,-56.0318 599.879,-72.1505 587.894,-56.6273"/>
<polygon fill="black" stroke="black" points="591.231,-55.5691 585,-47 584.527,-57.5843 591.231,-55.5691"/>
</g>
</g>
</svg>
