<?xml version="1.0" encoding="UTF-8" standalone="no"?>
<!DOCTYPE svg PUBLIC "-//W3C//DTD SVG 1.1//EN"
 "http://www.w3.org/Graphics/SVG/1.1/DTD/svg11.dtd">
<!-- Generated by graphviz version 10.0.1 (20240210.2158)
 -->
<!-- Pages: 1 -->
<svg width="425pt" height="205pt"
 viewBox="0.00 0.00 425.27 205.10" xmlns="http://www.w3.org/2000/svg" xmlns:xlink="http://www.w3.org/1999/xlink">
<g id="graph0" class="graph" transform="scale(1 1) rotate(0) translate(4 201.1)">
<polygon fill="white" stroke="none" points="-4,4 -4,-201.1 421.27,-201.1 421.27,4 -4,4"/>
<!-- r_1 -->
<g id="node1" class="node">
<title>r_1</title>
<ellipse fill="none" stroke="black" cx="71.14" cy="-185.96" rx="11.14" ry="11.14"/>
<text text-anchor="middle" x="71.14" y="-180.53" font-family="Times New Roman,serif" font-size="14.00">!</text>
</g>
<!-- n_2_1 -->
<g id="node2" class="node">
<title>n_2_1</title>
<ellipse fill="none" stroke="black" cx="11.14" cy="-127.68" rx="11.14" ry="11.14"/>
<text text-anchor="middle" x="11.14" y="-122.26" font-family="Times New Roman,serif" font-size="14.00">+</text>
</g>
<!-- r_1&#45;&gt;n_2_1 -->
<g id="edge1" class="edge">
<title>r_1&#45;&gt;n_2_1</title>
<path fill="none" stroke="black" d="M63.29,-177.6C54.08,-168.96 38.57,-154.41 26.85,-143.42"/>
<polygon fill="black" stroke="black" points="29.59,-141.19 19.9,-136.9 24.8,-146.29 29.59,-141.19"/>
</g>
<!-- n_2_2 -->
<g id="node3" class="node">
<title>n_2_2</title>
<ellipse fill="none" stroke="black" cx="51.14" cy="-127.68" rx="11.14" ry="11.14"/>
<text text-anchor="middle" x="51.14" y="-122.26" font-family="Times New Roman,serif" font-size="14.00">&#45;</text>
</g>
<!-- r_1&#45;&gt;n_2_2 -->
<g id="edge2" class="edge">
<title>r_1&#45;&gt;n_2_2</title>
<path fill="none" stroke="black" d="M67.56,-174.9C65.03,-167.78 61.55,-157.97 58.44,-149.23"/>
<polygon fill="black" stroke="black" points="61.84,-148.33 55.19,-140.08 55.24,-150.68 61.84,-148.33"/>
</g>
<!-- n_2_3 -->
<g id="node4" class="node">
<title>n_2_3</title>
<ellipse fill="none" stroke="black" cx="91.14" cy="-127.68" rx="11.14" ry="11.14"/>
<text text-anchor="middle" x="91.14" y="-122.26" font-family="Times New Roman,serif" font-size="14.00">=</text>
</g>
<!-- r_1&#45;&gt;n_2_3 -->
<g id="edge3" class="edge">
<title>r_1&#45;&gt;n_2_3</title>
<path fill="none" stroke="black" d="M74.71,-174.9C77.24,-167.78 80.73,-157.97 83.84,-149.23"/>
<polygon fill="black" stroke="black" points="87.03,-150.68 87.09,-140.08 80.44,-148.33 87.03,-150.68"/>
</g>
<!-- n_2_4 -->
<g id="node5" class="node">
<title>n_2_4</title>
<ellipse fill="none" stroke="black" cx="131.14" cy="-127.68" rx="11.14" ry="11.14"/>
<text text-anchor="middle" x="131.14" y="-122.26" font-family="Times New Roman,serif" font-size="14.00">&gt;</text>
</g>
<!-- r_1&#45;&gt;n_2_4 -->
<g id="edge4" class="edge">
<title>r_1&#45;&gt;n_2_4</title>
<path fill="none" stroke="black" d="M78.98,-177.6C88.19,-168.96 103.71,-154.41 115.43,-143.42"/>
<polygon fill="black" stroke="black" points="117.48,-146.29 122.38,-136.9 112.69,-141.19 117.48,-146.29"/>
</g>
<!-- n_3_1 -->
<g id="node6" class="node">
<title>n_3_1</title>
<ellipse fill="none" stroke="black" cx="13.14" cy="-69.41" rx="11.14" ry="11.14"/>
<text text-anchor="middle" x="13.14" y="-63.99" font-family="Times New Roman,serif" font-size="14.00">+</text>
</g>
<!-- n_2_3&#45;&gt;n_3_1 -->
<g id="edge5" class="edge">
<title>n_2_3&#45;&gt;n_3_1</title>
<path fill="none" stroke="black" d="M82.49,-120.45C70.14,-111.54 47.16,-94.96 31.05,-83.33"/>
<polygon fill="black" stroke="black" points="33.45,-80.75 23.29,-77.73 29.35,-86.42 33.45,-80.75"/>
</g>
<!-- n_3_2 -->
<g id="node7" class="node">
<title>n_3_2</title>
<ellipse fill="none" stroke="black" cx="53.14" cy="-69.41" rx="11.14" ry="11.14"/>
<text text-anchor="middle" x="53.14" y="-63.99" font-family="Times New Roman,serif" font-size="14.00">&#45;</text>
</g>
<!-- n_2_3&#45;&gt;n_3_2 -->
<g id="edge6" class="edge">
<title>n_2_3&#45;&gt;n_3_2</title>
<path fill="none" stroke="black" d="M85.2,-117.89C79.93,-110.09 72.07,-98.45 65.45,-88.64"/>
<polygon fill="black" stroke="black" points="68.5,-86.91 60.01,-80.58 62.7,-90.83 68.5,-86.91"/>
</g>
<!-- n_3_3 -->
<g id="node8" class="node">
<title>n_3_3</title>
<ellipse fill="none" stroke="black" cx="93.14" cy="-69.41" rx="11.14" ry="11.14"/>
<text text-anchor="middle" x="93.14" y="-63.99" font-family="Times New Roman,serif" font-size="14.00">=</text>
</g>
<!-- n_2_3&#45;&gt;n_3_3 -->
<g id="edge7" class="edge">
<title>n_2_3&#45;&gt;n_3_3</title>
<path fill="none" stroke="black" d="M91.51,-116.1C91.75,-109.42 92.07,-100.54 92.36,-92.39"/>
<polygon fill="black" stroke="black" points="95.85,-92.58 92.71,-82.46 88.86,-92.33 95.85,-92.58"/>
</g>
<!-- n_3_4 -->
<g id="node9" class="node">
<title>n_3_4</title>
<ellipse fill="none" stroke="black" cx="133.14" cy="-69.41" rx="11.14" ry="11.14"/>
<text text-anchor="middle" x="133.14" y="-63.99" font-family="Times New Roman,serif" font-size="14.00">&gt;</text>
</g>
<!-- n_2_3&#45;&gt;n_3_4 -->
<g id="edge8" class="edge">
<title>n_2_3&#45;&gt;n_3_4</title>
<path fill="none" stroke="black" d="M97.33,-118.38C103.29,-110.4 112.48,-98.09 120.05,-87.94"/>
<polygon fill="black" stroke="black" points="122.83,-90.07 126.01,-79.96 117.22,-85.88 122.83,-90.07"/>
</g>
<!-- n_4_0 -->
<g id="node10" class="node">
<title>n_4_0</title>
<ellipse fill="none" stroke="black" cx="13.14" cy="-11.14" rx="11.14" ry="11.14"/>
<text text-anchor="middle" x="13.14" y="-5.71" font-family="Times New Roman,serif" font-size="14.00">!</text>
</g>
<!-- n_3_3&#45;&gt;n_4_0 -->
<g id="edge9" class="edge">
<title>n_3_3&#45;&gt;n_4_0</title>
<path fill="none" stroke="black" d="M84.27,-62.17C71.47,-53.17 47.53,-36.33 30.98,-24.69"/>
<polygon fill="black" stroke="black" points="33.23,-21.99 23.04,-19.1 29.2,-27.72 33.23,-21.99"/>
</g>
<!-- n_4_1 -->
<g id="node11" class="node">
<title>n_4_1</title>
<ellipse fill="none" stroke="black" cx="53.14" cy="-11.14" rx="11.14" ry="11.14"/>
<text text-anchor="middle" x="53.14" y="-5.71" font-family="Times New Roman,serif" font-size="14.00">+</text>
</g>
<!-- n_3_3&#45;&gt;n_4_1 -->
<g id="edge10" class="edge">
<title>n_3_3&#45;&gt;n_4_1</title>
<path fill="none" stroke="black" d="M86.89,-59.62C81.28,-51.73 72.87,-39.9 65.85,-30.02"/>
<polygon fill="black" stroke="black" points="68.74,-28.04 60.09,-21.92 63.03,-32.1 68.74,-28.04"/>
</g>
<!-- n_4_2 -->
<g id="node12" class="node">
<title>n_4_2</title>
<ellipse fill="none" stroke="black" cx="93.14" cy="-11.14" rx="11.14" ry="11.14"/>
<text text-anchor="middle" x="93.14" y="-5.71" font-family="Times New Roman,serif" font-size="14.00">&#45;</text>
</g>
<!-- n_3_3&#45;&gt;n_4_2 -->
<g id="edge11" class="edge">
<title>n_3_3&#45;&gt;n_4_2</title>
<path fill="none" stroke="black" d="M93.14,-57.83C93.14,-51.15 93.14,-42.27 93.14,-34.11"/>
<polygon fill="black" stroke="black" points="96.64,-34.19 93.14,-24.19 89.64,-34.19 96.64,-34.19"/>
</g>
<!-- n_4_3 -->
<g id="node13" class="node">
<title>n_4_3</title>
<ellipse fill="none" stroke="black" cx="133.14" cy="-11.14" rx="11.14" ry="11.14"/>
<text text-anchor="middle" x="133.14" y="-5.71" font-family="Times New Roman,serif" font-size="14.00">=</text>
</g>
<!-- n_3_3&#45;&gt;n_4_3 -->
<g id="edge12" class="edge">
<title>n_3_3&#45;&gt;n_4_3</title>
<path fill="none" stroke="black" d="M99.39,-59.62C105,-51.73 113.4,-39.9 120.42,-30.02"/>
<polygon fill="black" stroke="black" points="123.24,-32.1 126.18,-21.92 117.54,-28.04 123.24,-32.1"/>
</g>
<!-- n_4_4 -->
<g id="node14" class="node">
<title>n_4_4</title>
<ellipse fill="none" stroke="black" cx="173.14" cy="-11.14" rx="11.14" ry="11.14"/>
<text text-anchor="middle" x="173.14" y="-5.71" font-family="Times New Roman,serif" font-size="14.00">&gt;</text>
</g>
<!-- n_3_3&#45;&gt;n_4_4 -->
<g id="edge13" class="edge">
<title>n_3_3&#45;&gt;n_4_4</title>
<path fill="none" stroke="black" d="M102,-62.17C114.81,-53.17 138.74,-36.33 155.29,-24.69"/>
<polygon fill="black" stroke="black" points="157.07,-27.72 163.24,-19.1 153.04,-21.99 157.07,-27.72"/>
</g>
<!-- r_2 -->
<g id="node15" class="node">
<title>r_2</title>
<ellipse fill="none" stroke="black" cx="216.14" cy="-185.96" rx="11.14" ry="11.14"/>
<text text-anchor="middle" x="216.14" y="-180.53" font-family="Times New Roman,serif" font-size="14.00">+</text>
</g>
<!-- p_2_1 -->
<g id="node16" class="node">
<title>p_2_1</title>
<ellipse fill="none" stroke="black" cx="176.14" cy="-127.68" rx="11.14" ry="11.14"/>
<text text-anchor="middle" x="176.14" y="-122.26" font-family="Times New Roman,serif" font-size="14.00">+</text>
</g>
<!-- r_2&#45;&gt;p_2_1 -->
<g id="edge14" class="edge">
<title>r_2&#45;&gt;p_2_1</title>
<path fill="none" stroke="black" d="M209.89,-176.17C204.28,-168.27 195.87,-156.45 188.85,-146.57"/>
<polygon fill="black" stroke="black" points="191.74,-144.59 183.09,-138.47 186.03,-148.64 191.74,-144.59"/>
</g>
<!-- p_2_2 -->
<g id="node17" class="node">
<title>p_2_2</title>
<ellipse fill="none" stroke="black" cx="216.14" cy="-127.68" rx="11.14" ry="11.14"/>
<text text-anchor="middle" x="216.14" y="-122.26" font-family="Times New Roman,serif" font-size="14.00">&#45;</text>
</g>
<!-- r_2&#45;&gt;p_2_2 -->
<g id="edge15" class="edge">
<title>r_2&#45;&gt;p_2_2</title>
<path fill="none" stroke="black" d="M216.14,-174.37C216.14,-167.69 216.14,-158.81 216.14,-150.66"/>
<polygon fill="black" stroke="black" points="219.64,-150.74 216.14,-140.74 212.64,-150.74 219.64,-150.74"/>
</g>
<!-- p_2_3 -->
<g id="node18" class="node">
<title>p_2_3</title>
<ellipse fill="none" stroke="black" cx="256.14" cy="-127.68" rx="11.14" ry="11.14"/>
<text text-anchor="middle" x="256.14" y="-122.26" font-family="Times New Roman,serif" font-size="14.00">=</text>
</g>
<!-- r_2&#45;&gt;p_2_3 -->
<g id="edge16" class="edge">
<title>r_2&#45;&gt;p_2_3</title>
<path fill="none" stroke="black" d="M222.39,-176.17C228,-168.27 236.4,-156.45 243.42,-146.57"/>
<polygon fill="black" stroke="black" points="246.24,-148.64 249.18,-138.47 240.54,-144.59 246.24,-148.64"/>
</g>
<!-- p_3_1 -->
<g id="node19" class="node">
<title>p_3_1</title>
<ellipse fill="none" stroke="black" cx="174.14" cy="-69.41" rx="11.14" ry="11.14"/>
<text text-anchor="middle" x="174.14" y="-63.99" font-family="Times New Roman,serif" font-size="14.00">+</text>
</g>
<!-- p_2_1&#45;&gt;p_3_1 -->
<g id="edge17" class="edge">
<title>p_2_1&#45;&gt;p_3_1</title>
<path fill="none" stroke="black" d="M175.76,-116.1C175.52,-109.42 175.21,-100.54 174.92,-92.39"/>
<polygon fill="black" stroke="black" points="178.42,-92.33 174.57,-82.46 171.42,-92.58 178.42,-92.33"/>
</g>
<!-- p_3_2 -->
<g id="node20" class="node">
<title>p_3_2</title>
<ellipse fill="none" stroke="black" cx="214.14" cy="-69.41" rx="11.14" ry="11.14"/>
<text text-anchor="middle" x="214.14" y="-63.99" font-family="Times New Roman,serif" font-size="14.00">&#45;</text>
</g>
<!-- p_2_1&#45;&gt;p_3_2 -->
<g id="edge18" class="edge">
<title>p_2_1&#45;&gt;p_3_2</title>
<path fill="none" stroke="black" d="M182.07,-117.89C187.34,-110.09 195.21,-98.45 201.83,-88.64"/>
<polygon fill="black" stroke="black" points="204.57,-90.83 207.27,-80.58 198.77,-86.91 204.57,-90.83"/>
</g>
<!-- r_3 -->
<g id="node21" class="node">
<title>r_3</title>
<ellipse fill="none" stroke="black" cx="366.14" cy="-185.96" rx="11.14" ry="11.14"/>
<text text-anchor="middle" x="366.14" y="-180.53" font-family="Times New Roman,serif" font-size="14.00">&#45;</text>
</g>
<!-- m_2_1 -->
<g id="node22" class="node">
<title>m_2_1</title>
<ellipse fill="none" stroke="black" cx="306.14" cy="-127.68" rx="11.14" ry="11.14"/>
<text text-anchor="middle" x="306.14" y="-122.26" font-family="Times New Roman,serif" font-size="14.00">&#45;</text>
</g>
<!-- r_3&#45;&gt;m_2_1 -->
<g id="edge19" class="edge">
<title>r_3&#45;&gt;m_2_1</title>
<path fill="none" stroke="black" d="M358.29,-177.6C349.08,-168.96 333.57,-154.41 321.85,-143.42"/>
<polygon fill="black" stroke="black" points="324.59,-141.19 314.9,-136.9 319.8,-146.29 324.59,-141.19"/>
</g>
<!-- m_2_2 -->
<g id="node23" class="node">
<title>m_2_2</title>
<ellipse fill="none" stroke="black" cx="366.14" cy="-127.68" rx="11.14" ry="11.14"/>
<text text-anchor="middle" x="366.14" y="-122.26" font-family="Times New Roman,serif" font-size="14.00">=</text>
</g>
<!-- r_3&#45;&gt;m_2_2 -->
<g id="edge20" class="edge">
<title>r_3&#45;&gt;m_2_2</title>
<path fill="none" stroke="black" d="M366.14,-174.37C366.14,-167.69 366.14,-158.81 366.14,-150.66"/>
<polygon fill="black" stroke="black" points="369.64,-150.74 366.14,-140.74 362.64,-150.74 369.64,-150.74"/>
</g>
<!-- m_2_3 -->
<g id="node24" class="node">
<title>m_2_3</title>
<ellipse fill="none" stroke="black" cx="406.14" cy="-127.68" rx="11.14" ry="11.14"/>
<text text-anchor="middle" x="406.14" y="-122.26" font-family="Times New Roman,serif" font-size="14.00">&gt;</text>
</g>
<!-- r_3&#45;&gt;m_2_3 -->
<g id="edge21" class="edge">
<title>r_3&#45;&gt;m_2_3</title>
<path fill="none" stroke="black" d="M372.39,-176.17C378,-168.27 386.4,-156.45 393.42,-146.57"/>
<polygon fill="black" stroke="black" points="396.24,-148.64 399.18,-138.47 390.54,-144.59 396.24,-148.64"/>
</g>
<!-- m_3_1 -->
<g id="node25" class="node">
<title>m_3_1</title>
<ellipse fill="none" stroke="black" cx="260.14" cy="-69.41" rx="11.14" ry="11.14"/>
<text text-anchor="middle" x="260.14" y="-63.99" font-family="Times New Roman,serif" font-size="14.00">!</text>
</g>
<!-- m_2_1&#45;&gt;m_3_1 -->
<g id="edge22" class="edge">
<title>m_2_1&#45;&gt;m_3_1</title>
<path fill="none" stroke="black" d="M299.35,-118.38C292.76,-110.32 282.55,-97.83 274.21,-87.62"/>
<polygon fill="black" stroke="black" points="276.95,-85.45 267.91,-79.92 271.53,-89.88 276.95,-85.45"/>
</g>
<!-- m_3_2 -->
<g id="node26" class="node">
<title>m_3_2</title>
<ellipse fill="none" stroke="black" cx="300.14" cy="-69.41" rx="11.14" ry="11.14"/>
<text text-anchor="middle" x="300.14" y="-63.99" font-family="Times New Roman,serif" font-size="14.00">=</text>
</g>
<!-- m_2_1&#45;&gt;m_3_2 -->
<g id="edge23" class="edge">
<title>m_2_1&#45;&gt;m_3_2</title>
<path fill="none" stroke="black" d="M305.04,-116.36C304.31,-109.54 303.33,-100.35 302.44,-91.97"/>
<polygon fill="black" stroke="black" points="305.93,-91.74 301.39,-82.17 298.97,-92.49 305.93,-91.74"/>
</g>
<!-- m_3_3 -->
<g id="node27" class="node">
<title>m_3_3</title>
<ellipse fill="none" stroke="black" cx="340.14" cy="-69.41" rx="11.14" ry="11.14"/>
<text text-anchor="middle" x="340.14" y="-63.99" font-family="Times New Roman,serif" font-size="14.00">&gt;</text>
</g>
<!-- m_2_1&#45;&gt;m_3_3 -->
<g id="edge24" class="edge">
<title>m_2_1&#45;&gt;m_3_3</title>
<path fill="none" stroke="black" d="M311.6,-117.64C316.18,-110.06 322.88,-98.97 328.64,-89.44"/>
<polygon fill="black" stroke="black" points="331.62,-91.28 333.79,-80.91 325.63,-87.66 331.62,-91.28"/>
</g>
<!-- m_4_1 -->
<g id="node28" class="node">
<title>m_4_1</title>
<ellipse fill="none" stroke="black" cx="380.14" cy="-69.41" rx="11.14" ry="11.14"/>
<text text-anchor="middle" x="380.14" y="-63.99" font-family="Times New Roman,serif" font-size="14.00">&gt;</text>
</g>
<!-- m_2_2&#45;&gt;m_4_1 -->
<g id="edge25" class="edge">
<title>m_2_2&#45;&gt;m_4_1</title>
<path fill="none" stroke="black" d="M368.7,-116.36C370.42,-109.46 372.74,-100.13 374.85,-91.68"/>
<polygon fill="black" stroke="black" points="378.2,-92.68 377.22,-82.14 371.41,-90.99 378.2,-92.68"/>
</g>
</g>
</svg>
