<?xml version="1.0" encoding="UTF-8" standalone="no"?>
<!DOCTYPE svg PUBLIC "-//W3C//DTD SVG 1.1//EN"
 "http://www.w3.org/Graphics/SVG/1.1/DTD/svg11.dtd">
<!-- Generated by graphviz version 10.0.1 (20240210.2158)
 -->
<!-- Title: brackets Pages: 1 -->
<svg width="193pt" height="57pt"
 viewBox="0.00 0.00 193.00 56.50" xmlns="http://www.w3.org/2000/svg" xmlns:xlink="http://www.w3.org/1999/xlink">
<g id="graph0" class="graph" transform="scale(1 1) rotate(0) translate(4 52.5)">
<title>brackets</title>
<polygon fill="white" stroke="none" points="-4,4 -4,-52.5 189,-52.5 189,4 -4,4"/>
<!-- L0 -->
<g id="node1" class="node">
<title>L0</title>
<polygon fill="none" stroke="black" points="0,-0.5 0,-48 185,-48 185,-0.5 0,-0.5"/>
<text text-anchor="middle" x="11.38" y="-30.7" font-family="Times New Roman,serif" font-size="14.00">(</text>
<polyline fill="none" stroke="black" points="0,-24.25 22.75,-24.25"/>
<text text-anchor="middle" x="11.38" y="-6.95" font-family="Times New Roman,serif" font-size="14.00">0</text>
<polyline fill="none" stroke="black" points="22.75,-0.5 22.75,-48"/>
<text text-anchor="middle" x="34.12" y="-30.7" font-family="Times New Roman,serif" font-size="14.00">)</text>
<polyline fill="none" stroke="black" points="22.75,-24.25 45.5,-24.25"/>
<text text-anchor="middle" x="34.12" y="-6.95" font-family="Times New Roman,serif" font-size="14.00">1</text>
<polyline fill="none" stroke="black" points="45.5,-0.5 45.5,-48"/>
<text text-anchor="middle" x="57.62" y="-30.7" font-family="Times New Roman,serif" font-size="14.00">&lt;</text>
<polyline fill="none" stroke="black" points="45.5,-24.25 69.75,-24.25"/>
<text text-anchor="middle" x="57.62" y="-6.95" font-family="Times New Roman,serif" font-size="14.00">2</text>
<polyline fill="none" stroke="black" points="69.75,-0.5 69.75,-48"/>
<text text-anchor="middle" x="81.88" y="-30.7" font-family="Times New Roman,serif" font-size="14.00">&gt;</text>
<polyline fill="none" stroke="black" points="69.75,-24.25 94,-24.25"/>
<text text-anchor="middle" x="81.88" y="-6.95" font-family="Times New Roman,serif" font-size="14.00">3</text>
<polyline fill="none" stroke="black" points="94,-0.5 94,-48"/>
<text text-anchor="middle" x="105.38" y="-30.7" font-family="Times New Roman,serif" font-size="14.00">[</text>
<polyline fill="none" stroke="black" points="94,-24.25 116.75,-24.25"/>
<text text-anchor="middle" x="105.38" y="-6.95" font-family="Times New Roman,serif" font-size="14.00">4</text>
<polyline fill="none" stroke="black" points="116.75,-0.5 116.75,-48"/>
<text text-anchor="middle" x="128.12" y="-30.7" font-family="Times New Roman,serif" font-size="14.00">]</text>
<polyline fill="none" stroke="black" points="116.75,-24.25 139.5,-24.25"/>
<text text-anchor="middle" x="128.12" y="-6.95" font-family="Times New Roman,serif" font-size="14.00">5</text>
<polyline fill="none" stroke="black" points="139.5,-0.5 139.5,-48"/>
<text text-anchor="middle" x="150.88" y="-30.7" font-family="Times New Roman,serif" font-size="14.00">{</text>
<polyline fill="none" stroke="black" points="139.5,-24.25 162.25,-24.25"/>
<text text-anchor="middle" x="150.88" y="-6.95" font-family="Times New Roman,serif" font-size="14.00">6</text>
<polyline fill="none" stroke="black" points="162.25,-0.5 162.25,-48"/>
<text text-anchor="middle" x="173.62" y="-30.7" font-family="Times New Roman,serif" font-size="14.00">}</text>
<polyline fill="none" stroke="black" points="162.25,-24.25 185,-24.25"/>
<text text-anchor="middle" x="173.62" y="-6.95" font-family="Times New Roman,serif" font-size="14.00">7</text>
</g>
</g>
</svg>
