<?xml version="1.0" encoding="UTF-8" standalone="no"?>
<!DOCTYPE svg PUBLIC "-//W3C//DTD SVG 1.1//EN"
 "http://www.w3.org/Graphics/SVG/1.1/DTD/svg11.dtd">
<!-- Generated by graphviz version 2.38.0 (20140413.2041)
 -->
<!-- Title: structs Pages: 1 -->
<svg width="308pt" height="304pt"
 viewBox="0.00 0.00 308.00 304.00" xmlns="http://www.w3.org/2000/svg" xmlns:xlink="http://www.w3.org/1999/xlink">
<g id="graph0" class="graph" transform="scale(1 1) rotate(0) translate(4 300)">
<title>structs</title>
<polygon fill="white" stroke="none" points="-4,4 -4,-300 304,-300 304,4 -4,4"/>
<!-- l1 -->
<g id="node1" class="node"><title>l1</title>
<polygon fill="none" stroke="black" points="89.5,-249.5 89.5,-295.5 160.5,-295.5 160.5,-249.5 89.5,-249.5"/>
<text text-anchor="middle" x="101" y="-280.3" font-family="Times New Roman,serif" font-size="14.00">!</text>
<polyline fill="none" stroke="black" points="89.5,-272.5 112.5,-272.5 "/>
<text text-anchor="middle" x="101" y="-257.3" font-family="Times New Roman,serif" font-size="14.00">0</text>
<polyline fill="none" stroke="black" points="112.5,-249.5 112.5,-295.5 "/>
<text text-anchor="middle" x="125" y="-280.3" font-family="Times New Roman,serif" font-size="14.00">+</text>
<polyline fill="none" stroke="black" points="112.5,-272.5 137.5,-272.5 "/>
<text text-anchor="middle" x="125" y="-257.3" font-family="Times New Roman,serif" font-size="14.00">1</text>
<polyline fill="none" stroke="black" points="137.5,-249.5 137.5,-295.5 "/>
<text text-anchor="middle" x="149" y="-280.3" font-family="Times New Roman,serif" font-size="14.00">&#45;</text>
<polyline fill="none" stroke="black" points="137.5,-272.5 160.5,-272.5 "/>
<text text-anchor="middle" x="149" y="-257.3" font-family="Times New Roman,serif" font-size="14.00">2</text>
</g>
<!-- l2 -->
<g id="node2" class="node"><title>l2</title>
<polygon fill="none" stroke="black" points="15,-166.5 15,-212.5 281,-212.5 281,-166.5 15,-166.5"/>
<text text-anchor="middle" x="27.5" y="-197.3" font-family="Times New Roman,serif" font-size="14.00">+</text>
<polyline fill="none" stroke="black" points="15,-189.5 40,-189.5 "/>
<text text-anchor="middle" x="27.5" y="-174.3" font-family="Times New Roman,serif" font-size="14.00">4</text>
<polyline fill="none" stroke="black" points="40,-166.5 40,-212.5 "/>
<text text-anchor="middle" x="51.5" y="-197.3" font-family="Times New Roman,serif" font-size="14.00">&#45;</text>
<polyline fill="none" stroke="black" points="40,-189.5 63,-189.5 "/>
<text text-anchor="middle" x="51.5" y="-174.3" font-family="Times New Roman,serif" font-size="14.00">5</text>
<polyline fill="none" stroke="black" points="63,-166.5 63,-212.5 "/>
<text text-anchor="middle" x="75.5" y="-197.3" font-family="Times New Roman,serif" font-size="14.00">=</text>
<polyline fill="none" stroke="black" points="63,-189.5 88,-189.5 "/>
<text text-anchor="middle" x="75.5" y="-174.3" font-family="Times New Roman,serif" font-size="14.00">6</text>
<polyline fill="none" stroke="black" points="88,-166.5 88,-212.5 "/>
<text text-anchor="middle" x="100.5" y="-197.3" font-family="Times New Roman,serif" font-size="14.00">&gt;</text>
<polyline fill="none" stroke="black" points="88,-189.5 113,-189.5 "/>
<text text-anchor="middle" x="100.5" y="-174.3" font-family="Times New Roman,serif" font-size="14.00">7</text>
<polyline fill="none" stroke="black" points="113,-166.5 113,-212.5 "/>
<text text-anchor="middle" x="125.5" y="-197.3" font-family="Times New Roman,serif" font-size="14.00">+</text>
<polyline fill="none" stroke="black" points="113,-189.5 138,-189.5 "/>
<text text-anchor="middle" x="125.5" y="-174.3" font-family="Times New Roman,serif" font-size="14.00">8</text>
<polyline fill="none" stroke="black" points="138,-166.5 138,-212.5 "/>
<text text-anchor="middle" x="149.5" y="-197.3" font-family="Times New Roman,serif" font-size="14.00">&#45;</text>
<polyline fill="none" stroke="black" points="138,-189.5 161,-189.5 "/>
<text text-anchor="middle" x="149.5" y="-174.3" font-family="Times New Roman,serif" font-size="14.00">9</text>
<polyline fill="none" stroke="black" points="161,-166.5 161,-212.5 "/>
<text text-anchor="middle" x="176" y="-197.3" font-family="Times New Roman,serif" font-size="14.00">=</text>
<polyline fill="none" stroke="black" points="161,-189.5 191,-189.5 "/>
<text text-anchor="middle" x="176" y="-174.3" font-family="Times New Roman,serif" font-size="14.00">10</text>
<polyline fill="none" stroke="black" points="191,-166.5 191,-212.5 "/>
<text text-anchor="middle" x="206" y="-197.3" font-family="Times New Roman,serif" font-size="14.00">&#45;</text>
<polyline fill="none" stroke="black" points="191,-189.5 221,-189.5 "/>
<text text-anchor="middle" x="206" y="-174.3" font-family="Times New Roman,serif" font-size="14.00">11</text>
<polyline fill="none" stroke="black" points="221,-166.5 221,-212.5 "/>
<text text-anchor="middle" x="236" y="-197.3" font-family="Times New Roman,serif" font-size="14.00">=</text>
<polyline fill="none" stroke="black" points="221,-189.5 251,-189.5 "/>
<text text-anchor="middle" x="236" y="-174.3" font-family="Times New Roman,serif" font-size="14.00">12</text>
<polyline fill="none" stroke="black" points="251,-166.5 251,-212.5 "/>
<text text-anchor="middle" x="266" y="-197.3" font-family="Times New Roman,serif" font-size="14.00">&gt;</text>
<polyline fill="none" stroke="black" points="251,-189.5 281,-189.5 "/>
<text text-anchor="middle" x="266" y="-174.3" font-family="Times New Roman,serif" font-size="14.00">13</text>
</g>
<!-- l1&#45;&gt;l2 -->
<g id="edge1" class="edge"><title>l1:f0&#45;&gt;l2:t4</title>
<path fill="none" stroke="black" d="M101,-249C101,-216.569 42.816,-242.104 29.6337,-222.806"/>
<polygon fill="black" stroke="black" points="32.9742,-221.75 27,-213 26.2138,-223.566 32.9742,-221.75"/>
</g>
<!-- l1&#45;&gt;l2 -->
<g id="edge2" class="edge"><title>l1:f1&#45;&gt;l2:t8</title>
<path fill="none" stroke="black" d="M125,-249C125,-237 125,-231.75 125,-223.125"/>
<polygon fill="black" stroke="black" points="128.5,-223 125,-213 121.5,-223 128.5,-223"/>
</g>
<!-- l1&#45;&gt;l2 -->
<g id="edge3" class="edge"><title>l1:f2&#45;&gt;l2:t11</title>
<path fill="none" stroke="black" d="M149,-249C149,-223.251 191.096,-237.299 202.935,-222.743"/>
<polygon fill="black" stroke="black" points="206.338,-223.589 206,-213 199.661,-221.489 206.338,-223.589"/>
</g>
<!-- l3 -->
<g id="node3" class="node"><title>l3</title>
<polygon fill="none" stroke="black" points="0,-83.5 0,-129.5 300,-129.5 300,-83.5 0,-83.5"/>
<text text-anchor="middle" x="15" y="-114.3" font-family="Times New Roman,serif" font-size="14.00">+</text>
<polyline fill="none" stroke="black" points="0,-106.5 30,-106.5 "/>
<text text-anchor="middle" x="15" y="-91.3" font-family="Times New Roman,serif" font-size="14.00">14</text>
<polyline fill="none" stroke="black" points="30,-83.5 30,-129.5 "/>
<text text-anchor="middle" x="45" y="-114.3" font-family="Times New Roman,serif" font-size="14.00">&#45;</text>
<polyline fill="none" stroke="black" points="30,-106.5 60,-106.5 "/>
<text text-anchor="middle" x="45" y="-91.3" font-family="Times New Roman,serif" font-size="14.00">15</text>
<polyline fill="none" stroke="black" points="60,-83.5 60,-129.5 "/>
<text text-anchor="middle" x="75" y="-114.3" font-family="Times New Roman,serif" font-size="14.00">=</text>
<polyline fill="none" stroke="black" points="60,-106.5 90,-106.5 "/>
<text text-anchor="middle" x="75" y="-91.3" font-family="Times New Roman,serif" font-size="14.00">16</text>
<polyline fill="none" stroke="black" points="90,-83.5 90,-129.5 "/>
<text text-anchor="middle" x="105" y="-114.3" font-family="Times New Roman,serif" font-size="14.00">&gt;</text>
<polyline fill="none" stroke="black" points="90,-106.5 120,-106.5 "/>
<text text-anchor="middle" x="105" y="-91.3" font-family="Times New Roman,serif" font-size="14.00">17</text>
<polyline fill="none" stroke="black" points="120,-83.5 120,-129.5 "/>
<text text-anchor="middle" x="135" y="-114.3" font-family="Times New Roman,serif" font-size="14.00">+</text>
<polyline fill="none" stroke="black" points="120,-106.5 150,-106.5 "/>
<text text-anchor="middle" x="135" y="-91.3" font-family="Times New Roman,serif" font-size="14.00">18</text>
<polyline fill="none" stroke="black" points="150,-83.5 150,-129.5 "/>
<text text-anchor="middle" x="165" y="-114.3" font-family="Times New Roman,serif" font-size="14.00">&#45;</text>
<polyline fill="none" stroke="black" points="150,-106.5 180,-106.5 "/>
<text text-anchor="middle" x="165" y="-91.3" font-family="Times New Roman,serif" font-size="14.00">19</text>
<polyline fill="none" stroke="black" points="180,-83.5 180,-129.5 "/>
<text text-anchor="middle" x="195" y="-114.3" font-family="Times New Roman,serif" font-size="14.00">!</text>
<polyline fill="none" stroke="black" points="180,-106.5 210,-106.5 "/>
<text text-anchor="middle" x="195" y="-91.3" font-family="Times New Roman,serif" font-size="14.00">20</text>
<polyline fill="none" stroke="black" points="210,-83.5 210,-129.5 "/>
<text text-anchor="middle" x="225" y="-114.3" font-family="Times New Roman,serif" font-size="14.00">=</text>
<polyline fill="none" stroke="black" points="210,-106.5 240,-106.5 "/>
<text text-anchor="middle" x="225" y="-91.3" font-family="Times New Roman,serif" font-size="14.00">21</text>
<polyline fill="none" stroke="black" points="240,-83.5 240,-129.5 "/>
<text text-anchor="middle" x="255" y="-114.3" font-family="Times New Roman,serif" font-size="14.00">&gt;</text>
<polyline fill="none" stroke="black" points="240,-106.5 270,-106.5 "/>
<text text-anchor="middle" x="255" y="-91.3" font-family="Times New Roman,serif" font-size="14.00">22</text>
<polyline fill="none" stroke="black" points="270,-83.5 270,-129.5 "/>
<text text-anchor="middle" x="285" y="-114.3" font-family="Times New Roman,serif" font-size="14.00">&gt;</text>
<polyline fill="none" stroke="black" points="270,-106.5 300,-106.5 "/>
<text text-anchor="middle" x="285" y="-91.3" font-family="Times New Roman,serif" font-size="14.00">23</text>
</g>
<!-- l2&#45;&gt;l3 -->
<g id="edge4" class="edge"><title>l2:f6&#45;&gt;l3:t14</title>
<path fill="none" stroke="black" d="M75,-166C75,-139.032 29.8792,-155.151 17.8939,-139.627"/>
<polygon fill="black" stroke="black" points="21.2306,-138.569 15,-130 14.5269,-140.584 21.2306,-138.569"/>
</g>
<!-- l2&#45;&gt;l3 -->
<g id="edge5" class="edge"><title>l2:f8&#45;&gt;l3:t18</title>
<path fill="none" stroke="black" d="M125,-166C125,-153.416 130.743,-148.767 133.524,-140.026"/>
<polygon fill="black" stroke="black" points="137.007,-140.403 135,-130 130.081,-139.384 137.007,-140.403"/>
</g>
<!-- l2&#45;&gt;l3 -->
<g id="edge6" class="edge"><title>l2:f11&#45;&gt;l3:t20</title>
<path fill="none" stroke="black" d="M206,-166C206,-153.322 199.683,-148.793 196.623,-140.062"/>
<polygon fill="black" stroke="black" points="200.048,-139.315 195,-130 193.137,-140.43 200.048,-139.315"/>
</g>
<!-- l2&#45;&gt;l3 -->
<g id="edge7" class="edge"><title>l2:f12&#45;&gt;l3:t23</title>
<path fill="none" stroke="black" d="M236,-166C236,-143.199 270.884,-152.484 281.785,-139.71"/>
<polygon fill="black" stroke="black" points="285.179,-140.593 285,-130 278.534,-138.393 285.179,-140.593"/>
</g>
<!-- l4 -->
<g id="node4" class="node"><title>l4</title>
<polygon fill="none" stroke="black" points="60,-0.5 60,-46.5 210,-46.5 210,-0.5 60,-0.5"/>
<text text-anchor="middle" x="75" y="-31.3" font-family="Times New Roman,serif" font-size="14.00">!</text>
<polyline fill="none" stroke="black" points="60,-23.5 90,-23.5 "/>
<text text-anchor="middle" x="75" y="-8.3" font-family="Times New Roman,serif" font-size="14.00">24</text>
<polyline fill="none" stroke="black" points="90,-0.5 90,-46.5 "/>
<text text-anchor="middle" x="105" y="-31.3" font-family="Times New Roman,serif" font-size="14.00">+</text>
<polyline fill="none" stroke="black" points="90,-23.5 120,-23.5 "/>
<text text-anchor="middle" x="105" y="-8.3" font-family="Times New Roman,serif" font-size="14.00">25</text>
<polyline fill="none" stroke="black" points="120,-0.5 120,-46.5 "/>
<text text-anchor="middle" x="135" y="-31.3" font-family="Times New Roman,serif" font-size="14.00">&#45;</text>
<polyline fill="none" stroke="black" points="120,-23.5 150,-23.5 "/>
<text text-anchor="middle" x="135" y="-8.3" font-family="Times New Roman,serif" font-size="14.00">26</text>
<polyline fill="none" stroke="black" points="150,-0.5 150,-46.5 "/>
<text text-anchor="middle" x="165" y="-31.3" font-family="Times New Roman,serif" font-size="14.00">=</text>
<polyline fill="none" stroke="black" points="150,-23.5 180,-23.5 "/>
<text text-anchor="middle" x="165" y="-8.3" font-family="Times New Roman,serif" font-size="14.00">27</text>
<polyline fill="none" stroke="black" points="180,-0.5 180,-46.5 "/>
<text text-anchor="middle" x="195" y="-31.3" font-family="Times New Roman,serif" font-size="14.00">&gt;</text>
<polyline fill="none" stroke="black" points="180,-23.5 210,-23.5 "/>
<text text-anchor="middle" x="195" y="-8.3" font-family="Times New Roman,serif" font-size="14.00">28</text>
</g>
<!-- l3&#45;&gt;l4 -->
<g id="edge8" class="edge"><title>l3:f16&#45;&gt;l4:t24</title>
<path fill="none" stroke="black" d="M75,-83C75,-71 75,-65.75 75,-57.125"/>
<polygon fill="black" stroke="black" points="78.5001,-57 75,-47 71.5001,-57 78.5001,-57"/>
</g>
</g>
</svg>
