<?xml version="1.0" encoding="UTF-8" standalone="no"?>
<!DOCTYPE svg PUBLIC "-//W3C//DTD SVG 1.1//EN"
 "http://www.w3.org/Graphics/SVG/1.1/DTD/svg11.dtd">
<!-- Generated by graphviz version 10.0.1 (20240210.2158)
 -->
<!-- Title: operators Pages: 1 -->
<svg width="746pt" height="226pt"
 viewBox="0.00 0.00 745.50 225.50" xmlns="http://www.w3.org/2000/svg" xmlns:xlink="http://www.w3.org/1999/xlink">
<g id="graph0" class="graph" transform="scale(1 1) rotate(0) translate(4 221.5)">
<title>operators</title>
<polygon fill="white" stroke="none" points="-4,4 -4,-221.5 741.5,-221.5 741.5,4 -4,4"/>
<!-- L0 -->
<g id="node1" class="node">
<title>L0</title>
<polygon fill="none" stroke="black" points="175.38,-169.5 175.38,-217 650.12,-217 650.12,-169.5 175.38,-169.5"/>
<text text-anchor="middle" x="186.75" y="-199.7" font-family="Times New Roman,serif" font-size="14.00">!</text>
<polyline fill="none" stroke="black" points="175.38,-193.25 198.12,-193.25"/>
<text text-anchor="middle" x="186.75" y="-175.95" font-family="Times New Roman,serif" font-size="14.00">0</text>
<polyline fill="none" stroke="black" points="198.12,-169.5 198.12,-217"/>
<text text-anchor="middle" x="212.12" y="-199.7" font-family="Times New Roman,serif" font-size="14.00">%</text>
<polyline fill="none" stroke="black" points="198.12,-193.25 226.12,-193.25"/>
<text text-anchor="middle" x="212.12" y="-175.95" font-family="Times New Roman,serif" font-size="14.00">1</text>
<polyline fill="none" stroke="black" points="226.12,-169.5 226.12,-217"/>
<text text-anchor="middle" x="239.75" y="-199.7" font-family="Times New Roman,serif" font-size="14.00">&amp;</text>
<polyline fill="none" stroke="black" points="226.12,-193.25 253.38,-193.25"/>
<text text-anchor="middle" x="239.75" y="-175.95" font-family="Times New Roman,serif" font-size="14.00">2</text>
<polyline fill="none" stroke="black" points="253.38,-169.5 253.38,-217"/>
<text text-anchor="middle" x="264.75" y="-199.7" font-family="Times New Roman,serif" font-size="14.00">*</text>
<polyline fill="none" stroke="black" points="253.38,-193.25 276.12,-193.25"/>
<text text-anchor="middle" x="264.75" y="-175.95" font-family="Times New Roman,serif" font-size="14.00">3</text>
<polyline fill="none" stroke="black" points="276.12,-169.5 276.12,-217"/>
<text text-anchor="middle" x="288.25" y="-199.7" font-family="Times New Roman,serif" font-size="14.00">+</text>
<polyline fill="none" stroke="black" points="276.12,-193.25 300.38,-193.25"/>
<text text-anchor="middle" x="288.25" y="-175.95" font-family="Times New Roman,serif" font-size="14.00">4</text>
<polyline fill="none" stroke="black" points="300.38,-169.5 300.38,-217"/>
<text text-anchor="middle" x="311.75" y="-199.7" font-family="Times New Roman,serif" font-size="14.00">,</text>
<polyline fill="none" stroke="black" points="300.38,-193.25 323.12,-193.25"/>
<text text-anchor="middle" x="311.75" y="-175.95" font-family="Times New Roman,serif" font-size="14.00">5</text>
<polyline fill="none" stroke="black" points="323.12,-169.5 323.12,-217"/>
<text text-anchor="middle" x="334.5" y="-199.7" font-family="Times New Roman,serif" font-size="14.00">&#45;</text>
<polyline fill="none" stroke="black" points="323.12,-193.25 345.88,-193.25"/>
<text text-anchor="middle" x="334.5" y="-175.95" font-family="Times New Roman,serif" font-size="14.00">6</text>
<polyline fill="none" stroke="black" points="345.88,-169.5 345.88,-217"/>
<text text-anchor="middle" x="357.25" y="-199.7" font-family="Times New Roman,serif" font-size="14.00">.</text>
<polyline fill="none" stroke="black" points="345.88,-193.25 368.62,-193.25"/>
<text text-anchor="middle" x="357.25" y="-175.95" font-family="Times New Roman,serif" font-size="14.00">7</text>
<polyline fill="none" stroke="black" points="368.62,-169.5 368.62,-217"/>
<text text-anchor="middle" x="380" y="-199.7" font-family="Times New Roman,serif" font-size="14.00">/</text>
<polyline fill="none" stroke="black" points="368.62,-193.25 391.38,-193.25"/>
<text text-anchor="middle" x="380" y="-175.95" font-family="Times New Roman,serif" font-size="14.00">8</text>
<polyline fill="none" stroke="black" points="391.38,-169.5 391.38,-217"/>
<text text-anchor="middle" x="402.75" y="-199.7" font-family="Times New Roman,serif" font-size="14.00">:</text>
<polyline fill="none" stroke="black" points="391.38,-193.25 414.12,-193.25"/>
<text text-anchor="middle" x="402.75" y="-175.95" font-family="Times New Roman,serif" font-size="14.00">9</text>
<polyline fill="none" stroke="black" points="414.12,-169.5 414.12,-217"/>
<text text-anchor="middle" x="428.88" y="-199.7" font-family="Times New Roman,serif" font-size="14.00">;</text>
<polyline fill="none" stroke="black" points="414.12,-193.25 443.62,-193.25"/>
<text text-anchor="middle" x="428.88" y="-175.95" font-family="Times New Roman,serif" font-size="14.00">10</text>
<polyline fill="none" stroke="black" points="443.62,-169.5 443.62,-217"/>
<text text-anchor="middle" x="458.38" y="-199.7" font-family="Times New Roman,serif" font-size="14.00">&lt;</text>
<polyline fill="none" stroke="black" points="443.62,-193.25 473.12,-193.25"/>
<text text-anchor="middle" x="458.38" y="-175.95" font-family="Times New Roman,serif" font-size="14.00">11</text>
<polyline fill="none" stroke="black" points="473.12,-169.5 473.12,-217"/>
<text text-anchor="middle" x="487.88" y="-199.7" font-family="Times New Roman,serif" font-size="14.00">=</text>
<polyline fill="none" stroke="black" points="473.12,-193.25 502.62,-193.25"/>
<text text-anchor="middle" x="487.88" y="-175.95" font-family="Times New Roman,serif" font-size="14.00">12</text>
<polyline fill="none" stroke="black" points="502.62,-169.5 502.62,-217"/>
<text text-anchor="middle" x="517.38" y="-199.7" font-family="Times New Roman,serif" font-size="14.00">&gt;</text>
<polyline fill="none" stroke="black" points="502.62,-193.25 532.12,-193.25"/>
<text text-anchor="middle" x="517.38" y="-175.95" font-family="Times New Roman,serif" font-size="14.00">13</text>
<polyline fill="none" stroke="black" points="532.12,-169.5 532.12,-217"/>
<text text-anchor="middle" x="546.88" y="-199.7" font-family="Times New Roman,serif" font-size="14.00">?</text>
<polyline fill="none" stroke="black" points="532.12,-193.25 561.62,-193.25"/>
<text text-anchor="middle" x="546.88" y="-175.95" font-family="Times New Roman,serif" font-size="14.00">14</text>
<polyline fill="none" stroke="black" points="561.62,-169.5 561.62,-217"/>
<text text-anchor="middle" x="576.38" y="-199.7" font-family="Times New Roman,serif" font-size="14.00">^</text>
<polyline fill="none" stroke="black" points="561.62,-193.25 591.12,-193.25"/>
<text text-anchor="middle" x="576.38" y="-175.95" font-family="Times New Roman,serif" font-size="14.00">15</text>
<polyline fill="none" stroke="black" points="591.12,-169.5 591.12,-217"/>
<text text-anchor="middle" x="605.88" y="-199.7" font-family="Times New Roman,serif" font-size="14.00">|</text>
<polyline fill="none" stroke="black" points="591.12,-193.25 620.62,-193.25"/>
<text text-anchor="middle" x="605.88" y="-175.95" font-family="Times New Roman,serif" font-size="14.00">16</text>
<polyline fill="none" stroke="black" points="620.62,-169.5 620.62,-217"/>
<text text-anchor="middle" x="635.38" y="-199.7" font-family="Times New Roman,serif" font-size="14.00">~</text>
<polyline fill="none" stroke="black" points="620.62,-193.25 650.12,-193.25"/>
<text text-anchor="middle" x="635.38" y="-175.95" font-family="Times New Roman,serif" font-size="14.00">17</text>
</g>
<!-- L1 -->
<g id="node2" class="node">
<title>L1</title>
<polygon fill="none" stroke="black" points="0,-85 0,-132.5 737.5,-132.5 737.5,-85 0,-85"/>
<text text-anchor="middle" x="14.75" y="-115.2" font-family="Times New Roman,serif" font-size="14.00">=</text>
<polyline fill="none" stroke="black" points="0,-108.75 29.5,-108.75"/>
<text text-anchor="middle" x="14.75" y="-91.45" font-family="Times New Roman,serif" font-size="14.00">18</text>
<polyline fill="none" stroke="black" points="29.5,-85 29.5,-132.5"/>
<text text-anchor="middle" x="44.25" y="-115.2" font-family="Times New Roman,serif" font-size="14.00">=</text>
<polyline fill="none" stroke="black" points="29.5,-108.75 59,-108.75"/>
<text text-anchor="middle" x="44.25" y="-91.45" font-family="Times New Roman,serif" font-size="14.00">19</text>
<polyline fill="none" stroke="black" points="59,-85 59,-132.5"/>
<text text-anchor="middle" x="73.75" y="-115.2" font-family="Times New Roman,serif" font-size="14.00">&amp;</text>
<polyline fill="none" stroke="black" points="59,-108.75 88.5,-108.75"/>
<text text-anchor="middle" x="73.75" y="-91.45" font-family="Times New Roman,serif" font-size="14.00">20</text>
<polyline fill="none" stroke="black" points="88.5,-85 88.5,-132.5"/>
<text text-anchor="middle" x="103.25" y="-115.2" font-family="Times New Roman,serif" font-size="14.00">=</text>
<polyline fill="none" stroke="black" points="88.5,-108.75 118,-108.75"/>
<text text-anchor="middle" x="103.25" y="-91.45" font-family="Times New Roman,serif" font-size="14.00">21</text>
<polyline fill="none" stroke="black" points="118,-85 118,-132.5"/>
<text text-anchor="middle" x="132.75" y="-115.2" font-family="Times New Roman,serif" font-size="14.00">/</text>
<polyline fill="none" stroke="black" points="118,-108.75 147.5,-108.75"/>
<text text-anchor="middle" x="132.75" y="-91.45" font-family="Times New Roman,serif" font-size="14.00">22</text>
<polyline fill="none" stroke="black" points="147.5,-85 147.5,-132.5"/>
<text text-anchor="middle" x="162.25" y="-115.2" font-family="Times New Roman,serif" font-size="14.00">=</text>
<polyline fill="none" stroke="black" points="147.5,-108.75 177,-108.75"/>
<text text-anchor="middle" x="162.25" y="-91.45" font-family="Times New Roman,serif" font-size="14.00">23</text>
<polyline fill="none" stroke="black" points="177,-85 177,-132.5"/>
<text text-anchor="middle" x="191.75" y="-115.2" font-family="Times New Roman,serif" font-size="14.00">+</text>
<polyline fill="none" stroke="black" points="177,-108.75 206.5,-108.75"/>
<text text-anchor="middle" x="191.75" y="-91.45" font-family="Times New Roman,serif" font-size="14.00">24</text>
<polyline fill="none" stroke="black" points="206.5,-85 206.5,-132.5"/>
<text text-anchor="middle" x="221.25" y="-115.2" font-family="Times New Roman,serif" font-size="14.00">=</text>
<polyline fill="none" stroke="black" points="206.5,-108.75 236,-108.75"/>
<text text-anchor="middle" x="221.25" y="-91.45" font-family="Times New Roman,serif" font-size="14.00">25</text>
<polyline fill="none" stroke="black" points="236,-85 236,-132.5"/>
<text text-anchor="middle" x="250.75" y="-115.2" font-family="Times New Roman,serif" font-size="14.00">&#45;</text>
<polyline fill="none" stroke="black" points="236,-108.75 265.5,-108.75"/>
<text text-anchor="middle" x="250.75" y="-91.45" font-family="Times New Roman,serif" font-size="14.00">26</text>
<polyline fill="none" stroke="black" points="265.5,-85 265.5,-132.5"/>
<text text-anchor="middle" x="280.25" y="-115.2" font-family="Times New Roman,serif" font-size="14.00">=</text>
<polyline fill="none" stroke="black" points="265.5,-108.75 295,-108.75"/>
<text text-anchor="middle" x="280.25" y="-91.45" font-family="Times New Roman,serif" font-size="14.00">27</text>
<polyline fill="none" stroke="black" points="295,-85 295,-132.5"/>
<text text-anchor="middle" x="309.75" y="-115.2" font-family="Times New Roman,serif" font-size="14.00">&gt;</text>
<polyline fill="none" stroke="black" points="295,-108.75 324.5,-108.75"/>
<text text-anchor="middle" x="309.75" y="-91.45" font-family="Times New Roman,serif" font-size="14.00">28</text>
<polyline fill="none" stroke="black" points="324.5,-85 324.5,-132.5"/>
<text text-anchor="middle" x="339.25" y="-115.2" font-family="Times New Roman,serif" font-size="14.00">*</text>
<polyline fill="none" stroke="black" points="324.5,-108.75 354,-108.75"/>
<text text-anchor="middle" x="339.25" y="-91.45" font-family="Times New Roman,serif" font-size="14.00">29</text>
<polyline fill="none" stroke="black" points="354,-85 354,-132.5"/>
<text text-anchor="middle" x="368.75" y="-115.2" font-family="Times New Roman,serif" font-size="14.00">.</text>
<polyline fill="none" stroke="black" points="354,-108.75 383.5,-108.75"/>
<text text-anchor="middle" x="368.75" y="-91.45" font-family="Times New Roman,serif" font-size="14.00">30</text>
<polyline fill="none" stroke="black" points="383.5,-85 383.5,-132.5"/>
<text text-anchor="middle" x="398.25" y="-115.2" font-family="Times New Roman,serif" font-size="14.00">*</text>
<polyline fill="none" stroke="black" points="383.5,-108.75 413,-108.75"/>
<text text-anchor="middle" x="398.25" y="-91.45" font-family="Times New Roman,serif" font-size="14.00">31</text>
<polyline fill="none" stroke="black" points="413,-85 413,-132.5"/>
<text text-anchor="middle" x="427.75" y="-115.2" font-family="Times New Roman,serif" font-size="14.00">/</text>
<polyline fill="none" stroke="black" points="413,-108.75 442.5,-108.75"/>
<text text-anchor="middle" x="427.75" y="-91.45" font-family="Times New Roman,serif" font-size="14.00">32</text>
<polyline fill="none" stroke="black" points="442.5,-85 442.5,-132.5"/>
<text text-anchor="middle" x="457.25" y="-115.2" font-family="Times New Roman,serif" font-size="14.00">=</text>
<polyline fill="none" stroke="black" points="442.5,-108.75 472,-108.75"/>
<text text-anchor="middle" x="457.25" y="-91.45" font-family="Times New Roman,serif" font-size="14.00">33</text>
<polyline fill="none" stroke="black" points="472,-85 472,-132.5"/>
<text text-anchor="middle" x="486.75" y="-115.2" font-family="Times New Roman,serif" font-size="14.00">:</text>
<polyline fill="none" stroke="black" points="472,-108.75 501.5,-108.75"/>
<text text-anchor="middle" x="486.75" y="-91.45" font-family="Times New Roman,serif" font-size="14.00">34</text>
<polyline fill="none" stroke="black" points="501.5,-85 501.5,-132.5"/>
<text text-anchor="middle" x="516.25" y="-115.2" font-family="Times New Roman,serif" font-size="14.00">&lt;</text>
<polyline fill="none" stroke="black" points="501.5,-108.75 531,-108.75"/>
<text text-anchor="middle" x="516.25" y="-91.45" font-family="Times New Roman,serif" font-size="14.00">35</text>
<polyline fill="none" stroke="black" points="531,-85 531,-132.5"/>
<text text-anchor="middle" x="545.75" y="-115.2" font-family="Times New Roman,serif" font-size="14.00">=</text>
<polyline fill="none" stroke="black" points="531,-108.75 560.5,-108.75"/>
<text text-anchor="middle" x="545.75" y="-91.45" font-family="Times New Roman,serif" font-size="14.00">36</text>
<polyline fill="none" stroke="black" points="560.5,-85 560.5,-132.5"/>
<text text-anchor="middle" x="575.25" y="-115.2" font-family="Times New Roman,serif" font-size="14.00">=</text>
<polyline fill="none" stroke="black" points="560.5,-108.75 590,-108.75"/>
<text text-anchor="middle" x="575.25" y="-91.45" font-family="Times New Roman,serif" font-size="14.00">37</text>
<polyline fill="none" stroke="black" points="590,-85 590,-132.5"/>
<text text-anchor="middle" x="604.75" y="-115.2" font-family="Times New Roman,serif" font-size="14.00">=</text>
<polyline fill="none" stroke="black" points="590,-108.75 619.5,-108.75"/>
<text text-anchor="middle" x="604.75" y="-91.45" font-family="Times New Roman,serif" font-size="14.00">38</text>
<polyline fill="none" stroke="black" points="619.5,-85 619.5,-132.5"/>
<text text-anchor="middle" x="634.25" y="-115.2" font-family="Times New Roman,serif" font-size="14.00">&gt;</text>
<polyline fill="none" stroke="black" points="619.5,-108.75 649,-108.75"/>
<text text-anchor="middle" x="634.25" y="-91.45" font-family="Times New Roman,serif" font-size="14.00">39</text>
<polyline fill="none" stroke="black" points="649,-85 649,-132.5"/>
<text text-anchor="middle" x="663.75" y="-115.2" font-family="Times New Roman,serif" font-size="14.00">=</text>
<polyline fill="none" stroke="black" points="649,-108.75 678.5,-108.75"/>
<text text-anchor="middle" x="663.75" y="-91.45" font-family="Times New Roman,serif" font-size="14.00">40</text>
<polyline fill="none" stroke="black" points="678.5,-85 678.5,-132.5"/>
<text text-anchor="middle" x="693.25" y="-115.2" font-family="Times New Roman,serif" font-size="14.00">=</text>
<polyline fill="none" stroke="black" points="678.5,-108.75 708,-108.75"/>
<text text-anchor="middle" x="693.25" y="-91.45" font-family="Times New Roman,serif" font-size="14.00">41</text>
<polyline fill="none" stroke="black" points="708,-85 708,-132.5"/>
<text text-anchor="middle" x="722.75" y="-115.2" font-family="Times New Roman,serif" font-size="14.00">|</text>
<polyline fill="none" stroke="black" points="708,-108.75 737.5,-108.75"/>
<text text-anchor="middle" x="722.75" y="-91.45" font-family="Times New Roman,serif" font-size="14.00">42</text>
</g>
<!-- L0&#45;&gt;L1 -->
<g id="edge1" class="edge">
<title>L0:O0&#45;&gt;L1:I18</title>
<path fill="none" stroke="black" d="M186.75,-169C186.75,-95.17 33.05,-198.55 16.24,-144.1"/>
<polygon fill="black" stroke="black" points="19.75,-143.95 14.95,-134.5 12.81,-144.88 19.75,-143.95"/>
</g>
<!-- L0&#45;&gt;L1 -->
<g id="edge2" class="edge">
<title>L0:O1&#45;&gt;L1:I19</title>
<path fill="none" stroke="black" d="M211.75,-169C211.75,-96.96 62.24,-196.76 45.31,-144.19"/>
<polygon fill="black" stroke="black" points="48.8,-143.92 43.96,-134.5 41.87,-144.89 48.8,-143.92"/>
</g>
<!-- L0&#45;&gt;L1 -->
<g id="edge3" class="edge">
<title>L0:O2&#45;&gt;L1:I20</title>
<path fill="none" stroke="black" d="M239.75,-169C239.75,-97.93 92.63,-195.67 75.39,-144.38"/>
<polygon fill="black" stroke="black" points="78.86,-143.9 73.97,-134.5 71.93,-144.9 78.86,-143.9"/>
</g>
<!-- L0&#45;&gt;L1 -->
<g id="edge4" class="edge">
<title>L0:O3&#45;&gt;L1:I22</title>
<path fill="none" stroke="black" d="M264.75,-169C264.75,-112.7 151.62,-181.91 134.82,-144.24"/>
<polygon fill="black" stroke="black" points="138.28,-143.69 133.02,-134.49 131.4,-144.96 138.28,-143.69"/>
</g>
<!-- L0&#45;&gt;L1 -->
<g id="edge5" class="edge">
<title>L0:O4&#45;&gt;L1:I24</title>
<path fill="none" stroke="black" d="M287.75,-169C287.75,-128.06 210.26,-168.41 194.52,-143.98"/>
<polygon fill="black" stroke="black" points="197.96,-143.31 192.12,-134.47 191.17,-145.02 197.96,-143.31"/>
</g>
<!-- L0&#45;&gt;L1 -->
<g id="edge6" class="edge">
<title>L0:O6&#45;&gt;L1:I26</title>
<path fill="none" stroke="black" d="M334.75,-169C334.75,-133.14 269.28,-164.19 253.94,-144.02"/>
<polygon fill="black" stroke="black" points="257.31,-143.09 251.17,-134.45 250.59,-145.03 257.31,-143.09"/>
</g>
<!-- L0&#45;&gt;L1 -->
<g id="edge7" class="edge">
<title>L0:O7&#45;&gt;L1:I29</title>
<path fill="none" stroke="black" d="M356.75,-169C356.75,-155.72 346.83,-152.18 341.72,-143.92"/>
<polygon fill="black" stroke="black" points="345.15,-143.19 339.15,-134.46 338.4,-145.03 345.15,-143.19"/>
</g>
<!-- L0&#45;&gt;L1 -->
<g id="edge8" class="edge">
<title>L0:O8&#45;&gt;L1:I31</title>
<path fill="none" stroke="black" d="M379.75,-169C379.75,-155.57 390.22,-152.21 395.61,-143.98"/>
<polygon fill="black" stroke="black" points="398.95,-145.03 398.33,-134.46 392.22,-143.11 398.95,-145.03"/>
</g>
<!-- L0&#45;&gt;L1 -->
<g id="edge9" class="edge">
<title>L0:O9&#45;&gt;L1:I34</title>
<path fill="none" stroke="black" d="M402.75,-169C402.75,-133.14 468.22,-164.19 483.56,-144.02"/>
<polygon fill="black" stroke="black" points="486.91,-145.03 486.33,-134.45 480.19,-143.09 486.91,-145.03"/>
</g>
<!-- L0&#45;&gt;L1 -->
<g id="edge10" class="edge">
<title>L0:O11&#45;&gt;L1:I35</title>
<path fill="none" stroke="black" d="M458.75,-169C458.75,-143.4 500.04,-156.97 512.94,-143.61"/>
<polygon fill="black" stroke="black" points="516.16,-145.02 516.24,-134.42 509.57,-142.66 516.16,-145.02"/>
</g>
<!-- L0&#45;&gt;L1 -->
<g id="edge11" class="edge">
<title>L0:O12&#45;&gt;L1:I37</title>
<path fill="none" stroke="black" d="M487.75,-169C487.75,-131.36 557.55,-165.73 572.82,-143.85"/>
<polygon fill="black" stroke="black" points="576.13,-145.03 575.36,-134.46 569.37,-143.2 576.13,-145.03"/>
</g>
<!-- L0&#45;&gt;L1 -->
<g id="edge12" class="edge">
<title>L0:O13&#45;&gt;L1:I38</title>
<path fill="none" stroke="black" d="M517.75,-169C517.75,-131.89 586.16,-165.19 601.65,-144.03"/>
<polygon fill="black" stroke="black" points="605.01,-145.03 604.34,-134.46 598.27,-143.14 605.01,-145.03"/>
</g>
<!-- L0&#45;&gt;L1 -->
<g id="edge13" class="edge">
<title>L0:O15&#45;&gt;L1:I40</title>
<path fill="none" stroke="black" d="M576.75,-169C576.75,-131.89 645.16,-165.19 660.65,-144.03"/>
<polygon fill="black" stroke="black" points="664.01,-145.03 663.34,-134.46 657.27,-143.14 664.01,-145.03"/>
</g>
<!-- L0&#45;&gt;L1 -->
<g id="edge14" class="edge">
<title>L0:O16&#45;&gt;L1:I41</title>
<path fill="none" stroke="black" d="M605.75,-169C605.75,-131.36 675.55,-165.73 690.82,-143.85"/>
<polygon fill="black" stroke="black" points="694.13,-145.03 693.36,-134.46 687.37,-143.2 694.13,-145.03"/>
</g>
<!-- L2 -->
<g id="node3" class="node">
<title>L2</title>
<polygon fill="none" stroke="black" points="442,-0.5 442,-48 589.5,-48 589.5,-0.5 442,-0.5"/>
<text text-anchor="middle" x="456.75" y="-30.7" font-family="Times New Roman,serif" font-size="14.00">*</text>
<polyline fill="none" stroke="black" points="442,-24.25 471.5,-24.25"/>
<text text-anchor="middle" x="456.75" y="-6.95" font-family="Times New Roman,serif" font-size="14.00">43</text>
<polyline fill="none" stroke="black" points="471.5,-0.5 471.5,-48"/>
<text text-anchor="middle" x="486.25" y="-30.7" font-family="Times New Roman,serif" font-size="14.00">.</text>
<polyline fill="none" stroke="black" points="471.5,-24.25 501,-24.25"/>
<text text-anchor="middle" x="486.25" y="-6.95" font-family="Times New Roman,serif" font-size="14.00">44</text>
<polyline fill="none" stroke="black" points="501,-0.5 501,-48"/>
<text text-anchor="middle" x="515.75" y="-30.7" font-family="Times New Roman,serif" font-size="14.00">=</text>
<polyline fill="none" stroke="black" points="501,-24.25 530.5,-24.25"/>
<text text-anchor="middle" x="515.75" y="-6.95" font-family="Times New Roman,serif" font-size="14.00">45</text>
<polyline fill="none" stroke="black" points="530.5,-0.5 530.5,-48"/>
<text text-anchor="middle" x="545.25" y="-30.7" font-family="Times New Roman,serif" font-size="14.00">&gt;</text>
<polyline fill="none" stroke="black" points="530.5,-24.25 560,-24.25"/>
<text text-anchor="middle" x="545.25" y="-6.95" font-family="Times New Roman,serif" font-size="14.00">46</text>
<polyline fill="none" stroke="black" points="560,-0.5 560,-48"/>
<text text-anchor="middle" x="574.75" y="-30.7" font-family="Times New Roman,serif" font-size="14.00">=</text>
<polyline fill="none" stroke="black" points="560,-24.25 589.5,-24.25"/>
<text text-anchor="middle" x="574.75" y="-6.95" font-family="Times New Roman,serif" font-size="14.00">47</text>
</g>
<!-- L1&#45;&gt;L2 -->
<g id="edge15" class="edge">
<title>L1:O28&#45;&gt;L2:I43</title>
<path fill="none" stroke="black" d="M309.75,-84.5C309.75,-56.63 390.45,-39.89 429.34,-36.78"/>
<polygon fill="black" stroke="black" points="429.41,-40.28 439.24,-36.32 429.09,-33.29 429.41,-40.28"/>
</g>
<!-- L1&#45;&gt;L2 -->
<g id="edge16" class="edge">
<title>L1:O30&#45;&gt;L2:I44</title>
<path fill="none" stroke="black" d="M368.75,-84.5C368.75,-34.56 467.34,-91.82 483.52,-59.46"/>
<polygon fill="black" stroke="black" points="486.88,-60.48 485.45,-49.98 480.02,-59.08 486.88,-60.48"/>
</g>
<!-- L1&#45;&gt;L2 -->
<g id="edge17" class="edge">
<title>L1:O35&#45;&gt;L2:I45</title>
<path fill="none" stroke="black" d="M516.75,-84.5C516.75,-73.12 516.24,-67.82 515.95,-59.95"/>
<polygon fill="black" stroke="black" points="519.45,-59.95 515.78,-50.01 512.45,-60.07 519.45,-59.95"/>
</g>
<!-- L1&#45;&gt;L2 -->
<g id="edge18" class="edge">
<title>L1:O36&#45;&gt;L2:I46</title>
<path fill="none" stroke="black" d="M545.75,-84.5C545.75,-73.12 545.75,-67.82 545.75,-59.95"/>
<polygon fill="black" stroke="black" points="549.25,-60.01 545.75,-50.01 542.25,-60.01 549.25,-60.01"/>
</g>
<!-- L1&#45;&gt;L2 -->
<g id="edge19" class="edge">
<title>L1:O39&#45;&gt;L2:I47</title>
<path fill="none" stroke="black" d="M634.75,-84.5C634.75,-58.26 592.04,-72.81 578.69,-59.32"/>
<polygon fill="black" stroke="black" points="581.98,-58.12 575.27,-49.92 575.4,-60.52 581.98,-58.12"/>
</g>
</g>
</svg>
