<?xml version="1.0" encoding="UTF-8" standalone="no"?>
<!DOCTYPE svg PUBLIC "-//W3C//DTD SVG 1.1//EN"
 "http://www.w3.org/Graphics/SVG/1.1/DTD/svg11.dtd">
<!-- Generated by graphviz version 2.38.0 (20140413.2041)
 -->
<!-- Title: %3 Pages: 1 -->
<svg width="414pt" height="201pt"
 viewBox="0.00 0.00 414.21 200.85" xmlns="http://www.w3.org/2000/svg" xmlns:xlink="http://www.w3.org/1999/xlink">
<g id="graph0" class="graph" transform="scale(1 1) rotate(0) translate(4 196.853)">
<title>%3</title>
<polygon fill="white" stroke="none" points="-4,4 -4,-196.853 410.213,-196.853 410.213,4 -4,4"/>
<!-- r_1 -->
<g id="node1" class="node"><title>r_1</title>
<ellipse fill="none" stroke="black" cx="68.6066" cy="-182.246" rx="10.7143" ry="10.7143"/>
<text text-anchor="middle" x="68.6066" y="-178.546" font-family="Times New Roman,serif" font-size="14.00">!</text>
</g>
<!-- n_2_1 -->
<g id="node2" class="node"><title>n_2_1</title>
<ellipse fill="none" stroke="black" cx="10.6066" cy="-125.033" rx="10.7143" ry="10.7143"/>
<text text-anchor="middle" x="10.6066" y="-121.333" font-family="Times New Roman,serif" font-size="14.00">+</text>
</g>
<!-- r_1&#45;&gt;n_2_1 -->
<g id="edge1" class="edge"><title>r_1&#45;&gt;n_2_1</title>
<path fill="none" stroke="black" d="M61.0241,-174.028C52.0301,-165.466 36.8261,-150.993 25.461,-140.174"/>
<polygon fill="black" stroke="black" points="27.6638,-137.438 18.0076,-133.078 22.8373,-142.508 27.6638,-137.438"/>
</g>
<!-- n_2_2 -->
<g id="node3" class="node"><title>n_2_2</title>
<ellipse fill="none" stroke="black" cx="49.6066" cy="-125.033" rx="10.7143" ry="10.7143"/>
<text text-anchor="middle" x="49.6066" y="-121.333" font-family="Times New Roman,serif" font-size="14.00">&#45;</text>
</g>
<!-- r_1&#45;&gt;n_2_2 -->
<g id="edge2" class="edge"><title>r_1&#45;&gt;n_2_2</title>
<path fill="none" stroke="black" d="M65.3835,-171.88C62.8571,-164.538 59.2586,-154.081 56.1362,-145.008"/>
<polygon fill="black" stroke="black" points="59.3456,-143.578 52.7821,-135.261 52.7266,-145.856 59.3456,-143.578"/>
</g>
<!-- n_2_3 -->
<g id="node4" class="node"><title>n_2_3</title>
<ellipse fill="none" stroke="black" cx="88.6066" cy="-125.033" rx="10.7143" ry="10.7143"/>
<text text-anchor="middle" x="88.6066" y="-121.333" font-family="Times New Roman,serif" font-size="14.00">=</text>
</g>
<!-- r_1&#45;&gt;n_2_3 -->
<g id="edge3" class="edge"><title>r_1&#45;&gt;n_2_3</title>
<path fill="none" stroke="black" d="M71.9092,-172.129C74.5855,-164.741 78.4462,-154.082 81.7813,-144.875"/>
<polygon fill="black" stroke="black" points="85.1172,-145.943 85.2323,-135.348 78.5357,-143.559 85.1172,-145.943"/>
</g>
<!-- n_2_4 -->
<g id="node5" class="node"><title>n_2_4</title>
<ellipse fill="none" stroke="black" cx="127.607" cy="-125.033" rx="10.7143" ry="10.7143"/>
<text text-anchor="middle" x="127.607" y="-121.333" font-family="Times New Roman,serif" font-size="14.00">&gt;</text>
</g>
<!-- r_1&#45;&gt;n_2_4 -->
<g id="edge4" class="edge"><title>r_1&#45;&gt;n_2_4</title>
<path fill="none" stroke="black" d="M75.8412,-174.476C85.0417,-165.866 101.15,-150.791 112.961,-139.739"/>
<polygon fill="black" stroke="black" points="115.403,-142.247 120.313,-132.859 110.62,-137.136 115.403,-142.247"/>
</g>
<!-- n_3_1 -->
<g id="node6" class="node"><title>n_3_1</title>
<ellipse fill="none" stroke="black" cx="12.6066" cy="-67.8198" rx="10.7143" ry="10.7143"/>
<text text-anchor="middle" x="12.6066" y="-64.1198" font-family="Times New Roman,serif" font-size="14.00">+</text>
</g>
<!-- n_2_3&#45;&gt;n_3_1 -->
<g id="edge5" class="edge"><title>n_2_3&#45;&gt;n_3_1</title>
<path fill="none" stroke="black" d="M80.4733,-118.124C68.3093,-109.287 45.1154,-92.4371 29.2603,-80.9185"/>
<polygon fill="black" stroke="black" points="31.0594,-77.8995 20.9119,-74.8535 26.9451,-83.5627 31.0594,-77.8995"/>
</g>
<!-- n_3_2 -->
<g id="node7" class="node"><title>n_3_2</title>
<ellipse fill="none" stroke="black" cx="51.6066" cy="-67.8198" rx="10.7143" ry="10.7143"/>
<text text-anchor="middle" x="51.6066" y="-64.1198" font-family="Times New Roman,serif" font-size="14.00">&#45;</text>
</g>
<!-- n_2_3&#45;&gt;n_3_2 -->
<g id="edge6" class="edge"><title>n_2_3&#45;&gt;n_3_2</title>
<path fill="none" stroke="black" d="M83.1471,-115.886C77.7912,-107.894 69.4684,-95.474 62.7169,-85.3991"/>
<polygon fill="black" stroke="black" points="65.5629,-83.3589 57.0885,-77.0001 59.7479,-87.2558 65.5629,-83.3589"/>
</g>
<!-- n_3_3 -->
<g id="node8" class="node"><title>n_3_3</title>
<ellipse fill="none" stroke="black" cx="90.6066" cy="-67.8198" rx="10.7143" ry="10.7143"/>
<text text-anchor="middle" x="90.6066" y="-64.1198" font-family="Times New Roman,serif" font-size="14.00">=</text>
</g>
<!-- n_2_3&#45;&gt;n_3_3 -->
<g id="edge7" class="edge"><title>n_2_3&#45;&gt;n_3_3</title>
<path fill="none" stroke="black" d="M88.955,-114.416C89.2099,-107.377 89.565,-97.5751 89.8806,-88.8624"/>
<polygon fill="black" stroke="black" points="93.3844,-88.819 90.2488,-78.6988 86.389,-88.5655 93.3844,-88.819"/>
</g>
<!-- n_3_4 -->
<g id="node9" class="node"><title>n_3_4</title>
<ellipse fill="none" stroke="black" cx="129.607" cy="-67.8198" rx="10.7143" ry="10.7143"/>
<text text-anchor="middle" x="129.607" y="-64.1198" font-family="Times New Roman,serif" font-size="14.00">&gt;</text>
</g>
<!-- n_2_3&#45;&gt;n_3_4 -->
<g id="edge8" class="edge"><title>n_2_3&#45;&gt;n_3_4</title>
<path fill="none" stroke="black" d="M94.6563,-115.886C100.652,-107.812 110.002,-95.2201 117.524,-85.0914"/>
<polygon fill="black" stroke="black" points="120.38,-87.1153 123.532,-77.0001 114.76,-82.942 120.38,-87.1153"/>
</g>
<!-- n_4_0 -->
<g id="node10" class="node"><title>n_4_0</title>
<ellipse fill="none" stroke="black" cx="12.6066" cy="-10.6066" rx="10.7143" ry="10.7143"/>
<text text-anchor="middle" x="12.6066" y="-6.9066" font-family="Times New Roman,serif" font-size="14.00">!</text>
</g>
<!-- n_3_3&#45;&gt;n_4_0 -->
<g id="edge9" class="edge"><title>n_3_3&#45;&gt;n_4_0</title>
<path fill="none" stroke="black" d="M82.2592,-60.911C69.7752,-52.074 45.9709,-35.2239 29.6985,-23.7053"/>
<polygon fill="black" stroke="black" points="31.3147,-20.5612 21.1304,-17.6403 27.2703,-26.2747 31.3147,-20.5612"/>
</g>
<!-- n_4_1 -->
<g id="node11" class="node"><title>n_4_1</title>
<ellipse fill="none" stroke="black" cx="51.6066" cy="-10.6066" rx="10.7143" ry="10.7143"/>
<text text-anchor="middle" x="51.6066" y="-6.9066" font-family="Times New Roman,serif" font-size="14.00">+</text>
</g>
<!-- n_3_3&#45;&gt;n_4_1 -->
<g id="edge10" class="edge"><title>n_3_3&#45;&gt;n_4_1</title>
<path fill="none" stroke="black" d="M84.852,-58.6729C79.2066,-50.6806 70.4339,-38.2608 63.3174,-28.1859"/>
<polygon fill="black" stroke="black" points="66.013,-25.9355 57.3848,-19.7869 60.2955,-29.9741 66.013,-25.9355"/>
</g>
<!-- n_4_2 -->
<g id="node12" class="node"><title>n_4_2</title>
<ellipse fill="none" stroke="black" cx="90.6066" cy="-10.6066" rx="10.7143" ry="10.7143"/>
<text text-anchor="middle" x="90.6066" y="-6.9066" font-family="Times New Roman,serif" font-size="14.00">&#45;</text>
</g>
<!-- n_3_3&#45;&gt;n_4_2 -->
<g id="edge11" class="edge"><title>n_3_3&#45;&gt;n_4_2</title>
<path fill="none" stroke="black" d="M90.6066,-57.2024C90.6066,-50.1638 90.6066,-40.3619 90.6066,-31.6492"/>
<polygon fill="black" stroke="black" points="94.1067,-31.4855 90.6066,-21.4856 87.1067,-31.4856 94.1067,-31.4855"/>
</g>
<!-- n_4_3 -->
<g id="node13" class="node"><title>n_4_3</title>
<ellipse fill="none" stroke="black" cx="129.607" cy="-10.6066" rx="10.7143" ry="10.7143"/>
<text text-anchor="middle" x="129.607" y="-6.9066" font-family="Times New Roman,serif" font-size="14.00">=</text>
</g>
<!-- n_3_3&#45;&gt;n_4_3 -->
<g id="edge12" class="edge"><title>n_3_3&#45;&gt;n_4_3</title>
<path fill="none" stroke="black" d="M96.3612,-58.6729C102.007,-50.6806 110.779,-38.2608 117.896,-28.1859"/>
<polygon fill="black" stroke="black" points="120.918,-29.9741 123.828,-19.7869 115.2,-25.9355 120.918,-29.9741"/>
</g>
<!-- n_4_4 -->
<g id="node14" class="node"><title>n_4_4</title>
<ellipse fill="none" stroke="black" cx="168.607" cy="-10.6066" rx="10.7143" ry="10.7143"/>
<text text-anchor="middle" x="168.607" y="-6.9066" font-family="Times New Roman,serif" font-size="14.00">&gt;</text>
</g>
<!-- n_3_3&#45;&gt;n_4_4 -->
<g id="edge13" class="edge"><title>n_3_3&#45;&gt;n_4_4</title>
<path fill="none" stroke="black" d="M98.954,-60.911C111.438,-52.074 135.242,-35.2239 151.515,-23.7053"/>
<polygon fill="black" stroke="black" points="153.943,-26.2747 160.083,-17.6403 149.899,-20.5612 153.943,-26.2747"/>
</g>
<!-- r_2 -->
<g id="node15" class="node"><title>r_2</title>
<ellipse fill="none" stroke="black" cx="210.607" cy="-182.246" rx="10.7143" ry="10.7143"/>
<text text-anchor="middle" x="210.607" y="-178.546" font-family="Times New Roman,serif" font-size="14.00">+</text>
</g>
<!-- p_2_1 -->
<g id="node16" class="node"><title>p_2_1</title>
<ellipse fill="none" stroke="black" cx="171.607" cy="-125.033" rx="10.7143" ry="10.7143"/>
<text text-anchor="middle" x="171.607" y="-121.333" font-family="Times New Roman,serif" font-size="14.00">+</text>
</g>
<!-- r_2&#45;&gt;p_2_1 -->
<g id="edge14" class="edge"><title>r_2&#45;&gt;p_2_1</title>
<path fill="none" stroke="black" d="M204.852,-173.099C199.207,-165.107 190.434,-152.687 183.317,-142.612"/>
<polygon fill="black" stroke="black" points="186.013,-140.362 177.385,-134.213 180.295,-144.401 186.013,-140.362"/>
</g>
<!-- p_2_2 -->
<g id="node17" class="node"><title>p_2_2</title>
<ellipse fill="none" stroke="black" cx="210.607" cy="-125.033" rx="10.7143" ry="10.7143"/>
<text text-anchor="middle" x="210.607" y="-121.333" font-family="Times New Roman,serif" font-size="14.00">&#45;</text>
</g>
<!-- r_2&#45;&gt;p_2_2 -->
<g id="edge15" class="edge"><title>r_2&#45;&gt;p_2_2</title>
<path fill="none" stroke="black" d="M210.607,-171.629C210.607,-164.59 210.607,-154.788 210.607,-146.076"/>
<polygon fill="black" stroke="black" points="214.107,-145.912 210.607,-135.912 207.107,-145.912 214.107,-145.912"/>
</g>
<!-- p_2_3 -->
<g id="node18" class="node"><title>p_2_3</title>
<ellipse fill="none" stroke="black" cx="249.607" cy="-125.033" rx="10.7143" ry="10.7143"/>
<text text-anchor="middle" x="249.607" y="-121.333" font-family="Times New Roman,serif" font-size="14.00">=</text>
</g>
<!-- r_2&#45;&gt;p_2_3 -->
<g id="edge16" class="edge"><title>r_2&#45;&gt;p_2_3</title>
<path fill="none" stroke="black" d="M216.361,-173.099C222.007,-165.107 230.779,-152.687 237.896,-142.612"/>
<polygon fill="black" stroke="black" points="240.918,-144.401 243.828,-134.213 235.2,-140.362 240.918,-144.401"/>
</g>
<!-- p_3_1 -->
<g id="node19" class="node"><title>p_3_1</title>
<ellipse fill="none" stroke="black" cx="169.607" cy="-67.8198" rx="10.7143" ry="10.7143"/>
<text text-anchor="middle" x="169.607" y="-64.1198" font-family="Times New Roman,serif" font-size="14.00">+</text>
</g>
<!-- p_2_1&#45;&gt;p_3_1 -->
<g id="edge17" class="edge"><title>p_2_1&#45;&gt;p_3_1</title>
<path fill="none" stroke="black" d="M171.258,-114.416C171.003,-107.377 170.648,-97.5751 170.333,-88.8624"/>
<polygon fill="black" stroke="black" points="173.824,-88.5655 169.964,-78.6988 166.829,-88.819 173.824,-88.5655"/>
</g>
<!-- p_3_2 -->
<g id="node20" class="node"><title>p_3_2</title>
<ellipse fill="none" stroke="black" cx="208.607" cy="-67.8198" rx="10.7143" ry="10.7143"/>
<text text-anchor="middle" x="208.607" y="-64.1198" font-family="Times New Roman,serif" font-size="14.00">&#45;</text>
</g>
<!-- p_2_1&#45;&gt;p_3_2 -->
<g id="edge18" class="edge"><title>p_2_1&#45;&gt;p_3_2</title>
<path fill="none" stroke="black" d="M177.066,-115.886C182.422,-107.894 190.745,-95.474 197.496,-85.3991"/>
<polygon fill="black" stroke="black" points="200.465,-87.2558 203.125,-77.0001 194.65,-83.3589 200.465,-87.2558"/>
</g>
<!-- r_3 -->
<g id="node21" class="node"><title>r_3</title>
<ellipse fill="none" stroke="black" cx="356.607" cy="-182.246" rx="10.7143" ry="10.7143"/>
<text text-anchor="middle" x="356.607" y="-178.546" font-family="Times New Roman,serif" font-size="14.00">&#45;</text>
</g>
<!-- m_2_1 -->
<g id="node22" class="node"><title>m_2_1</title>
<ellipse fill="none" stroke="black" cx="298.607" cy="-125.033" rx="10.7143" ry="10.7143"/>
<text text-anchor="middle" x="298.607" y="-121.333" font-family="Times New Roman,serif" font-size="14.00">&#45;</text>
</g>
<!-- r_3&#45;&gt;m_2_1 -->
<g id="edge19" class="edge"><title>r_3&#45;&gt;m_2_1</title>
<path fill="none" stroke="black" d="M349.024,-174.028C340.03,-165.466 324.826,-150.993 313.461,-140.174"/>
<polygon fill="black" stroke="black" points="315.664,-137.438 306.008,-133.078 310.837,-142.508 315.664,-137.438"/>
</g>
<!-- m_2_2 -->
<g id="node23" class="node"><title>m_2_2</title>
<ellipse fill="none" stroke="black" cx="356.607" cy="-125.033" rx="10.7143" ry="10.7143"/>
<text text-anchor="middle" x="356.607" y="-121.333" font-family="Times New Roman,serif" font-size="14.00">=</text>
</g>
<!-- r_3&#45;&gt;m_2_2 -->
<g id="edge20" class="edge"><title>r_3&#45;&gt;m_2_2</title>
<path fill="none" stroke="black" d="M356.607,-171.629C356.607,-164.59 356.607,-154.788 356.607,-146.076"/>
<polygon fill="black" stroke="black" points="360.107,-145.912 356.607,-135.912 353.107,-145.912 360.107,-145.912"/>
</g>
<!-- m_2_3 -->
<g id="node24" class="node"><title>m_2_3</title>
<ellipse fill="none" stroke="black" cx="395.607" cy="-125.033" rx="10.7143" ry="10.7143"/>
<text text-anchor="middle" x="395.607" y="-121.333" font-family="Times New Roman,serif" font-size="14.00">&gt;</text>
</g>
<!-- r_3&#45;&gt;m_2_3 -->
<g id="edge21" class="edge"><title>r_3&#45;&gt;m_2_3</title>
<path fill="none" stroke="black" d="M362.361,-173.099C368.007,-165.107 376.779,-152.687 383.896,-142.612"/>
<polygon fill="black" stroke="black" points="386.918,-144.401 389.828,-134.213 381.2,-140.362 386.918,-144.401"/>
</g>
<!-- m_3_1 -->
<g id="node25" class="node"><title>m_3_1</title>
<ellipse fill="none" stroke="black" cx="253.607" cy="-67.8198" rx="10.7143" ry="10.7143"/>
<text text-anchor="middle" x="253.607" y="-64.1198" font-family="Times New Roman,serif" font-size="14.00">!</text>
</g>
<!-- m_2_1&#45;&gt;m_3_1 -->
<g id="edge22" class="edge"><title>m_2_1&#45;&gt;m_3_1</title>
<path fill="none" stroke="black" d="M292.35,-116.356C285.633,-108.115 274.781,-94.8 266.269,-84.3556"/>
<polygon fill="black" stroke="black" points="268.841,-81.9721 259.811,-76.4318 263.415,-86.3946 268.841,-81.9721"/>
</g>
<!-- m_3_2 -->
<g id="node26" class="node"><title>m_3_2</title>
<ellipse fill="none" stroke="black" cx="292.607" cy="-67.8198" rx="10.7143" ry="10.7143"/>
<text text-anchor="middle" x="292.607" y="-64.1198" font-family="Times New Roman,serif" font-size="14.00">=</text>
</g>
<!-- m_2_1&#45;&gt;m_3_2 -->
<g id="edge23" class="edge"><title>m_2_1&#45;&gt;m_3_2</title>
<path fill="none" stroke="black" d="M297.561,-114.416C296.797,-107.377 295.731,-97.5751 294.785,-88.8624"/>
<polygon fill="black" stroke="black" points="298.24,-88.2621 293.68,-78.6988 291.281,-89.0184 298.24,-88.2621"/>
</g>
<!-- m_3_3 -->
<g id="node27" class="node"><title>m_3_3</title>
<ellipse fill="none" stroke="black" cx="331.607" cy="-67.8198" rx="10.7143" ry="10.7143"/>
<text text-anchor="middle" x="331.607" y="-64.1198" font-family="Times New Roman,serif" font-size="14.00">&gt;</text>
</g>
<!-- m_2_1&#45;&gt;m_3_3 -->
<g id="edge24" class="edge"><title>m_2_1&#45;&gt;m_3_3</title>
<path fill="none" stroke="black" d="M303.763,-115.406C308.44,-107.581 315.473,-95.8128 321.301,-86.0625"/>
<polygon fill="black" stroke="black" points="324.469,-87.5848 326.595,-77.2055 318.46,-83.9936 324.469,-87.5848"/>
</g>
<!-- m_4_1 -->
<g id="node28" class="node"><title>m_4_1</title>
<ellipse fill="none" stroke="black" cx="370.607" cy="-67.8198" rx="10.7143" ry="10.7143"/>
<text text-anchor="middle" x="370.607" y="-64.1198" font-family="Times New Roman,serif" font-size="14.00">&gt;</text>
</g>
<!-- m_2_2&#45;&gt;m_4_1 -->
<g id="edge25" class="edge"><title>m_2_2&#45;&gt;m_4_1</title>
<path fill="none" stroke="black" d="M358.982,-114.667C360.821,-107.414 363.431,-97.1196 365.712,-88.123"/>
<polygon fill="black" stroke="black" points="369.108,-88.971 368.173,-78.4175 362.322,-87.2505 369.108,-88.971"/>
</g>
</g>
</svg>
