<?xml version="1.0" encoding="UTF-8" standalone="no"?>
<!DOCTYPE svg PUBLIC "-//W3C//DTD SVG 1.1//EN"
 "http://www.w3.org/Graphics/SVG/1.1/DTD/svg11.dtd">
<!-- Generated by graphviz version 10.0.1 (20240210.2158)
 -->
<!-- Title: numbers Pages: 1 -->
<svg width="236pt" height="226pt"
 viewBox="0.00 0.00 236.00 225.50" xmlns="http://www.w3.org/2000/svg" xmlns:xlink="http://www.w3.org/1999/xlink">
<g id="graph0" class="graph" transform="scale(1 1) rotate(0) translate(4 221.5)">
<title>numbers</title>
<polygon fill="white" stroke="none" points="-4,4 -4,-221.5 232,-221.5 232,4 -4,4"/>
<!-- L0 -->
<g id="node1" class="node">
<title>L0</title>
<polygon fill="none" stroke="black" points="123.88,-169.5 123.88,-217 192.12,-217 192.12,-169.5 123.88,-169.5"/>
<text text-anchor="middle" x="135.25" y="-199.7" font-family="Times New Roman,serif" font-size="14.00">0</text>
<polyline fill="none" stroke="black" points="123.88,-193.25 146.62,-193.25"/>
<text text-anchor="middle" x="135.25" y="-175.95" font-family="Times New Roman,serif" font-size="14.00">0</text>
<polyline fill="none" stroke="black" points="146.62,-169.5 146.62,-217"/>
<text text-anchor="middle" x="158" y="-199.7" font-family="Times New Roman,serif" font-size="14.00">1</text>
<polyline fill="none" stroke="black" points="146.62,-193.25 169.38,-193.25"/>
<text text-anchor="middle" x="158" y="-175.95" font-family="Times New Roman,serif" font-size="14.00">1</text>
<polyline fill="none" stroke="black" points="169.38,-169.5 169.38,-217"/>
<text text-anchor="middle" x="180.75" y="-199.7" font-family="Times New Roman,serif" font-size="14.00">4</text>
<polyline fill="none" stroke="black" points="169.38,-193.25 192.12,-193.25"/>
<text text-anchor="middle" x="180.75" y="-175.95" font-family="Times New Roman,serif" font-size="14.00">2</text>
</g>
<!-- L1 -->
<g id="node2" class="node">
<title>L1</title>
<polygon fill="none" stroke="black" points="0,-85 0,-132.5 228,-132.5 228,-85 0,-85"/>
<text text-anchor="middle" x="12.5" y="-115.2" font-family="Times New Roman,serif" font-size="14.00">B</text>
<polyline fill="none" stroke="black" points="0,-108.75 25,-108.75"/>
<text text-anchor="middle" x="12.5" y="-91.45" font-family="Times New Roman,serif" font-size="14.00">3</text>
<polyline fill="none" stroke="black" points="25,-85 25,-132.5"/>
<text text-anchor="middle" x="37.88" y="-115.2" font-family="Times New Roman,serif" font-size="14.00">D</text>
<polyline fill="none" stroke="black" points="25,-108.75 50.75,-108.75"/>
<text text-anchor="middle" x="37.88" y="-91.45" font-family="Times New Roman,serif" font-size="14.00">4</text>
<polyline fill="none" stroke="black" points="50.75,-85 50.75,-132.5"/>
<text text-anchor="middle" x="63.62" y="-115.2" font-family="Times New Roman,serif" font-size="14.00">X</text>
<polyline fill="none" stroke="black" points="50.75,-108.75 76.5,-108.75"/>
<text text-anchor="middle" x="63.62" y="-91.45" font-family="Times New Roman,serif" font-size="14.00">5</text>
<polyline fill="none" stroke="black" points="76.5,-85 76.5,-132.5"/>
<text text-anchor="middle" x="88.25" y="-115.2" font-family="Times New Roman,serif" font-size="14.00">b</text>
<polyline fill="none" stroke="black" points="76.5,-108.75 100,-108.75"/>
<text text-anchor="middle" x="88.25" y="-91.45" font-family="Times New Roman,serif" font-size="14.00">6</text>
<polyline fill="none" stroke="black" points="100,-85 100,-132.5"/>
<text text-anchor="middle" x="111.75" y="-115.2" font-family="Times New Roman,serif" font-size="14.00">d</text>
<polyline fill="none" stroke="black" points="100,-108.75 123.5,-108.75"/>
<text text-anchor="middle" x="111.75" y="-91.45" font-family="Times New Roman,serif" font-size="14.00">7</text>
<polyline fill="none" stroke="black" points="123.5,-85 123.5,-132.5"/>
<text text-anchor="middle" x="134.88" y="-115.2" font-family="Times New Roman,serif" font-size="14.00">x</text>
<polyline fill="none" stroke="black" points="123.5,-108.75 146.25,-108.75"/>
<text text-anchor="middle" x="134.88" y="-91.45" font-family="Times New Roman,serif" font-size="14.00">8</text>
<polyline fill="none" stroke="black" points="146.25,-85 146.25,-132.5"/>
<text text-anchor="middle" x="157.62" y="-115.2" font-family="Times New Roman,serif" font-size="14.00">2</text>
<polyline fill="none" stroke="black" points="146.25,-108.75 169,-108.75"/>
<text text-anchor="middle" x="157.62" y="-91.45" font-family="Times New Roman,serif" font-size="14.00">9</text>
<polyline fill="none" stroke="black" points="169,-85 169,-132.5"/>
<text text-anchor="middle" x="183.75" y="-115.2" font-family="Times New Roman,serif" font-size="14.00">X</text>
<polyline fill="none" stroke="black" points="169,-108.75 198.5,-108.75"/>
<text text-anchor="middle" x="183.75" y="-91.45" font-family="Times New Roman,serif" font-size="14.00">10</text>
<polyline fill="none" stroke="black" points="198.5,-85 198.5,-132.5"/>
<text text-anchor="middle" x="213.25" y="-115.2" font-family="Times New Roman,serif" font-size="14.00">x</text>
<polyline fill="none" stroke="black" points="198.5,-108.75 228,-108.75"/>
<text text-anchor="middle" x="213.25" y="-91.45" font-family="Times New Roman,serif" font-size="14.00">11</text>
</g>
<!-- L0&#45;&gt;L1 -->
<g id="edge1" class="edge">
<title>L0:O0&#45;&gt;L1:I3</title>
<path fill="none" stroke="black" d="M135,-169C135,-116.49 30.47,-178.61 14.13,-144.01"/>
<polygon fill="black" stroke="black" points="17.63,-143.64 12.29,-134.49 10.76,-144.97 17.63,-143.64"/>
</g>
<!-- L0&#45;&gt;L1 -->
<g id="edge2" class="edge">
<title>L0:O1&#45;&gt;L1:I9</title>
<path fill="none" stroke="black" d="M158,-169C158,-157.62 158,-152.32 158,-144.45"/>
<polygon fill="black" stroke="black" points="161.5,-144.51 158,-134.51 154.5,-144.51 161.5,-144.51"/>
</g>
<!-- L0&#45;&gt;L1 -->
<g id="edge3" class="edge">
<title>L0:O2&#45;&gt;L1:I10</title>
<path fill="none" stroke="black" d="M181,-169C181,-157.59 182.52,-152.32 183.39,-144.46"/>
<polygon fill="black" stroke="black" points="186.89,-144.68 183.92,-134.51 179.9,-144.31 186.89,-144.68"/>
</g>
<!-- L2 -->
<g id="node3" class="node">
<title>L2</title>
<polygon fill="none" stroke="black" points="143.5,-0.5 143.5,-48 202.5,-48 202.5,-0.5 143.5,-0.5"/>
<text text-anchor="middle" x="158.25" y="-30.7" font-family="Times New Roman,serif" font-size="14.00">X</text>
<polyline fill="none" stroke="black" points="143.5,-24.25 173,-24.25"/>
<text text-anchor="middle" x="158.25" y="-6.95" font-family="Times New Roman,serif" font-size="14.00">12</text>
<polyline fill="none" stroke="black" points="173,-0.5 173,-48"/>
<text text-anchor="middle" x="187.75" y="-30.7" font-family="Times New Roman,serif" font-size="14.00">x</text>
<polyline fill="none" stroke="black" points="173,-24.25 202.5,-24.25"/>
<text text-anchor="middle" x="187.75" y="-6.95" font-family="Times New Roman,serif" font-size="14.00">13</text>
</g>
<!-- L1&#45;&gt;L2 -->
<g id="edge4" class="edge">
<title>L1:O9&#45;&gt;L2:I12</title>
<path fill="none" stroke="black" d="M158,-84.5C158,-73.12 158,-67.82 158,-59.95"/>
<polygon fill="black" stroke="black" points="161.5,-60.01 158,-50.01 154.5,-60.01 161.5,-60.01"/>
</g>
</g>
</svg>
