<?xml version="1.0" encoding="UTF-8" standalone="no"?>
<!DOCTYPE svg PUBLIC "-//W3C//DTD SVG 1.1//EN"
 "http://www.w3.org/Graphics/SVG/1.1/DTD/svg11.dtd">
<!-- Generated by graphviz version 2.38.0 (20140413.2041)
 -->
<!-- Title: numbers Pages: 1 -->
<svg width="240pt" height="221pt"
 viewBox="0.00 0.00 240.00 221.00" xmlns="http://www.w3.org/2000/svg" xmlns:xlink="http://www.w3.org/1999/xlink">
<g id="graph0" class="graph" transform="scale(1 1) rotate(0) translate(4 217)">
<title>numbers</title>
<polygon fill="white" stroke="none" points="-4,4 -4,-217 236,-217 236,4 -4,4"/>
<!-- L0 -->
<g id="node1" class="node"><title>L0</title>
<polygon fill="none" stroke="black" points="126.5,-166.5 126.5,-212.5 195.5,-212.5 195.5,-166.5 126.5,-166.5"/>
<text text-anchor="middle" x="138" y="-197.3" font-family="Times New Roman,serif" font-size="14.00">0</text>
<polyline fill="none" stroke="black" points="126.5,-189.5 149.5,-189.5 "/>
<text text-anchor="middle" x="138" y="-174.3" font-family="Times New Roman,serif" font-size="14.00">0</text>
<polyline fill="none" stroke="black" points="149.5,-166.5 149.5,-212.5 "/>
<text text-anchor="middle" x="161" y="-197.3" font-family="Times New Roman,serif" font-size="14.00">1</text>
<polyline fill="none" stroke="black" points="149.5,-189.5 172.5,-189.5 "/>
<text text-anchor="middle" x="161" y="-174.3" font-family="Times New Roman,serif" font-size="14.00">1</text>
<polyline fill="none" stroke="black" points="172.5,-166.5 172.5,-212.5 "/>
<text text-anchor="middle" x="184" y="-197.3" font-family="Times New Roman,serif" font-size="14.00">4</text>
<polyline fill="none" stroke="black" points="172.5,-189.5 195.5,-189.5 "/>
<text text-anchor="middle" x="184" y="-174.3" font-family="Times New Roman,serif" font-size="14.00">2</text>
</g>
<!-- L1 -->
<g id="node2" class="node"><title>L1</title>
<polygon fill="none" stroke="black" points="0,-83.5 0,-129.5 232,-129.5 232,-83.5 0,-83.5"/>
<text text-anchor="middle" x="13" y="-114.3" font-family="Times New Roman,serif" font-size="14.00">B</text>
<polyline fill="none" stroke="black" points="0,-106.5 26,-106.5 "/>
<text text-anchor="middle" x="13" y="-91.3" font-family="Times New Roman,serif" font-size="14.00">3</text>
<polyline fill="none" stroke="black" points="26,-83.5 26,-129.5 "/>
<text text-anchor="middle" x="39" y="-114.3" font-family="Times New Roman,serif" font-size="14.00">D</text>
<polyline fill="none" stroke="black" points="26,-106.5 52,-106.5 "/>
<text text-anchor="middle" x="39" y="-91.3" font-family="Times New Roman,serif" font-size="14.00">4</text>
<polyline fill="none" stroke="black" points="52,-83.5 52,-129.5 "/>
<text text-anchor="middle" x="65" y="-114.3" font-family="Times New Roman,serif" font-size="14.00">X</text>
<polyline fill="none" stroke="black" points="52,-106.5 78,-106.5 "/>
<text text-anchor="middle" x="65" y="-91.3" font-family="Times New Roman,serif" font-size="14.00">5</text>
<polyline fill="none" stroke="black" points="78,-83.5 78,-129.5 "/>
<text text-anchor="middle" x="90" y="-114.3" font-family="Times New Roman,serif" font-size="14.00">b</text>
<polyline fill="none" stroke="black" points="78,-106.5 102,-106.5 "/>
<text text-anchor="middle" x="90" y="-91.3" font-family="Times New Roman,serif" font-size="14.00">6</text>
<polyline fill="none" stroke="black" points="102,-83.5 102,-129.5 "/>
<text text-anchor="middle" x="114" y="-114.3" font-family="Times New Roman,serif" font-size="14.00">d</text>
<polyline fill="none" stroke="black" points="102,-106.5 126,-106.5 "/>
<text text-anchor="middle" x="114" y="-91.3" font-family="Times New Roman,serif" font-size="14.00">7</text>
<polyline fill="none" stroke="black" points="126,-83.5 126,-129.5 "/>
<text text-anchor="middle" x="137.5" y="-114.3" font-family="Times New Roman,serif" font-size="14.00">x</text>
<polyline fill="none" stroke="black" points="126,-106.5 149,-106.5 "/>
<text text-anchor="middle" x="137.5" y="-91.3" font-family="Times New Roman,serif" font-size="14.00">8</text>
<polyline fill="none" stroke="black" points="149,-83.5 149,-129.5 "/>
<text text-anchor="middle" x="160.5" y="-114.3" font-family="Times New Roman,serif" font-size="14.00">2</text>
<polyline fill="none" stroke="black" points="149,-106.5 172,-106.5 "/>
<text text-anchor="middle" x="160.5" y="-91.3" font-family="Times New Roman,serif" font-size="14.00">9</text>
<polyline fill="none" stroke="black" points="172,-83.5 172,-129.5 "/>
<text text-anchor="middle" x="187" y="-114.3" font-family="Times New Roman,serif" font-size="14.00">X</text>
<polyline fill="none" stroke="black" points="172,-106.5 202,-106.5 "/>
<text text-anchor="middle" x="187" y="-91.3" font-family="Times New Roman,serif" font-size="14.00">10</text>
<polyline fill="none" stroke="black" points="202,-83.5 202,-129.5 "/>
<text text-anchor="middle" x="217" y="-114.3" font-family="Times New Roman,serif" font-size="14.00">x</text>
<polyline fill="none" stroke="black" points="202,-106.5 232,-106.5 "/>
<text text-anchor="middle" x="217" y="-91.3" font-family="Times New Roman,serif" font-size="14.00">11</text>
</g>
<!-- L0&#45;&gt;L1 -->
<g id="edge1" class="edge"><title>L0:O0&#45;&gt;L1:I3</title>
<path fill="none" stroke="black" d="M138,-166C138,-112.251 29.9601,-177.296 14.767,-140.252"/>
<polygon fill="black" stroke="black" points="18.1478,-139.26 13,-130 11.2495,-140.449 18.1478,-139.26"/>
</g>
<!-- L0&#45;&gt;L1 -->
<g id="edge2" class="edge"><title>L0:O1&#45;&gt;L1:I9</title>
<path fill="none" stroke="black" d="M161,-166C161,-154 161,-148.75 161,-140.125"/>
<polygon fill="black" stroke="black" points="164.5,-140 161,-130 157.5,-140 164.5,-140"/>
</g>
<!-- L0&#45;&gt;L1 -->
<g id="edge3" class="edge"><title>L0:O2&#45;&gt;L1:I10</title>
<path fill="none" stroke="black" d="M184,-166C184,-153.958 185.688,-148.76 186.531,-140.141"/>
<polygon fill="black" stroke="black" points="190.034,-140.151 187,-130 183.042,-139.828 190.034,-140.151"/>
</g>
<!-- L2 -->
<g id="node3" class="node"><title>L2</title>
<polygon fill="none" stroke="black" points="146,-0.5 146,-46.5 206,-46.5 206,-0.5 146,-0.5"/>
<text text-anchor="middle" x="161" y="-31.3" font-family="Times New Roman,serif" font-size="14.00">X</text>
<polyline fill="none" stroke="black" points="146,-23.5 176,-23.5 "/>
<text text-anchor="middle" x="161" y="-8.3" font-family="Times New Roman,serif" font-size="14.00">12</text>
<polyline fill="none" stroke="black" points="176,-0.5 176,-46.5 "/>
<text text-anchor="middle" x="191" y="-31.3" font-family="Times New Roman,serif" font-size="14.00">x</text>
<polyline fill="none" stroke="black" points="176,-23.5 206,-23.5 "/>
<text text-anchor="middle" x="191" y="-8.3" font-family="Times New Roman,serif" font-size="14.00">13</text>
</g>
<!-- L1&#45;&gt;L2 -->
<g id="edge4" class="edge"><title>L1:O9&#45;&gt;L2:I12</title>
<path fill="none" stroke="black" d="M161,-83C161,-71 161,-65.75 161,-57.125"/>
<polygon fill="black" stroke="black" points="164.5,-57 161,-47 157.5,-57 164.5,-57"/>
</g>
</g>
</svg>
