<?xml version="1.0" encoding="UTF-8" standalone="no"?>
<!DOCTYPE svg PUBLIC "-//W3C//DTD SVG 1.1//EN"
 "http://www.w3.org/Graphics/SVG/1.1/DTD/svg11.dtd">
<!-- Generated by graphviz version 2.38.0 (20140413.2041)
 -->
<!-- Title: structs Pages: 1 -->
<svg width="308pt" height="327pt"
 viewBox="0.00 0.00 308.00 327.00" xmlns="http://www.w3.org/2000/svg" xmlns:xlink="http://www.w3.org/1999/xlink">
<g id="graph0" class="graph" transform="scale(1 1) rotate(0) translate(4 323)">
<title>structs</title>
<polygon fill="white" stroke="none" points="-4,4 -4,-323 304,-323 304,4 -4,4"/>
<text text-anchor="middle" x="150" y="-7.8" font-family="Times New Roman,serif" font-size="14.00">Flat Trie</text>
<!-- l1 -->
<g id="node1" class="node"><title>l1</title>
<polygon fill="none" stroke="black" points="89.5,-272.5 89.5,-318.5 160.5,-318.5 160.5,-272.5 89.5,-272.5"/>
<text text-anchor="middle" x="101" y="-303.3" font-family="Times New Roman,serif" font-size="14.00">!</text>
<polyline fill="none" stroke="black" points="89.5,-295.5 112.5,-295.5 "/>
<text text-anchor="middle" x="101" y="-280.3" font-family="Times New Roman,serif" font-size="14.00">0</text>
<polyline fill="none" stroke="black" points="112.5,-272.5 112.5,-318.5 "/>
<text text-anchor="middle" x="125" y="-303.3" font-family="Times New Roman,serif" font-size="14.00">+</text>
<polyline fill="none" stroke="black" points="112.5,-295.5 137.5,-295.5 "/>
<text text-anchor="middle" x="125" y="-280.3" font-family="Times New Roman,serif" font-size="14.00">1</text>
<polyline fill="none" stroke="black" points="137.5,-272.5 137.5,-318.5 "/>
<text text-anchor="middle" x="149" y="-303.3" font-family="Times New Roman,serif" font-size="14.00">&#45;</text>
<polyline fill="none" stroke="black" points="137.5,-295.5 160.5,-295.5 "/>
<text text-anchor="middle" x="149" y="-280.3" font-family="Times New Roman,serif" font-size="14.00">2</text>
</g>
<!-- l2 -->
<g id="node2" class="node"><title>l2</title>
<polygon fill="none" stroke="black" points="15,-189.5 15,-235.5 281,-235.5 281,-189.5 15,-189.5"/>
<text text-anchor="middle" x="27.5" y="-220.3" font-family="Times New Roman,serif" font-size="14.00">+</text>
<polyline fill="none" stroke="black" points="15,-212.5 40,-212.5 "/>
<text text-anchor="middle" x="27.5" y="-197.3" font-family="Times New Roman,serif" font-size="14.00">4</text>
<polyline fill="none" stroke="black" points="40,-189.5 40,-235.5 "/>
<text text-anchor="middle" x="51.5" y="-220.3" font-family="Times New Roman,serif" font-size="14.00">&#45;</text>
<polyline fill="none" stroke="black" points="40,-212.5 63,-212.5 "/>
<text text-anchor="middle" x="51.5" y="-197.3" font-family="Times New Roman,serif" font-size="14.00">5</text>
<polyline fill="none" stroke="black" points="63,-189.5 63,-235.5 "/>
<text text-anchor="middle" x="75.5" y="-220.3" font-family="Times New Roman,serif" font-size="14.00">=</text>
<polyline fill="none" stroke="black" points="63,-212.5 88,-212.5 "/>
<text text-anchor="middle" x="75.5" y="-197.3" font-family="Times New Roman,serif" font-size="14.00">6</text>
<polyline fill="none" stroke="black" points="88,-189.5 88,-235.5 "/>
<text text-anchor="middle" x="100.5" y="-220.3" font-family="Times New Roman,serif" font-size="14.00">&gt;</text>
<polyline fill="none" stroke="black" points="88,-212.5 113,-212.5 "/>
<text text-anchor="middle" x="100.5" y="-197.3" font-family="Times New Roman,serif" font-size="14.00">7</text>
<polyline fill="none" stroke="black" points="113,-189.5 113,-235.5 "/>
<text text-anchor="middle" x="125.5" y="-220.3" font-family="Times New Roman,serif" font-size="14.00">+</text>
<polyline fill="none" stroke="black" points="113,-212.5 138,-212.5 "/>
<text text-anchor="middle" x="125.5" y="-197.3" font-family="Times New Roman,serif" font-size="14.00">8</text>
<polyline fill="none" stroke="black" points="138,-189.5 138,-235.5 "/>
<text text-anchor="middle" x="149.5" y="-220.3" font-family="Times New Roman,serif" font-size="14.00">&#45;</text>
<polyline fill="none" stroke="black" points="138,-212.5 161,-212.5 "/>
<text text-anchor="middle" x="149.5" y="-197.3" font-family="Times New Roman,serif" font-size="14.00">9</text>
<polyline fill="none" stroke="black" points="161,-189.5 161,-235.5 "/>
<text text-anchor="middle" x="176" y="-220.3" font-family="Times New Roman,serif" font-size="14.00">=</text>
<polyline fill="none" stroke="black" points="161,-212.5 191,-212.5 "/>
<text text-anchor="middle" x="176" y="-197.3" font-family="Times New Roman,serif" font-size="14.00">10</text>
<polyline fill="none" stroke="black" points="191,-189.5 191,-235.5 "/>
<text text-anchor="middle" x="206" y="-220.3" font-family="Times New Roman,serif" font-size="14.00">&#45;</text>
<polyline fill="none" stroke="black" points="191,-212.5 221,-212.5 "/>
<text text-anchor="middle" x="206" y="-197.3" font-family="Times New Roman,serif" font-size="14.00">11</text>
<polyline fill="none" stroke="black" points="221,-189.5 221,-235.5 "/>
<text text-anchor="middle" x="236" y="-220.3" font-family="Times New Roman,serif" font-size="14.00">=</text>
<polyline fill="none" stroke="black" points="221,-212.5 251,-212.5 "/>
<text text-anchor="middle" x="236" y="-197.3" font-family="Times New Roman,serif" font-size="14.00">12</text>
<polyline fill="none" stroke="black" points="251,-189.5 251,-235.5 "/>
<text text-anchor="middle" x="266" y="-220.3" font-family="Times New Roman,serif" font-size="14.00">&gt;</text>
<polyline fill="none" stroke="black" points="251,-212.5 281,-212.5 "/>
<text text-anchor="middle" x="266" y="-197.3" font-family="Times New Roman,serif" font-size="14.00">13</text>
</g>
<!-- l1&#45;&gt;l2 -->
<g id="edge1" class="edge"><title>l1:f0&#45;&gt;l2:t4</title>
<path fill="none" stroke="black" d="M101,-272C101,-239.569 42.816,-265.104 29.6337,-245.806"/>
<polygon fill="black" stroke="black" points="32.9742,-244.75 27,-236 26.2138,-246.566 32.9742,-244.75"/>
</g>
<!-- l1&#45;&gt;l2 -->
<g id="edge2" class="edge"><title>l1:f1&#45;&gt;l2:t8</title>
<path fill="none" stroke="black" d="M125,-272C125,-260 125,-254.75 125,-246.125"/>
<polygon fill="black" stroke="black" points="128.5,-246 125,-236 121.5,-246 128.5,-246"/>
</g>
<!-- l1&#45;&gt;l2 -->
<g id="edge3" class="edge"><title>l1:f2&#45;&gt;l2:t11</title>
<path fill="none" stroke="black" d="M149,-272C149,-246.251 191.096,-260.299 202.935,-245.743"/>
<polygon fill="black" stroke="black" points="206.338,-246.589 206,-236 199.661,-244.489 206.338,-246.589"/>
</g>
<!-- l3 -->
<g id="node3" class="node"><title>l3</title>
<polygon fill="none" stroke="black" points="0,-106.5 0,-152.5 300,-152.5 300,-106.5 0,-106.5"/>
<text text-anchor="middle" x="15" y="-137.3" font-family="Times New Roman,serif" font-size="14.00">+</text>
<polyline fill="none" stroke="black" points="0,-129.5 30,-129.5 "/>
<text text-anchor="middle" x="15" y="-114.3" font-family="Times New Roman,serif" font-size="14.00">14</text>
<polyline fill="none" stroke="black" points="30,-106.5 30,-152.5 "/>
<text text-anchor="middle" x="45" y="-137.3" font-family="Times New Roman,serif" font-size="14.00">&#45;</text>
<polyline fill="none" stroke="black" points="30,-129.5 60,-129.5 "/>
<text text-anchor="middle" x="45" y="-114.3" font-family="Times New Roman,serif" font-size="14.00">15</text>
<polyline fill="none" stroke="black" points="60,-106.5 60,-152.5 "/>
<text text-anchor="middle" x="75" y="-137.3" font-family="Times New Roman,serif" font-size="14.00">=</text>
<polyline fill="none" stroke="black" points="60,-129.5 90,-129.5 "/>
<text text-anchor="middle" x="75" y="-114.3" font-family="Times New Roman,serif" font-size="14.00">16</text>
<polyline fill="none" stroke="black" points="90,-106.5 90,-152.5 "/>
<text text-anchor="middle" x="105" y="-137.3" font-family="Times New Roman,serif" font-size="14.00">&gt;</text>
<polyline fill="none" stroke="black" points="90,-129.5 120,-129.5 "/>
<text text-anchor="middle" x="105" y="-114.3" font-family="Times New Roman,serif" font-size="14.00">17</text>
<polyline fill="none" stroke="black" points="120,-106.5 120,-152.5 "/>
<text text-anchor="middle" x="135" y="-137.3" font-family="Times New Roman,serif" font-size="14.00">+</text>
<polyline fill="none" stroke="black" points="120,-129.5 150,-129.5 "/>
<text text-anchor="middle" x="135" y="-114.3" font-family="Times New Roman,serif" font-size="14.00">18</text>
<polyline fill="none" stroke="black" points="150,-106.5 150,-152.5 "/>
<text text-anchor="middle" x="165" y="-137.3" font-family="Times New Roman,serif" font-size="14.00">&#45;</text>
<polyline fill="none" stroke="black" points="150,-129.5 180,-129.5 "/>
<text text-anchor="middle" x="165" y="-114.3" font-family="Times New Roman,serif" font-size="14.00">19</text>
<polyline fill="none" stroke="black" points="180,-106.5 180,-152.5 "/>
<text text-anchor="middle" x="195" y="-137.3" font-family="Times New Roman,serif" font-size="14.00">!</text>
<polyline fill="none" stroke="black" points="180,-129.5 210,-129.5 "/>
<text text-anchor="middle" x="195" y="-114.3" font-family="Times New Roman,serif" font-size="14.00">20</text>
<polyline fill="none" stroke="black" points="210,-106.5 210,-152.5 "/>
<text text-anchor="middle" x="225" y="-137.3" font-family="Times New Roman,serif" font-size="14.00">=</text>
<polyline fill="none" stroke="black" points="210,-129.5 240,-129.5 "/>
<text text-anchor="middle" x="225" y="-114.3" font-family="Times New Roman,serif" font-size="14.00">21</text>
<polyline fill="none" stroke="black" points="240,-106.5 240,-152.5 "/>
<text text-anchor="middle" x="255" y="-137.3" font-family="Times New Roman,serif" font-size="14.00">&gt;</text>
<polyline fill="none" stroke="black" points="240,-129.5 270,-129.5 "/>
<text text-anchor="middle" x="255" y="-114.3" font-family="Times New Roman,serif" font-size="14.00">22</text>
<polyline fill="none" stroke="black" points="270,-106.5 270,-152.5 "/>
<text text-anchor="middle" x="285" y="-137.3" font-family="Times New Roman,serif" font-size="14.00">&gt;</text>
<polyline fill="none" stroke="black" points="270,-129.5 300,-129.5 "/>
<text text-anchor="middle" x="285" y="-114.3" font-family="Times New Roman,serif" font-size="14.00">23</text>
</g>
<!-- l2&#45;&gt;l3 -->
<g id="edge4" class="edge"><title>l2:f6&#45;&gt;l3:t14</title>
<path fill="none" stroke="black" d="M75,-189C75,-162.032 29.8792,-178.151 17.8939,-162.627"/>
<polygon fill="black" stroke="black" points="21.2306,-161.569 15,-153 14.5269,-163.584 21.2306,-161.569"/>
</g>
<!-- l2&#45;&gt;l3 -->
<g id="edge5" class="edge"><title>l2:f8&#45;&gt;l3:t18</title>
<path fill="none" stroke="black" d="M125,-189C125,-176.416 130.743,-171.767 133.524,-163.026"/>
<polygon fill="black" stroke="black" points="137.007,-163.403 135,-153 130.081,-162.384 137.007,-163.403"/>
</g>
<!-- l2&#45;&gt;l3 -->
<g id="edge6" class="edge"><title>l2:f11&#45;&gt;l3:t20</title>
<path fill="none" stroke="black" d="M206,-189C206,-176.322 199.683,-171.793 196.623,-163.062"/>
<polygon fill="black" stroke="black" points="200.048,-162.315 195,-153 193.137,-163.43 200.048,-162.315"/>
</g>
<!-- l2&#45;&gt;l3 -->
<g id="edge7" class="edge"><title>l2:f12&#45;&gt;l3:t23</title>
<path fill="none" stroke="black" d="M236,-189C236,-166.199 270.884,-175.484 281.785,-162.71"/>
<polygon fill="black" stroke="black" points="285.179,-163.593 285,-153 278.534,-161.393 285.179,-163.593"/>
</g>
<!-- l4 -->
<g id="node4" class="node"><title>l4</title>
<polygon fill="none" stroke="black" points="60,-23.5 60,-69.5 210,-69.5 210,-23.5 60,-23.5"/>
<text text-anchor="middle" x="75" y="-54.3" font-family="Times New Roman,serif" font-size="14.00">!</text>
<polyline fill="none" stroke="black" points="60,-46.5 90,-46.5 "/>
<text text-anchor="middle" x="75" y="-31.3" font-family="Times New Roman,serif" font-size="14.00">24</text>
<polyline fill="none" stroke="black" points="90,-23.5 90,-69.5 "/>
<text text-anchor="middle" x="105" y="-54.3" font-family="Times New Roman,serif" font-size="14.00">+</text>
<polyline fill="none" stroke="black" points="90,-46.5 120,-46.5 "/>
<text text-anchor="middle" x="105" y="-31.3" font-family="Times New Roman,serif" font-size="14.00">25</text>
<polyline fill="none" stroke="black" points="120,-23.5 120,-69.5 "/>
<text text-anchor="middle" x="135" y="-54.3" font-family="Times New Roman,serif" font-size="14.00">&#45;</text>
<polyline fill="none" stroke="black" points="120,-46.5 150,-46.5 "/>
<text text-anchor="middle" x="135" y="-31.3" font-family="Times New Roman,serif" font-size="14.00">26</text>
<polyline fill="none" stroke="black" points="150,-23.5 150,-69.5 "/>
<text text-anchor="middle" x="165" y="-54.3" font-family="Times New Roman,serif" font-size="14.00">=</text>
<polyline fill="none" stroke="black" points="150,-46.5 180,-46.5 "/>
<text text-anchor="middle" x="165" y="-31.3" font-family="Times New Roman,serif" font-size="14.00">27</text>
<polyline fill="none" stroke="black" points="180,-23.5 180,-69.5 "/>
<text text-anchor="middle" x="195" y="-54.3" font-family="Times New Roman,serif" font-size="14.00">&gt;</text>
<polyline fill="none" stroke="black" points="180,-46.5 210,-46.5 "/>
<text text-anchor="middle" x="195" y="-31.3" font-family="Times New Roman,serif" font-size="14.00">28</text>
</g>
<!-- l3&#45;&gt;l4 -->
<g id="edge8" class="edge"><title>l3:f16&#45;&gt;l4:t24</title>
<path fill="none" stroke="black" d="M75,-106C75,-94 75,-88.75 75,-80.125"/>
<polygon fill="black" stroke="black" points="78.5001,-80 75,-70 71.5001,-80 78.5001,-80"/>
</g>
</g>
</svg>
