<?xml version="1.0" encoding="UTF-8" standalone="no"?>
<!DOCTYPE svg PUBLIC "-//W3C//DTD SVG 1.1//EN"
 "http://www.w3.org/Graphics/SVG/1.1/DTD/svg11.dtd">
<!-- Generated by graphviz version 10.0.1 (20240210.2158)
 -->
<!-- Title: G Pages: 1 -->
<svg width="456pt" height="101pt"
 viewBox="0.00 0.00 455.79 100.87" xmlns="http://www.w3.org/2000/svg" xmlns:xlink="http://www.w3.org/1999/xlink">
<g id="graph0" class="graph" transform="scale(1 1) rotate(0) translate(4 96.87)">
<title>G</title>
<polygon fill="white" stroke="none" points="-4,4 -4,-96.87 451.79,-96.87 451.79,4 -4,4"/>
<!-- OPEN -->
<g id="node1" class="node">
<title>OPEN</title>
<polygon fill="lightgrey" stroke="red" points="54,-69.87 0,-69.87 0,-33.87 54,-33.87 54,-69.87"/>
<text text-anchor="middle" x="27" y="-46.45" font-family="Times New Roman,serif" font-size="14.00">OPEN</text>
</g>
<!-- CLOSED -->
<g id="node2" class="node">
<title>CLOSED</title>
<polygon fill="none" stroke="red" points="447.79,-67.42 447.79,-82.33 422.69,-92.87 387.2,-92.87 362.1,-82.33 362.1,-67.42 387.2,-56.87 422.69,-56.87 447.79,-67.42"/>
<text text-anchor="middle" x="404.94" y="-69.45" font-family="Times New Roman,serif" font-size="14.00">Финиш</text>
</g>
<!-- OPEN&#45;&gt;CLOSED -->
<g id="edge4" class="edge">
<title>OPEN&#45;&gt;CLOSED</title>
<path fill="none" stroke="darkgreen" stroke-width="2" d="M54.2,-65.92C65.23,-71.08 78.41,-76.29 91,-78.87 180.57,-97.26 287.6,-89.74 350.44,-82.43"/>
<polygon fill="darkgreen" stroke="darkgreen" stroke-width="2" points="349.13,-86.12 358.64,-81.44 348.29,-79.17 349.13,-86.12"/>
</g>
<!-- RESOLVED -->
<g id="node4" class="node">
<title>RESOLVED</title>
<ellipse fill="none" stroke="red" cx="150.05" cy="-51.87" rx="59.05" ry="18"/>
<text text-anchor="middle" x="150.05" y="-46.45" font-family="Times New Roman,serif" font-size="14.00">RESOLVED</text>
</g>
<!-- OPEN&#45;&gt;RESOLVED -->
<g id="edge1" class="edge">
<title>OPEN&#45;&gt;RESOLVED</title>
<path fill="none" stroke="darkgreen" d="M54.27,-51.87C61.79,-51.87 70.38,-51.87 79.23,-51.87"/>
<polygon fill="darkgreen" stroke="darkgreen" points="79.02,-55.37 89.02,-51.87 79.02,-48.37 79.02,-55.37"/>
</g>
<!-- VERIFIED -->
<g id="node3" class="node">
<title>VERIFIED</title>
<path fill="none" stroke="red" d="M313.1,-69.87C313.1,-69.87 258.1,-69.87 258.1,-69.87 252.1,-69.87 246.1,-63.87 246.1,-57.87 246.1,-57.87 246.1,-45.87 246.1,-45.87 246.1,-39.87 252.1,-33.87 258.1,-33.87 258.1,-33.87 313.1,-33.87 313.1,-33.87 319.1,-33.87 325.1,-39.87 325.1,-45.87 325.1,-45.87 325.1,-57.87 325.1,-57.87 325.1,-63.87 319.1,-69.87 313.1,-69.87"/>
<text text-anchor="middle" x="285.6" y="-46.45" font-family="Times New Roman,serif" font-size="14.00">VERIFIED</text>
</g>
<!-- VERIFIED&#45;&gt;OPEN -->
<g id="edge5" class="edge">
<title>VERIFIED&#45;&gt;OPEN</title>
<path fill="none" stroke="darkgreen" stroke-dasharray="5,2" d="M258.71,-33.5C244.73,-24.71 226.75,-15.13 209.1,-10.62 158.24,2.37 141.3,4.38 91,-10.62 78.7,-14.29 66.57,-21.21 56.29,-28.35"/>
<ellipse fill="darkgreen" stroke="darkgreen" cx="52.79" cy="-30.9" rx="4" ry="4"/>
<text text-anchor="middle" x="150.05" y="-13.72" font-family="Times New Roman,serif" font-size="12.00" fill="blue">обнаружены ошибки</text>
</g>
<!-- VERIFIED&#45;&gt;CLOSED -->
<g id="edge3" class="edge">
<title>VERIFIED&#45;&gt;CLOSED</title>
<path fill="none" stroke="darkgreen" d="M325.35,-59.47C333.79,-61.12 342.87,-62.9 351.74,-64.64"/>
<polygon fill="darkgreen" stroke="darkgreen" points="350.84,-68.03 361.33,-66.52 352.19,-61.16 350.84,-68.03"/>
</g>
<!-- RESOLVED&#45;&gt;VERIFIED -->
<g id="edge2" class="edge">
<title>RESOLVED&#45;&gt;VERIFIED</title>
<path fill="none" stroke="darkgreen" d="M209.24,-51.87C217.64,-51.87 226.24,-51.87 234.47,-51.87"/>
<polygon fill="darkgreen" stroke="darkgreen" points="234.3,-55.37 244.3,-51.87 234.3,-48.37 234.3,-55.37"/>
</g>
</g>
</svg>
