<?xml version="1.0" encoding="UTF-8" standalone="no"?>
<!DOCTYPE svg PUBLIC "-//W3C//DTD SVG 1.1//EN"
 "http://www.w3.org/Graphics/SVG/1.1/DTD/svg11.dtd">
<!-- Generated by graphviz version 2.38.0 (20140413.2041)
 -->
<!-- Title: G Pages: 1 -->
<svg width="453pt" height="127pt"
 viewBox="0.00 0.00 453.11 127.13" xmlns="http://www.w3.org/2000/svg" xmlns:xlink="http://www.w3.org/1999/xlink">
<g id="graph0" class="graph" transform="scale(1 1) rotate(0) translate(4 123.133)">
<title>G</title>
<polygon fill="white" stroke="none" points="-4,4 -4,-123.133 449.109,-123.133 449.109,4 -4,4"/>
<text text-anchor="middle" x="222.554" y="-7.8" font-family="Times New Roman,serif" font-size="14.00">Left to right graph flow</text>
<!-- OPEN -->
<g id="node1" class="node"><title>OPEN</title>
<polygon fill="lightgrey" stroke="red" points="54,-91.1326 0,-91.1326 0,-55.1326 54,-55.1326 54,-91.1326"/>
<text text-anchor="middle" x="27" y="-69.4326" font-family="Times New Roman,serif" font-size="14.00">OPEN</text>
</g>
<!-- CLOSED -->
<g id="node2" class="node"><title>CLOSED</title>
<polygon fill="none" stroke="red" points="445.319,-93.6768 445.319,-108.588 420.47,-119.133 385.328,-119.133 360.479,-108.588 360.479,-93.6768 385.328,-83.1326 420.47,-83.1326 445.319,-93.6768"/>
<text text-anchor="middle" x="402.899" y="-97.4326" font-family="Times New Roman,serif" font-size="14.00">Финиш</text>
</g>
<!-- OPEN&#45;&gt;CLOSED -->
<g id="edge4" class="edge"><title>OPEN&#45;&gt;CLOSED</title>
<path fill="none" stroke="darkgreen" stroke-width="2" d="M54.2039,-87.1597C65.236,-92.316 78.415,-97.5284 91,-100.133 180.688,-118.692 288.071,-113.088 350.288,-107.198"/>
<polygon fill="darkgreen" stroke="darkgreen" stroke-width="2" points="351.013,-110.644 360.621,-106.178 350.325,-103.678 351.013,-110.644"/>
</g>
<!-- RESOLVED -->
<g id="node4" class="node"><title>RESOLVED</title>
<ellipse fill="none" stroke="red" cx="148.845" cy="-73.1326" rx="57.6901" ry="18"/>
<text text-anchor="middle" x="148.845" y="-69.4326" font-family="Times New Roman,serif" font-size="14.00">RESOLVED</text>
</g>
<!-- OPEN&#45;&gt;RESOLVED -->
<g id="edge1" class="edge"><title>OPEN&#45;&gt;RESOLVED</title>
<path fill="none" stroke="darkgreen" d="M54.0046,-73.1326C61.9924,-73.1326 71.1793,-73.1326 80.6115,-73.1326"/>
<polygon fill="darkgreen" stroke="darkgreen" points="80.8976,-76.6327 90.8975,-73.1326 80.8975,-69.6327 80.8976,-76.6327"/>
</g>
<!-- VERIFIED -->
<g id="node3" class="node"><title>VERIFIED</title>
<path fill="none" stroke="red" d="M311.69,-91.1326C311.69,-91.1326 255.69,-91.1326 255.69,-91.1326 249.69,-91.1326 243.69,-85.1326 243.69,-79.1326 243.69,-79.1326 243.69,-67.1326 243.69,-67.1326 243.69,-61.1326 249.69,-55.1326 255.69,-55.1326 255.69,-55.1326 311.69,-55.1326 311.69,-55.1326 317.69,-55.1326 323.69,-61.1326 323.69,-67.1326 323.69,-67.1326 323.69,-79.1326 323.69,-79.1326 323.69,-85.1326 317.69,-91.1326 311.69,-91.1326"/>
<text text-anchor="middle" x="283.69" y="-69.4326" font-family="Times New Roman,serif" font-size="14.00">VERIFIED</text>
</g>
<!-- VERIFIED&#45;&gt;OPEN -->
<g id="edge5" class="edge"><title>VERIFIED&#45;&gt;OPEN</title>
<path fill="none" stroke="darkgreen" stroke-dasharray="5,2" d="M256.188,-55.1042C242.141,-46.6332 224.205,-37.4604 206.69,-33.1326 156.773,-20.7987 140.375,-18.7823 91,-33.1326 78.87,-36.6581 66.8412,-43.3004 56.5961,-50.1738"/>
<ellipse fill="darkgreen" stroke="darkgreen" cx="53.0839" cy="-52.6371" rx="4.00002" ry="4.00002"/>
<text text-anchor="middle" x="148.845" y="-36.5326" font-family="Times New Roman,serif" font-size="12.00" fill="blue">обнаружены ошибки</text>
</g>
<!-- VERIFIED&#45;&gt;CLOSED -->
<g id="edge3" class="edge"><title>VERIFIED&#45;&gt;CLOSED</title>
<path fill="none" stroke="darkgreen" d="M323.719,-82.4562C333.408,-84.7709 343.904,-87.2783 353.966,-89.682"/>
<polygon fill="darkgreen" stroke="darkgreen" points="353.298,-93.1207 363.837,-92.04 354.924,-86.3122 353.298,-93.1207"/>
</g>
<!-- RESOLVED&#45;&gt;VERIFIED -->
<g id="edge2" class="edge"><title>RESOLVED&#45;&gt;VERIFIED</title>
<path fill="none" stroke="darkgreen" d="M206.954,-73.1326C215.753,-73.1326 224.775,-73.1326 233.385,-73.1326"/>
<polygon fill="darkgreen" stroke="darkgreen" points="233.64,-76.6327 243.64,-73.1326 233.64,-69.6327 233.64,-76.6327"/>
</g>
</g>
</svg>
