<?xml version="1.0" encoding="UTF-8" standalone="no"?>
<!DOCTYPE svg PUBLIC "-//W3C//DTD SVG 1.1//EN"
 "http://www.w3.org/Graphics/SVG/1.1/DTD/svg11.dtd">
<!-- Generated by graphviz version 10.0.1 (20240210.2158)
 -->
<!-- Title: G Pages: 1 -->
<svg width="456pt" height="125pt"
 viewBox="0.00 0.00 455.79 124.62" xmlns="http://www.w3.org/2000/svg" xmlns:xlink="http://www.w3.org/1999/xlink">
<g id="graph0" class="graph" transform="scale(1 1) rotate(0) translate(4 120.62)">
<title>G</title>
<polygon fill="white" stroke="none" points="-4,4 -4,-120.62 451.79,-120.62 451.79,4 -4,4"/>
<text text-anchor="middle" x="223.9" y="-6.45" font-family="Times New Roman,serif" font-size="14.00">Left to right graph flow</text>
<!-- OPEN -->
<g id="node1" class="node">
<title>OPEN</title>
<polygon fill="lightgrey" stroke="red" points="54,-93.62 0,-93.62 0,-57.62 54,-57.62 54,-93.62"/>
<text text-anchor="middle" x="27" y="-70.2" font-family="Times New Roman,serif" font-size="14.00">OPEN</text>
</g>
<!-- CLOSED -->
<g id="node2" class="node">
<title>CLOSED</title>
<polygon fill="none" stroke="red" points="447.79,-91.17 447.79,-106.08 422.69,-116.62 387.2,-116.62 362.1,-106.08 362.1,-91.17 387.2,-80.62 422.69,-80.62 447.79,-91.17"/>
<text text-anchor="middle" x="404.94" y="-93.2" font-family="Times New Roman,serif" font-size="14.00">Финиш</text>
</g>
<!-- OPEN&#45;&gt;CLOSED -->
<g id="edge4" class="edge">
<title>OPEN&#45;&gt;CLOSED</title>
<path fill="none" stroke="darkgreen" stroke-width="2" d="M54.2,-89.67C65.23,-94.83 78.41,-100.04 91,-102.62 180.57,-121.01 287.6,-113.49 350.44,-106.18"/>
<polygon fill="darkgreen" stroke="darkgreen" stroke-width="2" points="349.13,-109.87 358.64,-105.19 348.29,-102.92 349.13,-109.87"/>
</g>
<!-- RESOLVED -->
<g id="node4" class="node">
<title>RESOLVED</title>
<ellipse fill="none" stroke="red" cx="150.05" cy="-75.62" rx="59.05" ry="18"/>
<text text-anchor="middle" x="150.05" y="-70.2" font-family="Times New Roman,serif" font-size="14.00">RESOLVED</text>
</g>
<!-- OPEN&#45;&gt;RESOLVED -->
<g id="edge1" class="edge">
<title>OPEN&#45;&gt;RESOLVED</title>
<path fill="none" stroke="darkgreen" d="M54.27,-75.62C61.79,-75.62 70.38,-75.62 79.23,-75.62"/>
<polygon fill="darkgreen" stroke="darkgreen" points="79.02,-79.12 89.02,-75.62 79.02,-72.12 79.02,-79.12"/>
</g>
<!-- VERIFIED -->
<g id="node3" class="node">
<title>VERIFIED</title>
<path fill="none" stroke="red" d="M313.1,-93.62C313.1,-93.62 258.1,-93.62 258.1,-93.62 252.1,-93.62 246.1,-87.62 246.1,-81.62 246.1,-81.62 246.1,-69.62 246.1,-69.62 246.1,-63.62 252.1,-57.62 258.1,-57.62 258.1,-57.62 313.1,-57.62 313.1,-57.62 319.1,-57.62 325.1,-63.62 325.1,-69.62 325.1,-69.62 325.1,-81.62 325.1,-81.62 325.1,-87.62 319.1,-93.62 313.1,-93.62"/>
<text text-anchor="middle" x="285.6" y="-70.2" font-family="Times New Roman,serif" font-size="14.00">VERIFIED</text>
</g>
<!-- VERIFIED&#45;&gt;OPEN -->
<g id="edge5" class="edge">
<title>VERIFIED&#45;&gt;OPEN</title>
<path fill="none" stroke="darkgreen" stroke-dasharray="5,2" d="M258.71,-57.25C244.73,-48.46 226.75,-38.88 209.1,-34.37 158.24,-21.38 141.3,-19.37 91,-34.37 78.7,-38.04 66.57,-44.96 56.29,-52.1"/>
<ellipse fill="darkgreen" stroke="darkgreen" cx="52.79" cy="-54.65" rx="4" ry="4"/>
<text text-anchor="middle" x="150.05" y="-37.47" font-family="Times New Roman,serif" font-size="12.00" fill="blue">обнаружены ошибки</text>
</g>
<!-- VERIFIED&#45;&gt;CLOSED -->
<g id="edge3" class="edge">
<title>VERIFIED&#45;&gt;CLOSED</title>
<path fill="none" stroke="darkgreen" d="M325.35,-83.22C333.79,-84.87 342.87,-86.65 351.74,-88.39"/>
<polygon fill="darkgreen" stroke="darkgreen" points="350.84,-91.78 361.33,-90.27 352.19,-84.91 350.84,-91.78"/>
</g>
<!-- RESOLVED&#45;&gt;VERIFIED -->
<g id="edge2" class="edge">
<title>RESOLVED&#45;&gt;VERIFIED</title>
<path fill="none" stroke="darkgreen" d="M209.24,-75.62C217.64,-75.62 226.24,-75.62 234.47,-75.62"/>
<polygon fill="darkgreen" stroke="darkgreen" points="234.3,-79.12 244.3,-75.62 234.3,-72.12 234.3,-79.12"/>
</g>
</g>
</svg>
