<?xml version="1.0" encoding="UTF-8" standalone="no"?>
<!DOCTYPE svg PUBLIC "-//W3C//DTD SVG 1.1//EN"
 "http://www.w3.org/Graphics/SVG/1.1/DTD/svg11.dtd">
<!-- Generated by graphviz version 10.0.1 (20240210.2158)
 -->
<!-- Title: G Pages: 1 -->
<svg width="183pt" height="356pt"
 viewBox="0.00 0.00 182.63 355.75" xmlns="http://www.w3.org/2000/svg" xmlns:xlink="http://www.w3.org/1999/xlink">
<g id="graph0" class="graph" transform="scale(1 1) rotate(0) translate(4 351.75)">
<title>G</title>
<polygon fill="white" stroke="none" points="-4,4 -4,-351.75 178.63,-351.75 178.63,4 -4,4"/>
<text text-anchor="middle" x="87.32" y="-6.45" font-family="Times New Roman,serif" font-size="14.00">Life flow</text>
<!-- Рождение -->
<g id="node1" class="node">
<title>Рождение</title>
<ellipse fill="none" stroke="black" cx="124.07" cy="-329.75" rx="50.56" ry="18"/>
<text text-anchor="middle" x="124.07" y="-324.32" font-family="Times New Roman,serif" font-size="14.00">Рождение</text>
</g>
<!-- Юность -->
<g id="node2" class="node">
<title>Юность</title>
<ellipse fill="none" stroke="black" cx="124.07" cy="-257.75" rx="43.58" ry="18"/>
<text text-anchor="middle" x="124.07" y="-252.32" font-family="Times New Roman,serif" font-size="14.00">Юность</text>
</g>
<!-- Рождение&#45;&gt;Юность -->
<g id="edge1" class="edge">
<title>Рождение&#45;&gt;Юность</title>
<path fill="none" stroke="black" d="M124.07,-311.45C124.07,-304.16 124.07,-295.48 124.07,-287.29"/>
<polygon fill="black" stroke="black" points="127.57,-287.37 124.07,-277.37 120.57,-287.37 127.57,-287.37"/>
</g>
<!-- Зрелость -->
<g id="node3" class="node">
<title>Зрелость</title>
<ellipse fill="none" stroke="black" cx="87.07" cy="-185.75" rx="47.07" ry="18"/>
<text text-anchor="middle" x="87.07" y="-180.32" font-family="Times New Roman,serif" font-size="14.00">Зрелость</text>
</g>
<!-- Юность&#45;&gt;Зрелость -->
<g id="edge2" class="edge">
<title>Юность&#45;&gt;Зрелость</title>
<path fill="none" stroke="black" d="M115.11,-239.8C110.93,-231.89 105.86,-222.29 101.18,-213.44"/>
<polygon fill="black" stroke="black" points="104.42,-212.08 96.65,-204.88 98.23,-215.35 104.42,-212.08"/>
</g>
<!-- Смерть -->
<g id="node5" class="node">
<title>Смерть</title>
<ellipse fill="none" stroke="black" cx="124.07" cy="-41.75" rx="40.58" ry="18"/>
<text text-anchor="middle" x="124.07" y="-36.33" font-family="Times New Roman,serif" font-size="14.00">Смерть</text>
</g>
<!-- Юность&#45;&gt;Смерть -->
<g id="edge5" class="edge">
<title>Юность&#45;&gt;Смерть</title>
<path fill="none" stroke="black" d="M131.77,-239.97C136.03,-229.74 140.89,-216.27 143.07,-203.75 151.14,-157.32 140.53,-102.75 132.22,-70.55"/>
<polygon fill="black" stroke="black" points="135.68,-69.96 129.69,-61.22 128.92,-71.79 135.68,-69.96"/>
</g>
<!-- Старость -->
<g id="node4" class="node">
<title>Старость</title>
<ellipse fill="none" stroke="black" cx="48.07" cy="-113.75" rx="48.07" ry="18"/>
<text text-anchor="middle" x="48.07" y="-108.33" font-family="Times New Roman,serif" font-size="14.00">Старость</text>
</g>
<!-- Зрелость&#45;&gt;Старость -->
<g id="edge3" class="edge">
<title>Зрелость&#45;&gt;Старость</title>
<path fill="none" stroke="black" d="M77.63,-167.8C73.22,-159.89 67.87,-150.29 62.94,-141.44"/>
<polygon fill="black" stroke="black" points="66.08,-139.89 58.16,-132.86 59.97,-143.3 66.08,-139.89"/>
</g>
<!-- Зрелость&#45;&gt;Смерть -->
<g id="edge6" class="edge">
<title>Зрелость&#45;&gt;Смерть</title>
<path fill="none" stroke="black" d="M93.42,-167.72C97.12,-157.41 101.71,-143.93 105.07,-131.75 110.59,-111.7 115.46,-88.74 118.89,-71.16"/>
<polygon fill="black" stroke="black" points="122.3,-71.92 120.73,-61.44 115.43,-70.61 122.3,-71.92"/>
</g>
<!-- Старость&#45;&gt;Смерть -->
<g id="edge4" class="edge">
<title>Старость&#45;&gt;Смерть</title>
<path fill="none" stroke="black" d="M65.7,-96.51C75.52,-87.46 87.93,-76.04 98.78,-66.05"/>
<polygon fill="black" stroke="black" points="100.96,-68.79 105.95,-59.44 96.22,-63.64 100.96,-68.79"/>
</g>
</g>
</svg>
