<?xml version="1.0" encoding="UTF-8" standalone="no"?>
<!DOCTYPE svg PUBLIC "-//W3C//DTD SVG 1.1//EN"
 "http://www.w3.org/Graphics/SVG/1.1/DTD/svg11.dtd">
<!-- Generated by graphviz version 2.38.0 (20140413.2041)
 -->
<!-- Title: structs Pages: 1 -->
<svg width="161pt" height="174pt"
 viewBox="0.00 0.00 161.00 174.00" xmlns="http://www.w3.org/2000/svg" xmlns:xlink="http://www.w3.org/1999/xlink">
<g id="graph0" class="graph" transform="scale(1 1) rotate(0) translate(4 170)">
<title>structs</title>
<polygon fill="white" stroke="none" points="-4,4 -4,-170 157,-170 157,4 -4,4"/>
<text text-anchor="middle" x="76.5" y="-7.8" font-family="Times New Roman,serif" font-size="14.00">Like a table</text>
<!-- first -->
<g id="node1" class="node"><title>first</title>
<polygon fill="none" stroke="black" points="26,-96.5 26,-165.5 125,-165.5 125,-96.5 26,-96.5"/>
<text text-anchor="middle" x="42" y="-134.8" font-family="Times New Roman,serif" font-size="14.00">x1</text>
<text text-anchor="middle" x="42" y="-119.8" font-family="Times New Roman,serif" font-size="14.00"> all</text>
<polyline fill="none" stroke="black" points="58,-96.5 58,-165.5 "/>
<text text-anchor="middle" x="76.5" y="-150.3" font-family="Times New Roman,serif" font-size="14.00">x21</text>
<polyline fill="none" stroke="black" points="58,-142.5 95,-142.5 "/>
<text text-anchor="middle" x="76.5" y="-127.3" font-family="Times New Roman,serif" font-size="14.00">x22</text>
<polyline fill="none" stroke="black" points="58,-119.5 95,-119.5 "/>
<text text-anchor="middle" x="76.5" y="-104.3" font-family="Times New Roman,serif" font-size="14.00">x23</text>
<polyline fill="none" stroke="black" points="95,-96.5 95,-165.5 "/>
<text text-anchor="middle" x="110" y="-127.3" font-family="Times New Roman,serif" font-size="14.00">x3</text>
</g>
<!-- second -->
<g id="node2" class="node"><title>second</title>
<polygon fill="none" stroke="black" points="0,-23.5 0,-59.5 153,-59.5 153,-23.5 0,-23.5"/>
<text text-anchor="middle" x="25.5" y="-37.8" font-family="Times New Roman,serif" font-size="14.00">x22_1</text>
<polyline fill="none" stroke="black" points="51,-23.5 51,-59.5 "/>
<text text-anchor="middle" x="76.5" y="-37.8" font-family="Times New Roman,serif" font-size="14.00">x22_2</text>
<polyline fill="none" stroke="black" points="102,-23.5 102,-59.5 "/>
<text text-anchor="middle" x="127.5" y="-37.8" font-family="Times New Roman,serif" font-size="14.00">x22_3</text>
</g>
<!-- first&#45;&gt;second -->
<g id="edge1" class="edge"><title>first:f0&#45;&gt;second</title>
<path fill="none" stroke="black" d="M76.5,-119.43C76.5,-106.901 76.5,-86.4725 76.5,-69.8151"/>
<polygon fill="black" stroke="black" points="80.0001,-69.5342 76.5,-59.5342 73.0001,-69.5343 80.0001,-69.5342"/>
</g>
</g>
</svg>
