<?xml version="1.0" encoding="UTF-8" standalone="no"?>
<!DOCTYPE svg PUBLIC "-//W3C//DTD SVG 1.1//EN"
 "http://www.w3.org/Graphics/SVG/1.1/DTD/svg11.dtd">
<!-- Generated by graphviz version 10.0.1 (20240210.2158)
 -->
<!-- Title: structs Pages: 1 -->
<svg width="262pt" height="177pt"
 viewBox="0.00 0.00 261.62 177.00" xmlns="http://www.w3.org/2000/svg" xmlns:xlink="http://www.w3.org/1999/xlink">
<g id="graph0" class="graph" transform="scale(1 1) rotate(0) translate(4 173)">
<title>structs</title>
<polygon fill="white" stroke="none" points="-4,4 -4,-173 257.62,-173 257.62,4 -4,4"/>
<text text-anchor="middle" x="126.81" y="-6.45" font-family="Times New Roman,serif" font-size="14.00">Node Shapes &#45; digraph structs</text>
<!-- struct1 -->
<g id="node1" class="node">
<title>struct1</title>
<polygon fill="none" stroke="black" points="10,-132.5 10,-168.5 141.25,-168.5 141.25,-132.5 10,-132.5"/>
<text text-anchor="middle" x="26.62" y="-145.07" font-family="Times New Roman,serif" font-size="14.00">left</text>
<polyline fill="none" stroke="black" points="43.25,-132.5 43.25,-168.5"/>
<text text-anchor="middle" x="71.88" y="-145.07" font-family="Times New Roman,serif" font-size="14.00">mid dle</text>
<polyline fill="none" stroke="black" points="100.5,-132.5 100.5,-168.5"/>
<text text-anchor="middle" x="120.88" y="-145.07" font-family="Times New Roman,serif" font-size="14.00">right</text>
</g>
<!-- struct2 -->
<g id="node2" class="node">
<title>struct2</title>
<polygon fill="none" stroke="black" points="0,-41.88 0,-77.88 73.25,-77.88 73.25,-41.88 0,-41.88"/>
<text text-anchor="middle" x="18.12" y="-54.45" font-family="Times New Roman,serif" font-size="14.00">one</text>
<polyline fill="none" stroke="black" points="36.25,-41.88 36.25,-77.88"/>
<text text-anchor="middle" x="54.75" y="-54.45" font-family="Times New Roman,serif" font-size="14.00">two</text>
</g>
<!-- struct1&#45;&gt;struct2 -->
<g id="edge1" class="edge">
<title>struct1:f1&#45;&gt;struct2:f0</title>
<path fill="none" stroke="black" d="M71.62,-132C71.62,-102.8 31.02,-109.61 20.23,-89.98"/>
<polygon fill="black" stroke="black" points="23.66,-89.29 17.97,-80.35 16.85,-90.88 23.66,-89.29"/>
</g>
<!-- struct3 -->
<g id="node3" class="node">
<title>struct3</title>
<polygon fill="none" stroke="black" points="91.62,-24.25 91.62,-95.5 253.62,-95.5 253.62,-24.25 91.62,-24.25"/>
<text text-anchor="middle" x="115.75" y="-62.33" font-family="Times New Roman,serif" font-size="14.00">hello</text>
<text text-anchor="middle" x="115.75" y="-46.58" font-family="Times New Roman,serif" font-size="14.00">world</text>
<polyline fill="none" stroke="black" points="139.88,-24.25 139.88,-95.5"/>
<text text-anchor="middle" x="174" y="-78.2" font-family="Times New Roman,serif" font-size="14.00">b</text>
<polyline fill="none" stroke="black" points="139.88,-71.75 208.12,-71.75"/>
<text text-anchor="middle" x="151.25" y="-54.45" font-family="Times New Roman,serif" font-size="14.00">c</text>
<polyline fill="none" stroke="black" points="162.62,-48 162.62,-71.75"/>
<text text-anchor="middle" x="174.38" y="-54.45" font-family="Times New Roman,serif" font-size="14.00">d</text>
<polyline fill="none" stroke="black" points="186.12,-48 186.12,-71.75"/>
<text text-anchor="middle" x="197.12" y="-54.45" font-family="Times New Roman,serif" font-size="14.00">e</text>
<polyline fill="none" stroke="black" points="139.88,-48 208.12,-48"/>
<text text-anchor="middle" x="174" y="-30.7" font-family="Times New Roman,serif" font-size="14.00">f</text>
<polyline fill="none" stroke="black" points="208.12,-24.25 208.12,-95.5"/>
<text text-anchor="middle" x="219.5" y="-54.45" font-family="Times New Roman,serif" font-size="14.00">g</text>
<polyline fill="none" stroke="black" points="230.88,-24.25 230.88,-95.5"/>
<text text-anchor="middle" x="242.25" y="-54.45" font-family="Times New Roman,serif" font-size="14.00">h</text>
</g>
<!-- struct1&#45;&gt;struct3 -->
<g id="edge2" class="edge">
<title>struct1:f2&#45;&gt;struct3:here</title>
<path fill="none" stroke="black" d="M120.62,-132C120.62,-120.14 139.56,-97.04 155,-80.17"/>
<polygon fill="black" stroke="black" points="157.33,-82.8 161.61,-73.11 152.22,-78.02 157.33,-82.8"/>
</g>
</g>
</svg>
