<?xml version="1.0" encoding="UTF-8" standalone="no"?>
<!DOCTYPE svg PUBLIC "-//W3C//DTD SVG 1.1//EN"
 "http://www.w3.org/Graphics/SVG/1.1/DTD/svg11.dtd">
<!-- Generated by graphviz version 2.38.0 (20140413.2041)
 -->
<!-- Title: R Pages: 1 -->
<svg width="298pt" height="68pt"
 viewBox="0.00 0.00 297.75 68.00" xmlns="http://www.w3.org/2000/svg" xmlns:xlink="http://www.w3.org/1999/xlink">
<g id="graph0" class="graph" transform="scale(1 1) rotate(0) translate(4 64)">
<title>R</title>
<polygon fill="white" stroke="none" points="-4,4 -4,-64 293.754,-64 293.754,4 -4,4"/>
<text text-anchor="middle" x="144.877" y="-7.8" font-family="Times New Roman,serif" font-size="14.00">Node Shapes &#45; digraph R</text>
<!-- node1 -->
<g id="node1" class="node"><title>node1</title>
<path fill="none" stroke="black" d="M42,-59.5C42,-59.5 12,-59.5 12,-59.5 6,-59.5 0,-53.5 0,-47.5 0,-47.5 0,-35.5 0,-35.5 0,-29.5 6,-23.5 12,-23.5 12,-23.5 42,-23.5 42,-23.5 48,-23.5 54,-29.5 54,-35.5 54,-35.5 54,-47.5 54,-47.5 54,-53.5 48,-59.5 42,-59.5"/>
<text text-anchor="middle" x="27" y="-37.8" font-family="Times New Roman,serif" font-size="14.00">node1</text>
</g>
<!-- node2 -->
<g id="node2" class="node"><title>node2</title>
<path fill="yellow" stroke="black" d="M125.678,-55.1886C125.678,-55.1886 101.321,-45.8114 101.321,-45.8114 95.722,-43.6557 95.722,-39.3443 101.321,-37.1886 101.321,-37.1886 125.678,-27.8114 125.678,-27.8114 131.278,-25.6557 142.476,-25.6557 148.076,-27.8114 148.076,-27.8114 172.433,-37.1886 172.433,-37.1886 178.032,-39.3443 178.032,-43.6557 172.433,-45.8114 172.433,-45.8114 148.076,-55.1886 148.076,-55.1886 142.476,-57.3443 131.278,-57.3443 125.678,-55.1886"/>
<text text-anchor="middle" x="136.877" y="-37.8" font-family="Times New Roman,serif" font-size="14.00">node2</text>
</g>
<!-- node1&#45;&gt;node2 -->
<g id="edge1" class="edge"><title>node1&#45;&gt;node2</title>
<path fill="none" stroke="black" d="M54.114,-41.5C61.9066,-41.5 70.7662,-41.5 79.7077,-41.5"/>
<polygon fill="black" stroke="black" points="79.7852,-45.0001 89.7852,-41.5 79.7852,-38.0001 79.7852,-45.0001"/>
</g>
<!-- node3 -->
<g id="node3" class="node"><title>node3</title>
<path fill="none" stroke="black" d="M231.754,-23.5C231.754,-23.5 277.754,-23.5 277.754,-23.5 283.754,-23.5 289.754,-29.5 289.754,-35.5 289.754,-35.5 289.754,-47.5 289.754,-47.5 289.754,-53.5 283.754,-59.5 277.754,-59.5 277.754,-59.5 231.754,-59.5 231.754,-59.5 225.754,-59.5 219.754,-53.5 219.754,-47.5 219.754,-47.5 219.754,-35.5 219.754,-35.5 219.754,-29.5 225.754,-23.5 231.754,-23.5"/>
<text text-anchor="middle" x="231.254" y="-37.8" font-family="Times New Roman,serif" font-size="14.00">a</text>
<polyline fill="none" stroke="black" points="242.754,-23.5 242.754,-59.5 "/>
<text text-anchor="middle" x="254.754" y="-37.8" font-family="Times New Roman,serif" font-size="14.00">b</text>
<polyline fill="none" stroke="black" points="266.754,-23.5 266.754,-59.5 "/>
<text text-anchor="middle" x="278.254" y="-37.8" font-family="Times New Roman,serif" font-size="14.00">c</text>
</g>
<!-- node2&#45;&gt;node3 -->
<g id="edge2" class="edge"><title>node2&#45;&gt;node3</title>
<path fill="none" stroke="black" d="M183.675,-41.5C192.22,-41.5 201.134,-41.5 209.627,-41.5"/>
<polygon fill="black" stroke="black" points="209.726,-45.0001 219.726,-41.5 209.726,-38.0001 209.726,-45.0001"/>
</g>
</g>
</svg>
