<?xml version="1.0" encoding="UTF-8" standalone="no"?>
<!DOCTYPE svg PUBLIC "-//W3C//DTD SVG 1.1//EN"
 "http://www.w3.org/Graphics/SVG/1.1/DTD/svg11.dtd">
<!-- Generated by graphviz version 10.0.1 (20240210.2158)
 -->
<!-- Title: G Pages: 1 -->
<svg width="620pt" height="417pt"
 viewBox="0.00 0.00 620.35 416.70" xmlns="http://www.w3.org/2000/svg" xmlns:xlink="http://www.w3.org/1999/xlink">
<g id="graph0" class="graph" transform="scale(1 1) rotate(0) translate(4 412.7)">
<title>G</title>
<polygon fill="white" stroke="none" points="-4,4 -4,-412.7 616.35,-412.7 616.35,4 -4,4"/>
<text text-anchor="middle" x="306.17" y="-6.45" font-family="Times New Roman,serif" font-size="14.00">Entity relation diagram (Circo)</text>
<!-- name -->
<g id="node1" class="node">
<title>name</title>
<ellipse fill="none" stroke="black" cx="274.88" cy="-372.31" rx="30.11" ry="18"/>
<text text-anchor="middle" x="274.88" y="-366.89" font-family="Times New Roman,serif" font-size="14.00">name</text>
</g>
<!-- course -->
<g id="node2" class="node">
<title>course</title>
<ellipse fill="none" stroke="black" cx="482.13" cy="-207.03" rx="35.6" ry="18"/>
<text text-anchor="middle" x="482.13" y="-201.61" font-family="Times New Roman,serif" font-size="14.00">course</text>
</g>
<!-- name&#45;&#45;course -->
<g id="edge1" class="edge">
<title>name&#45;&#45;course</title>
<path fill="none" stroke="black" d="M293.27,-357.65C332.3,-326.52 423.1,-254.11 462.88,-222.38"/>
</g>
<!-- CI -->
<g id="node4" class="node">
<title>CI</title>
<ellipse fill="none" stroke="black" cx="418.3" cy="-74.49" rx="27" ry="18"/>
<text text-anchor="middle" x="418.3" y="-69.06" font-family="Times New Roman,serif" font-size="14.00">CI</text>
</g>
<!-- course&#45;&#45;CI -->
<g id="edge3" class="edge">
<title>course&#45;&#45;CI</title>
<path fill="none" stroke="black" d="M473.52,-189.16C461.27,-163.72 438.95,-117.36 426.77,-92.08"/>
<text text-anchor="middle" x="446.77" y="-143.07" font-family="Times New Roman,serif" font-size="14.00">n</text>
</g>
<!-- SC -->
<g id="node5" class="node">
<title>SC</title>
<ellipse fill="none" stroke="black" cx="418.3" cy="-339.58" rx="27" ry="18"/>
<text text-anchor="middle" x="418.3" y="-334.15" font-family="Times New Roman,serif" font-size="14.00">SC</text>
</g>
<!-- course&#45;&#45;SC -->
<g id="edge4" class="edge">
<title>course&#45;&#45;SC</title>
<path fill="none" stroke="black" d="M473.52,-224.91C461.27,-250.35 438.95,-296.7 426.77,-321.99"/>
<text text-anchor="middle" x="446.77" y="-275.9" font-family="Times New Roman,serif" font-size="14.00">n</text>
</g>
<!-- code -->
<g id="node3" class="node">
<title>code</title>
<ellipse fill="none" stroke="black" cx="583.24" cy="-207.03" rx="29.11" ry="18"/>
<text text-anchor="middle" x="583.24" y="-201.61" font-family="Times New Roman,serif" font-size="14.00">code</text>
</g>
<!-- code&#45;&#45;course -->
<g id="edge2" class="edge">
<title>code&#45;&#45;course</title>
<path fill="none" stroke="black" d="M553.72,-207.03C542.53,-207.03 529.67,-207.03 517.96,-207.03"/>
</g>
<!-- Institute -->
<g id="node6" class="node">
<title>Institute</title>
<ellipse fill="none" stroke="black" cx="274.88" cy="-41.75" rx="40.09" ry="18"/>
<text text-anchor="middle" x="274.88" y="-36.33" font-family="Times New Roman,serif" font-size="14.00">Institute</text>
</g>
<!-- CI&#45;&#45;Institute -->
<g id="edge5" class="edge">
<title>CI&#45;&#45;Institute</title>
<path fill="none" stroke="black" d="M392.33,-68.56C369.56,-63.36 336.25,-55.76 310.9,-49.97"/>
<text text-anchor="middle" x="350.12" y="-61.72" font-family="Times New Roman,serif" font-size="14.00">l</text>
</g>
<!-- Institute&#45;&#45;name -->
<g id="edge6" class="edge">
<title>Institute&#45;&#45;name</title>
<path fill="none" stroke="black" d="M274.88,-59.99C274.88,-117.79 274.88,-296.41 274.88,-354.13"/>
</g>
<!-- SI -->
<g id="node7" class="node">
<title>SI</title>
<ellipse fill="none" stroke="black" cx="159.86" cy="-133.47" rx="27" ry="18"/>
<text text-anchor="middle" x="159.86" y="-128.05" font-family="Times New Roman,serif" font-size="14.00">SI</text>
</g>
<!-- Institute&#45;&#45;SI -->
<g id="edge7" class="edge">
<title>Institute&#45;&#45;SI</title>
<path fill="none" stroke="black" d="M254.84,-57.73C232.96,-75.18 198.25,-102.86 177.4,-119.48"/>
<text text-anchor="middle" x="214.62" y="-91.05" font-family="Times New Roman,serif" font-size="14.00">l</text>
</g>
<!-- student -->
<g id="node8" class="node">
<title>student</title>
<ellipse fill="none" stroke="black" cx="159.86" cy="-280.59" rx="37.59" ry="18"/>
<text text-anchor="middle" x="159.86" y="-275.16" font-family="Times New Roman,serif" font-size="14.00">student</text>
</g>
<!-- SI&#45;&#45;student -->
<g id="edge8" class="edge">
<title>SI&#45;&#45;student</title>
<path fill="none" stroke="black" d="M159.86,-151.81C159.86,-180.15 159.86,-234.28 159.86,-262.49"/>
<text text-anchor="middle" x="156.48" y="-209.6" font-family="Times New Roman,serif" font-size="14.00">n</text>
</g>
<!-- student&#45;&#45;name -->
<g id="edge9" class="edge">
<title>student&#45;&#45;name</title>
<path fill="none" stroke="black" d="M179.63,-296.36C201.21,-313.57 235.49,-340.9 256.5,-357.66"/>
</g>
<!-- student&#45;&#45;SC -->
<g id="edge12" class="edge">
<title>student&#45;&#45;SC</title>
<path fill="none" stroke="black" d="M194.18,-288.42C246.63,-300.39 345.57,-322.98 392.44,-333.67"/>
<text text-anchor="middle" x="288.06" y="-313.5" font-family="Times New Roman,serif" font-size="14.00">m</text>
</g>
<!-- grade -->
<g id="node9" class="node">
<title>grade</title>
<ellipse fill="none" stroke="black" cx="101.1" cy="-390.7" rx="31.1" ry="18"/>
<text text-anchor="middle" x="101.1" y="-385.27" font-family="Times New Roman,serif" font-size="14.00">grade</text>
</g>
<!-- student&#45;&#45;grade -->
<g id="edge10" class="edge">
<title>student&#45;&#45;grade</title>
<path fill="none" stroke="black" d="M150.42,-298.28C139.45,-318.83 121.47,-352.52 110.51,-373.05"/>
</g>
<!-- number -->
<g id="node10" class="node">
<title>number</title>
<ellipse fill="none" stroke="black" cx="38.59" cy="-265.22" rx="38.59" ry="18"/>
<text text-anchor="middle" x="38.59" y="-259.79" font-family="Times New Roman,serif" font-size="14.00">number</text>
</g>
<!-- student&#45;&#45;number -->
<g id="edge11" class="edge">
<title>student&#45;&#45;number</title>
<path fill="none" stroke="black" d="M123.14,-275.94C108.23,-274.05 91.01,-271.86 76.02,-269.96"/>
</g>
</g>
</svg>
