<?xml version="1.0" encoding="UTF-8" standalone="no"?>
<!DOCTYPE svg PUBLIC "-//W3C//DTD SVG 1.1//EN"
 "http://www.w3.org/Graphics/SVG/1.1/DTD/svg11.dtd">
<!-- Generated by graphviz version 2.38.0 (20140413.2041)
 -->
<!-- Title: G Pages: 1 -->
<svg width="325pt" height="313pt"
 viewBox="0.00 0.00 324.78 312.87" xmlns="http://www.w3.org/2000/svg" xmlns:xlink="http://www.w3.org/1999/xlink">
<g id="graph0" class="graph" transform="scale(1 1) rotate(0) translate(141.565 134.571)">
<title>G</title>
<polygon fill="white" stroke="none" points="-141.565,178.299 -141.565,-134.571 183.214,-134.571 183.214,178.299 -141.565,178.299"/>
<text text-anchor="middle" x="20.8245" y="166.499" font-family="Times New Roman,serif" font-size="14.00">Entity relation diagram (Neato)</text>
<!-- name -->
<g id="node1" class="node"><title>name</title>
<ellipse fill="none" stroke="black" cx="-2.34177" cy="-18.8538" rx="29.795" ry="18"/>
<text text-anchor="middle" x="-2.34177" y="-15.1538" font-family="Times New Roman,serif" font-size="14.00">name</text>
</g>
<!-- course -->
<g id="node2" class="node"><title>course</title>
<ellipse fill="none" stroke="black" cx="73.3047" cy="-38.5367" rx="35.194" ry="18"/>
<text text-anchor="middle" x="73.3047" y="-34.8367" font-family="Times New Roman,serif" font-size="14.00">course</text>
</g>
<!-- name&#45;&#45;course -->
<g id="edge1" class="edge"><title>name&#45;&#45;course</title>
<path fill="none" stroke="black" d="M25.3966,-26.0712C30.794,-27.4756 36.4869,-28.9568 41.9903,-30.3888"/>
</g>
<!-- CI -->
<g id="node4" class="node"><title>CI</title>
<ellipse fill="none" stroke="black" cx="31.1062" cy="-112.571" rx="27" ry="18"/>
<text text-anchor="middle" x="31.1062" y="-108.871" font-family="Times New Roman,serif" font-size="14.00">CI</text>
</g>
<!-- course&#45;&#45;CI -->
<g id="edge3" class="edge"><title>course&#45;&#45;CI</title>
<path fill="none" stroke="black" d="M63.3042,-56.0817C56.48,-68.0543 47.4902,-83.8261 40.7444,-95.6611"/>
<text text-anchor="middle" x="48.5243" y="-79.6714" font-family="Times New Roman,serif" font-size="14.00">n</text>
</g>
<!-- SC -->
<g id="node5" class="node"><title>SC</title>
<ellipse fill="none" stroke="black" cx="49.3949" cy="42.6123" rx="27" ry="18"/>
<text text-anchor="middle" x="49.3949" y="46.3123" font-family="Times New Roman,serif" font-size="14.00">SC</text>
</g>
<!-- course&#45;&#45;SC -->
<g id="edge4" class="edge"><title>course&#45;&#45;SC</title>
<path fill="none" stroke="black" d="M67.9983,-20.5271C64.0085,-6.9859 58.5702,11.4718 54.6042,24.9323"/>
<text text-anchor="middle" x="57.8012" y="-1.59739" font-family="Times New Roman,serif" font-size="14.00">n</text>
</g>
<!-- code -->
<g id="node3" class="node"><title>code</title>
<ellipse fill="none" stroke="black" cx="150.616" cy="-50.6385" rx="28.6953" ry="18"/>
<text text-anchor="middle" x="150.616" y="-46.9385" font-family="Times New Roman,serif" font-size="14.00">code</text>
</g>
<!-- code&#45;&#45;course -->
<g id="edge2" class="edge"><title>code&#45;&#45;course</title>
<path fill="none" stroke="black" d="M122.705,-46.2695C117.601,-45.4706 112.226,-44.6292 106.976,-43.8073"/>
</g>
<!-- Institute -->
<g id="node6" class="node"><title>Institute</title>
<ellipse fill="none" stroke="black" cx="-46.3537" cy="-84.7152" rx="39.7935" ry="18"/>
<text text-anchor="middle" x="-46.3537" y="-81.0152" font-family="Times New Roman,serif" font-size="14.00">Institute</text>
</g>
<!-- CI&#45;&#45;Institute -->
<g id="edge5" class="edge"><title>CI&#45;&#45;Institute</title>
<path fill="none" stroke="black" d="M7.02205,-103.91C0.00507683,-101.386 -7.76408,-98.5924 -15.153,-95.9353"/>
<text text-anchor="middle" x="-2.06546" y="-103.722" font-family="Times New Roman,serif" font-size="14.00">l</text>
</g>
<!-- Institute&#45;&#45;name -->
<g id="edge6" class="edge"><title>Institute&#45;&#45;name</title>
<path fill="none" stroke="black" d="M-34.7901,-67.4109C-28.2701,-57.6541 -20.158,-45.5148 -13.6759,-35.8147"/>
</g>
<!-- SI -->
<g id="node7" class="node"><title>SI</title>
<ellipse fill="none" stroke="black" cx="-90.3968" cy="-15.5328" rx="27" ry="18"/>
<text text-anchor="middle" x="-90.3968" y="-11.8328" font-family="Times New Roman,serif" font-size="14.00">SI</text>
</g>
<!-- Institute&#45;&#45;SI -->
<g id="edge7" class="edge"><title>Institute&#45;&#45;SI</title>
<path fill="none" stroke="black" d="M-57.4676,-67.2575C-64.2971,-56.5299 -72.9992,-42.8608 -79.7422,-32.2689"/>
<text text-anchor="middle" x="-70.6049" y="-53.5632" font-family="Times New Roman,serif" font-size="14.00">l</text>
</g>
<!-- student -->
<g id="node8" class="node"><title>student</title>
<ellipse fill="none" stroke="black" cx="-36.229" cy="52.7428" rx="37.0935" ry="18"/>
<text text-anchor="middle" x="-36.229" y="56.4428" font-family="Times New Roman,serif" font-size="14.00">student</text>
</g>
<!-- SI&#45;&#45;student -->
<g id="edge8" class="edge"><title>SI&#45;&#45;student</title>
<path fill="none" stroke="black" d="M-77.5598,0.647532C-69.1753,11.2158 -58.2442,24.9938 -49.7298,35.7258"/>
<text text-anchor="middle" x="-67.1448" y="14.3867" font-family="Times New Roman,serif" font-size="14.00">n</text>
</g>
<!-- student&#45;&#45;name -->
<g id="edge9" class="edge"><title>student&#45;&#45;name</title>
<path fill="none" stroke="black" d="M-27.8524,35.0448C-22.5997,23.947 -15.8563,9.69968 -10.622,-1.35932"/>
</g>
<!-- student&#45;&#45;SC -->
<g id="edge12" class="edge"><title>student&#45;&#45;SC</title>
<path fill="none" stroke="black" d="M0.0832492,48.4466C7.64948,47.5514 15.493,46.6234 22.6387,45.778"/>
<text text-anchor="middle" x="5.86097" y="43.3123" font-family="Times New Roman,serif" font-size="14.00">m</text>
</g>
<!-- grade -->
<g id="node9" class="node"><title>grade</title>
<ellipse fill="none" stroke="black" cx="-107.017" cy="92.1939" rx="30.5947" ry="18"/>
<text text-anchor="middle" x="-107.017" y="95.8939" font-family="Times New Roman,serif" font-size="14.00">grade</text>
</g>
<!-- student&#45;&#45;grade -->
<g id="edge10" class="edge"><title>student&#45;&#45;grade</title>
<path fill="none" stroke="black" d="M-60.5904,66.3196C-68.429,70.6882 -77.0699,75.5038 -84.7501,79.7841"/>
</g>
<!-- number -->
<g id="node10" class="node"><title>number</title>
<ellipse fill="none" stroke="black" cx="-22.0833" cy="133.299" rx="38.1938" ry="18"/>
<text text-anchor="middle" x="-22.0833" y="136.999" font-family="Times New Roman,serif" font-size="14.00">number</text>
</g>
<!-- student&#45;&#45;number -->
<g id="edge11" class="edge"><title>student&#45;&#45;number</title>
<path fill="none" stroke="black" d="M-33.0191,71.0221C-30.7041,84.2056 -27.5926,101.925 -25.2805,115.092"/>
</g>
</g>
</svg>
