<?xml version="1.0" encoding="UTF-8" standalone="no"?>
<!DOCTYPE svg PUBLIC "-//W3C//DTD SVG 1.1//EN"
 "http://www.w3.org/Graphics/SVG/1.1/DTD/svg11.dtd">
<!-- Generated by graphviz version 10.0.1 (20240210.2158)
 -->
<!-- Title: G Pages: 1 -->
<svg width="448pt" height="392pt"
 viewBox="0.00 0.00 447.71 391.75" xmlns="http://www.w3.org/2000/svg" xmlns:xlink="http://www.w3.org/1999/xlink">
<g id="graph0" class="graph" transform="scale(1 1) rotate(0) translate(4 387.75)">
<title>G</title>
<polygon fill="white" stroke="none" points="-4,4 -4,-387.75 443.71,-387.75 443.71,4 -4,4"/>
<text text-anchor="middle" x="219.86" y="-6.45" font-family="Times New Roman,serif" font-size="14.00">Entity relation diagram (Twopi)</text>
<!-- name -->
<g id="node1" class="node">
<title>name</title>
<ellipse fill="none" stroke="black" cx="189.65" cy="-212.1" rx="30.11" ry="18"/>
<text text-anchor="middle" x="189.65" y="-206.68" font-family="Times New Roman,serif" font-size="14.00">name</text>
</g>
<!-- course -->
<g id="node2" class="node">
<title>course</title>
<ellipse fill="none" stroke="black" cx="297.65" cy="-274.46" rx="35.6" ry="18"/>
<text text-anchor="middle" x="297.65" y="-269.03" font-family="Times New Roman,serif" font-size="14.00">course</text>
</g>
<!-- name&#45;&#45;course -->
<g id="edge1" class="edge">
<title>name&#45;&#45;course</title>
<path fill="none" stroke="black" d="M211.77,-224.87C229.79,-235.28 255.19,-249.94 273.69,-260.62"/>
</g>
<!-- CI -->
<g id="node4" class="node">
<title>CI</title>
<ellipse fill="none" stroke="black" cx="288" cy="-113.75" rx="27" ry="18"/>
<text text-anchor="middle" x="288" y="-108.32" font-family="Times New Roman,serif" font-size="14.00">CI</text>
</g>
<!-- course&#45;&#45;CI -->
<g id="edge3" class="edge">
<title>course&#45;&#45;CI</title>
<path fill="none" stroke="black" d="M296.54,-256.02C294.69,-225.1 290.97,-163.16 289.11,-132.22"/>
<text text-anchor="middle" x="289.45" y="-196.57" font-family="Times New Roman,serif" font-size="14.00">n</text>
</g>
<!-- SC -->
<g id="node5" class="node">
<title>SC</title>
<ellipse fill="none" stroke="black" cx="412.71" cy="-257.75" rx="27" ry="18"/>
<text text-anchor="middle" x="412.71" y="-252.32" font-family="Times New Roman,serif" font-size="14.00">SC</text>
</g>
<!-- course&#45;&#45;SC -->
<g id="edge4" class="edge">
<title>course&#45;&#45;SC</title>
<path fill="none" stroke="black" d="M332.17,-269.44C349.38,-266.95 369.88,-263.97 385.89,-261.64"/>
<text text-anchor="middle" x="355.66" y="-267.99" font-family="Times New Roman,serif" font-size="14.00">n</text>
</g>
<!-- code -->
<g id="node3" class="node">
<title>code</title>
<ellipse fill="none" stroke="black" cx="225.65" cy="-365.75" rx="29.11" ry="18"/>
<text text-anchor="middle" x="225.65" y="-360.32" font-family="Times New Roman,serif" font-size="14.00">code</text>
</g>
<!-- code&#45;&#45;course -->
<g id="edge2" class="edge">
<title>code&#45;&#45;course</title>
<path fill="none" stroke="black" d="M238.52,-349.43C251.39,-333.12 271.08,-308.15 284.16,-291.57"/>
</g>
<!-- Institute -->
<g id="node6" class="node">
<title>Institute</title>
<ellipse fill="none" stroke="black" cx="225.65" cy="-149.75" rx="40.09" ry="18"/>
<text text-anchor="middle" x="225.65" y="-144.32" font-family="Times New Roman,serif" font-size="14.00">Institute</text>
</g>
<!-- CI&#45;&#45;Institute -->
<g id="edge5" class="edge">
<title>CI&#45;&#45;Institute</title>
<path fill="none" stroke="black" d="M267.24,-125.74C261.86,-128.85 256,-132.23 250.43,-135.44"/>
<text text-anchor="middle" x="257.34" y="-117.29" font-family="Times New Roman,serif" font-size="14.00">l</text>
</g>
<!-- Institute&#45;&#45;name -->
<g id="edge6" class="edge">
<title>Institute&#45;&#45;name</title>
<path fill="none" stroke="black" d="M215.43,-167.45C210.44,-176.09 204.47,-186.44 199.52,-195"/>
</g>
<!-- SI -->
<g id="node7" class="node">
<title>SI</title>
<ellipse fill="none" stroke="black" cx="225.65" cy="-77.75" rx="27" ry="18"/>
<text text-anchor="middle" x="225.65" y="-72.32" font-family="Times New Roman,serif" font-size="14.00">SI</text>
</g>
<!-- Institute&#45;&#45;SI -->
<g id="edge7" class="edge">
<title>Institute&#45;&#45;SI</title>
<path fill="none" stroke="black" d="M225.65,-131.58C225.65,-120.75 225.65,-107.04 225.65,-96.16"/>
<text text-anchor="middle" x="224.15" y="-116.32" font-family="Times New Roman,serif" font-size="14.00">l</text>
</g>
<!-- student -->
<g id="node8" class="node">
<title>student</title>
<ellipse fill="none" stroke="black" cx="81.65" cy="-149.75" rx="37.59" ry="18"/>
<text text-anchor="middle" x="81.65" y="-144.32" font-family="Times New Roman,serif" font-size="14.00">student</text>
</g>
<!-- SI&#45;&#45;student -->
<g id="edge8" class="edge">
<title>SI&#45;&#45;student</title>
<path fill="none" stroke="black" d="M203.78,-88.69C178.13,-101.51 135.63,-122.76 108.14,-136.51"/>
<text text-anchor="middle" x="152.58" y="-115.05" font-family="Times New Roman,serif" font-size="14.00">n</text>
</g>
<!-- student&#45;&#45;name -->
<g id="edge9" class="edge">
<title>student&#45;&#45;name</title>
<path fill="none" stroke="black" d="M106.16,-163.9C124.7,-174.61 149.94,-189.18 167.81,-199.49"/>
</g>
<!-- student&#45;&#45;SC -->
<g id="edge12" class="edge">
<title>student&#45;&#45;SC</title>
<path fill="none" stroke="black" d="M113.09,-160.01C178.79,-181.44 329.37,-230.56 388.37,-249.81"/>
<text text-anchor="middle" x="245.48" y="-207.36" font-family="Times New Roman,serif" font-size="14.00">m</text>
</g>
<!-- grade -->
<g id="node9" class="node">
<title>grade</title>
<ellipse fill="none" stroke="black" cx="38.59" cy="-257.75" rx="31.1" ry="18"/>
<text text-anchor="middle" x="38.59" y="-252.32" font-family="Times New Roman,serif" font-size="14.00">grade</text>
</g>
<!-- student&#45;&#45;grade -->
<g id="edge10" class="edge">
<title>student&#45;&#45;grade</title>
<path fill="none" stroke="black" d="M74.54,-167.58C66.56,-187.59 53.69,-219.87 45.71,-239.89"/>
</g>
<!-- number -->
<g id="node10" class="node">
<title>number</title>
<ellipse fill="none" stroke="black" cx="38.59" cy="-41.75" rx="38.59" ry="18"/>
<text text-anchor="middle" x="38.59" y="-36.33" font-family="Times New Roman,serif" font-size="14.00">number</text>
</g>
<!-- student&#45;&#45;number -->
<g id="edge11" class="edge">
<title>student&#45;&#45;number</title>
<path fill="none" stroke="black" d="M74.54,-131.92C66.56,-111.91 53.69,-79.63 45.71,-59.61"/>
</g>
</g>
</svg>
