<?xml version="1.0" encoding="UTF-8" standalone="no"?>
<!DOCTYPE svg PUBLIC "-//W3C//DTD SVG 1.1//EN"
 "http://www.w3.org/Graphics/SVG/1.1/DTD/svg11.dtd">
<!-- Generated by graphviz version 2.38.0 (20140413.2041)
 -->
<!-- Title: G Pages: 1 -->
<svg width="236pt" height="575pt"
 viewBox="0.00 0.00 235.55 575.00" xmlns="http://www.w3.org/2000/svg" xmlns:xlink="http://www.w3.org/1999/xlink">
<g id="graph0" class="graph" transform="scale(1 1) rotate(0) translate(4 571)">
<title>G</title>
<polygon fill="white" stroke="none" points="-4,4 -4,-571 231.547,-571 231.547,4 -4,4"/>
<text text-anchor="middle" x="113.774" y="-7.8" font-family="Times New Roman,serif" font-size="14.00">Entity relation diagram (Dot)</text>
<!-- name -->
<g id="node1" class="node"><title>name</title>
<ellipse fill="none" stroke="black" cx="86.5473" cy="-549" rx="29.795" ry="18"/>
<text text-anchor="middle" x="86.5473" y="-545.3" font-family="Times New Roman,serif" font-size="14.00">name</text>
</g>
<!-- course -->
<g id="node2" class="node"><title>course</title>
<ellipse fill="none" stroke="black" cx="159.547" cy="-476" rx="35.194" ry="18"/>
<text text-anchor="middle" x="159.547" y="-472.3" font-family="Times New Roman,serif" font-size="14.00">course</text>
</g>
<!-- name&#45;&#45;course -->
<g id="edge1" class="edge"><title>name&#45;&#45;course</title>
<path fill="none" stroke="black" d="M101.673,-533.289C114.034,-521.266 131.446,-504.331 143.937,-492.182"/>
</g>
<!-- CI -->
<g id="node4" class="node"><title>CI</title>
<ellipse fill="none" stroke="black" cx="145.547" cy="-389" rx="27" ry="18"/>
<text text-anchor="middle" x="145.547" y="-385.3" font-family="Times New Roman,serif" font-size="14.00">CI</text>
</g>
<!-- course&#45;&#45;CI -->
<g id="edge3" class="edge"><title>course&#45;&#45;CI</title>
<path fill="none" stroke="black" d="M156.714,-457.799C154.285,-443.052 150.804,-421.915 148.376,-407.175"/>
<text text-anchor="middle" x="157.047" y="-428.8" font-family="Times New Roman,serif" font-size="14.00">n</text>
</g>
<!-- SC -->
<g id="node5" class="node"><title>SC</title>
<ellipse fill="none" stroke="black" cx="200.547" cy="-41" rx="27" ry="18"/>
<text text-anchor="middle" x="200.547" y="-37.3" font-family="Times New Roman,serif" font-size="14.00">SC</text>
</g>
<!-- course&#45;&#45;SC -->
<g id="edge4" class="edge"><title>course&#45;&#45;SC</title>
<path fill="none" stroke="black" d="M172.52,-459.165C184.532,-442.864 200.547,-416.214 200.547,-390 200.547,-390 200.547,-390 200.547,-127 200.547,-103.536 200.547,-76.4297 200.547,-59.2564"/>
<text text-anchor="middle" x="204.047" y="-254.8" font-family="Times New Roman,serif" font-size="14.00">n</text>
</g>
<!-- code -->
<g id="node3" class="node"><title>code</title>
<ellipse fill="none" stroke="black" cx="162.547" cy="-549" rx="28.6953" ry="18"/>
<text text-anchor="middle" x="162.547" y="-545.3" font-family="Times New Roman,serif" font-size="14.00">code</text>
</g>
<!-- code&#45;&#45;course -->
<g id="edge2" class="edge"><title>code&#45;&#45;course</title>
<path fill="none" stroke="black" d="M161.821,-530.813C161.349,-519.65 160.737,-505.16 160.267,-494.029"/>
</g>
<!-- Institute -->
<g id="node6" class="node"><title>Institute</title>
<ellipse fill="none" stroke="black" cx="120.547" cy="-302" rx="39.7935" ry="18"/>
<text text-anchor="middle" x="120.547" y="-298.3" font-family="Times New Roman,serif" font-size="14.00">Institute</text>
</g>
<!-- CI&#45;&#45;Institute -->
<g id="edge5" class="edge"><title>CI&#45;&#45;Institute</title>
<path fill="none" stroke="black" d="M140.608,-371.207C136.254,-356.402 129.939,-334.93 125.562,-320.049"/>
<text text-anchor="middle" x="136.547" y="-341.8" font-family="Times New Roman,serif" font-size="14.00">l</text>
</g>
<!-- Institute&#45;&#45;name -->
<g id="edge6" class="edge"><title>Institute&#45;&#45;name</title>
<path fill="none" stroke="black" d="M117.642,-320.024C115.334,-333.765 112.084,-353.604 109.547,-371 101.007,-429.567 92.4074,-499.269 88.5909,-530.889"/>
</g>
<!-- SI -->
<g id="node7" class="node"><title>SI</title>
<ellipse fill="none" stroke="black" cx="119.547" cy="-215" rx="27" ry="18"/>
<text text-anchor="middle" x="119.547" y="-211.3" font-family="Times New Roman,serif" font-size="14.00">SI</text>
</g>
<!-- Institute&#45;&#45;SI -->
<g id="edge7" class="edge"><title>Institute&#45;&#45;SI</title>
<path fill="none" stroke="black" d="M120.345,-283.799C120.171,-269.052 119.923,-247.915 119.749,-233.175"/>
<text text-anchor="middle" x="122.547" y="-254.8" font-family="Times New Roman,serif" font-size="14.00">l</text>
</g>
<!-- student -->
<g id="node8" class="node"><title>student</title>
<ellipse fill="none" stroke="black" cx="117.547" cy="-128" rx="37.0935" ry="18"/>
<text text-anchor="middle" x="117.547" y="-124.3" font-family="Times New Roman,serif" font-size="14.00">student</text>
</g>
<!-- SI&#45;&#45;student -->
<g id="edge8" class="edge"><title>SI&#45;&#45;student</title>
<path fill="none" stroke="black" d="M119.143,-196.799C118.796,-182.052 118.298,-160.915 117.951,-146.175"/>
<text text-anchor="middle" x="123.047" y="-167.8" font-family="Times New Roman,serif" font-size="14.00">n</text>
</g>
<!-- student&#45;&#45;name -->
<g id="edge9" class="edge"><title>student&#45;&#45;name</title>
<path fill="none" stroke="black" d="M96.9809,-143.355C77.9379,-158.504 52.5473,-184.276 52.5473,-214 52.5473,-477 52.5473,-477 52.5473,-477 52.5473,-497.637 64.3764,-518.631 74.08,-532.381"/>
</g>
<!-- student&#45;&#45;SC -->
<g id="edge12" class="edge"><title>student&#45;&#45;SC</title>
<path fill="none" stroke="black" d="M132.771,-111.41C148.027,-95.7854 171.333,-71.9182 186.253,-56.6392"/>
<text text-anchor="middle" x="170.047" y="-80.8" font-family="Times New Roman,serif" font-size="14.00">m</text>
</g>
<!-- grade -->
<g id="node9" class="node"><title>grade</title>
<ellipse fill="none" stroke="black" cx="30.5473" cy="-41" rx="30.5947" ry="18"/>
<text text-anchor="middle" x="30.5473" y="-37.3" font-family="Times New Roman,serif" font-size="14.00">grade</text>
</g>
<!-- student&#45;&#45;grade -->
<g id="edge10" class="edge"><title>student&#45;&#45;grade</title>
<path fill="none" stroke="black" d="M101.59,-111.41C85.6963,-95.8812 61.4689,-72.2108 45.8198,-56.9214"/>
</g>
<!-- number -->
<g id="node10" class="node"><title>number</title>
<ellipse fill="none" stroke="black" cx="117.547" cy="-41" rx="38.1938" ry="18"/>
<text text-anchor="middle" x="117.547" y="-37.3" font-family="Times New Roman,serif" font-size="14.00">number</text>
</g>
<!-- student&#45;&#45;number -->
<g id="edge11" class="edge"><title>student&#45;&#45;number</title>
<path fill="none" stroke="black" d="M117.547,-109.799C117.547,-95.0519 117.547,-73.9152 117.547,-59.1754"/>
</g>
</g>
</svg>
