<?xml version="1.0" encoding="UTF-8" standalone="no"?>
<!DOCTYPE svg PUBLIC "-//W3C//DTD SVG 1.1//EN"
 "http://www.w3.org/Graphics/SVG/1.1/DTD/svg11.dtd">
<!-- Generated by graphviz version 10.0.1 (20240210.2158)
 -->
<!-- Title: G Pages: 1 -->
<svg width="326pt" height="314pt"
 viewBox="0.00 0.00 325.85 313.62" xmlns="http://www.w3.org/2000/svg" xmlns:xlink="http://www.w3.org/1999/xlink">
<g id="graph0" class="graph" transform="scale(1 1) rotate(0) translate(4 309.62)">
<title>G</title>
<polygon fill="white" stroke="none" points="-4,4 -4,-309.62 321.85,-309.62 321.85,4 -4,4"/>
<text text-anchor="middle" x="158.92" y="-6.45" font-family="Times New Roman,serif" font-size="14.00">Entity relation diagram (Neato)</text>
<!-- name -->
<g id="node1" class="node">
<title>name</title>
<ellipse fill="none" stroke="black" cx="135.78" cy="-193.9" rx="30.11" ry="18"/>
<text text-anchor="middle" x="135.78" y="-188.48" font-family="Times New Roman,serif" font-size="14.00">name</text>
</g>
<!-- course -->
<g id="node2" class="node">
<title>course</title>
<ellipse fill="none" stroke="black" cx="211.43" cy="-213.59" rx="35.6" ry="18"/>
<text text-anchor="middle" x="211.43" y="-208.16" font-family="Times New Roman,serif" font-size="14.00">course</text>
</g>
<!-- name&#45;&#45;course -->
<g id="edge1" class="edge">
<title>name&#45;&#45;course</title>
<path fill="none" stroke="black" d="M163.52,-201.12C168.66,-202.46 174.08,-203.87 179.34,-205.24"/>
</g>
<!-- CI -->
<g id="node4" class="node">
<title>CI</title>
<ellipse fill="none" stroke="black" cx="169.23" cy="-287.62" rx="27" ry="18"/>
<text text-anchor="middle" x="169.23" y="-282.19" font-family="Times New Roman,serif" font-size="14.00">CI</text>
</g>
<!-- course&#45;&#45;CI -->
<g id="edge3" class="edge">
<title>course&#45;&#45;CI</title>
<path fill="none" stroke="black" d="M201.43,-231.13C194.65,-243.02 185.74,-258.65 179.01,-270.46"/>
<text text-anchor="middle" x="186.84" y="-253.24" font-family="Times New Roman,serif" font-size="14.00">n</text>
</g>
<!-- SC -->
<g id="node5" class="node">
<title>SC</title>
<ellipse fill="none" stroke="black" cx="187.52" cy="-132.44" rx="27" ry="18"/>
<text text-anchor="middle" x="187.52" y="-127.01" font-family="Times New Roman,serif" font-size="14.00">SC</text>
</g>
<!-- course&#45;&#45;SC -->
<g id="edge4" class="edge">
<title>course&#45;&#45;SC</title>
<path fill="none" stroke="black" d="M206.12,-195.58C202.16,-182.13 196.77,-163.83 192.81,-150.4"/>
<text text-anchor="middle" x="196.09" y="-175.44" font-family="Times New Roman,serif" font-size="14.00">n</text>
</g>
<!-- code -->
<g id="node3" class="node">
<title>code</title>
<ellipse fill="none" stroke="black" cx="288.74" cy="-225.69" rx="29.11" ry="18"/>
<text text-anchor="middle" x="288.74" y="-220.26" font-family="Times New Roman,serif" font-size="14.00">code</text>
</g>
<!-- code&#45;&#45;course -->
<g id="edge2" class="edge">
<title>code&#45;&#45;course</title>
<path fill="none" stroke="black" d="M260.39,-221.25C255.65,-220.51 250.68,-219.73 245.81,-218.97"/>
</g>
<!-- Institute -->
<g id="node6" class="node">
<title>Institute</title>
<ellipse fill="none" stroke="black" cx="91.77" cy="-259.76" rx="40.09" ry="18"/>
<text text-anchor="middle" x="91.77" y="-254.34" font-family="Times New Roman,serif" font-size="14.00">Institute</text>
</g>
<!-- CI&#45;&#45;Institute -->
<g id="edge5" class="edge">
<title>CI&#45;&#45;Institute</title>
<path fill="none" stroke="black" d="M145.14,-278.96C138.3,-276.5 130.75,-273.78 123.53,-271.19"/>
<text text-anchor="middle" x="132.84" y="-277.52" font-family="Times New Roman,serif" font-size="14.00">l</text>
</g>
<!-- Institute&#45;&#45;name -->
<g id="edge6" class="edge">
<title>Institute&#45;&#45;name</title>
<path fill="none" stroke="black" d="M103.56,-242.11C110.08,-232.36 118.13,-220.31 124.56,-210.69"/>
</g>
<!-- SI -->
<g id="node7" class="node">
<title>SI</title>
<ellipse fill="none" stroke="black" cx="47.72" cy="-190.58" rx="27" ry="18"/>
<text text-anchor="middle" x="47.72" y="-185.16" font-family="Times New Roman,serif" font-size="14.00">SI</text>
</g>
<!-- Institute&#45;&#45;SI -->
<g id="edge7" class="edge">
<title>Institute&#45;&#45;SI</title>
<path fill="none" stroke="black" d="M80.65,-242.31C73.82,-231.58 65.12,-217.91 58.38,-207.32"/>
<text text-anchor="middle" x="68.02" y="-227.26" font-family="Times New Roman,serif" font-size="14.00">l</text>
</g>
<!-- student -->
<g id="node8" class="node">
<title>student</title>
<ellipse fill="none" stroke="black" cx="101.89" cy="-122.31" rx="37.59" ry="18"/>
<text text-anchor="middle" x="101.89" y="-116.88" font-family="Times New Roman,serif" font-size="14.00">student</text>
</g>
<!-- SI&#45;&#45;student -->
<g id="edge8" class="edge">
<title>SI&#45;&#45;student</title>
<path fill="none" stroke="black" d="M60.56,-174.4C68.95,-163.83 79.88,-150.05 88.39,-139.32"/>
<text text-anchor="middle" x="71.1" y="-159.31" font-family="Times New Roman,serif" font-size="14.00">n</text>
</g>
<!-- student&#45;&#45;name -->
<g id="edge9" class="edge">
<title>student&#45;&#45;name</title>
<path fill="none" stroke="black" d="M110.27,-140C115.52,-151.1 122.27,-165.35 127.5,-176.41"/>
</g>
<!-- student&#45;&#45;SC -->
<g id="edge12" class="edge">
<title>student&#45;&#45;SC</title>
<path fill="none" stroke="black" d="M138.7,-126.66C146.04,-127.53 153.63,-128.43 160.56,-129.25"/>
<text text-anchor="middle" x="144.38" y="-130.4" font-family="Times New Roman,serif" font-size="14.00">m</text>
</g>
<!-- grade -->
<g id="node9" class="node">
<title>grade</title>
<ellipse fill="none" stroke="black" cx="31.1" cy="-82.85" rx="31.1" ry="18"/>
<text text-anchor="middle" x="31.1" y="-77.43" font-family="Times New Roman,serif" font-size="14.00">grade</text>
</g>
<!-- student&#45;&#45;grade -->
<g id="edge10" class="edge">
<title>student&#45;&#45;grade</title>
<path fill="none" stroke="black" d="M77.13,-108.51C69.48,-104.24 61.09,-99.57 53.6,-95.39"/>
</g>
<!-- number -->
<g id="node10" class="node">
<title>number</title>
<ellipse fill="none" stroke="black" cx="116.04" cy="-41.75" rx="38.59" ry="18"/>
<text text-anchor="middle" x="116.04" y="-36.33" font-family="Times New Roman,serif" font-size="14.00">number</text>
</g>
<!-- student&#45;&#45;number -->
<g id="edge11" class="edge">
<title>student&#45;&#45;number</title>
<path fill="none" stroke="black" d="M105.1,-104.03C107.42,-90.84 110.53,-73.12 112.84,-59.96"/>
</g>
</g>
</svg>
