<?xml version="1.0" encoding="UTF-8" standalone="no"?>
<!DOCTYPE svg PUBLIC "-//W3C//DTD SVG 1.1//EN"
 "http://www.w3.org/Graphics/SVG/1.1/DTD/svg11.dtd">
<!-- Generated by graphviz version 2.38.0 (20140413.2041)
 -->
<!-- Title: G Pages: 1 -->
<svg width="509pt" height="494pt"
 viewBox="0.00 0.00 508.85 493.73" xmlns="http://www.w3.org/2000/svg" xmlns:xlink="http://www.w3.org/1999/xlink">
<g id="graph0" class="graph" transform="scale(1 1) rotate(0) translate(4 489.73)">
<title>G</title>
<polygon fill="white" stroke="none" points="-4,4 -4,-489.73 504.852,-489.73 504.852,4 -4,4"/>
<text text-anchor="middle" x="250.426" y="-7.8" font-family="Times New Roman,serif" font-size="14.00">Entity relation diagram (Circo)</text>
<!-- name -->
<g id="node1" class="node"><title>name</title>
<ellipse fill="none" stroke="black" cx="154.001" cy="-467.73" rx="29.795" ry="18"/>
<text text-anchor="middle" x="154.001" y="-464.03" font-family="Times New Roman,serif" font-size="14.00">name</text>
</g>
<!-- course -->
<g id="node2" class="node"><title>course</title>
<ellipse fill="none" stroke="black" cx="154.001" cy="-139.075" rx="35.194" ry="18"/>
<text text-anchor="middle" x="154.001" y="-135.375" font-family="Times New Roman,serif" font-size="14.00">course</text>
</g>
<!-- name&#45;&#45;course -->
<g id="edge1" class="edge"><title>name&#45;&#45;course</title>
<path fill="none" stroke="black" d="M154.001,-449.592C154.001,-392.131 154.001,-214.54 154.001,-157.157"/>
</g>
<!-- CI -->
<g id="node4" class="node"><title>CI</title>
<ellipse fill="none" stroke="black" cx="39.6465" cy="-230.27" rx="27" ry="18"/>
<text text-anchor="middle" x="39.6465" y="-226.57" font-family="Times New Roman,serif" font-size="14.00">CI</text>
</g>
<!-- course&#45;&#45;CI -->
<g id="edge3" class="edge"><title>course&#45;&#45;CI</title>
<path fill="none" stroke="black" d="M134.861,-154.339C113.116,-171.68 77.9377,-199.734 56.9747,-216.451"/>
<text text-anchor="middle" x="92.4177" y="-189.195" font-family="Times New Roman,serif" font-size="14.00">n</text>
</g>
<!-- SC -->
<g id="node5" class="node"><title>SC</title>
<ellipse fill="none" stroke="black" cx="296.599" cy="-171.622" rx="27" ry="18"/>
<text text-anchor="middle" x="296.599" y="-167.922" font-family="Times New Roman,serif" font-size="14.00">SC</text>
</g>
<!-- course&#45;&#45;SC -->
<g id="edge4" class="edge"><title>course&#45;&#45;SC</title>
<path fill="none" stroke="black" d="M186.359,-146.461C211.996,-152.312 247.325,-160.376 271.013,-165.782"/>
<text text-anchor="middle" x="225.186" y="-159.922" font-family="Times New Roman,serif" font-size="14.00">n</text>
</g>
<!-- code -->
<g id="node3" class="node"><title>code</title>
<ellipse fill="none" stroke="black" cx="131.616" cy="-41" rx="28.6953" ry="18"/>
<text text-anchor="middle" x="131.616" y="-37.3" font-family="Times New Roman,serif" font-size="14.00">code</text>
</g>
<!-- code&#45;&#45;course -->
<g id="edge2" class="edge"><title>code&#45;&#45;course</title>
<path fill="none" stroke="black" d="M135.722,-58.9885C139.735,-76.5739 145.815,-103.209 149.845,-120.869"/>
</g>
<!-- Institute -->
<g id="node6" class="node"><title>Institute</title>
<ellipse fill="none" stroke="black" cx="39.6465" cy="-376.535" rx="39.7935" ry="18"/>
<text text-anchor="middle" x="39.6465" y="-372.835" font-family="Times New Roman,serif" font-size="14.00">Institute</text>
</g>
<!-- CI&#45;&#45;Institute -->
<g id="edge5" class="edge"><title>CI&#45;&#45;Institute</title>
<path fill="none" stroke="black" d="M39.6465,-248.499C39.6465,-276.527 39.6465,-329.91 39.6465,-358.076"/>
<text text-anchor="middle" x="37.6465" y="-307.088" font-family="Times New Roman,serif" font-size="14.00">l</text>
</g>
<!-- Institute&#45;&#45;name -->
<g id="edge6" class="edge"><title>Institute&#45;&#45;name</title>
<path fill="none" stroke="black" d="M59.3047,-392.212C80.7613,-409.323 114.838,-436.498 135.731,-453.16"/>
</g>
<!-- SI -->
<g id="node7" class="node"><title>SI</title>
<ellipse fill="none" stroke="black" cx="296.599" cy="-435.183" rx="27" ry="18"/>
<text text-anchor="middle" x="296.599" y="-431.483" font-family="Times New Roman,serif" font-size="14.00">SI</text>
</g>
<!-- Institute&#45;&#45;SI -->
<g id="edge7" class="edge"><title>Institute&#45;&#45;SI</title>
<path fill="none" stroke="black" d="M75.1048,-384.628C127.558,-396.6 224.598,-418.749 270.82,-429.299"/>
<text text-anchor="middle" x="170.963" y="-410.763" font-family="Times New Roman,serif" font-size="14.00">l</text>
</g>
<!-- student -->
<g id="node8" class="node"><title>student</title>
<ellipse fill="none" stroke="black" cx="360.061" cy="-303.402" rx="37.0935" ry="18"/>
<text text-anchor="middle" x="360.061" y="-299.702" font-family="Times New Roman,serif" font-size="14.00">student</text>
</g>
<!-- SI&#45;&#45;student -->
<g id="edge8" class="edge"><title>SI&#45;&#45;student</title>
<path fill="none" stroke="black" d="M304.895,-417.955C316.991,-392.839 339.35,-346.409 351.56,-321.055"/>
<text text-anchor="middle" x="324.728" y="-373.305" font-family="Times New Roman,serif" font-size="14.00">n</text>
</g>
<!-- student&#45;&#45;name -->
<g id="edge9" class="edge"><title>student&#45;&#45;name</title>
<path fill="none" stroke="black" d="M340.675,-318.862C301.001,-350.501 211.028,-422.252 172.296,-453.14"/>
</g>
<!-- student&#45;&#45;SC -->
<g id="edge12" class="edge"><title>student&#45;&#45;SC</title>
<path fill="none" stroke="black" d="M351.502,-285.63C339.322,-260.338 317.127,-214.249 305.022,-189.113"/>
<text text-anchor="middle" x="322.762" y="-241.172" font-family="Times New Roman,serif" font-size="14.00">m</text>
</g>
<!-- grade -->
<g id="node9" class="node"><title>grade</title>
<ellipse fill="none" stroke="black" cx="460.557" cy="-229.933" rx="30.5947" ry="18"/>
<text text-anchor="middle" x="460.557" y="-226.233" font-family="Times New Roman,serif" font-size="14.00">grade</text>
</g>
<!-- student&#45;&#45;grade -->
<g id="edge10" class="edge"><title>student&#45;&#45;grade</title>
<path fill="none" stroke="black" d="M380.884,-288.18C398.591,-275.234 423.826,-256.786 441.124,-244.14"/>
</g>
<!-- number -->
<g id="node10" class="node"><title>number</title>
<ellipse fill="none" stroke="black" cx="462.506" cy="-369.32" rx="38.1938" ry="18"/>
<text text-anchor="middle" x="462.506" y="-365.62" font-family="Times New Roman,serif" font-size="14.00">number</text>
</g>
<!-- student&#45;&#45;number -->
<g id="edge11" class="edge"><title>student&#45;&#45;number</title>
<path fill="none" stroke="black" d="M382.543,-317.868C399.506,-328.783 422.686,-343.698 439.722,-354.66"/>
</g>
</g>
</svg>
