<?xml version="1.0" encoding="UTF-8" standalone="no"?>
<!DOCTYPE svg PUBLIC "-//W3C//DTD SVG 1.1//EN"
 "http://www.w3.org/Graphics/SVG/1.1/DTD/svg11.dtd">
<!-- Generated by graphviz version 10.0.1 (20240210.2158)
 -->
<!-- Title: G Pages: 1 -->
<svg width="246pt" height="292pt"
 viewBox="0.00 0.00 246.00 291.75" xmlns="http://www.w3.org/2000/svg" xmlns:xlink="http://www.w3.org/1999/xlink">
<g id="graph0" class="graph" transform="scale(1 1) rotate(0) translate(4 264)">
<title>G</title>
<polygon fill="white" stroke="none" points="-4,27.75 -4,-264 242,-264 242,27.75 -4,27.75"/>
<text text-anchor="middle" x="119" y="17.3" font-family="Times New Roman,serif" font-size="14.00">Entity relation diagram (FDP)</text>
<!-- name -->
<g id="node1" class="node">
<title>name</title>
<ellipse fill="none" stroke="black" cx="44.14" cy="-131.02" rx="30.11" ry="18"/>
<text text-anchor="middle" x="44.14" y="-125.59" font-family="Times New Roman,serif" font-size="14.00">name</text>
</g>
<!-- course -->
<g id="node2" class="node">
<title>course</title>
<ellipse fill="none" stroke="black" cx="129.04" cy="-190.36" rx="35.6" ry="18"/>
<text text-anchor="middle" x="129.04" y="-184.93" font-family="Times New Roman,serif" font-size="14.00">course</text>
</g>
<!-- name&#45;&#45;course -->
<g id="edge1" class="edge">
<title>name&#45;&#45;course</title>
<path fill="none" stroke="black" d="M63.83,-144.78C77.05,-154.03 94.46,-166.19 107.97,-175.63"/>
</g>
<!-- CI -->
<g id="node4" class="node">
<title>CI</title>
<ellipse fill="none" stroke="black" cx="119.71" cy="-241.78" rx="27" ry="18"/>
<text text-anchor="middle" x="119.71" y="-236.36" font-family="Times New Roman,serif" font-size="14.00">CI</text>
</g>
<!-- course&#45;&#45;CI -->
<g id="edge3" class="edge">
<title>course&#45;&#45;CI</title>
<path fill="none" stroke="black" d="M125.72,-208.63C124.84,-213.48 123.89,-218.72 123.01,-223.57"/>
<text text-anchor="middle" x="120.99" y="-218.55" font-family="Times New Roman,serif" font-size="14.00">n</text>
</g>
<!-- SC -->
<g id="node5" class="node">
<title>SC</title>
<ellipse fill="none" stroke="black" cx="210.75" cy="-121.43" rx="27" ry="18"/>
<text text-anchor="middle" x="210.75" y="-116" font-family="Times New Roman,serif" font-size="14.00">SC</text>
</g>
<!-- course&#45;&#45;SC -->
<g id="edge4" class="edge">
<title>course&#45;&#45;SC</title>
<path fill="none" stroke="black" d="M147.58,-174.72C161.42,-163.04 180.2,-147.2 193.67,-135.83"/>
<text text-anchor="middle" x="167.25" y="-157.73" font-family="Times New Roman,serif" font-size="14.00">n</text>
</g>
<!-- code -->
<g id="node3" class="node">
<title>code</title>
<ellipse fill="none" stroke="black" cx="208.03" cy="-209.1" rx="29.11" ry="18"/>
<text text-anchor="middle" x="208.03" y="-203.68" font-family="Times New Roman,serif" font-size="14.00">code</text>
</g>
<!-- code&#45;&#45;course -->
<g id="edge2" class="edge">
<title>code&#45;&#45;course</title>
<path fill="none" stroke="black" d="M180.4,-202.55C174.35,-201.11 167.89,-199.58 161.66,-198.1"/>
</g>
<!-- Institute -->
<g id="node6" class="node">
<title>Institute</title>
<ellipse fill="none" stroke="black" cx="40.13" cy="-175.53" rx="40.09" ry="18"/>
<text text-anchor="middle" x="40.13" y="-170.11" font-family="Times New Roman,serif" font-size="14.00">Institute</text>
</g>
<!-- CI&#45;&#45;Institute -->
<g id="edge5" class="edge">
<title>CI&#45;&#45;Institute</title>
<path fill="none" stroke="black" d="M102.44,-227.41C89.83,-216.9 72.7,-202.65 59.6,-191.74"/>
<text text-anchor="middle" x="79.52" y="-212.02" font-family="Times New Roman,serif" font-size="14.00">l</text>
</g>
<!-- Institute&#45;&#45;name -->
<g id="edge6" class="edge">
<title>Institute&#45;&#45;name</title>
<path fill="none" stroke="black" d="M41.78,-157.17C42.01,-154.58 42.25,-151.92 42.49,-149.34"/>
</g>
<!-- SI -->
<g id="node7" class="node">
<title>SI</title>
<ellipse fill="none" stroke="black" cx="119.62" cy="-126.95" rx="27" ry="18"/>
<text text-anchor="middle" x="119.62" y="-121.53" font-family="Times New Roman,serif" font-size="14.00">SI</text>
</g>
<!-- Institute&#45;&#45;SI -->
<g id="edge7" class="edge">
<title>Institute&#45;&#45;SI</title>
<path fill="none" stroke="black" d="M63.98,-160.96C75.23,-154.08 88.51,-145.96 99.28,-139.38"/>
<text text-anchor="middle" x="80.13" y="-136.87" font-family="Times New Roman,serif" font-size="14.00">l</text>
</g>
<!-- student -->
<g id="node8" class="node">
<title>student</title>
<ellipse fill="none" stroke="black" cx="123.11" cy="-72.25" rx="37.59" ry="18"/>
<text text-anchor="middle" x="123.11" y="-66.82" font-family="Times New Roman,serif" font-size="14.00">student</text>
</g>
<!-- SI&#45;&#45;student -->
<g id="edge8" class="edge">
<title>SI&#45;&#45;student</title>
<path fill="none" stroke="black" d="M120.78,-108.74C121.15,-102.89 121.57,-96.42 121.94,-90.57"/>
<text text-anchor="middle" x="117.98" y="-102.1" font-family="Times New Roman,serif" font-size="14.00">n</text>
</g>
<!-- student&#45;&#45;name -->
<g id="edge9" class="edge">
<title>student&#45;&#45;name</title>
<path fill="none" stroke="black" d="M102.36,-87.69C90.3,-96.67 75.19,-107.91 63.39,-116.69"/>
</g>
<!-- student&#45;&#45;SC -->
<g id="edge12" class="edge">
<title>student&#45;&#45;SC</title>
<path fill="none" stroke="black" d="M147.99,-86.21C161.15,-93.59 177.13,-102.56 189.67,-109.6"/>
<text text-anchor="middle" x="163.58" y="-100.35" font-family="Times New Roman,serif" font-size="14.00">m</text>
</g>
<!-- grade -->
<g id="node9" class="node">
<title>grade</title>
<ellipse fill="none" stroke="black" cx="63.78" cy="-21.42" rx="31.1" ry="18"/>
<text text-anchor="middle" x="63.78" y="-15.99" font-family="Times New Roman,serif" font-size="14.00">grade</text>
</g>
<!-- student&#45;&#45;grade -->
<g id="edge10" class="edge">
<title>student&#45;&#45;grade</title>
<path fill="none" stroke="black" d="M104.34,-56.16C97,-49.88 88.64,-42.72 81.42,-36.53"/>
</g>
<!-- number -->
<g id="node10" class="node">
<title>number</title>
<ellipse fill="none" stroke="black" cx="172.77" cy="-17.85" rx="38.59" ry="18"/>
<text text-anchor="middle" x="172.77" y="-12.43" font-family="Times New Roman,serif" font-size="14.00">number</text>
</g>
<!-- student&#45;&#45;number -->
<g id="edge11" class="edge">
<title>student&#45;&#45;number</title>
<path fill="none" stroke="black" d="M138.28,-55.63C144.33,-49.01 151.28,-41.39 157.35,-34.74"/>
</g>
</g>
</svg>
