<?xml version="1.0" encoding="UTF-8" standalone="no"?>
<!DOCTYPE svg PUBLIC "-//W3C//DTD SVG 1.1//EN"
 "http://www.w3.org/Graphics/SVG/1.1/DTD/svg11.dtd">
<!-- Generated by graphviz version 2.38.0 (20140413.2041)
 -->
<!-- Title: G Pages: 1 -->
<svg width="246pt" height="293pt"
 viewBox="0.00 0.00 246.00 293.00" xmlns="http://www.w3.org/2000/svg" xmlns:xlink="http://www.w3.org/1999/xlink">
<g id="graph0" class="graph" transform="scale(1 1) rotate(0) translate(4 266)">
<title>G</title>
<polygon fill="white" stroke="none" points="-4,27 -4,-266 242,-266 242,27 -4,27"/>
<text text-anchor="middle" x="119" y="15.2" font-family="Times New Roman,serif" font-size="14.00">Entity relation diagram (FDP)</text>
<!-- name -->
<g id="node1" class="node"><title>name</title>
<ellipse fill="none" stroke="black" cx="43.9971" cy="-131.82" rx="29.795" ry="18"/>
<text text-anchor="middle" x="43.9971" y="-128.12" font-family="Times New Roman,serif" font-size="14.00">name</text>
</g>
<!-- course -->
<g id="node2" class="node"><title>course</title>
<ellipse fill="none" stroke="black" cx="128.689" cy="-190.643" rx="35.194" ry="18"/>
<text text-anchor="middle" x="128.689" y="-186.943" font-family="Times New Roman,serif" font-size="14.00">course</text>
</g>
<!-- name&#45;&#45;course -->
<g id="edge1" class="edge"><title>name&#45;&#45;course</title>
<path fill="none" stroke="black" d="M63.6401,-145.463C76.8336,-154.627 94.2017,-166.69 107.672,-176.046"/>
</g>
<!-- CI -->
<g id="node4" class="node"><title>CI</title>
<ellipse fill="none" stroke="black" cx="118.821" cy="-244.413" rx="27" ry="18"/>
<text text-anchor="middle" x="118.821" y="-240.713" font-family="Times New Roman,serif" font-size="14.00">CI</text>
</g>
<!-- course&#45;&#45;CI -->
<g id="edge3" class="edge"><title>course&#45;&#45;CI</title>
<path fill="none" stroke="black" d="M125.348,-208.847C124.319,-214.453 123.187,-220.623 122.158,-226.228"/>
<text text-anchor="middle" x="120.253" y="-221.337" font-family="Times New Roman,serif" font-size="14.00">n</text>
</g>
<!-- SC -->
<g id="node5" class="node"><title>SC</title>
<ellipse fill="none" stroke="black" cx="210.78" cy="-122.303" rx="27" ry="18"/>
<text text-anchor="middle" x="210.78" y="-118.603" font-family="Times New Roman,serif" font-size="14.00">SC</text>
</g>
<!-- course&#45;&#45;SC -->
<g id="edge4" class="edge"><title>course&#45;&#45;SC</title>
<path fill="none" stroke="black" d="M147.317,-175.135C161.319,-163.479 180.343,-147.642 193.902,-136.354"/>
<text text-anchor="middle" x="167.109" y="-159.545" font-family="Times New Roman,serif" font-size="14.00">n</text>
</g>
<!-- code -->
<g id="node3" class="node"><title>code</title>
<ellipse fill="none" stroke="black" cx="207.996" cy="-210.155" rx="28.6953" ry="18"/>
<text text-anchor="middle" x="207.996" y="-206.455" font-family="Times New Roman,serif" font-size="14.00">code</text>
</g>
<!-- code&#45;&#45;course -->
<g id="edge2" class="edge"><title>code&#45;&#45;course</title>
<path fill="none" stroke="black" d="M181.146,-203.549C174.496,-201.913 167.307,-200.144 160.447,-198.456"/>
</g>
<!-- Institute -->
<g id="node6" class="node"><title>Institute</title>
<ellipse fill="none" stroke="black" cx="39.7896" cy="-177.167" rx="39.7935" ry="18"/>
<text text-anchor="middle" x="39.7896" y="-173.467" font-family="Times New Roman,serif" font-size="14.00">Institute</text>
</g>
<!-- CI&#45;&#45;Institute -->
<g id="edge5" class="edge"><title>CI&#45;&#45;Institute</title>
<path fill="none" stroke="black" d="M102.06,-230.152C89.2827,-219.28 71.69,-204.31 58.4625,-193.055"/>
<text text-anchor="middle" x="78.2614" y="-215.404" font-family="Times New Roman,serif" font-size="14.00">l</text>
</g>
<!-- Institute&#45;&#45;name -->
<g id="edge6" class="edge"><title>Institute&#45;&#45;name</title>
<path fill="none" stroke="black" d="M41.4767,-158.984C41.7511,-156.027 42.0353,-152.964 42.3096,-150.007"/>
</g>
<!-- SI -->
<g id="node7" class="node"><title>SI</title>
<ellipse fill="none" stroke="black" cx="119.571" cy="-127.972" rx="27" ry="18"/>
<text text-anchor="middle" x="119.571" y="-124.272" font-family="Times New Roman,serif" font-size="14.00">SI</text>
</g>
<!-- Institute&#45;&#45;SI -->
<g id="edge7" class="edge"><title>Institute&#45;&#45;SI</title>
<path fill="none" stroke="black" d="M63.7265,-162.407C75.2011,-155.331 88.7843,-146.956 99.6811,-140.237"/>
<text text-anchor="middle" x="79.7038" y="-140.122" font-family="Times New Roman,serif" font-size="14.00">l</text>
</g>
<!-- student -->
<g id="node8" class="node"><title>student</title>
<ellipse fill="none" stroke="black" cx="123.143" cy="-73.4779" rx="37.0935" ry="18"/>
<text text-anchor="middle" x="123.143" y="-69.7779" font-family="Times New Roman,serif" font-size="14.00">student</text>
</g>
<!-- SI&#45;&#45;student -->
<g id="edge8" class="edge"><title>SI&#45;&#45;student</title>
<path fill="none" stroke="black" d="M120.76,-109.826C121.142,-104.006 121.564,-97.5587 121.947,-91.7303"/>
<text text-anchor="middle" x="117.853" y="-104.578" font-family="Times New Roman,serif" font-size="14.00">n</text>
</g>
<!-- student&#45;&#45;name -->
<g id="edge9" class="edge"><title>student&#45;&#45;name</title>
<path fill="none" stroke="black" d="M102.348,-88.8066C90.1657,-97.787 74.8918,-109.046 63.027,-117.792"/>
</g>
<!-- student&#45;&#45;SC -->
<g id="edge12" class="edge"><title>student&#45;&#45;SC</title>
<path fill="none" stroke="black" d="M147.555,-87.0784C160.926,-94.5276 177.318,-103.66 190.06,-110.759"/>
<text text-anchor="middle" x="163.308" y="-102.719" font-family="Times New Roman,serif" font-size="14.00">m</text>
</g>
<!-- grade -->
<g id="node9" class="node"><title>grade</title>
<ellipse fill="none" stroke="black" cx="63.5021" cy="-22.5557" rx="30.5947" ry="18"/>
<text text-anchor="middle" x="63.5021" y="-18.8557" font-family="Times New Roman,serif" font-size="14.00">grade</text>
</g>
<!-- student&#45;&#45;grade -->
<g id="edge10" class="edge"><title>student&#45;&#45;grade</title>
<path fill="none" stroke="black" d="M104.599,-57.6449C97.0764,-51.2218 88.4307,-43.84 81.016,-37.5092"/>
</g>
<!-- number -->
<g id="node10" class="node"><title>number</title>
<ellipse fill="none" stroke="black" cx="173.476" cy="-18.4465" rx="38.1938" ry="18"/>
<text text-anchor="middle" x="173.476" y="-14.7465" font-family="Times New Roman,serif" font-size="14.00">number</text>
</g>
<!-- student&#45;&#45;number -->
<g id="edge11" class="edge"><title>student&#45;&#45;number</title>
<path fill="none" stroke="black" d="M138.245,-56.9666C144.499,-50.1281 151.747,-42.2038 158.037,-35.327"/>
</g>
</g>
</svg>
