<?xml version="1.0" encoding="UTF-8" standalone="no"?>
<!DOCTYPE svg PUBLIC "-//W3C//DTD SVG 1.1//EN"
 "http://www.w3.org/Graphics/SVG/1.1/DTD/svg11.dtd">
<!-- Generated by graphviz version 10.0.1 (20240210.2158)
 -->
<!-- Title: G Pages: 1 -->
<svg width="340pt" height="184pt"
 viewBox="0.00 0.00 340.00 184.00" xmlns="http://www.w3.org/2000/svg" xmlns:xlink="http://www.w3.org/1999/xlink">
<g id="graph0" class="graph" transform="scale(1 1) rotate(0) translate(4 180)">
<title>G</title>
<polygon fill="white" stroke="none" points="-4,4 -4,-180 336,-180 336,4 -4,4"/>
<g id="clust1" class="cluster">
<title>cluster0</title>
<polygon fill="lightgrey" stroke="lightgrey" points="82,-92 82,-168 246,-168 246,-92 82,-92"/>
<text text-anchor="middle" x="164" y="-150.7" font-family="Times New Roman,serif" font-size="14.00">process #1</text>
</g>
<g id="clust2" class="cluster">
<title>cluster1</title>
<polygon fill="none" stroke="blue" points="172,-8 172,-84 250,-84 250,-8 172,-8"/>
<text text-anchor="middle" x="211" y="-66.7" font-family="Times New Roman,serif" font-size="14.00">process #2</text>
</g>
<!-- a0 -->
<g id="node1" class="node">
<title>a0</title>
<ellipse fill="white" stroke="white" cx="117" cy="-118" rx="27" ry="18"/>
<text text-anchor="middle" x="117" y="-112.58" font-family="Times New Roman,serif" font-size="14.00">a0</text>
</g>
<!-- a1 -->
<g id="node2" class="node">
<title>a1</title>
<ellipse fill="white" stroke="white" cx="211" cy="-118" rx="27" ry="18"/>
<text text-anchor="middle" x="211" y="-112.58" font-family="Times New Roman,serif" font-size="14.00">a1</text>
</g>
<!-- a0&#45;&gt;a1 -->
<g id="edge3" class="edge">
<title>a0&#45;&gt;a1</title>
<path fill="none" stroke="black" d="M144.12,-118C152.96,-118 163.01,-118 172.55,-118"/>
<polygon fill="black" stroke="black" points="172.3,-121.5 182.3,-118 172.3,-114.5 172.3,-121.5"/>
</g>
<!-- end -->
<g id="node5" class="node">
<title>end</title>
<ellipse fill="none" stroke="black" cx="305" cy="-76" rx="27" ry="18"/>
<text text-anchor="middle" x="305" y="-70.58" font-family="Times New Roman,serif" font-size="14.00">end</text>
</g>
<!-- a1&#45;&gt;end -->
<g id="edge4" class="edge">
<title>a1&#45;&gt;end</title>
<path fill="none" stroke="black" d="M233.8,-108.05C245.18,-102.85 259.31,-96.4 271.91,-90.65"/>
<polygon fill="black" stroke="black" points="273.01,-93.99 280.66,-86.66 270.11,-87.63 273.01,-93.99"/>
</g>
<!-- b0 -->
<g id="node3" class="node">
<title>b0</title>
<ellipse fill="lightgrey" stroke="black" cx="211" cy="-34" rx="27" ry="18"/>
<text text-anchor="middle" x="211" y="-28.57" font-family="Times New Roman,serif" font-size="14.00">b0</text>
</g>
<!-- b0&#45;&gt;end -->
<g id="edge5" class="edge">
<title>b0&#45;&gt;end</title>
<path fill="none" stroke="black" d="M233.8,-43.95C245.18,-49.15 259.31,-55.6 271.91,-61.35"/>
<polygon fill="black" stroke="black" points="270.11,-64.37 280.66,-65.34 273.01,-58.01 270.11,-64.37"/>
</g>
<!-- start -->
<g id="node4" class="node">
<title>start</title>
<ellipse fill="none" stroke="black" cx="27" cy="-95" rx="27" ry="18"/>
<text text-anchor="middle" x="27" y="-89.58" font-family="Times New Roman,serif" font-size="14.00">start</text>
</g>
<!-- start&#45;&gt;a0 -->
<g id="edge1" class="edge">
<title>start&#45;&gt;a0</title>
<path fill="none" stroke="black" d="M52.51,-101.41C61.12,-103.66 70.97,-106.23 80.3,-108.67"/>
<polygon fill="black" stroke="black" points="79.29,-112.02 89.85,-111.17 81.06,-105.25 79.29,-112.02"/>
</g>
<!-- start&#45;&gt;b0 -->
<g id="edge2" class="edge">
<title>start&#45;&gt;b0</title>
<path fill="none" stroke="black" d="M51.79,-87.03C83.4,-76.43 139.46,-57.64 175.65,-45.51"/>
<polygon fill="black" stroke="black" points="176.4,-48.95 184.77,-42.46 174.17,-42.32 176.4,-48.95"/>
</g>
</g>
</svg>
