<?xml version="1.0" encoding="UTF-8" standalone="no"?>
<!DOCTYPE svg PUBLIC "-//W3C//DTD SVG 1.1//EN"
 "http://www.w3.org/Graphics/SVG/1.1/DTD/svg11.dtd">
<!-- Generated by graphviz version 10.0.1 (20240210.2158)
 -->
<!-- Title: G Pages: 1 -->
<svg width="346pt" height="155pt"
 viewBox="0.00 0.00 346.35 155.45" xmlns="http://www.w3.org/2000/svg" xmlns:xlink="http://www.w3.org/1999/xlink">
<g id="graph0" class="graph" transform="scale(1 1) rotate(0) translate(4 151.45)">
<title>G</title>
<polygon fill="white" stroke="none" points="-4,4 -4,-151.45 342.35,-151.45 342.35,4 -4,4"/>
<text text-anchor="middle" x="169.17" y="-6.45" font-family="Times New Roman,serif" font-size="14.00">XHTML genealogy</text>
<!-- SGML -->
<g id="node1" class="node">
<title>SGML</title>
<g id="a_node1"><a xlink:href="SGML" xlink:title="SGML">
<ellipse fill="none" stroke="black" cx="36.59" cy="-75.45" rx="36.59" ry="18"/>
<text text-anchor="middle" x="36.59" y="-70.02" font-family="Times New Roman,serif" font-size="14.00">SGML</text>
</a>
</g>
</g>
<!-- HTML -->
<g id="node2" class="node">
<title>HTML</title>
<g id="a_node2"><a xlink:href="HTML" xlink:title="HTML">
<ellipse fill="none" stroke="black" cx="162.69" cy="-129.45" rx="36.59" ry="18"/>
<text text-anchor="middle" x="162.69" y="-124.02" font-family="Times New Roman,serif" font-size="14.00">HTML</text>
</a>
</g>
</g>
<!-- SGML&#45;&gt;HTML -->
<g id="edge1" class="edge">
<title>SGML&#45;&gt;HTML</title>
<path fill="none" stroke="black" d="M64.83,-87.3C82.2,-94.86 104.96,-104.76 124.06,-113.07"/>
<polygon fill="black" stroke="black" points="122.56,-116.24 133.13,-117.02 125.36,-109.82 122.56,-116.24"/>
</g>
<!-- XML -->
<g id="node3" class="node">
<title>XML</title>
<g id="a_node3"><a xlink:href="XML" xlink:title="XML">
<ellipse fill="none" stroke="black" cx="162.69" cy="-75.45" rx="30.61" ry="18"/>
<text text-anchor="middle" x="162.69" y="-70.02" font-family="Times New Roman,serif" font-size="14.00">XML</text>
</a>
</g>
</g>
<!-- SGML&#45;&gt;XML -->
<g id="edge2" class="edge">
<title>SGML&#45;&gt;XML</title>
<path fill="none" stroke="black" d="M73.49,-75.45C88.2,-75.45 105.32,-75.45 120.54,-75.45"/>
<polygon fill="black" stroke="black" points="120.22,-78.95 130.22,-75.45 120.22,-71.95 120.22,-78.95"/>
</g>
<!-- XHTML -->
<g id="node4" class="node">
<title>XHTML</title>
<g id="a_node4"><a xlink:href="http://www.w3schools.com/xhtml/" xlink:title="XHTML">
<ellipse fill="none" stroke="black" cx="295.27" cy="-75.45" rx="43.08" ry="18"/>
<text text-anchor="middle" x="295.27" y="-70.02" font-family="Times New Roman,serif" font-size="14.00">XHTML</text>
</a>
</g>
</g>
<!-- SGML&#45;&gt;XHTML -->
<g id="edge5" class="edge">
<title>SGML&#45;&gt;XHTML</title>
<g id="a_edge5"><a xlink:href="http://www.google.com" xlink:title="ссылка на Google">
<path fill="none" stroke="red" d="M56.93,-60.17C70.86,-50.19 90.57,-38.04 110.19,-32.7 155.21,-20.42 169.94,-21.25 215.19,-32.7 231.87,-36.92 248.84,-45.43 262.77,-53.76"/>
<polygon fill="red" stroke="red" points="260.71,-56.59 271.04,-58.92 264.41,-50.65 260.71,-56.59"/>
</a>
</g>
<g id="a_edge5&#45;label"><a xlink:href="http://www.google.com" xlink:title="ссылка на Google">
<text text-anchor="middle" x="162.69" y="-35.9" font-family="Times New Roman,serif" font-size="14.00" fill="blue">ссылка на Google</text>
</a>
</g>
</g>
<!-- HTML&#45;&gt;XHTML -->
<g id="edge3" class="edge">
<title>HTML&#45;&gt;XHTML</title>
<path fill="none" stroke="black" d="M191.38,-117.99C209.4,-110.54 233.22,-100.69 253.4,-92.34"/>
<polygon fill="black" stroke="black" points="254.58,-95.65 262.48,-88.59 251.9,-89.18 254.58,-95.65"/>
</g>
<!-- XML&#45;&gt;XHTML -->
<g id="edge4" class="edge">
<title>XML&#45;&gt;XHTML</title>
<path fill="none" stroke="black" d="M193.64,-75.45C207.58,-75.45 224.59,-75.45 240.63,-75.45"/>
<polygon fill="black" stroke="black" points="240.56,-78.95 250.56,-75.45 240.56,-71.95 240.56,-78.95"/>
</g>
</g>
</svg>
