<?xml version="1.0" encoding="UTF-8" standalone="no"?>
<!DOCTYPE svg PUBLIC "-//W3C//DTD SVG 1.1//EN"
 "http://www.w3.org/Graphics/SVG/1.1/DTD/svg11.dtd">
<!-- Generated by graphviz version 2.38.0 (20140413.2041)
 -->
<!-- Title: %3 Pages: 1 -->
<svg width="414pt" height="224pt"
 viewBox="0.00 0.00 414.21 223.85" xmlns="http://www.w3.org/2000/svg" xmlns:xlink="http://www.w3.org/1999/xlink">
<g id="graph0" class="graph" transform="scale(1 1) rotate(0) translate(4 219.853)">
<title>%3</title>
<polygon fill="white" stroke="none" points="-4,4 -4,-219.853 410.213,-219.853 410.213,4 -4,4"/>
<text text-anchor="middle" x="203.107" y="-7.8" font-family="Times New Roman,serif" font-size="14.00">Trie</text>
<!-- r_1 -->
<g id="node1" class="node"><title>r_1</title>
<ellipse fill="none" stroke="black" cx="68.6066" cy="-205.246" rx="10.7143" ry="10.7143"/>
<text text-anchor="middle" x="68.6066" y="-201.546" font-family="Times New Roman,serif" font-size="14.00">!</text>
</g>
<!-- n_2_1 -->
<g id="node2" class="node"><title>n_2_1</title>
<ellipse fill="none" stroke="black" cx="10.6066" cy="-148.033" rx="10.7143" ry="10.7143"/>
<text text-anchor="middle" x="10.6066" y="-144.333" font-family="Times New Roman,serif" font-size="14.00">+</text>
</g>
<!-- r_1&#45;&gt;n_2_1 -->
<g id="edge1" class="edge"><title>r_1&#45;&gt;n_2_1</title>
<path fill="none" stroke="black" d="M61.0241,-197.028C52.0301,-188.466 36.8261,-173.993 25.461,-163.174"/>
<polygon fill="black" stroke="black" points="27.6638,-160.438 18.0076,-156.078 22.8373,-165.508 27.6638,-160.438"/>
</g>
<!-- n_2_2 -->
<g id="node3" class="node"><title>n_2_2</title>
<ellipse fill="none" stroke="black" cx="49.6066" cy="-148.033" rx="10.7143" ry="10.7143"/>
<text text-anchor="middle" x="49.6066" y="-144.333" font-family="Times New Roman,serif" font-size="14.00">&#45;</text>
</g>
<!-- r_1&#45;&gt;n_2_2 -->
<g id="edge2" class="edge"><title>r_1&#45;&gt;n_2_2</title>
<path fill="none" stroke="black" d="M65.3835,-194.88C62.8571,-187.538 59.2586,-177.081 56.1362,-168.008"/>
<polygon fill="black" stroke="black" points="59.3456,-166.578 52.7821,-158.261 52.7266,-168.856 59.3456,-166.578"/>
</g>
<!-- n_2_3 -->
<g id="node4" class="node"><title>n_2_3</title>
<ellipse fill="none" stroke="black" cx="88.6066" cy="-148.033" rx="10.7143" ry="10.7143"/>
<text text-anchor="middle" x="88.6066" y="-144.333" font-family="Times New Roman,serif" font-size="14.00">=</text>
</g>
<!-- r_1&#45;&gt;n_2_3 -->
<g id="edge3" class="edge"><title>r_1&#45;&gt;n_2_3</title>
<path fill="none" stroke="black" d="M71.9092,-195.129C74.5855,-187.741 78.4462,-177.082 81.7813,-167.875"/>
<polygon fill="black" stroke="black" points="85.1172,-168.943 85.2323,-158.348 78.5357,-166.559 85.1172,-168.943"/>
</g>
<!-- n_2_4 -->
<g id="node5" class="node"><title>n_2_4</title>
<ellipse fill="none" stroke="black" cx="127.607" cy="-148.033" rx="10.7143" ry="10.7143"/>
<text text-anchor="middle" x="127.607" y="-144.333" font-family="Times New Roman,serif" font-size="14.00">&gt;</text>
</g>
<!-- r_1&#45;&gt;n_2_4 -->
<g id="edge4" class="edge"><title>r_1&#45;&gt;n_2_4</title>
<path fill="none" stroke="black" d="M75.8412,-197.476C85.0417,-188.866 101.15,-173.791 112.961,-162.739"/>
<polygon fill="black" stroke="black" points="115.403,-165.247 120.313,-155.859 110.62,-160.136 115.403,-165.247"/>
</g>
<!-- n_3_1 -->
<g id="node6" class="node"><title>n_3_1</title>
<ellipse fill="none" stroke="black" cx="12.6066" cy="-90.8198" rx="10.7143" ry="10.7143"/>
<text text-anchor="middle" x="12.6066" y="-87.1198" font-family="Times New Roman,serif" font-size="14.00">+</text>
</g>
<!-- n_2_3&#45;&gt;n_3_1 -->
<g id="edge5" class="edge"><title>n_2_3&#45;&gt;n_3_1</title>
<path fill="none" stroke="black" d="M80.4733,-141.124C68.3093,-132.287 45.1154,-115.437 29.2603,-103.919"/>
<polygon fill="black" stroke="black" points="31.0594,-100.899 20.9119,-97.8535 26.9451,-106.563 31.0594,-100.899"/>
</g>
<!-- n_3_2 -->
<g id="node7" class="node"><title>n_3_2</title>
<ellipse fill="none" stroke="black" cx="51.6066" cy="-90.8198" rx="10.7143" ry="10.7143"/>
<text text-anchor="middle" x="51.6066" y="-87.1198" font-family="Times New Roman,serif" font-size="14.00">&#45;</text>
</g>
<!-- n_2_3&#45;&gt;n_3_2 -->
<g id="edge6" class="edge"><title>n_2_3&#45;&gt;n_3_2</title>
<path fill="none" stroke="black" d="M83.1471,-138.886C77.7912,-130.894 69.4684,-118.474 62.7169,-108.399"/>
<polygon fill="black" stroke="black" points="65.5629,-106.359 57.0885,-100 59.7479,-110.256 65.5629,-106.359"/>
</g>
<!-- n_3_3 -->
<g id="node8" class="node"><title>n_3_3</title>
<ellipse fill="none" stroke="black" cx="90.6066" cy="-90.8198" rx="10.7143" ry="10.7143"/>
<text text-anchor="middle" x="90.6066" y="-87.1198" font-family="Times New Roman,serif" font-size="14.00">=</text>
</g>
<!-- n_2_3&#45;&gt;n_3_3 -->
<g id="edge7" class="edge"><title>n_2_3&#45;&gt;n_3_3</title>
<path fill="none" stroke="black" d="M88.955,-137.416C89.2099,-130.377 89.565,-120.575 89.8806,-111.862"/>
<polygon fill="black" stroke="black" points="93.3844,-111.819 90.2488,-101.699 86.389,-111.565 93.3844,-111.819"/>
</g>
<!-- n_3_4 -->
<g id="node9" class="node"><title>n_3_4</title>
<ellipse fill="none" stroke="black" cx="129.607" cy="-90.8198" rx="10.7143" ry="10.7143"/>
<text text-anchor="middle" x="129.607" y="-87.1198" font-family="Times New Roman,serif" font-size="14.00">&gt;</text>
</g>
<!-- n_2_3&#45;&gt;n_3_4 -->
<g id="edge8" class="edge"><title>n_2_3&#45;&gt;n_3_4</title>
<path fill="none" stroke="black" d="M94.6563,-138.886C100.652,-130.812 110.002,-118.22 117.524,-108.091"/>
<polygon fill="black" stroke="black" points="120.38,-110.115 123.532,-100 114.76,-105.942 120.38,-110.115"/>
</g>
<!-- n_4_0 -->
<g id="node10" class="node"><title>n_4_0</title>
<ellipse fill="none" stroke="black" cx="12.6066" cy="-33.6066" rx="10.7143" ry="10.7143"/>
<text text-anchor="middle" x="12.6066" y="-29.9066" font-family="Times New Roman,serif" font-size="14.00">!</text>
</g>
<!-- n_3_3&#45;&gt;n_4_0 -->
<g id="edge9" class="edge"><title>n_3_3&#45;&gt;n_4_0</title>
<path fill="none" stroke="black" d="M82.2592,-83.911C69.7752,-75.074 45.9709,-58.2239 29.6985,-46.7053"/>
<polygon fill="black" stroke="black" points="31.3147,-43.5612 21.1304,-40.6403 27.2703,-49.2747 31.3147,-43.5612"/>
</g>
<!-- n_4_1 -->
<g id="node11" class="node"><title>n_4_1</title>
<ellipse fill="none" stroke="black" cx="51.6066" cy="-33.6066" rx="10.7143" ry="10.7143"/>
<text text-anchor="middle" x="51.6066" y="-29.9066" font-family="Times New Roman,serif" font-size="14.00">+</text>
</g>
<!-- n_3_3&#45;&gt;n_4_1 -->
<g id="edge10" class="edge"><title>n_3_3&#45;&gt;n_4_1</title>
<path fill="none" stroke="black" d="M84.852,-81.6729C79.2066,-73.6806 70.4339,-61.2608 63.3174,-51.1859"/>
<polygon fill="black" stroke="black" points="66.013,-48.9355 57.3848,-42.7869 60.2955,-52.9741 66.013,-48.9355"/>
</g>
<!-- n_4_2 -->
<g id="node12" class="node"><title>n_4_2</title>
<ellipse fill="none" stroke="black" cx="90.6066" cy="-33.6066" rx="10.7143" ry="10.7143"/>
<text text-anchor="middle" x="90.6066" y="-29.9066" font-family="Times New Roman,serif" font-size="14.00">&#45;</text>
</g>
<!-- n_3_3&#45;&gt;n_4_2 -->
<g id="edge11" class="edge"><title>n_3_3&#45;&gt;n_4_2</title>
<path fill="none" stroke="black" d="M90.6066,-80.2024C90.6066,-73.1638 90.6066,-63.3619 90.6066,-54.6492"/>
<polygon fill="black" stroke="black" points="94.1067,-54.4855 90.6066,-44.4856 87.1067,-54.4856 94.1067,-54.4855"/>
</g>
<!-- n_4_3 -->
<g id="node13" class="node"><title>n_4_3</title>
<ellipse fill="none" stroke="black" cx="129.607" cy="-33.6066" rx="10.7143" ry="10.7143"/>
<text text-anchor="middle" x="129.607" y="-29.9066" font-family="Times New Roman,serif" font-size="14.00">=</text>
</g>
<!-- n_3_3&#45;&gt;n_4_3 -->
<g id="edge12" class="edge"><title>n_3_3&#45;&gt;n_4_3</title>
<path fill="none" stroke="black" d="M96.3612,-81.6729C102.007,-73.6806 110.779,-61.2608 117.896,-51.1859"/>
<polygon fill="black" stroke="black" points="120.918,-52.9741 123.828,-42.7869 115.2,-48.9355 120.918,-52.9741"/>
</g>
<!-- n_4_4 -->
<g id="node14" class="node"><title>n_4_4</title>
<ellipse fill="none" stroke="black" cx="168.607" cy="-33.6066" rx="10.7143" ry="10.7143"/>
<text text-anchor="middle" x="168.607" y="-29.9066" font-family="Times New Roman,serif" font-size="14.00">&gt;</text>
</g>
<!-- n_3_3&#45;&gt;n_4_4 -->
<g id="edge13" class="edge"><title>n_3_3&#45;&gt;n_4_4</title>
<path fill="none" stroke="black" d="M98.954,-83.911C111.438,-75.074 135.242,-58.2239 151.515,-46.7053"/>
<polygon fill="black" stroke="black" points="153.943,-49.2747 160.083,-40.6403 149.899,-43.5612 153.943,-49.2747"/>
</g>
<!-- r_2 -->
<g id="node15" class="node"><title>r_2</title>
<ellipse fill="none" stroke="black" cx="210.607" cy="-205.246" rx="10.7143" ry="10.7143"/>
<text text-anchor="middle" x="210.607" y="-201.546" font-family="Times New Roman,serif" font-size="14.00">+</text>
</g>
<!-- p_2_1 -->
<g id="node16" class="node"><title>p_2_1</title>
<ellipse fill="none" stroke="black" cx="171.607" cy="-148.033" rx="10.7143" ry="10.7143"/>
<text text-anchor="middle" x="171.607" y="-144.333" font-family="Times New Roman,serif" font-size="14.00">+</text>
</g>
<!-- r_2&#45;&gt;p_2_1 -->
<g id="edge14" class="edge"><title>r_2&#45;&gt;p_2_1</title>
<path fill="none" stroke="black" d="M204.852,-196.099C199.207,-188.107 190.434,-175.687 183.317,-165.612"/>
<polygon fill="black" stroke="black" points="186.013,-163.362 177.385,-157.213 180.295,-167.401 186.013,-163.362"/>
</g>
<!-- p_2_2 -->
<g id="node17" class="node"><title>p_2_2</title>
<ellipse fill="none" stroke="black" cx="210.607" cy="-148.033" rx="10.7143" ry="10.7143"/>
<text text-anchor="middle" x="210.607" y="-144.333" font-family="Times New Roman,serif" font-size="14.00">&#45;</text>
</g>
<!-- r_2&#45;&gt;p_2_2 -->
<g id="edge15" class="edge"><title>r_2&#45;&gt;p_2_2</title>
<path fill="none" stroke="black" d="M210.607,-194.629C210.607,-187.59 210.607,-177.788 210.607,-169.076"/>
<polygon fill="black" stroke="black" points="214.107,-168.912 210.607,-158.912 207.107,-168.912 214.107,-168.912"/>
</g>
<!-- p_2_3 -->
<g id="node18" class="node"><title>p_2_3</title>
<ellipse fill="none" stroke="black" cx="249.607" cy="-148.033" rx="10.7143" ry="10.7143"/>
<text text-anchor="middle" x="249.607" y="-144.333" font-family="Times New Roman,serif" font-size="14.00">=</text>
</g>
<!-- r_2&#45;&gt;p_2_3 -->
<g id="edge16" class="edge"><title>r_2&#45;&gt;p_2_3</title>
<path fill="none" stroke="black" d="M216.361,-196.099C222.007,-188.107 230.779,-175.687 237.896,-165.612"/>
<polygon fill="black" stroke="black" points="240.918,-167.401 243.828,-157.213 235.2,-163.362 240.918,-167.401"/>
</g>
<!-- p_3_1 -->
<g id="node19" class="node"><title>p_3_1</title>
<ellipse fill="none" stroke="black" cx="169.607" cy="-90.8198" rx="10.7143" ry="10.7143"/>
<text text-anchor="middle" x="169.607" y="-87.1198" font-family="Times New Roman,serif" font-size="14.00">+</text>
</g>
<!-- p_2_1&#45;&gt;p_3_1 -->
<g id="edge17" class="edge"><title>p_2_1&#45;&gt;p_3_1</title>
<path fill="none" stroke="black" d="M171.258,-137.416C171.003,-130.377 170.648,-120.575 170.333,-111.862"/>
<polygon fill="black" stroke="black" points="173.824,-111.565 169.964,-101.699 166.829,-111.819 173.824,-111.565"/>
</g>
<!-- p_3_2 -->
<g id="node20" class="node"><title>p_3_2</title>
<ellipse fill="none" stroke="black" cx="208.607" cy="-90.8198" rx="10.7143" ry="10.7143"/>
<text text-anchor="middle" x="208.607" y="-87.1198" font-family="Times New Roman,serif" font-size="14.00">&#45;</text>
</g>
<!-- p_2_1&#45;&gt;p_3_2 -->
<g id="edge18" class="edge"><title>p_2_1&#45;&gt;p_3_2</title>
<path fill="none" stroke="black" d="M177.066,-138.886C182.422,-130.894 190.745,-118.474 197.496,-108.399"/>
<polygon fill="black" stroke="black" points="200.465,-110.256 203.125,-100 194.65,-106.359 200.465,-110.256"/>
</g>
<!-- r_3 -->
<g id="node21" class="node"><title>r_3</title>
<ellipse fill="none" stroke="black" cx="356.607" cy="-205.246" rx="10.7143" ry="10.7143"/>
<text text-anchor="middle" x="356.607" y="-201.546" font-family="Times New Roman,serif" font-size="14.00">&#45;</text>
</g>
<!-- m_2_1 -->
<g id="node22" class="node"><title>m_2_1</title>
<ellipse fill="none" stroke="black" cx="298.607" cy="-148.033" rx="10.7143" ry="10.7143"/>
<text text-anchor="middle" x="298.607" y="-144.333" font-family="Times New Roman,serif" font-size="14.00">&#45;</text>
</g>
<!-- r_3&#45;&gt;m_2_1 -->
<g id="edge19" class="edge"><title>r_3&#45;&gt;m_2_1</title>
<path fill="none" stroke="black" d="M349.024,-197.028C340.03,-188.466 324.826,-173.993 313.461,-163.174"/>
<polygon fill="black" stroke="black" points="315.664,-160.438 306.008,-156.078 310.837,-165.508 315.664,-160.438"/>
</g>
<!-- m_2_2 -->
<g id="node23" class="node"><title>m_2_2</title>
<ellipse fill="none" stroke="black" cx="356.607" cy="-148.033" rx="10.7143" ry="10.7143"/>
<text text-anchor="middle" x="356.607" y="-144.333" font-family="Times New Roman,serif" font-size="14.00">=</text>
</g>
<!-- r_3&#45;&gt;m_2_2 -->
<g id="edge20" class="edge"><title>r_3&#45;&gt;m_2_2</title>
<path fill="none" stroke="black" d="M356.607,-194.629C356.607,-187.59 356.607,-177.788 356.607,-169.076"/>
<polygon fill="black" stroke="black" points="360.107,-168.912 356.607,-158.912 353.107,-168.912 360.107,-168.912"/>
</g>
<!-- m_2_3 -->
<g id="node24" class="node"><title>m_2_3</title>
<ellipse fill="none" stroke="black" cx="395.607" cy="-148.033" rx="10.7143" ry="10.7143"/>
<text text-anchor="middle" x="395.607" y="-144.333" font-family="Times New Roman,serif" font-size="14.00">&gt;</text>
</g>
<!-- r_3&#45;&gt;m_2_3 -->
<g id="edge21" class="edge"><title>r_3&#45;&gt;m_2_3</title>
<path fill="none" stroke="black" d="M362.361,-196.099C368.007,-188.107 376.779,-175.687 383.896,-165.612"/>
<polygon fill="black" stroke="black" points="386.918,-167.401 389.828,-157.213 381.2,-163.362 386.918,-167.401"/>
</g>
<!-- m_3_1 -->
<g id="node25" class="node"><title>m_3_1</title>
<ellipse fill="none" stroke="black" cx="253.607" cy="-90.8198" rx="10.7143" ry="10.7143"/>
<text text-anchor="middle" x="253.607" y="-87.1198" font-family="Times New Roman,serif" font-size="14.00">!</text>
</g>
<!-- m_2_1&#45;&gt;m_3_1 -->
<g id="edge22" class="edge"><title>m_2_1&#45;&gt;m_3_1</title>
<path fill="none" stroke="black" d="M292.35,-139.356C285.633,-131.115 274.781,-117.8 266.269,-107.356"/>
<polygon fill="black" stroke="black" points="268.841,-104.972 259.811,-99.4318 263.415,-109.395 268.841,-104.972"/>
</g>
<!-- m_3_2 -->
<g id="node26" class="node"><title>m_3_2</title>
<ellipse fill="none" stroke="black" cx="292.607" cy="-90.8198" rx="10.7143" ry="10.7143"/>
<text text-anchor="middle" x="292.607" y="-87.1198" font-family="Times New Roman,serif" font-size="14.00">=</text>
</g>
<!-- m_2_1&#45;&gt;m_3_2 -->
<g id="edge23" class="edge"><title>m_2_1&#45;&gt;m_3_2</title>
<path fill="none" stroke="black" d="M297.561,-137.416C296.797,-130.377 295.731,-120.575 294.785,-111.862"/>
<polygon fill="black" stroke="black" points="298.24,-111.262 293.68,-101.699 291.281,-112.018 298.24,-111.262"/>
</g>
<!-- m_3_3 -->
<g id="node27" class="node"><title>m_3_3</title>
<ellipse fill="none" stroke="black" cx="331.607" cy="-90.8198" rx="10.7143" ry="10.7143"/>
<text text-anchor="middle" x="331.607" y="-87.1198" font-family="Times New Roman,serif" font-size="14.00">&gt;</text>
</g>
<!-- m_2_1&#45;&gt;m_3_3 -->
<g id="edge24" class="edge"><title>m_2_1&#45;&gt;m_3_3</title>
<path fill="none" stroke="black" d="M303.763,-138.406C308.44,-130.581 315.473,-118.813 321.301,-109.062"/>
<polygon fill="black" stroke="black" points="324.469,-110.585 326.595,-100.206 318.46,-106.994 324.469,-110.585"/>
</g>
<!-- m_4_1 -->
<g id="node28" class="node"><title>m_4_1</title>
<ellipse fill="none" stroke="black" cx="370.607" cy="-90.8198" rx="10.7143" ry="10.7143"/>
<text text-anchor="middle" x="370.607" y="-87.1198" font-family="Times New Roman,serif" font-size="14.00">&gt;</text>
</g>
<!-- m_2_2&#45;&gt;m_4_1 -->
<g id="edge25" class="edge"><title>m_2_2&#45;&gt;m_4_1</title>
<path fill="none" stroke="black" d="M358.982,-137.667C360.821,-130.414 363.431,-120.12 365.712,-111.123"/>
<polygon fill="black" stroke="black" points="369.108,-111.971 368.173,-101.417 362.322,-110.25 369.108,-111.971"/>
</g>
</g>
</svg>
