<?xml version="1.0" encoding="UTF-8" standalone="no"?>
<!DOCTYPE svg PUBLIC "-//W3C//DTD SVG 1.1//EN"
 "http://www.w3.org/Graphics/SVG/1.1/DTD/svg11.dtd">
<!-- Generated by graphviz version 10.0.1 (20240210.2158)
 -->
<!-- Pages: 1 -->
<svg width="854pt" height="284pt"
 viewBox="0.00 0.00 854.00 283.75" xmlns="http://www.w3.org/2000/svg" xmlns:xlink="http://www.w3.org/1999/xlink">
<g id="graph0" class="graph" transform="scale(1 1) rotate(0) translate(4 279.75)">
<polygon fill="white" stroke="none" points="-4,4 -4,-279.75 850,-279.75 850,4 -4,4"/>
<text text-anchor="middle" x="423" y="-6.45" font-family="Times New Roman,serif" font-size="14.00">Trie</text>
<!-- r_1 -->
<g id="node1" class="node">
<title>r_1</title>
<ellipse fill="none" stroke="black" cx="135" cy="-257.75" rx="27" ry="18"/>
<text text-anchor="middle" x="135" y="-252.32" font-family="Times New Roman,serif" font-size="14.00">!</text>
</g>
<!-- n_2_1 -->
<g id="node2" class="node">
<title>n_2_1</title>
<ellipse fill="none" stroke="black" cx="27" cy="-185.75" rx="27" ry="18"/>
<text text-anchor="middle" x="27" y="-180.32" font-family="Times New Roman,serif" font-size="14.00">+</text>
</g>
<!-- r_1&#45;&gt;n_2_1 -->
<g id="edge1" class="edge">
<title>r_1&#45;&gt;n_2_1</title>
<path fill="none" stroke="black" d="M116.19,-244.56C99.41,-233.68 74.61,-217.61 55.41,-205.17"/>
<polygon fill="black" stroke="black" points="57.52,-202.36 47.23,-199.86 53.72,-208.24 57.52,-202.36"/>
</g>
<!-- n_2_2 -->
<g id="node3" class="node">
<title>n_2_2</title>
<ellipse fill="none" stroke="black" cx="99" cy="-185.75" rx="27" ry="18"/>
<text text-anchor="middle" x="99" y="-180.32" font-family="Times New Roman,serif" font-size="14.00">&#45;</text>
</g>
<!-- r_1&#45;&gt;n_2_2 -->
<g id="edge2" class="edge">
<title>r_1&#45;&gt;n_2_2</title>
<path fill="none" stroke="black" d="M126.65,-240.51C122.42,-232.3 117.19,-222.12 112.42,-212.84"/>
<polygon fill="black" stroke="black" points="115.68,-211.54 108,-204.24 109.46,-214.74 115.68,-211.54"/>
</g>
<!-- n_2_3 -->
<g id="node4" class="node">
<title>n_2_3</title>
<ellipse fill="none" stroke="black" cx="171" cy="-185.75" rx="27" ry="18"/>
<text text-anchor="middle" x="171" y="-180.32" font-family="Times New Roman,serif" font-size="14.00">=</text>
</g>
<!-- r_1&#45;&gt;n_2_3 -->
<g id="edge3" class="edge">
<title>r_1&#45;&gt;n_2_3</title>
<path fill="none" stroke="black" d="M143.35,-240.51C147.58,-232.3 152.81,-222.12 157.58,-212.84"/>
<polygon fill="black" stroke="black" points="160.54,-214.74 162,-204.24 154.32,-211.54 160.54,-214.74"/>
</g>
<!-- n_2_4 -->
<g id="node5" class="node">
<title>n_2_4</title>
<ellipse fill="none" stroke="black" cx="243" cy="-185.75" rx="27" ry="18"/>
<text text-anchor="middle" x="243" y="-180.32" font-family="Times New Roman,serif" font-size="14.00">&gt;</text>
</g>
<!-- r_1&#45;&gt;n_2_4 -->
<g id="edge4" class="edge">
<title>r_1&#45;&gt;n_2_4</title>
<path fill="none" stroke="black" d="M153.81,-244.56C170.59,-233.68 195.39,-217.61 214.59,-205.17"/>
<polygon fill="black" stroke="black" points="216.28,-208.24 222.77,-199.86 212.48,-202.36 216.28,-208.24"/>
</g>
<!-- n_3_1 -->
<g id="node6" class="node">
<title>n_3_1</title>
<ellipse fill="none" stroke="black" cx="27" cy="-113.75" rx="27" ry="18"/>
<text text-anchor="middle" x="27" y="-108.33" font-family="Times New Roman,serif" font-size="14.00">+</text>
</g>
<!-- n_2_3&#45;&gt;n_3_1 -->
<g id="edge5" class="edge">
<title>n_2_3&#45;&gt;n_3_1</title>
<path fill="none" stroke="black" d="M149.44,-174.27C125.34,-162.55 86.08,-143.47 58.53,-130.07"/>
<polygon fill="black" stroke="black" points="60.12,-126.96 49.6,-125.73 57.06,-133.25 60.12,-126.96"/>
</g>
<!-- n_3_2 -->
<g id="node7" class="node">
<title>n_3_2</title>
<ellipse fill="none" stroke="black" cx="99" cy="-113.75" rx="27" ry="18"/>
<text text-anchor="middle" x="99" y="-108.33" font-family="Times New Roman,serif" font-size="14.00">&#45;</text>
</g>
<!-- n_2_3&#45;&gt;n_3_2 -->
<g id="edge6" class="edge">
<title>n_2_3&#45;&gt;n_3_2</title>
<path fill="none" stroke="black" d="M156.08,-170.25C146.23,-160.67 133.14,-147.94 121.97,-137.09"/>
<polygon fill="black" stroke="black" points="124.59,-134.75 114.98,-130.29 119.71,-139.77 124.59,-134.75"/>
</g>
<!-- n_3_3 -->
<g id="node8" class="node">
<title>n_3_3</title>
<ellipse fill="none" stroke="black" cx="171" cy="-113.75" rx="27" ry="18"/>
<text text-anchor="middle" x="171" y="-108.33" font-family="Times New Roman,serif" font-size="14.00">=</text>
</g>
<!-- n_2_3&#45;&gt;n_3_3 -->
<g id="edge7" class="edge">
<title>n_2_3&#45;&gt;n_3_3</title>
<path fill="none" stroke="black" d="M171,-167.45C171,-160.16 171,-151.48 171,-143.29"/>
<polygon fill="black" stroke="black" points="174.5,-143.37 171,-133.37 167.5,-143.37 174.5,-143.37"/>
</g>
<!-- n_3_4 -->
<g id="node9" class="node">
<title>n_3_4</title>
<ellipse fill="none" stroke="black" cx="243" cy="-113.75" rx="27" ry="18"/>
<text text-anchor="middle" x="243" y="-108.33" font-family="Times New Roman,serif" font-size="14.00">&gt;</text>
</g>
<!-- n_2_3&#45;&gt;n_3_4 -->
<g id="edge8" class="edge">
<title>n_2_3&#45;&gt;n_3_4</title>
<path fill="none" stroke="black" d="M185.92,-170.25C195.77,-160.67 208.86,-147.94 220.03,-137.09"/>
<polygon fill="black" stroke="black" points="222.29,-139.77 227.02,-130.29 217.41,-134.75 222.29,-139.77"/>
</g>
<!-- n_4_0 -->
<g id="node10" class="node">
<title>n_4_0</title>
<ellipse fill="none" stroke="black" cx="27" cy="-41.75" rx="27" ry="18"/>
<text text-anchor="middle" x="27" y="-36.33" font-family="Times New Roman,serif" font-size="14.00">!</text>
</g>
<!-- n_3_3&#45;&gt;n_4_0 -->
<g id="edge9" class="edge">
<title>n_3_3&#45;&gt;n_4_0</title>
<path fill="none" stroke="black" d="M149.44,-102.27C125.34,-90.55 86.08,-71.47 58.53,-58.07"/>
<polygon fill="black" stroke="black" points="60.12,-54.96 49.6,-53.73 57.06,-61.25 60.12,-54.96"/>
</g>
<!-- n_4_1 -->
<g id="node11" class="node">
<title>n_4_1</title>
<ellipse fill="none" stroke="black" cx="99" cy="-41.75" rx="27" ry="18"/>
<text text-anchor="middle" x="99" y="-36.33" font-family="Times New Roman,serif" font-size="14.00">+</text>
</g>
<!-- n_3_3&#45;&gt;n_4_1 -->
<g id="edge10" class="edge">
<title>n_3_3&#45;&gt;n_4_1</title>
<path fill="none" stroke="black" d="M156.08,-98.25C146.23,-88.67 133.14,-75.94 121.97,-65.09"/>
<polygon fill="black" stroke="black" points="124.59,-62.75 114.98,-58.29 119.71,-67.77 124.59,-62.75"/>
</g>
<!-- n_4_2 -->
<g id="node12" class="node">
<title>n_4_2</title>
<ellipse fill="none" stroke="black" cx="171" cy="-41.75" rx="27" ry="18"/>
<text text-anchor="middle" x="171" y="-36.33" font-family="Times New Roman,serif" font-size="14.00">&#45;</text>
</g>
<!-- n_3_3&#45;&gt;n_4_2 -->
<g id="edge11" class="edge">
<title>n_3_3&#45;&gt;n_4_2</title>
<path fill="none" stroke="black" d="M171,-95.45C171,-88.16 171,-79.48 171,-71.29"/>
<polygon fill="black" stroke="black" points="174.5,-71.37 171,-61.37 167.5,-71.37 174.5,-71.37"/>
</g>
<!-- n_4_3 -->
<g id="node13" class="node">
<title>n_4_3</title>
<ellipse fill="none" stroke="black" cx="243" cy="-41.75" rx="27" ry="18"/>
<text text-anchor="middle" x="243" y="-36.33" font-family="Times New Roman,serif" font-size="14.00">=</text>
</g>
<!-- n_3_3&#45;&gt;n_4_3 -->
<g id="edge12" class="edge">
<title>n_3_3&#45;&gt;n_4_3</title>
<path fill="none" stroke="black" d="M185.92,-98.25C195.77,-88.67 208.86,-75.94 220.03,-65.09"/>
<polygon fill="black" stroke="black" points="222.29,-67.77 227.02,-58.29 217.41,-62.75 222.29,-67.77"/>
</g>
<!-- n_4_4 -->
<g id="node14" class="node">
<title>n_4_4</title>
<ellipse fill="none" stroke="black" cx="315" cy="-41.75" rx="27" ry="18"/>
<text text-anchor="middle" x="315" y="-36.33" font-family="Times New Roman,serif" font-size="14.00">&gt;</text>
</g>
<!-- n_3_3&#45;&gt;n_4_4 -->
<g id="edge13" class="edge">
<title>n_3_3&#45;&gt;n_4_4</title>
<path fill="none" stroke="black" d="M192.56,-102.27C216.66,-90.55 255.92,-71.47 283.47,-58.07"/>
<polygon fill="black" stroke="black" points="284.94,-61.25 292.4,-53.73 281.88,-54.96 284.94,-61.25"/>
</g>
<!-- r_2 -->
<g id="node15" class="node">
<title>r_2</title>
<ellipse fill="none" stroke="black" cx="387" cy="-257.75" rx="27" ry="18"/>
<text text-anchor="middle" x="387" y="-252.32" font-family="Times New Roman,serif" font-size="14.00">+</text>
</g>
<!-- p_2_1 -->
<g id="node16" class="node">
<title>p_2_1</title>
<ellipse fill="none" stroke="black" cx="315" cy="-185.75" rx="27" ry="18"/>
<text text-anchor="middle" x="315" y="-180.32" font-family="Times New Roman,serif" font-size="14.00">+</text>
</g>
<!-- r_2&#45;&gt;p_2_1 -->
<g id="edge14" class="edge">
<title>r_2&#45;&gt;p_2_1</title>
<path fill="none" stroke="black" d="M372.08,-242.25C362.23,-232.67 349.14,-219.94 337.97,-209.09"/>
<polygon fill="black" stroke="black" points="340.59,-206.75 330.98,-202.29 335.71,-211.77 340.59,-206.75"/>
</g>
<!-- p_2_2 -->
<g id="node17" class="node">
<title>p_2_2</title>
<ellipse fill="none" stroke="black" cx="387" cy="-185.75" rx="27" ry="18"/>
<text text-anchor="middle" x="387" y="-180.32" font-family="Times New Roman,serif" font-size="14.00">&#45;</text>
</g>
<!-- r_2&#45;&gt;p_2_2 -->
<g id="edge15" class="edge">
<title>r_2&#45;&gt;p_2_2</title>
<path fill="none" stroke="black" d="M387,-239.45C387,-232.16 387,-223.48 387,-215.29"/>
<polygon fill="black" stroke="black" points="390.5,-215.37 387,-205.37 383.5,-215.37 390.5,-215.37"/>
</g>
<!-- p_2_3 -->
<g id="node18" class="node">
<title>p_2_3</title>
<ellipse fill="none" stroke="black" cx="459" cy="-185.75" rx="27" ry="18"/>
<text text-anchor="middle" x="459" y="-180.32" font-family="Times New Roman,serif" font-size="14.00">=</text>
</g>
<!-- r_2&#45;&gt;p_2_3 -->
<g id="edge16" class="edge">
<title>r_2&#45;&gt;p_2_3</title>
<path fill="none" stroke="black" d="M401.92,-242.25C411.77,-232.67 424.86,-219.94 436.03,-209.09"/>
<polygon fill="black" stroke="black" points="438.29,-211.77 443.02,-202.29 433.41,-206.75 438.29,-211.77"/>
</g>
<!-- p_3_1 -->
<g id="node19" class="node">
<title>p_3_1</title>
<ellipse fill="none" stroke="black" cx="315" cy="-113.75" rx="27" ry="18"/>
<text text-anchor="middle" x="315" y="-108.33" font-family="Times New Roman,serif" font-size="14.00">+</text>
</g>
<!-- p_2_1&#45;&gt;p_3_1 -->
<g id="edge17" class="edge">
<title>p_2_1&#45;&gt;p_3_1</title>
<path fill="none" stroke="black" d="M315,-167.45C315,-160.16 315,-151.48 315,-143.29"/>
<polygon fill="black" stroke="black" points="318.5,-143.37 315,-133.37 311.5,-143.37 318.5,-143.37"/>
</g>
<!-- p_3_2 -->
<g id="node20" class="node">
<title>p_3_2</title>
<ellipse fill="none" stroke="black" cx="387" cy="-113.75" rx="27" ry="18"/>
<text text-anchor="middle" x="387" y="-108.33" font-family="Times New Roman,serif" font-size="14.00">&#45;</text>
</g>
<!-- p_2_1&#45;&gt;p_3_2 -->
<g id="edge18" class="edge">
<title>p_2_1&#45;&gt;p_3_2</title>
<path fill="none" stroke="black" d="M329.92,-170.25C339.77,-160.67 352.86,-147.94 364.03,-137.09"/>
<polygon fill="black" stroke="black" points="366.29,-139.77 371.02,-130.29 361.41,-134.75 366.29,-139.77"/>
</g>
<!-- r_3 -->
<g id="node21" class="node">
<title>r_3</title>
<ellipse fill="none" stroke="black" cx="603" cy="-257.75" rx="27" ry="18"/>
<text text-anchor="middle" x="603" y="-252.32" font-family="Times New Roman,serif" font-size="14.00">&#45;</text>
</g>
<!-- m_2_1 -->
<g id="node22" class="node">
<title>m_2_1</title>
<ellipse fill="none" stroke="black" cx="531" cy="-185.75" rx="27" ry="18"/>
<text text-anchor="middle" x="531" y="-180.32" font-family="Times New Roman,serif" font-size="14.00">&#45;</text>
</g>
<!-- r_3&#45;&gt;m_2_1 -->
<g id="edge19" class="edge">
<title>r_3&#45;&gt;m_2_1</title>
<path fill="none" stroke="black" d="M588.08,-242.25C578.23,-232.67 565.14,-219.94 553.97,-209.09"/>
<polygon fill="black" stroke="black" points="556.59,-206.75 546.98,-202.29 551.71,-211.77 556.59,-206.75"/>
</g>
<!-- m_2_2 -->
<g id="node23" class="node">
<title>m_2_2</title>
<ellipse fill="none" stroke="black" cx="603" cy="-185.75" rx="27" ry="18"/>
<text text-anchor="middle" x="603" y="-180.32" font-family="Times New Roman,serif" font-size="14.00">=</text>
</g>
<!-- r_3&#45;&gt;m_2_2 -->
<g id="edge20" class="edge">
<title>r_3&#45;&gt;m_2_2</title>
<path fill="none" stroke="black" d="M603,-239.45C603,-232.16 603,-223.48 603,-215.29"/>
<polygon fill="black" stroke="black" points="606.5,-215.37 603,-205.37 599.5,-215.37 606.5,-215.37"/>
</g>
<!-- m_2_3 -->
<g id="node24" class="node">
<title>m_2_3</title>
<ellipse fill="none" stroke="black" cx="675" cy="-185.75" rx="27" ry="18"/>
<text text-anchor="middle" x="675" y="-180.32" font-family="Times New Roman,serif" font-size="14.00">&gt;</text>
</g>
<!-- r_3&#45;&gt;m_2_3 -->
<g id="edge21" class="edge">
<title>r_3&#45;&gt;m_2_3</title>
<path fill="none" stroke="black" d="M617.92,-242.25C627.77,-232.67 640.86,-219.94 652.03,-209.09"/>
<polygon fill="black" stroke="black" points="654.29,-211.77 659.02,-202.29 649.41,-206.75 654.29,-211.77"/>
</g>
<!-- m_3_1 -->
<g id="node25" class="node">
<title>m_3_1</title>
<ellipse fill="none" stroke="black" cx="459" cy="-113.75" rx="27" ry="18"/>
<text text-anchor="middle" x="459" y="-108.33" font-family="Times New Roman,serif" font-size="14.00">!</text>
</g>
<!-- m_2_1&#45;&gt;m_3_1 -->
<g id="edge22" class="edge">
<title>m_2_1&#45;&gt;m_3_1</title>
<path fill="none" stroke="black" d="M516.08,-170.25C506.23,-160.67 493.14,-147.94 481.97,-137.09"/>
<polygon fill="black" stroke="black" points="484.59,-134.75 474.98,-130.29 479.71,-139.77 484.59,-134.75"/>
</g>
<!-- m_3_2 -->
<g id="node26" class="node">
<title>m_3_2</title>
<ellipse fill="none" stroke="black" cx="531" cy="-113.75" rx="27" ry="18"/>
<text text-anchor="middle" x="531" y="-108.33" font-family="Times New Roman,serif" font-size="14.00">=</text>
</g>
<!-- m_2_1&#45;&gt;m_3_2 -->
<g id="edge23" class="edge">
<title>m_2_1&#45;&gt;m_3_2</title>
<path fill="none" stroke="black" d="M531,-167.45C531,-160.16 531,-151.48 531,-143.29"/>
<polygon fill="black" stroke="black" points="534.5,-143.37 531,-133.37 527.5,-143.37 534.5,-143.37"/>
</g>
<!-- m_3_3 -->
<g id="node27" class="node">
<title>m_3_3</title>
<ellipse fill="none" stroke="black" cx="603" cy="-113.75" rx="27" ry="18"/>
<text text-anchor="middle" x="603" y="-108.33" font-family="Times New Roman,serif" font-size="14.00">&gt;</text>
</g>
<!-- m_2_1&#45;&gt;m_3_3 -->
<g id="edge24" class="edge">
<title>m_2_1&#45;&gt;m_3_3</title>
<path fill="none" stroke="black" d="M545.92,-170.25C555.77,-160.67 568.86,-147.94 580.03,-137.09"/>
<polygon fill="black" stroke="black" points="582.29,-139.77 587.02,-130.29 577.41,-134.75 582.29,-139.77"/>
</g>
<!-- m_4_1 -->
<g id="node28" class="node">
<title>m_4_1</title>
<ellipse fill="none" stroke="black" cx="675" cy="-113.75" rx="27" ry="18"/>
<text text-anchor="middle" x="675" y="-108.33" font-family="Times New Roman,serif" font-size="14.00">&gt;</text>
</g>
<!-- m_2_2&#45;&gt;m_4_1 -->
<g id="edge25" class="edge">
<title>m_2_2&#45;&gt;m_4_1</title>
<path fill="none" stroke="black" d="M617.92,-170.25C627.77,-160.67 640.86,-147.94 652.03,-137.09"/>
<polygon fill="black" stroke="black" points="654.29,-139.77 659.02,-130.29 649.41,-134.75 654.29,-139.77"/>
</g>
<!-- r_4 -->
<g id="node29" class="node">
<title>r_4</title>
<ellipse fill="none" stroke="black" cx="783" cy="-257.75" rx="27" ry="18"/>
<text text-anchor="middle" x="783" y="-252.32" font-family="Times New Roman,serif" font-size="14.00">=</text>
</g>
<!-- e_2_1 -->
<g id="node30" class="node">
<title>e_2_1</title>
<ellipse fill="none" stroke="black" cx="747" cy="-185.75" rx="27" ry="18"/>
<text text-anchor="middle" x="747" y="-180.32" font-family="Times New Roman,serif" font-size="14.00">=</text>
</g>
<!-- r_4&#45;&gt;e_2_1 -->
<g id="edge26" class="edge">
<title>r_4&#45;&gt;e_2_1</title>
<path fill="none" stroke="black" d="M774.65,-240.51C770.42,-232.3 765.19,-222.12 760.42,-212.84"/>
<polygon fill="black" stroke="black" points="763.68,-211.54 756,-204.24 757.46,-214.74 763.68,-211.54"/>
</g>
<!-- e_2_2 -->
<g id="node31" class="node">
<title>e_2_2</title>
<ellipse fill="none" stroke="black" cx="819" cy="-185.75" rx="27" ry="18"/>
<text text-anchor="middle" x="819" y="-180.32" font-family="Times New Roman,serif" font-size="14.00">&gt;</text>
</g>
<!-- r_4&#45;&gt;e_2_2 -->
<g id="edge28" class="edge">
<title>r_4&#45;&gt;e_2_2</title>
<path fill="none" stroke="black" d="M791.35,-240.51C795.58,-232.3 800.81,-222.12 805.58,-212.84"/>
<polygon fill="black" stroke="black" points="808.54,-214.74 810,-204.24 802.32,-211.54 808.54,-214.74"/>
</g>
<!-- e_3_1 -->
<g id="node32" class="node">
<title>e_3_1</title>
<ellipse fill="none" stroke="black" cx="747" cy="-113.75" rx="27" ry="18"/>
<text text-anchor="middle" x="747" y="-108.33" font-family="Times New Roman,serif" font-size="14.00">=</text>
</g>
<!-- e_2_1&#45;&gt;e_3_1 -->
<g id="edge27" class="edge">
<title>e_2_1&#45;&gt;e_3_1</title>
<path fill="none" stroke="black" d="M747,-167.45C747,-160.16 747,-151.48 747,-143.29"/>
<polygon fill="black" stroke="black" points="750.5,-143.37 747,-133.37 743.5,-143.37 750.5,-143.37"/>
</g>
</g>
</svg>
