<?xml version="1.0" encoding="UTF-8" standalone="no"?>
<!DOCTYPE svg PUBLIC "-//W3C//DTD SVG 1.1//EN"
 "http://www.w3.org/Graphics/SVG/1.1/DTD/svg11.dtd">
<!-- Generated by graphviz version 10.0.1 (20240210.2158)
 -->
<!-- Pages: 1 -->
<svg width="773pt" height="284pt"
 viewBox="0.00 0.00 773.00 283.75" xmlns="http://www.w3.org/2000/svg" xmlns:xlink="http://www.w3.org/1999/xlink">
<g id="graph0" class="graph" transform="scale(1 1) rotate(0) translate(4 279.75)">
<polygon fill="white" stroke="none" points="-4,4 -4,-279.75 769,-279.75 769,4 -4,4"/>
<text text-anchor="middle" x="382.5" y="-6.45" font-family="Times New Roman,serif" font-size="14.00">Trie</text>
<!-- r_1 -->
<g id="node1" class="node">
<title>r_1</title>
<ellipse fill="none" stroke="black" cx="135" cy="-257.75" rx="27" ry="18"/>
<text text-anchor="middle" x="135" y="-252.32" font-family="Times New Roman,serif" font-size="14.00">!</text>
</g>
<!-- n_2_1 -->
<g id="node2" class="node">
<title>n_2_1</title>
<ellipse fill="none" stroke="black" cx="27" cy="-185.75" rx="27" ry="18"/>
<text text-anchor="middle" x="27" y="-180.32" font-family="Times New Roman,serif" font-size="14.00">+</text>
</g>
<!-- r_1&#45;&gt;n_2_1 -->
<g id="edge1" class="edge">
<title>r_1&#45;&gt;n_2_1</title>
<path fill="none" stroke="black" d="M116.19,-244.56C99.41,-233.68 74.61,-217.61 55.41,-205.17"/>
<polygon fill="black" stroke="black" points="57.52,-202.36 47.23,-199.86 53.72,-208.24 57.52,-202.36"/>
</g>
<!-- n_2_2 -->
<g id="node3" class="node">
<title>n_2_2</title>
<ellipse fill="none" stroke="black" cx="99" cy="-185.75" rx="27" ry="18"/>
<text text-anchor="middle" x="99" y="-180.32" font-family="Times New Roman,serif" font-size="14.00">&#45;</text>
</g>
<!-- r_1&#45;&gt;n_2_2 -->
<g id="edge2" class="edge">
<title>r_1&#45;&gt;n_2_2</title>
<path fill="none" stroke="black" d="M126.65,-240.51C122.42,-232.3 117.19,-222.12 112.42,-212.84"/>
<polygon fill="black" stroke="black" points="115.68,-211.54 108,-204.24 109.46,-214.74 115.68,-211.54"/>
</g>
<!-- n_2_3 -->
<g id="node4" class="node">
<title>n_2_3</title>
<ellipse fill="none" stroke="black" cx="171" cy="-185.75" rx="27" ry="18"/>
<text text-anchor="middle" x="171" y="-180.32" font-family="Times New Roman,serif" font-size="14.00">=</text>
</g>
<!-- r_1&#45;&gt;n_2_3 -->
<g id="edge3" class="edge">
<title>r_1&#45;&gt;n_2_3</title>
<path fill="none" stroke="black" d="M143.35,-240.51C147.58,-232.3 152.81,-222.12 157.58,-212.84"/>
<polygon fill="black" stroke="black" points="160.54,-214.74 162,-204.24 154.32,-211.54 160.54,-214.74"/>
</g>
<!-- n_2_4 -->
<g id="node5" class="node">
<title>n_2_4</title>
<ellipse fill="none" stroke="black" cx="243" cy="-185.75" rx="27" ry="18"/>
<text text-anchor="middle" x="243" y="-180.32" font-family="Times New Roman,serif" font-size="14.00">&gt;</text>
</g>
<!-- r_1&#45;&gt;n_2_4 -->
<g id="edge4" class="edge">
<title>r_1&#45;&gt;n_2_4</title>
<path fill="none" stroke="black" d="M153.81,-244.56C170.59,-233.68 195.39,-217.61 214.59,-205.17"/>
<polygon fill="black" stroke="black" points="216.28,-208.24 222.77,-199.86 212.48,-202.36 216.28,-208.24"/>
</g>
<!-- n_3_1 -->
<g id="node6" class="node">
<title>n_3_1</title>
<ellipse fill="none" stroke="black" cx="31" cy="-113.75" rx="27" ry="18"/>
<text text-anchor="middle" x="31" y="-108.33" font-family="Times New Roman,serif" font-size="14.00">+</text>
</g>
<!-- n_2_3&#45;&gt;n_3_1 -->
<g id="edge5" class="edge">
<title>n_2_3&#45;&gt;n_3_1</title>
<path fill="none" stroke="black" d="M149.74,-174.12C126.37,-162.44 88.62,-143.56 61.97,-130.24"/>
<polygon fill="black" stroke="black" points="63.87,-127.27 53.36,-125.93 60.74,-133.53 63.87,-127.27"/>
</g>
<!-- n_3_2 -->
<g id="node7" class="node">
<title>n_3_2</title>
<ellipse fill="none" stroke="black" cx="103" cy="-113.75" rx="27" ry="18"/>
<text text-anchor="middle" x="103" y="-108.33" font-family="Times New Roman,serif" font-size="14.00">&#45;</text>
</g>
<!-- n_2_3&#45;&gt;n_3_2 -->
<g id="edge6" class="edge">
<title>n_2_3&#45;&gt;n_3_2</title>
<path fill="none" stroke="black" d="M156.91,-170.25C147.7,-160.77 135.48,-148.19 125.01,-137.41"/>
<polygon fill="black" stroke="black" points="127.6,-135.06 118.13,-130.32 122.58,-139.93 127.6,-135.06"/>
</g>
<!-- n_3_3 -->
<g id="node8" class="node">
<title>n_3_3</title>
<ellipse fill="none" stroke="black" cx="175" cy="-113.75" rx="27" ry="18"/>
<text text-anchor="middle" x="175" y="-108.33" font-family="Times New Roman,serif" font-size="14.00">=</text>
</g>
<!-- n_2_3&#45;&gt;n_3_3 -->
<g id="edge7" class="edge">
<title>n_2_3&#45;&gt;n_3_3</title>
<path fill="none" stroke="black" d="M171.99,-167.45C172.41,-160.16 172.9,-151.48 173.37,-143.29"/>
<polygon fill="black" stroke="black" points="176.86,-143.55 173.94,-133.37 169.87,-143.15 176.86,-143.55"/>
</g>
<!-- n_3_4 -->
<g id="node9" class="node">
<title>n_3_4</title>
<ellipse fill="none" stroke="black" cx="247" cy="-113.75" rx="27" ry="18"/>
<text text-anchor="middle" x="247" y="-108.33" font-family="Times New Roman,serif" font-size="14.00">&gt;</text>
</g>
<!-- n_2_3&#45;&gt;n_3_4 -->
<g id="edge8" class="edge">
<title>n_2_3&#45;&gt;n_3_4</title>
<path fill="none" stroke="black" d="M186.38,-170.58C196.99,-160.81 211.3,-147.63 223.35,-136.53"/>
<polygon fill="black" stroke="black" points="225.55,-139.27 230.53,-129.92 220.8,-134.12 225.55,-139.27"/>
</g>
<!-- n_4_0 -->
<g id="node10" class="node">
<title>n_4_0</title>
<ellipse fill="none" stroke="black" cx="31" cy="-41.75" rx="27" ry="18"/>
<text text-anchor="middle" x="31" y="-36.33" font-family="Times New Roman,serif" font-size="14.00">!</text>
</g>
<!-- n_3_3&#45;&gt;n_4_0 -->
<g id="edge9" class="edge">
<title>n_3_3&#45;&gt;n_4_0</title>
<path fill="none" stroke="black" d="M153.44,-102.27C129.34,-90.55 90.08,-71.47 62.53,-58.07"/>
<polygon fill="black" stroke="black" points="64.12,-54.96 53.6,-53.73 61.06,-61.25 64.12,-54.96"/>
</g>
<!-- n_4_1 -->
<g id="node11" class="node">
<title>n_4_1</title>
<ellipse fill="none" stroke="black" cx="103" cy="-41.75" rx="27" ry="18"/>
<text text-anchor="middle" x="103" y="-36.33" font-family="Times New Roman,serif" font-size="14.00">+</text>
</g>
<!-- n_3_3&#45;&gt;n_4_1 -->
<g id="edge10" class="edge">
<title>n_3_3&#45;&gt;n_4_1</title>
<path fill="none" stroke="black" d="M160.08,-98.25C150.23,-88.67 137.14,-75.94 125.97,-65.09"/>
<polygon fill="black" stroke="black" points="128.59,-62.75 118.98,-58.29 123.71,-67.77 128.59,-62.75"/>
</g>
<!-- n_4_2 -->
<g id="node12" class="node">
<title>n_4_2</title>
<ellipse fill="none" stroke="black" cx="175" cy="-41.75" rx="27" ry="18"/>
<text text-anchor="middle" x="175" y="-36.33" font-family="Times New Roman,serif" font-size="14.00">&#45;</text>
</g>
<!-- n_3_3&#45;&gt;n_4_2 -->
<g id="edge11" class="edge">
<title>n_3_3&#45;&gt;n_4_2</title>
<path fill="none" stroke="black" d="M175,-95.45C175,-88.16 175,-79.48 175,-71.29"/>
<polygon fill="black" stroke="black" points="178.5,-71.37 175,-61.37 171.5,-71.37 178.5,-71.37"/>
</g>
<!-- n_4_3 -->
<g id="node13" class="node">
<title>n_4_3</title>
<ellipse fill="none" stroke="black" cx="247" cy="-41.75" rx="27" ry="18"/>
<text text-anchor="middle" x="247" y="-36.33" font-family="Times New Roman,serif" font-size="14.00">=</text>
</g>
<!-- n_3_3&#45;&gt;n_4_3 -->
<g id="edge12" class="edge">
<title>n_3_3&#45;&gt;n_4_3</title>
<path fill="none" stroke="black" d="M189.92,-98.25C199.77,-88.67 212.86,-75.94 224.03,-65.09"/>
<polygon fill="black" stroke="black" points="226.29,-67.77 231.02,-58.29 221.41,-62.75 226.29,-67.77"/>
</g>
<!-- n_4_4 -->
<g id="node14" class="node">
<title>n_4_4</title>
<ellipse fill="none" stroke="black" cx="319" cy="-41.75" rx="27" ry="18"/>
<text text-anchor="middle" x="319" y="-36.33" font-family="Times New Roman,serif" font-size="14.00">&gt;</text>
</g>
<!-- n_3_3&#45;&gt;n_4_4 -->
<g id="edge13" class="edge">
<title>n_3_3&#45;&gt;n_4_4</title>
<path fill="none" stroke="black" d="M196.56,-102.27C220.66,-90.55 259.92,-71.47 287.47,-58.07"/>
<polygon fill="black" stroke="black" points="288.94,-61.25 296.4,-53.73 285.88,-54.96 288.94,-61.25"/>
</g>
<!-- r_2 -->
<g id="node15" class="node">
<title>r_2</title>
<ellipse fill="none" stroke="black" cx="396" cy="-257.75" rx="27" ry="18"/>
<text text-anchor="middle" x="396" y="-252.32" font-family="Times New Roman,serif" font-size="14.00">+</text>
</g>
<!-- p_2_1 -->
<g id="node16" class="node">
<title>p_2_1</title>
<ellipse fill="none" stroke="black" cx="324" cy="-185.75" rx="27" ry="18"/>
<text text-anchor="middle" x="324" y="-180.32" font-family="Times New Roman,serif" font-size="14.00">+</text>
</g>
<!-- r_2&#45;&gt;p_2_1 -->
<g id="edge14" class="edge">
<title>r_2&#45;&gt;p_2_1</title>
<path fill="none" stroke="black" d="M381.08,-242.25C371.23,-232.67 358.14,-219.94 346.97,-209.09"/>
<polygon fill="black" stroke="black" points="349.59,-206.75 339.98,-202.29 344.71,-211.77 349.59,-206.75"/>
</g>
<!-- p_2_2 -->
<g id="node17" class="node">
<title>p_2_2</title>
<ellipse fill="none" stroke="black" cx="396" cy="-185.75" rx="27" ry="18"/>
<text text-anchor="middle" x="396" y="-180.32" font-family="Times New Roman,serif" font-size="14.00">&#45;</text>
</g>
<!-- r_2&#45;&gt;p_2_2 -->
<g id="edge15" class="edge">
<title>r_2&#45;&gt;p_2_2</title>
<path fill="none" stroke="black" d="M396,-239.45C396,-232.16 396,-223.48 396,-215.29"/>
<polygon fill="black" stroke="black" points="399.5,-215.37 396,-205.37 392.5,-215.37 399.5,-215.37"/>
</g>
<!-- p_2_3 -->
<g id="node18" class="node">
<title>p_2_3</title>
<ellipse fill="none" stroke="black" cx="468" cy="-185.75" rx="27" ry="18"/>
<text text-anchor="middle" x="468" y="-180.32" font-family="Times New Roman,serif" font-size="14.00">=</text>
</g>
<!-- r_2&#45;&gt;p_2_3 -->
<g id="edge16" class="edge">
<title>r_2&#45;&gt;p_2_3</title>
<path fill="none" stroke="black" d="M410.92,-242.25C420.77,-232.67 433.86,-219.94 445.03,-209.09"/>
<polygon fill="black" stroke="black" points="447.29,-211.77 452.02,-202.29 442.41,-206.75 447.29,-211.77"/>
</g>
<!-- p_3_1 -->
<g id="node19" class="node">
<title>p_3_1</title>
<ellipse fill="none" stroke="black" cx="321" cy="-113.75" rx="27" ry="18"/>
<text text-anchor="middle" x="321" y="-108.33" font-family="Times New Roman,serif" font-size="14.00">+</text>
</g>
<!-- p_2_1&#45;&gt;p_3_1 -->
<g id="edge17" class="edge">
<title>p_2_1&#45;&gt;p_3_1</title>
<path fill="none" stroke="black" d="M323.26,-167.45C322.95,-160.16 322.57,-151.48 322.22,-143.29"/>
<polygon fill="black" stroke="black" points="325.72,-143.21 321.8,-133.37 318.73,-143.51 325.72,-143.21"/>
</g>
<!-- p_3_2 -->
<g id="node20" class="node">
<title>p_3_2</title>
<ellipse fill="none" stroke="black" cx="393" cy="-113.75" rx="27" ry="18"/>
<text text-anchor="middle" x="393" y="-108.33" font-family="Times New Roman,serif" font-size="14.00">&#45;</text>
</g>
<!-- p_2_1&#45;&gt;p_3_2 -->
<g id="edge18" class="edge">
<title>p_2_1&#45;&gt;p_3_2</title>
<path fill="none" stroke="black" d="M338.3,-170.25C347.64,-160.77 360.04,-148.19 370.67,-137.41"/>
<polygon fill="black" stroke="black" points="373.13,-139.89 377.66,-130.31 368.15,-134.98 373.13,-139.89"/>
</g>
<!-- r_3 -->
<g id="node21" class="node">
<title>r_3</title>
<ellipse fill="none" stroke="black" cx="666" cy="-257.75" rx="27" ry="18"/>
<text text-anchor="middle" x="666" y="-252.32" font-family="Times New Roman,serif" font-size="14.00">&#45;</text>
</g>
<!-- m_2_1 -->
<g id="node22" class="node">
<title>m_2_1</title>
<ellipse fill="none" stroke="black" cx="558" cy="-185.75" rx="27" ry="18"/>
<text text-anchor="middle" x="558" y="-180.32" font-family="Times New Roman,serif" font-size="14.00">&#45;</text>
</g>
<!-- r_3&#45;&gt;m_2_1 -->
<g id="edge19" class="edge">
<title>r_3&#45;&gt;m_2_1</title>
<path fill="none" stroke="black" d="M647.19,-244.56C630.41,-233.68 605.61,-217.61 586.41,-205.17"/>
<polygon fill="black" stroke="black" points="588.52,-202.36 578.23,-199.86 584.72,-208.24 588.52,-202.36"/>
</g>
<!-- m_2_2 -->
<g id="node23" class="node">
<title>m_2_2</title>
<ellipse fill="none" stroke="black" cx="666" cy="-185.75" rx="27" ry="18"/>
<text text-anchor="middle" x="666" y="-180.32" font-family="Times New Roman,serif" font-size="14.00">=</text>
</g>
<!-- r_3&#45;&gt;m_2_2 -->
<g id="edge20" class="edge">
<title>r_3&#45;&gt;m_2_2</title>
<path fill="none" stroke="black" d="M666,-239.45C666,-232.16 666,-223.48 666,-215.29"/>
<polygon fill="black" stroke="black" points="669.5,-215.37 666,-205.37 662.5,-215.37 669.5,-215.37"/>
</g>
<!-- m_2_3 -->
<g id="node24" class="node">
<title>m_2_3</title>
<ellipse fill="none" stroke="black" cx="738" cy="-185.75" rx="27" ry="18"/>
<text text-anchor="middle" x="738" y="-180.32" font-family="Times New Roman,serif" font-size="14.00">&gt;</text>
</g>
<!-- r_3&#45;&gt;m_2_3 -->
<g id="edge21" class="edge">
<title>r_3&#45;&gt;m_2_3</title>
<path fill="none" stroke="black" d="M680.92,-242.25C690.77,-232.67 703.86,-219.94 715.03,-209.09"/>
<polygon fill="black" stroke="black" points="717.29,-211.77 722.02,-202.29 712.41,-206.75 717.29,-211.77"/>
</g>
<!-- m_3_1 -->
<g id="node25" class="node">
<title>m_3_1</title>
<ellipse fill="none" stroke="black" cx="475" cy="-113.75" rx="27" ry="18"/>
<text text-anchor="middle" x="475" y="-108.33" font-family="Times New Roman,serif" font-size="14.00">!</text>
</g>
<!-- m_2_1&#45;&gt;m_3_1 -->
<g id="edge22" class="edge">
<title>m_2_1&#45;&gt;m_3_1</title>
<path fill="none" stroke="black" d="M541.6,-170.92C529.78,-160.95 513.6,-147.31 500.15,-135.96"/>
<polygon fill="black" stroke="black" points="502.42,-133.3 492.52,-129.53 497.91,-138.65 502.42,-133.3"/>
</g>
<!-- m_3_2 -->
<g id="node26" class="node">
<title>m_3_2</title>
<ellipse fill="none" stroke="black" cx="547" cy="-113.75" rx="27" ry="18"/>
<text text-anchor="middle" x="547" y="-108.33" font-family="Times New Roman,serif" font-size="14.00">=</text>
</g>
<!-- m_2_1&#45;&gt;m_3_2 -->
<g id="edge23" class="edge">
<title>m_2_1&#45;&gt;m_3_2</title>
<path fill="none" stroke="black" d="M555.28,-167.45C554.12,-160.07 552.74,-151.27 551.44,-143"/>
<polygon fill="black" stroke="black" points="554.93,-142.68 549.92,-133.35 548.02,-143.77 554.93,-142.68"/>
</g>
<!-- m_3_3 -->
<g id="node27" class="node">
<title>m_3_3</title>
<ellipse fill="none" stroke="black" cx="619" cy="-113.75" rx="27" ry="18"/>
<text text-anchor="middle" x="619" y="-108.33" font-family="Times New Roman,serif" font-size="14.00">&gt;</text>
</g>
<!-- m_2_1&#45;&gt;m_3_3 -->
<g id="edge24" class="edge">
<title>m_2_1&#45;&gt;m_3_3</title>
<path fill="none" stroke="black" d="M571.24,-169.56C579.15,-160.48 589.38,-148.75 598.33,-138.47"/>
<polygon fill="black" stroke="black" points="600.86,-140.89 604.8,-131.05 595.59,-136.29 600.86,-140.89"/>
</g>
<!-- m_4_1 -->
<g id="node28" class="node">
<title>m_4_1</title>
<ellipse fill="none" stroke="black" cx="691" cy="-113.75" rx="27" ry="18"/>
<text text-anchor="middle" x="691" y="-108.33" font-family="Times New Roman,serif" font-size="14.00">&gt;</text>
</g>
<!-- m_2_2&#45;&gt;m_4_1 -->
<g id="edge25" class="edge">
<title>m_2_2&#45;&gt;m_4_1</title>
<path fill="none" stroke="black" d="M672.05,-167.8C674.78,-160.15 678.08,-150.91 681.16,-142.31"/>
<polygon fill="black" stroke="black" points="684.43,-143.56 684.49,-132.96 677.84,-141.2 684.43,-143.56"/>
</g>
</g>
</svg>
