<?xml version="1.0" encoding="UTF-8" standalone="no"?>
<!DOCTYPE svg PUBLIC "-//W3C//DTD SVG 1.1//EN"
 "http://www.w3.org/Graphics/SVG/1.1/DTD/svg11.dtd">
<!-- Generated by graphviz version 10.0.1 (20240210.2158)
 -->
<!-- Title: structs Pages: 1 -->
<svg width="334pt" height="165pt"
 viewBox="0.00 0.00 334.25 164.75" xmlns="http://www.w3.org/2000/svg" xmlns:xlink="http://www.w3.org/1999/xlink">
<g id="graph0" class="graph" transform="scale(1 1) rotate(0) translate(4 160.75)">
<title>structs</title>
<polygon fill="white" stroke="none" points="-4,4 -4,-160.75 330.25,-160.75 330.25,4 -4,4"/>
<text text-anchor="middle" x="163.12" y="-6.45" font-family="Times New Roman,serif" font-size="14.00">Flat Trie</text>
<!-- l1 -->
<g id="node1" class="node">
<title>l1</title>
<polygon fill="none" stroke="black" points="104.12,-108.75 104.12,-156.25 198.12,-156.25 198.12,-108.75 104.12,-108.75"/>
<text text-anchor="middle" x="115.5" y="-138.95" font-family="Times New Roman,serif" font-size="14.00">!</text>
<polyline fill="none" stroke="black" points="104.12,-132.5 126.88,-132.5"/>
<text text-anchor="middle" x="115.5" y="-115.2" font-family="Times New Roman,serif" font-size="14.00">0</text>
<polyline fill="none" stroke="black" points="126.88,-108.75 126.88,-156.25"/>
<text text-anchor="middle" x="139" y="-138.95" font-family="Times New Roman,serif" font-size="14.00">+</text>
<polyline fill="none" stroke="black" points="126.88,-132.5 151.12,-132.5"/>
<text text-anchor="middle" x="139" y="-115.2" font-family="Times New Roman,serif" font-size="14.00">1</text>
<polyline fill="none" stroke="black" points="151.12,-108.75 151.12,-156.25"/>
<text text-anchor="middle" x="162.5" y="-138.95" font-family="Times New Roman,serif" font-size="14.00">&#45;</text>
<polyline fill="none" stroke="black" points="151.12,-132.5 173.88,-132.5"/>
<text text-anchor="middle" x="162.5" y="-115.2" font-family="Times New Roman,serif" font-size="14.00">2</text>
<polyline fill="none" stroke="black" points="173.88,-108.75 173.88,-156.25"/>
<text text-anchor="middle" x="186" y="-138.95" font-family="Times New Roman,serif" font-size="14.00">=</text>
<polyline fill="none" stroke="black" points="173.88,-132.5 198.12,-132.5"/>
<text text-anchor="middle" x="186" y="-115.2" font-family="Times New Roman,serif" font-size="14.00">3</text>
</g>
<!-- l2 -->
<g id="node2" class="node">
<title>l2</title>
<polygon fill="none" stroke="black" points="0,-24.25 0,-71.75 326.25,-71.75 326.25,-24.25 0,-24.25"/>
<text text-anchor="middle" x="12.12" y="-54.45" font-family="Times New Roman,serif" font-size="14.00">+</text>
<polyline fill="none" stroke="black" points="0,-48 24.25,-48"/>
<text text-anchor="middle" x="12.12" y="-30.7" font-family="Times New Roman,serif" font-size="14.00">5</text>
<polyline fill="none" stroke="black" points="24.25,-24.25 24.25,-71.75"/>
<text text-anchor="middle" x="35.62" y="-54.45" font-family="Times New Roman,serif" font-size="14.00">&#45;</text>
<polyline fill="none" stroke="black" points="24.25,-48 47,-48"/>
<text text-anchor="middle" x="35.62" y="-30.7" font-family="Times New Roman,serif" font-size="14.00">6</text>
<polyline fill="none" stroke="black" points="47,-24.25 47,-71.75"/>
<text text-anchor="middle" x="59.12" y="-54.45" font-family="Times New Roman,serif" font-size="14.00">=</text>
<polyline fill="none" stroke="black" points="47,-48 71.25,-48"/>
<text text-anchor="middle" x="59.12" y="-30.7" font-family="Times New Roman,serif" font-size="14.00">7</text>
<polyline fill="none" stroke="black" points="71.25,-24.25 71.25,-71.75"/>
<text text-anchor="middle" x="83.38" y="-54.45" font-family="Times New Roman,serif" font-size="14.00">&gt;</text>
<polyline fill="none" stroke="black" points="71.25,-48 95.5,-48"/>
<text text-anchor="middle" x="83.38" y="-30.7" font-family="Times New Roman,serif" font-size="14.00">8</text>
<polyline fill="none" stroke="black" points="95.5,-24.25 95.5,-71.75"/>
<text text-anchor="middle" x="107.62" y="-54.45" font-family="Times New Roman,serif" font-size="14.00">+</text>
<polyline fill="none" stroke="black" points="95.5,-48 119.75,-48"/>
<text text-anchor="middle" x="107.62" y="-30.7" font-family="Times New Roman,serif" font-size="14.00">9</text>
<polyline fill="none" stroke="black" points="119.75,-24.25 119.75,-71.75"/>
<text text-anchor="middle" x="134.5" y="-54.45" font-family="Times New Roman,serif" font-size="14.00">&#45;</text>
<polyline fill="none" stroke="black" points="119.75,-48 149.25,-48"/>
<text text-anchor="middle" x="134.5" y="-30.7" font-family="Times New Roman,serif" font-size="14.00">10</text>
<polyline fill="none" stroke="black" points="149.25,-24.25 149.25,-71.75"/>
<text text-anchor="middle" x="164" y="-54.45" font-family="Times New Roman,serif" font-size="14.00">=</text>
<polyline fill="none" stroke="black" points="149.25,-48 178.75,-48"/>
<text text-anchor="middle" x="164" y="-30.7" font-family="Times New Roman,serif" font-size="14.00">11</text>
<polyline fill="none" stroke="black" points="178.75,-24.25 178.75,-71.75"/>
<text text-anchor="middle" x="193.5" y="-54.45" font-family="Times New Roman,serif" font-size="14.00">&#45;</text>
<polyline fill="none" stroke="black" points="178.75,-48 208.25,-48"/>
<text text-anchor="middle" x="193.5" y="-30.7" font-family="Times New Roman,serif" font-size="14.00">12</text>
<polyline fill="none" stroke="black" points="208.25,-24.25 208.25,-71.75"/>
<text text-anchor="middle" x="223" y="-54.45" font-family="Times New Roman,serif" font-size="14.00">=</text>
<polyline fill="none" stroke="black" points="208.25,-48 237.75,-48"/>
<text text-anchor="middle" x="223" y="-30.7" font-family="Times New Roman,serif" font-size="14.00">13</text>
<polyline fill="none" stroke="black" points="237.75,-24.25 237.75,-71.75"/>
<text text-anchor="middle" x="252.5" y="-54.45" font-family="Times New Roman,serif" font-size="14.00">&gt;</text>
<polyline fill="none" stroke="black" points="237.75,-48 267.25,-48"/>
<text text-anchor="middle" x="252.5" y="-30.7" font-family="Times New Roman,serif" font-size="14.00">14</text>
<polyline fill="none" stroke="black" points="267.25,-24.25 267.25,-71.75"/>
<text text-anchor="middle" x="282" y="-54.45" font-family="Times New Roman,serif" font-size="14.00">=</text>
<polyline fill="none" stroke="black" points="267.25,-48 296.75,-48"/>
<text text-anchor="middle" x="282" y="-30.7" font-family="Times New Roman,serif" font-size="14.00">15</text>
<polyline fill="none" stroke="black" points="296.75,-24.25 296.75,-71.75"/>
<text text-anchor="middle" x="311.5" y="-54.45" font-family="Times New Roman,serif" font-size="14.00">&gt;</text>
<polyline fill="none" stroke="black" points="296.75,-48 326.25,-48"/>
<text text-anchor="middle" x="311.5" y="-30.7" font-family="Times New Roman,serif" font-size="14.00">16</text>
</g>
<!-- l1&#45;&gt;l2 -->
<g id="edge1" class="edge">
<title>l1:f0&#45;&gt;l2:t5</title>
<path fill="none" stroke="black" d="M115.12,-108.25C115.12,-64.3 30.53,-110.27 14.67,-83.18"/>
<polygon fill="black" stroke="black" points="18.15,-82.67 12.47,-73.72 11.33,-84.26 18.15,-82.67"/>
</g>
<!-- l1&#45;&gt;l2 -->
<g id="edge2" class="edge">
<title>l1:f1&#45;&gt;l2:t9</title>
<path fill="none" stroke="black" d="M139.12,-108.25C139.12,-91.53 119.59,-92.03 111.05,-82.84"/>
<polygon fill="black" stroke="black" points="114.41,-81.83 107.65,-73.67 107.84,-84.26 114.41,-81.83"/>
</g>
<!-- l1&#45;&gt;l2 -->
<g id="edge3" class="edge">
<title>l1:f2&#45;&gt;l2:t12</title>
<path fill="none" stroke="black" d="M162.12,-108.25C162.12,-91.92 180.67,-91.95 189.07,-83.03"/>
<polygon fill="black" stroke="black" points="192.35,-84.26 192.59,-73.67 185.8,-81.79 192.35,-84.26"/>
</g>
<!-- l1&#45;&gt;l2 -->
<g id="edge4" class="edge">
<title>l1:f3&#45;&gt;l2:t15</title>
<path fill="none" stroke="black" d="M186.12,-108.25C186.12,-67.31 263.62,-107.66 279.36,-83.23"/>
<polygon fill="black" stroke="black" points="282.7,-84.27 281.75,-73.72 275.91,-82.56 282.7,-84.27"/>
</g>
</g>
</svg>
