<?xml version="1.0" encoding="UTF-8" standalone="no"?>
<!DOCTYPE svg PUBLIC "-//W3C//DTD SVG 1.1//EN"
 "http://www.w3.org/Graphics/SVG/1.1/DTD/svg11.dtd">
<!-- Generated by graphviz version 10.0.1 (20240210.2158)
 -->
<!-- Pages: 1 -->
<svg width="425pt" height="229pt"
 viewBox="0.00 0.00 425.27 228.85" xmlns="http://www.w3.org/2000/svg" xmlns:xlink="http://www.w3.org/1999/xlink">
<g id="graph0" class="graph" transform="scale(1 1) rotate(0) translate(4 224.85)">
<polygon fill="white" stroke="none" points="-4,4 -4,-224.85 421.27,-224.85 421.27,4 -4,4"/>
<text text-anchor="middle" x="208.64" y="-6.45" font-family="Times New Roman,serif" font-size="14.00">Trie</text>
<!-- r_1 -->
<g id="node1" class="node">
<title>r_1</title>
<ellipse fill="none" stroke="black" cx="71.14" cy="-209.71" rx="11.14" ry="11.14"/>
<text text-anchor="middle" x="71.14" y="-204.28" font-family="Times New Roman,serif" font-size="14.00">!</text>
</g>
<!-- n_2_1 -->
<g id="node2" class="node">
<title>n_2_1</title>
<ellipse fill="none" stroke="black" cx="11.14" cy="-151.43" rx="11.14" ry="11.14"/>
<text text-anchor="middle" x="11.14" y="-146.01" font-family="Times New Roman,serif" font-size="14.00">+</text>
</g>
<!-- r_1&#45;&gt;n_2_1 -->
<g id="edge1" class="edge">
<title>r_1&#45;&gt;n_2_1</title>
<path fill="none" stroke="black" d="M63.29,-201.35C54.08,-192.71 38.57,-178.16 26.85,-167.17"/>
<polygon fill="black" stroke="black" points="29.59,-164.94 19.9,-160.65 24.8,-170.04 29.59,-164.94"/>
</g>
<!-- n_2_2 -->
<g id="node3" class="node">
<title>n_2_2</title>
<ellipse fill="none" stroke="black" cx="51.14" cy="-151.43" rx="11.14" ry="11.14"/>
<text text-anchor="middle" x="51.14" y="-146.01" font-family="Times New Roman,serif" font-size="14.00">&#45;</text>
</g>
<!-- r_1&#45;&gt;n_2_2 -->
<g id="edge2" class="edge">
<title>r_1&#45;&gt;n_2_2</title>
<path fill="none" stroke="black" d="M67.56,-198.65C65.03,-191.53 61.55,-181.72 58.44,-172.98"/>
<polygon fill="black" stroke="black" points="61.84,-172.08 55.19,-163.83 55.24,-174.43 61.84,-172.08"/>
</g>
<!-- n_2_3 -->
<g id="node4" class="node">
<title>n_2_3</title>
<ellipse fill="none" stroke="black" cx="91.14" cy="-151.43" rx="11.14" ry="11.14"/>
<text text-anchor="middle" x="91.14" y="-146.01" font-family="Times New Roman,serif" font-size="14.00">=</text>
</g>
<!-- r_1&#45;&gt;n_2_3 -->
<g id="edge3" class="edge">
<title>r_1&#45;&gt;n_2_3</title>
<path fill="none" stroke="black" d="M74.71,-198.65C77.24,-191.53 80.73,-181.72 83.84,-172.98"/>
<polygon fill="black" stroke="black" points="87.03,-174.43 87.09,-163.83 80.44,-172.08 87.03,-174.43"/>
</g>
<!-- n_2_4 -->
<g id="node5" class="node">
<title>n_2_4</title>
<ellipse fill="none" stroke="black" cx="131.14" cy="-151.43" rx="11.14" ry="11.14"/>
<text text-anchor="middle" x="131.14" y="-146.01" font-family="Times New Roman,serif" font-size="14.00">&gt;</text>
</g>
<!-- r_1&#45;&gt;n_2_4 -->
<g id="edge4" class="edge">
<title>r_1&#45;&gt;n_2_4</title>
<path fill="none" stroke="black" d="M78.98,-201.35C88.19,-192.71 103.71,-178.16 115.43,-167.17"/>
<polygon fill="black" stroke="black" points="117.48,-170.04 122.38,-160.65 112.69,-164.94 117.48,-170.04"/>
</g>
<!-- n_3_1 -->
<g id="node6" class="node">
<title>n_3_1</title>
<ellipse fill="none" stroke="black" cx="13.14" cy="-93.16" rx="11.14" ry="11.14"/>
<text text-anchor="middle" x="13.14" y="-87.74" font-family="Times New Roman,serif" font-size="14.00">+</text>
</g>
<!-- n_2_3&#45;&gt;n_3_1 -->
<g id="edge5" class="edge">
<title>n_2_3&#45;&gt;n_3_1</title>
<path fill="none" stroke="black" d="M82.49,-144.2C70.14,-135.29 47.16,-118.71 31.05,-107.08"/>
<polygon fill="black" stroke="black" points="33.45,-104.5 23.29,-101.48 29.35,-110.17 33.45,-104.5"/>
</g>
<!-- n_3_2 -->
<g id="node7" class="node">
<title>n_3_2</title>
<ellipse fill="none" stroke="black" cx="53.14" cy="-93.16" rx="11.14" ry="11.14"/>
<text text-anchor="middle" x="53.14" y="-87.74" font-family="Times New Roman,serif" font-size="14.00">&#45;</text>
</g>
<!-- n_2_3&#45;&gt;n_3_2 -->
<g id="edge6" class="edge">
<title>n_2_3&#45;&gt;n_3_2</title>
<path fill="none" stroke="black" d="M85.2,-141.64C79.93,-133.84 72.07,-122.2 65.45,-112.39"/>
<polygon fill="black" stroke="black" points="68.5,-110.66 60.01,-104.33 62.7,-114.58 68.5,-110.66"/>
</g>
<!-- n_3_3 -->
<g id="node8" class="node">
<title>n_3_3</title>
<ellipse fill="none" stroke="black" cx="93.14" cy="-93.16" rx="11.14" ry="11.14"/>
<text text-anchor="middle" x="93.14" y="-87.74" font-family="Times New Roman,serif" font-size="14.00">=</text>
</g>
<!-- n_2_3&#45;&gt;n_3_3 -->
<g id="edge7" class="edge">
<title>n_2_3&#45;&gt;n_3_3</title>
<path fill="none" stroke="black" d="M91.51,-139.85C91.75,-133.17 92.07,-124.29 92.36,-116.14"/>
<polygon fill="black" stroke="black" points="95.85,-116.33 92.71,-106.21 88.86,-116.08 95.85,-116.33"/>
</g>
<!-- n_3_4 -->
<g id="node9" class="node">
<title>n_3_4</title>
<ellipse fill="none" stroke="black" cx="133.14" cy="-93.16" rx="11.14" ry="11.14"/>
<text text-anchor="middle" x="133.14" y="-87.74" font-family="Times New Roman,serif" font-size="14.00">&gt;</text>
</g>
<!-- n_2_3&#45;&gt;n_3_4 -->
<g id="edge8" class="edge">
<title>n_2_3&#45;&gt;n_3_4</title>
<path fill="none" stroke="black" d="M97.33,-142.13C103.29,-134.15 112.48,-121.84 120.05,-111.69"/>
<polygon fill="black" stroke="black" points="122.83,-113.82 126.01,-103.71 117.22,-109.63 122.83,-113.82"/>
</g>
<!-- n_4_0 -->
<g id="node10" class="node">
<title>n_4_0</title>
<ellipse fill="none" stroke="black" cx="13.14" cy="-34.89" rx="11.14" ry="11.14"/>
<text text-anchor="middle" x="13.14" y="-29.46" font-family="Times New Roman,serif" font-size="14.00">!</text>
</g>
<!-- n_3_3&#45;&gt;n_4_0 -->
<g id="edge9" class="edge">
<title>n_3_3&#45;&gt;n_4_0</title>
<path fill="none" stroke="black" d="M84.27,-85.92C71.47,-76.92 47.53,-60.08 30.98,-48.44"/>
<polygon fill="black" stroke="black" points="33.23,-45.74 23.04,-42.85 29.2,-51.47 33.23,-45.74"/>
</g>
<!-- n_4_1 -->
<g id="node11" class="node">
<title>n_4_1</title>
<ellipse fill="none" stroke="black" cx="53.14" cy="-34.89" rx="11.14" ry="11.14"/>
<text text-anchor="middle" x="53.14" y="-29.46" font-family="Times New Roman,serif" font-size="14.00">+</text>
</g>
<!-- n_3_3&#45;&gt;n_4_1 -->
<g id="edge10" class="edge">
<title>n_3_3&#45;&gt;n_4_1</title>
<path fill="none" stroke="black" d="M86.89,-83.37C81.28,-75.48 72.87,-63.65 65.85,-53.77"/>
<polygon fill="black" stroke="black" points="68.74,-51.79 60.09,-45.67 63.03,-55.85 68.74,-51.79"/>
</g>
<!-- n_4_2 -->
<g id="node12" class="node">
<title>n_4_2</title>
<ellipse fill="none" stroke="black" cx="93.14" cy="-34.89" rx="11.14" ry="11.14"/>
<text text-anchor="middle" x="93.14" y="-29.46" font-family="Times New Roman,serif" font-size="14.00">&#45;</text>
</g>
<!-- n_3_3&#45;&gt;n_4_2 -->
<g id="edge11" class="edge">
<title>n_3_3&#45;&gt;n_4_2</title>
<path fill="none" stroke="black" d="M93.14,-81.58C93.14,-74.9 93.14,-66.02 93.14,-57.86"/>
<polygon fill="black" stroke="black" points="96.64,-57.94 93.14,-47.94 89.64,-57.94 96.64,-57.94"/>
</g>
<!-- n_4_3 -->
<g id="node13" class="node">
<title>n_4_3</title>
<ellipse fill="none" stroke="black" cx="133.14" cy="-34.89" rx="11.14" ry="11.14"/>
<text text-anchor="middle" x="133.14" y="-29.46" font-family="Times New Roman,serif" font-size="14.00">=</text>
</g>
<!-- n_3_3&#45;&gt;n_4_3 -->
<g id="edge12" class="edge">
<title>n_3_3&#45;&gt;n_4_3</title>
<path fill="none" stroke="black" d="M99.39,-83.37C105,-75.48 113.4,-63.65 120.42,-53.77"/>
<polygon fill="black" stroke="black" points="123.24,-55.85 126.18,-45.67 117.54,-51.79 123.24,-55.85"/>
</g>
<!-- n_4_4 -->
<g id="node14" class="node">
<title>n_4_4</title>
<ellipse fill="none" stroke="black" cx="173.14" cy="-34.89" rx="11.14" ry="11.14"/>
<text text-anchor="middle" x="173.14" y="-29.46" font-family="Times New Roman,serif" font-size="14.00">&gt;</text>
</g>
<!-- n_3_3&#45;&gt;n_4_4 -->
<g id="edge13" class="edge">
<title>n_3_3&#45;&gt;n_4_4</title>
<path fill="none" stroke="black" d="M102,-85.92C114.81,-76.92 138.74,-60.08 155.29,-48.44"/>
<polygon fill="black" stroke="black" points="157.07,-51.47 163.24,-42.85 153.04,-45.74 157.07,-51.47"/>
</g>
<!-- r_2 -->
<g id="node15" class="node">
<title>r_2</title>
<ellipse fill="none" stroke="black" cx="216.14" cy="-209.71" rx="11.14" ry="11.14"/>
<text text-anchor="middle" x="216.14" y="-204.28" font-family="Times New Roman,serif" font-size="14.00">+</text>
</g>
<!-- p_2_1 -->
<g id="node16" class="node">
<title>p_2_1</title>
<ellipse fill="none" stroke="black" cx="176.14" cy="-151.43" rx="11.14" ry="11.14"/>
<text text-anchor="middle" x="176.14" y="-146.01" font-family="Times New Roman,serif" font-size="14.00">+</text>
</g>
<!-- r_2&#45;&gt;p_2_1 -->
<g id="edge14" class="edge">
<title>r_2&#45;&gt;p_2_1</title>
<path fill="none" stroke="black" d="M209.89,-199.92C204.28,-192.02 195.87,-180.2 188.85,-170.32"/>
<polygon fill="black" stroke="black" points="191.74,-168.34 183.09,-162.22 186.03,-172.39 191.74,-168.34"/>
</g>
<!-- p_2_2 -->
<g id="node17" class="node">
<title>p_2_2</title>
<ellipse fill="none" stroke="black" cx="216.14" cy="-151.43" rx="11.14" ry="11.14"/>
<text text-anchor="middle" x="216.14" y="-146.01" font-family="Times New Roman,serif" font-size="14.00">&#45;</text>
</g>
<!-- r_2&#45;&gt;p_2_2 -->
<g id="edge15" class="edge">
<title>r_2&#45;&gt;p_2_2</title>
<path fill="none" stroke="black" d="M216.14,-198.12C216.14,-191.44 216.14,-182.56 216.14,-174.41"/>
<polygon fill="black" stroke="black" points="219.64,-174.49 216.14,-164.49 212.64,-174.49 219.64,-174.49"/>
</g>
<!-- p_2_3 -->
<g id="node18" class="node">
<title>p_2_3</title>
<ellipse fill="none" stroke="black" cx="256.14" cy="-151.43" rx="11.14" ry="11.14"/>
<text text-anchor="middle" x="256.14" y="-146.01" font-family="Times New Roman,serif" font-size="14.00">=</text>
</g>
<!-- r_2&#45;&gt;p_2_3 -->
<g id="edge16" class="edge">
<title>r_2&#45;&gt;p_2_3</title>
<path fill="none" stroke="black" d="M222.39,-199.92C228,-192.02 236.4,-180.2 243.42,-170.32"/>
<polygon fill="black" stroke="black" points="246.24,-172.39 249.18,-162.22 240.54,-168.34 246.24,-172.39"/>
</g>
<!-- p_3_1 -->
<g id="node19" class="node">
<title>p_3_1</title>
<ellipse fill="none" stroke="black" cx="174.14" cy="-93.16" rx="11.14" ry="11.14"/>
<text text-anchor="middle" x="174.14" y="-87.74" font-family="Times New Roman,serif" font-size="14.00">+</text>
</g>
<!-- p_2_1&#45;&gt;p_3_1 -->
<g id="edge17" class="edge">
<title>p_2_1&#45;&gt;p_3_1</title>
<path fill="none" stroke="black" d="M175.76,-139.85C175.52,-133.17 175.21,-124.29 174.92,-116.14"/>
<polygon fill="black" stroke="black" points="178.42,-116.08 174.57,-106.21 171.42,-116.33 178.42,-116.08"/>
</g>
<!-- p_3_2 -->
<g id="node20" class="node">
<title>p_3_2</title>
<ellipse fill="none" stroke="black" cx="214.14" cy="-93.16" rx="11.14" ry="11.14"/>
<text text-anchor="middle" x="214.14" y="-87.74" font-family="Times New Roman,serif" font-size="14.00">&#45;</text>
</g>
<!-- p_2_1&#45;&gt;p_3_2 -->
<g id="edge18" class="edge">
<title>p_2_1&#45;&gt;p_3_2</title>
<path fill="none" stroke="black" d="M182.07,-141.64C187.34,-133.84 195.21,-122.2 201.83,-112.39"/>
<polygon fill="black" stroke="black" points="204.57,-114.58 207.27,-104.33 198.77,-110.66 204.57,-114.58"/>
</g>
<!-- r_3 -->
<g id="node21" class="node">
<title>r_3</title>
<ellipse fill="none" stroke="black" cx="366.14" cy="-209.71" rx="11.14" ry="11.14"/>
<text text-anchor="middle" x="366.14" y="-204.28" font-family="Times New Roman,serif" font-size="14.00">&#45;</text>
</g>
<!-- m_2_1 -->
<g id="node22" class="node">
<title>m_2_1</title>
<ellipse fill="none" stroke="black" cx="306.14" cy="-151.43" rx="11.14" ry="11.14"/>
<text text-anchor="middle" x="306.14" y="-146.01" font-family="Times New Roman,serif" font-size="14.00">&#45;</text>
</g>
<!-- r_3&#45;&gt;m_2_1 -->
<g id="edge19" class="edge">
<title>r_3&#45;&gt;m_2_1</title>
<path fill="none" stroke="black" d="M358.29,-201.35C349.08,-192.71 333.57,-178.16 321.85,-167.17"/>
<polygon fill="black" stroke="black" points="324.59,-164.94 314.9,-160.65 319.8,-170.04 324.59,-164.94"/>
</g>
<!-- m_2_2 -->
<g id="node23" class="node">
<title>m_2_2</title>
<ellipse fill="none" stroke="black" cx="366.14" cy="-151.43" rx="11.14" ry="11.14"/>
<text text-anchor="middle" x="366.14" y="-146.01" font-family="Times New Roman,serif" font-size="14.00">=</text>
</g>
<!-- r_3&#45;&gt;m_2_2 -->
<g id="edge20" class="edge">
<title>r_3&#45;&gt;m_2_2</title>
<path fill="none" stroke="black" d="M366.14,-198.12C366.14,-191.44 366.14,-182.56 366.14,-174.41"/>
<polygon fill="black" stroke="black" points="369.64,-174.49 366.14,-164.49 362.64,-174.49 369.64,-174.49"/>
</g>
<!-- m_2_3 -->
<g id="node24" class="node">
<title>m_2_3</title>
<ellipse fill="none" stroke="black" cx="406.14" cy="-151.43" rx="11.14" ry="11.14"/>
<text text-anchor="middle" x="406.14" y="-146.01" font-family="Times New Roman,serif" font-size="14.00">&gt;</text>
</g>
<!-- r_3&#45;&gt;m_2_3 -->
<g id="edge21" class="edge">
<title>r_3&#45;&gt;m_2_3</title>
<path fill="none" stroke="black" d="M372.39,-199.92C378,-192.02 386.4,-180.2 393.42,-170.32"/>
<polygon fill="black" stroke="black" points="396.24,-172.39 399.18,-162.22 390.54,-168.34 396.24,-172.39"/>
</g>
<!-- m_3_1 -->
<g id="node25" class="node">
<title>m_3_1</title>
<ellipse fill="none" stroke="black" cx="260.14" cy="-93.16" rx="11.14" ry="11.14"/>
<text text-anchor="middle" x="260.14" y="-87.74" font-family="Times New Roman,serif" font-size="14.00">!</text>
</g>
<!-- m_2_1&#45;&gt;m_3_1 -->
<g id="edge22" class="edge">
<title>m_2_1&#45;&gt;m_3_1</title>
<path fill="none" stroke="black" d="M299.35,-142.13C292.76,-134.07 282.55,-121.58 274.21,-111.37"/>
<polygon fill="black" stroke="black" points="276.95,-109.2 267.91,-103.67 271.53,-113.63 276.95,-109.2"/>
</g>
<!-- m_3_2 -->
<g id="node26" class="node">
<title>m_3_2</title>
<ellipse fill="none" stroke="black" cx="300.14" cy="-93.16" rx="11.14" ry="11.14"/>
<text text-anchor="middle" x="300.14" y="-87.74" font-family="Times New Roman,serif" font-size="14.00">=</text>
</g>
<!-- m_2_1&#45;&gt;m_3_2 -->
<g id="edge23" class="edge">
<title>m_2_1&#45;&gt;m_3_2</title>
<path fill="none" stroke="black" d="M305.04,-140.11C304.31,-133.29 303.33,-124.1 302.44,-115.72"/>
<polygon fill="black" stroke="black" points="305.93,-115.49 301.39,-105.92 298.97,-116.24 305.93,-115.49"/>
</g>
<!-- m_3_3 -->
<g id="node27" class="node">
<title>m_3_3</title>
<ellipse fill="none" stroke="black" cx="340.14" cy="-93.16" rx="11.14" ry="11.14"/>
<text text-anchor="middle" x="340.14" y="-87.74" font-family="Times New Roman,serif" font-size="14.00">&gt;</text>
</g>
<!-- m_2_1&#45;&gt;m_3_3 -->
<g id="edge24" class="edge">
<title>m_2_1&#45;&gt;m_3_3</title>
<path fill="none" stroke="black" d="M311.6,-141.39C316.18,-133.81 322.88,-122.72 328.64,-113.19"/>
<polygon fill="black" stroke="black" points="331.62,-115.03 333.79,-104.66 325.63,-111.41 331.62,-115.03"/>
</g>
<!-- m_4_1 -->
<g id="node28" class="node">
<title>m_4_1</title>
<ellipse fill="none" stroke="black" cx="380.14" cy="-93.16" rx="11.14" ry="11.14"/>
<text text-anchor="middle" x="380.14" y="-87.74" font-family="Times New Roman,serif" font-size="14.00">&gt;</text>
</g>
<!-- m_2_2&#45;&gt;m_4_1 -->
<g id="edge25" class="edge">
<title>m_2_2&#45;&gt;m_4_1</title>
<path fill="none" stroke="black" d="M368.7,-140.11C370.42,-133.21 372.74,-123.88 374.85,-115.43"/>
<polygon fill="black" stroke="black" points="378.2,-116.43 377.22,-105.89 371.41,-114.74 378.2,-116.43"/>
</g>
</g>
</svg>
