<svg xmlns="http://www.w3.org/2000/svg" xmlns:xlink="http://www.w3.org/1999/xlink" contentStyleType="text/css" height="242px" preserveAspectRatio="none" style="width:225px;height:242px;background:#FFFFFF;" version="1.1" viewBox="0 0 225 242" width="225px" zoomAndPan="magnify"><defs/><g><ellipse cx="70.5" cy="16" fill="#222222" rx="10" ry="10" style="stroke:#222222;stroke-width:1.0;"/><g id="State1"><rect fill="#F1F1F1" height="67.7969" rx="12.5" ry="12.5" style="stroke:#181818;stroke-width:0.5;" width="127.3848" x="7" y="86"/><line style="stroke:#181818;stroke-width:0.5;" x1="7" x2="134.3848" y1="113.6094" y2="113.6094"/><text fill="#000000" font-family="sans-serif" font-size="14" lengthAdjust="spacing" textLength="40.4756" x="50.4546" y="105.5332">State1</text><text fill="#000000" font-family="sans-serif" font-size="12" lengthAdjust="spacing" textLength="73.3594" x="12" y="131.0664">this is a string</text><text fill="#000000" font-family="sans-serif" font-size="12" lengthAdjust="spacing" textLength="107.3848" x="12" y="146.1602">this is another string</text></g><ellipse cx="132.5" cy="225" fill="none" rx="11" ry="11" style="stroke:#222222;stroke-width:1.0;"/><ellipse cx="132.5" cy="225" fill="#222222" rx="6" ry="6" style="stroke:#222222;stroke-width:1.0;"/><rect fill="#F1F1F1" height="40" rx="12.5" ry="12.5" style="stroke:#181818;stroke-width:0.5;" width="50.4756" x="169.5" y="100"/><text fill="#000000" font-family="sans-serif" font-size="14" lengthAdjust="spacing" textLength="40.4756" x="174.5" y="125.7285">State2</text><!--link *start* to State1--><g id="link_*start*_State1"><path d="M70.5,26.05 C70.5,39.31 70.5,58.72 70.5,79.62 " fill="none" id="*start*-to-State1" style="stroke:#181818;stroke-width:1.0;"/><polygon fill="#181818" points="70.5,85.62,74.5,76.62,70.5,80.62,66.5,76.62,70.5,85.62" style="stroke:#181818;stroke-width:1.0;"/></g><!--link State1 to *end*--><g id="link_State1_*end*"><path d="M90.46,154.16 C103.34,175.56 116.0674,196.6884 124.1274,210.0884 " fill="none" id="State1-to-*end*" style="stroke:#181818;stroke-width:1.0;"/><polygon fill="#181818" points="127.22,215.23,126.0088,205.4559,124.6428,210.9454,119.1534,209.5794,127.22,215.23" style="stroke:#181818;stroke-width:1.0;"/></g><!--link State1 to State2--><g id="link_State1_State2"><path d="M134.44,120 C146.01,120 151.59,120 163.16,120 " fill="none" id="State1-to-State2" style="stroke:#181818;stroke-width:1.0;"/><polygon fill="#181818" points="169.16,120,160.16,116,164.16,120,160.16,124,169.16,120" style="stroke:#181818;stroke-width:1.0;"/></g><!--link State2 to *end*--><g id="link_State2_*end*"><path d="M182.84,140.37 C169.37,162.75 150.8843,193.4594 140.9343,209.9894 " fill="none" id="State2-to-*end*" style="stroke:#181818;stroke-width:1.0;"/><polygon fill="#181818" points="137.84,215.13,145.9085,209.482,140.4186,210.8462,139.0544,205.3563,137.84,215.13" style="stroke:#181818;stroke-width:1.0;"/></g><!--SRC=[oyXCILL8pIqegLH8IIrEBieiACdCp-EArefLqDMrKmWkIIn9DUI2K60He0oCQwLGaf5Ph014YGh59KMPUUbOPFBoIp9IYs3oS9EWHXj118nWHWC0]--></g></svg>