<svg xmlns="http://www.w3.org/2000/svg" xmlns:xlink="http://www.w3.org/1999/xlink" contentStyleType="text/css" height="518.8372px" preserveAspectRatio="none" style="width:355px;height:518px;background:#FFFFFF;" version="1.1" viewBox="0 0 355 518" width="355.5311px" zoomAndPan="magnify"><defs/><g><ellipse cx="175.2139" cy="13.6088" fill="#222222" rx="8.5055" ry="8.5055" style="stroke:#222222;stroke-width:0.8505527548701265;"/><path d="M16.5858,73.1475 L334.2648,73.1475 A10.6319,10.6319 0 0 1 344.8967,83.7794 L344.8967,96.6308 L5.9539,96.6308 L5.9539,83.7794 A10.6319,10.6319 0 0 1 16.5858,73.1475 " fill="#F1F1F1" style="stroke:#F1F1F1;stroke-width:0.8505527548701265;"/><rect fill="none" height="441.2907" rx="10.6319" ry="10.6319" style="stroke:#181818;stroke-width:0.42527637743506325;" width="338.9428" x="5.9539" y="73.1475"/><line style="stroke:#181818;stroke-width:0.42527637743506325;" x1="5.9539" x2="344.8967" y1="96.6308" y2="96.6308"/><text fill="#000000" font-family="sans-serif" font-size="11.9077" lengthAdjust="spacing" textLength="65.5391" x="142.6557" y="89.7616">NotShooting</text><ellipse cx="176.4897" cy="114.4924" fill="#222222" rx="8.5055" ry="8.5055" style="stroke:#222222;stroke-width:0.8505527548701265;"/><g id="NotShooting.Idle"><rect fill="#F1F1F1" height="42.5276" rx="10.6319" ry="10.6319" style="stroke:#181818;stroke-width:0.42527637743506325;" width="42.5276" x="155.2259" y="154.4684"/><line style="stroke:#181818;stroke-width:0.42527637743506325;" x1="155.2259" x2="197.7535" y1="177.9516" y2="177.9516"/><text fill="#000000" font-family="sans-serif" font-size="11.9077" lengthAdjust="spacing" textLength="19.1989" x="166.8902" y="171.0824">Idle</text></g><path d="M26.7924,242.9258 L326.6098,242.9258 A10.6319,10.6319 0 0 1 337.2417,253.5578 L337.2417,266.4091 L16.1605,266.4091 L16.1605,253.5578 A10.6319,10.6319 0 0 1 26.7924,242.9258 " fill="#F1F1F1" style="stroke:#F1F1F1;stroke-width:0.8505527548701265;"/><rect fill="none" height="263.0069" rx="10.6319" ry="10.6319" style="stroke:#181818;stroke-width:0.42527637743506325;" width="321.0812" x="16.1605" y="242.9258"/><line style="stroke:#181818;stroke-width:0.42527637743506325;" x1="16.1605" x2="337.2417" y1="266.4091" y2="266.4091"/><text fill="#000000" font-family="sans-serif" font-size="11.9077" lengthAdjust="spacing" textLength="60.8992" x="146.2515" y="259.5399">Configuring</text><ellipse cx="119.256" cy="284.2707" fill="#222222" rx="8.5055" ry="8.5055" style="stroke:#222222;stroke-width:0.8505527548701265;"/><g id="NotShooting.Configuring.NewValueSelection"><rect fill="#F1F1F1" height="42.5276" rx="10.6319" ry="10.6319" style="stroke:#181818;stroke-width:0.42527637743506325;" width="120.2735" x="59.292" y="324.2467"/><line style="stroke:#181818;stroke-width:0.42527637743506325;" x1="59.292" x2="179.5655" y1="347.7299" y2="347.7299"/><text fill="#000000" font-family="sans-serif" font-size="11.9077" lengthAdjust="spacing" textLength="103.2624" x="67.7976" y="340.8607">NewValueSelection</text></g><path d="M62.269,412.7041 L176.6475,412.7041 A10.6319,10.6319 0 0 1 187.2795,423.3361 L187.2795,436.1874 L51.6371,436.1874 L51.6371,423.3361 A10.6319,10.6319 0 0 1 62.269,412.7041 " fill="#F1F1F1" style="stroke:#F1F1F1;stroke-width:0.8505527548701265;"/><rect fill="none" height="84.723" rx="10.6319" ry="10.6319" style="stroke:#181818;stroke-width:0.42527637743506325;" width="135.6424" x="51.6371" y="412.7041"/><line style="stroke:#181818;stroke-width:0.42527637743506325;" x1="51.6371" x2="187.2795" y1="436.1874" y2="436.1874"/><text fill="#000000" font-family="sans-serif" font-size="11.9077" lengthAdjust="spacing" textLength="96.6283" x="71.1441" y="429.3182">NewValuePreview</text><g id="NotShooting.Configuring.NewValuePreview.State1"><rect fill="#F1F1F1" height="42.5276" rx="10.6319" ry="10.6319" style="stroke:#181818;stroke-width:0.42527637743506325;" width="51.4377" x="61.8437" y="446.394"/><line style="stroke:#181818;stroke-width:0.42527637743506325;" x1="61.8437" x2="113.2814" y1="469.8772" y2="469.8772"/><text fill="#000000" font-family="sans-serif" font-size="11.9077" lengthAdjust="spacing" textLength="34.4266" x="70.3492" y="463.008">State1</text></g><g id="NotShooting.Configuring.NewValuePreview.State2"><rect fill="#F1F1F1" height="42.5276" rx="10.6319" ry="10.6319" style="stroke:#181818;stroke-width:0.42527637743506325;" width="51.4377" x="128.1868" y="446.394"/><line style="stroke:#181818;stroke-width:0.42527637743506325;" x1="128.1868" x2="179.6245" y1="469.8772" y2="469.8772"/><text fill="#000000" font-family="sans-serif" font-size="11.9077" lengthAdjust="spacing" textLength="34.4266" x="136.6923" y="463.008">State2</text></g><!--link State1 to State2--><g id="link_State1_State2"><path d="M113.0129,467.6578 C117.9972,467.6578 117.8696,467.6578 122.8538,467.6578 " fill="none" id="State1-to-State2" style="stroke:#181818;stroke-width:0.8505527548701265;"/><polygon fill="#181818" points="127.9572,467.6578,120.3022,464.2556,123.7044,467.6578,120.3022,471.06,127.9572,467.6578" style="stroke:#181818;stroke-width:0.8505527548701265;"/></g><!--link *start*Configuring to NewValueSelection--><g id="link_*start*Configuring_NewValueSelection"><path d="M119.256,292.9038 C119.256,300.7884 119.256,308.2052 119.256,318.9562 " fill="none" id="*start*Configuring-to-NewValueSelection" style="stroke:#181818;stroke-width:0.8505527548701265;"/><polygon fill="#181818" points="119.256,324.0595,122.6582,316.4046,119.256,319.8068,115.8538,316.4046,119.256,324.0595" style="stroke:#181818;stroke-width:0.8505527548701265;"/></g><!--link NewValueSelection to NewValuePreview--><g id="link_NewValueSelection_NewValuePreview"><path d="M59.1219,361.8496 C49.936,366.8338 41.6261,373.4086 35.9018,382.0842 C25.5166,397.8365 31.3224,409.1803 47.4915,420.8584 " fill="none" id="NewValueSelection-to-NewValuePreview" style="stroke:#181818;stroke-width:0.8505527548701265;"/><polygon fill="#181818" points="51.6286,423.8464,47.4149,416.6063,48.181,421.3564,43.4309,422.1224,51.6286,423.8464" style="stroke:#181818;stroke-width:0.8505527548701265;"/><text fill="#000000" font-family="sans-serif" font-size="11.0572" lengthAdjust="spacing" textLength="63.3035" x="36.7524" y="394.4131">EvNewValue</text></g><!--link NewValuePreview to NewValueSelection--><g id="link_NewValuePreview_NewValueSelection"><path d="M119.256,412.6361 C119.256,396.9689 119.256,384.9506 119.256,372.0392 " fill="none" id="NewValuePreview-to-NewValueSelection" style="stroke:#181818;stroke-width:0.8505527548701265;"/><polygon fill="#181818" points="119.256,366.9359,115.8538,374.5909,119.256,371.1887,122.6582,374.5909,119.256,366.9359" style="stroke:#181818;stroke-width:0.8505527548701265;"/><text fill="#000000" font-family="sans-serif" font-size="11.0572" lengthAdjust="spacing" textLength="106.9437" x="120.1066" y="394.4131">EvNewValueRejected</text></g><!--link NewValuePreview to NewValueSelection--><g id="link_NewValuePreview_NewValueSelection"><path d="M187.2067,435.584 C218.3709,423.3956 245.0272,405.4234 228.1268,382.0842 C216.6868,366.298 202.9884,358.6824 184.3357,353.6727 " fill="none" id="NewValuePreview-to-NewValueSelection-1" style="stroke:#181818;stroke-width:0.8505527548701265;"/><polygon fill="#181818" points="179.4071,352.3489,185.9176,357.6203,183.5143,353.452,187.6826,351.0488,179.4071,352.3489" style="stroke:#181818;stroke-width:0.8505527548701265;"/><text fill="#000000" font-family="sans-serif" font-size="11.0572" lengthAdjust="spacing" textLength="94.6556" x="234.0806" y="394.4131">EvNewValueSaved</text></g><!--link *start*NotShooting to Idle--><g id="link_*start*NotShooting_Idle"><path d="M176.4897,123.1255 C176.4897,131.0101 176.4897,138.4269 176.4897,149.1779 " fill="none" id="*start*NotShooting-to-Idle" style="stroke:#181818;stroke-width:0.8505527548701265;"/><polygon fill="#181818" points="176.4897,154.2812,179.8919,146.6263,176.4897,150.0285,173.0875,146.6263,176.4897,154.2812" style="stroke:#181818;stroke-width:0.8505527548701265;"/></g><!--link Idle to Configuring--><g id="link_Idle_Configuring"><path d="M154.9877,196.0179 C150.9136,200.8915 147.2392,206.4286 145.0192,212.3059 C141.3193,222.1043 139.6685,227.3295 138.9711,237.7913 " fill="none" id="Idle-to-Configuring" style="stroke:#181818;stroke-width:0.8505527548701265;"/><polygon fill="#181818" points="138.6316,242.8833,142.5355,235.4716,138.9145,238.64,135.7461,235.019,138.6316,242.8833" style="stroke:#181818;stroke-width:0.8505527548701265;"/><text fill="#000000" font-family="sans-serif" font-size="11.0572" lengthAdjust="spacing" textLength="44.8658" x="145.8698" y="224.6348">EvConfig</text></g><!--link Configuring to Idle--><g id="link_Configuring_Idle"><path d="M194.4449,242.7472 C193.9686,232.413 192.8713,222.1638 190.9491,212.3059 C189.9795,207.3132 190.1454,206.9013 188.2827,202.0872 " fill="none" id="Configuring-to-Idle" style="stroke:#181818;stroke-width:0.8505527548701265;"/><polygon fill="#181818" points="186.4412,197.3277,186.0305,205.6946,187.9758,201.2939,192.3765,203.2392,186.4412,197.3277" style="stroke:#181818;stroke-width:0.8505527548701265;"/><text fill="#000000" font-family="sans-serif" font-size="11.0572" lengthAdjust="spacing" textLength="44.8658" x="193.5008" y="224.6348">EvConfig</text></g><!--link *start* to NotShooting--><g id="link_*start*_NotShooting"><path d="M175.2139,22.1994 C175.2139,31.9978 175.2139,45.2664 175.2139,68.0187 " fill="none" id="*start*-to-NotShooting" style="stroke:#181818;stroke-width:0.8505527548701265;"/><polygon fill="#181818" points="175.2139,73.122,178.6161,65.467,175.2139,68.8693,171.8117,65.467,175.2139,73.122" style="stroke:#181818;stroke-width:0.8505527548701265;"/></g><!--SRC=[fP31JuCm5CRl_1Nli6I9IRiDDbrsyB9eucKnadYnPYdq0TrQIg20YTd_Rc5Yc7fI3j3tlU_tFlgcS5yQ3ObKk05XOYfAdjXgLYYUsrghMR0cbUKMoJoWXHEyAMoDrZmNe6JkeEs6jQOyibJQh8xsWIWOwaeSsO4tdAtfOkNlhvUHj2oIUIzIV4CW1rv-iTOOLR4-axWCDgIJ1VNd_fBUqCvDpBSmLkk8apFS7xKWHS7SDPZKAKqnnzBzkc0JYxgOxAic1MBxTvpnia8BjKtM_vjwtaeLSuKGhERGIc4px-Ng5GYvXPsnOMQCbNdgUVqYnnAyUm23zK4eT6NtwUkjoHEPrcNdsy1TSwwTOzmOmB7ZD2IDZUEa7RRFNDKOeiBOIfExtW_jmlbOOYEnxLC6RGGDxL-7Nq1FU70gYZ_18MySwT3FHNuRq5tHFM7NN82RrfzyfxgDd3u0]--></g></svg>