<svg xmlns="http://www.w3.org/2000/svg" xmlns:xlink="http://www.w3.org/1999/xlink" contentStyleType="text/css" height="631.5687px" preserveAspectRatio="none" style="width:600px;height:631px;background:#FFFFFF;" version="1.1" viewBox="0 0 600 631" width="600.4282px" zoomAndPan="magnify"><defs/><g><ellipse cx="370.2316" cy="31.1405" fill="#222222" rx="9.7314" ry="9.7314" style="stroke:#222222;stroke-width:0.9731413001167771;"/><g id="State1"><rect fill="#F1F1F1" height="48.6571" rx="12.1643" ry="12.1643" style="stroke:#181818;stroke-width:0.48657065005838857;" width="58.8513" x="414.023" y="6.812"/><line style="stroke:#181818;stroke-width:0.48657065005838857;" x1="414.023" x2="472.8743" y1="33.6798" y2="33.6798"/><text fill="#000000" font-family="sans-serif" font-size="13.624" lengthAdjust="spacing" textLength="39.3885" x="423.7544" y="25.8206">State1</text></g><g id="State2"><rect fill="#F1F1F1" height="48.6571" rx="12.1643" ry="12.1643" style="stroke:#181818;stroke-width:0.48657065005838857;" width="58.8513" x="244.6964" y="131.3741"/><line style="stroke:#181818;stroke-width:0.48657065005838857;" x1="244.6964" x2="303.5477" y1="158.2419" y2="158.2419"/><text fill="#000000" font-family="sans-serif" font-size="13.624" lengthAdjust="spacing" textLength="39.3885" x="254.4278" y="150.3826">State2</text></g><ellipse cx="282.6489" cy="615.0253" fill="none" rx="10.7046" ry="10.7046" style="stroke:#222222;stroke-width:0.9731413001167771;"/><ellipse cx="282.6489" cy="615.0253" fill="#222222" rx="5.8388" ry="5.8388" style="stroke:#222222;stroke-width:0.9731413001167771;"/><path d="M146.4091,255.9362 L401.4482,255.9362 A12.1643,12.1643 0 0 1 413.6124,268.1004 L413.6124,282.804 L134.2448,282.804 L134.2448,268.1004 A12.1643,12.1643 0 0 1 146.4091,255.9362 " fill="#F1F1F1" style="stroke:#F1F1F1;stroke-width:0.9731413001167771;"/><rect fill="none" height="272.0994" rx="12.1643" ry="12.1643" style="stroke:#181818;stroke-width:0.48657065005838857;" width="279.3676" x="134.2448" y="255.9362"/><line style="stroke:#181818;stroke-width:0.48657065005838857;" x1="134.2448" x2="413.6124" y1="282.804" y2="282.804"/><text fill="#000000" font-family="sans-serif" font-size="13.624" lengthAdjust="spacing" textLength="39.3885" x="254.2344" y="274.9447">State3</text><g id="State3.long1"><rect fill="#F1F1F1" height="68.424" rx="12.1643" ry="12.1643" style="stroke:#181818;stroke-width:0.48657065005838857;" width="173.9633" x="145.9225" y="348.9776"/><line style="stroke:#181818;stroke-width:0.48657065005838857;" x1="145.9225" x2="319.8858" y1="392.9818" y2="392.9818"/><text fill="#000000" font-family="sans-serif" font-size="13.624" lengthAdjust="spacing" textLength="154.5004" x="155.654" y="367.9862">Accumulate Enough Data</text><text fill="#000000" font-family="sans-serif" font-size="13.624" lengthAdjust="spacing" textLength="106.0315" x="179.8884" y="385.1226">Long State Name</text><text fill="#000000" font-family="sans-serif" font-size="11.6777" lengthAdjust="spacing" textLength="53.2225" x="150.7882" y="409.97">Just a test</text></g><ellipse cx="233.0187" cy="303.24" fill="#222222" rx="9.7314" ry="9.7314" style="stroke:#222222;stroke-width:0.9731413001167771;"/><g id="State3.ProcessData"><rect fill="#F1F1F1" height="48.6571" rx="12.1643" ry="12.1643" style="stroke:#181818;stroke-width:0.48657065005838857;" width="97.4548" x="184.3616" y="469.6471"/><line style="stroke:#181818;stroke-width:0.48657065005838857;" x1="184.3616" x2="281.8164" y1="496.5149" y2="496.5149"/><text fill="#000000" font-family="sans-serif" font-size="13.624" lengthAdjust="spacing" textLength="77.992" x="194.093" y="488.6557">ProcessData</text></g><!--link *start*State3 to long1--><g id="link_*start*State3_long1"><path d="M233.0187,313.1465 C233.0187,321.934 233.0187,330.05 233.0187,343.1193 " fill="none" id="*start*State3-to-long1" style="stroke:#181818;stroke-width:0.9731413001167771;"/><polygon fill="#181818" points="233.0187,348.9581,236.9112,340.1999,233.0187,344.0924,229.1261,340.1999,233.0187,348.9581" style="stroke:#181818;stroke-width:0.9731413001167771;"/></g><!--link long1 to long1--><g id="link_long1_long1"><path d="M320.3873,374.8826 C330.8194,376.3618 337.6314,379.0866 337.6314,383.0375 C337.6314,386.9885 336.6004,388.8936 326.1683,390.3728 " fill="none" id="long1-to-long1" style="stroke:#181818;stroke-width:0.9731413001167771;"/><polygon fill="#181818" points="320.3873,391.1925,329.6053,393.8169,325.2048,390.5094,328.5124,386.1089,320.3873,391.1925" style="stroke:#181818;stroke-width:0.9731413001167771;"/><text fill="#000000" font-family="sans-serif" font-size="12.6508" lengthAdjust="spacing" textLength="55.5451" x="343.4702" y="388.3851">New Data</text></g><!--link long1 to ProcessData--><g id="link_long1_ProcessData"><path d="M233.0187,417.3018 C233.0187,434.2053 233.0187,448.491 233.0187,463.7401 " fill="none" id="long1-to-ProcessData" style="stroke:#181818;stroke-width:0.9731413001167771;"/><polygon fill="#181818" points="233.0187,469.579,236.9112,460.8207,233.0187,464.7133,229.1261,460.8207,233.0187,469.579" style="stroke:#181818;stroke-width:0.9731413001167771;"/><text fill="#000000" font-family="sans-serif" font-size="12.6508" lengthAdjust="spacing" textLength="73.8542" x="233.9918" y="448.7198">Enough Data</text></g><!--link *start* to State1--><g id="link_*start*_State1"><path d="M380.2063,31.1405 C391.4461,31.1405 396.847,31.1405 408.0868,31.1405 " fill="none" id="*start*-to-State1" style="stroke:#181818;stroke-width:0.9731413001167771;"/><polygon fill="#181818" points="413.9257,31.1405,405.1674,27.248,409.0599,31.1405,405.1674,35.0331,413.9257,31.1405" style="stroke:#181818;stroke-width:0.9731413001167771;"/></g><!--link State1 to State2--><g id="link_State1_State2"><path d="M413.7213,53.4741 C382.7365,75.905 339.0228,107.5624 308.0574,129.9836 " fill="none" id="State1-to-State2" style="stroke:#181818;stroke-width:0.9731413001167771;"/><polygon fill="#181818" points="303.3281,133.4079,312.7049,131.4243,307.2692,130.5543,308.1392,125.1186,303.3281,133.4079" style="stroke:#181818;stroke-width:0.9731413001167771;"/><text fill="#000000" font-family="sans-serif" font-size="12.6508" lengthAdjust="spacing" textLength="63.3036" x="369.2585" y="98.7691">Succeeded</text></g><!--link State1 to *end*--><g id="link_State1_*end*"><path d="M455.0993,55.4885 C491.6602,131.0627 594.1612,372.8396 493.8206,528.4157 C447.6158,600.0681 335.3947,611.4565 299.1939,613.3736 " fill="none" id="State1-to-*end*" style="stroke:#181818;stroke-width:0.9731413001167771;"/><polygon fill="#181818" points="293.3632,613.6824,302.315,617.1063,298.2221,613.4251,301.9033,609.3321,293.3632,613.6824" style="stroke:#181818;stroke-width:0.9731413001167771;"/><text fill="#000000" font-family="sans-serif" font-size="12.6508" lengthAdjust="spacing" textLength="44.3088" x="518.1491" y="223.3312">Aborted</text></g><!--link State2 to State3--><g id="link_State2_State3"><path d="M273.8906,180.4496 C273.8906,199.0852 273.8906,220.8155 273.8906,249.9124 " fill="none" id="State2-to-State3" style="stroke:#181818;stroke-width:0.9731413001167771;"/><polygon fill="#181818" points="273.8906,255.7513,277.7832,246.993,273.8906,250.8856,269.9981,246.993,273.8906,255.7513" style="stroke:#181818;stroke-width:0.9731413001167771;"/><text fill="#000000" font-family="sans-serif" font-size="12.6508" lengthAdjust="spacing" textLength="63.3036" x="274.8638" y="223.3312">Succeeded</text></g><!--link State2 to *end*--><g id="link_State2_*end*"><path d="M244.6575,161.1619 C198.4332,170.0175 109.7801,194.492 71.4772,255.9362 C7.4153,358.7096 5.8388,426.6446 71.4772,528.4157 C117.682,600.0681 229.9031,611.4565 266.1039,613.3736 " fill="none" id="State2-to-*end*" style="stroke:#181818;stroke-width:0.9731413001167771;"/><polygon fill="#181818" points="271.9346,613.6824,263.3944,609.3321,267.0757,613.4251,262.9827,617.1063,271.9346,613.6824" style="stroke:#181818;stroke-width:0.9731413001167771;"/><text fill="#000000" font-family="sans-serif" font-size="12.6508" lengthAdjust="spacing" textLength="44.3088" x="72.4504" y="397.5235">Aborted</text></g><!--link State3 to State3--><g id="link_State3_State3"><path d="M413.6045,362.8649 C433.914,367.5165 447.5963,377.2869 447.5963,392.1759 C447.5963,407.065 439.6054,415.5318 419.296,420.1834 " fill="none" id="State3-to-State3" style="stroke:#181818;stroke-width:0.9731413001167771;"/><polygon fill="#181818" points="413.6045,421.487,423.0108,423.3259,418.3474,420.4007,421.2727,415.7373,413.6045,421.487" style="stroke:#181818;stroke-width:0.9731413001167771;"/><text fill="#000000" font-family="sans-serif" font-size="12.6508" lengthAdjust="spacing" textLength="34.4562" x="453.4352" y="397.5235">Failed</text></g><!--link State3 to *end*--><g id="link_State3_*end*"><path d="M178.8828,528.8536 C176.9074,544.8521 179.564,560.6267 189.2273,575.1265 C208.0381,603.3379 245.779,610.5353 266.069,612.6567 " fill="none" id="State3-to-*end*" style="stroke:#181818;stroke-width:0.9731413001167771;"/><polygon fill="#181818" points="271.8762,613.2639,263.5702,608.4817,267.0369,612.7579,262.7606,616.2246,271.8762,613.2639" style="stroke:#181818;stroke-width:0.9731413001167771;"/><text fill="#000000" font-family="sans-serif" font-size="12.6508" lengthAdjust="spacing" textLength="142.0563" x="190.2005" y="571.7158">Succeeded / Save Result</text></g><!--link State3 to *end*--><g id="link_State3_*end*"><path d="M329.457,528.4741 C332.1234,538.225 334.4103,547.9953 336.1717,557.61 C337.573,565.2686 339.7042,568.188 336.1717,575.1265 C326.9949,593.1491 310.4979,602.4716 297.7303,607.9893 " fill="none" id="State3-to-*end*-1" style="stroke:#181818;stroke-width:0.9731413001167771;"/><polygon fill="#181818" points="292.3706,610.3056,301.9544,610.4043,296.837,608.3753,298.866,603.258,292.3706,610.3056" style="stroke:#181818;stroke-width:0.9731413001167771;"/><text fill="#000000" font-family="sans-serif" font-size="12.6508" lengthAdjust="spacing" textLength="44.3088" x="338.1179" y="571.7158">Aborted</text></g><!--SRC=[fL9DJyCm3BttLrW82GafNLV6XtP0GdmS44A87GcQtCRh2abJDSw6XFZlf2qT6t3Z4aVFx_dPJWxWfh465gMcAIYRnwh11RjHhR5YR_HeaWZ7o2IIuxWEG7G0bzOOh1JeiWgYowbSs-PL5YKlVJO_KhKauzIhVC4LohDuV9pEJoPPoJ8hgmwCwOr0l62pqRArsidEKmGFERYBSPmcwIG-ZLksi3_Cf3SPYbxSNOqITIt36B8qHLnGHKreNSbz9bFlpzsg0C7TcI-nSSJWUN7slwhzLboEck0aIM1TAbv6qTFXCuXpcBMx6qTz034WAKnXvlESI97QphQoALnajk4XaNxBZdxBqZzatOCDYlS8e0VsBlBS6w_R-tLbVR64AsIKrPsjYfuEzsXe3z213jWuIBiOQjzwnu30v3YWtNJ1TvUrGGB_djPTzPtaGsDpSgx50sMhX-WZ-cftPzOR3FzIRQVwGJSxW17CS4NmICvh_aqSDl89]--></g></svg>