<svg xmlns="http://www.w3.org/2000/svg" xmlns:xlink="http://www.w3.org/1999/xlink" contentStyleType="text/css" height="615px" preserveAspectRatio="none" style="width:683px;height:615px;background:#FFFFFF;" version="1.1" viewBox="0 0 683 615" width="683px" zoomAndPan="magnify"><defs/><g><!--cluster State3--><g id="cluster_State3"><path d="M19.5,257 L382.5,257 A12.5,12.5 0 0 1 395,269.5 L395,279.6094 L7,279.6094 L7,269.5 A12.5,12.5 0 0 1 19.5,257 " fill="#F1F1F1" style="stroke:#F1F1F1;stroke-width:1.0;"/><rect fill="none" height="352" rx="12.5" ry="12.5" style="stroke:#181818;stroke-width:0.5;" width="388" x="7" y="257"/><line style="stroke:#181818;stroke-width:0.5;" x1="7" x2="395" y1="279.6094" y2="279.6094"/><text fill="#000000" font-family="sans-serif" font-size="14" lengthAdjust="spacing" textLength="40.4756" x="181" y="275.5332">State3</text></g><g id="State3.long1"><rect fill="#F1F1F1" height="52.7031" rx="12.5" ry="12.5" style="stroke:#181818;stroke-width:0.5;" width="178.7646" x="31.5" y="404"/><line style="stroke:#181818;stroke-width:0.5;" x1="31.5" x2="210.2646" y1="431.6094" y2="431.6094"/><text fill="#000000" font-family="sans-serif" font-size="14" lengthAdjust="spacing" textLength="158.7646" x="41.5" y="423.5332">Accumulate Enough Data</text><text fill="#000000" font-family="sans-serif" font-size="12" lengthAdjust="spacing" textLength="54.6914" x="36.5" y="449.0664">Just a test</text></g><ellipse cx="241" cy="312" fill="#222222" rx="10" ry="10" style="stroke:#222222;stroke-width:1.0;"/><g id="State3.ProcessData"><rect fill="#F1F1F1" height="50" rx="12.5" ry="12.5" style="stroke:#181818;stroke-width:0.5;" width="100.1445" x="71" y="535"/><line style="stroke:#181818;stroke-width:0.5;" x1="71" x2="171.1445" y1="562.6094" y2="562.6094"/><text fill="#000000" font-family="sans-serif" font-size="14" lengthAdjust="spacing" textLength="80.1445" x="81" y="554.5332">ProcessData</text></g><ellipse cx="111" cy="312" fill="#F1F1F1" rx="11" ry="11" style="stroke:#181818;stroke-width:0.5;"/><text fill="#000000" font-family="sans-serif" font-size="14" lengthAdjust="spacing" textLength="10.1104" x="105.9448" y="317.7285">H</text><ellipse cx="185" cy="312" fill="#F1F1F1" rx="11" ry="11" style="stroke:#181818;stroke-width:0.5;"/><text fill="#000000" font-family="sans-serif" font-size="14" lengthAdjust="spacing" textLength="15.5586" x="177.2207" y="317.7285">H*</text><ellipse cx="518" cy="32" fill="#222222" rx="10" ry="10" style="stroke:#222222;stroke-width:1.0;"/><g id="State1"><rect fill="#F1F1F1" height="50" rx="12.5" ry="12.5" style="stroke:#181818;stroke-width:0.5;" width="60.4756" x="563" y="7"/><line style="stroke:#181818;stroke-width:0.5;" x1="563" x2="623.4756" y1="34.6094" y2="34.6094"/><text fill="#000000" font-family="sans-serif" font-size="14" lengthAdjust="spacing" textLength="40.4756" x="573" y="26.5332">State1</text></g><g id="State2"><rect fill="#F1F1F1" height="50" rx="12.5" ry="12.5" style="stroke:#181818;stroke-width:0.5;" width="60.4756" x="331" y="135"/><line style="stroke:#181818;stroke-width:0.5;" x1="331" x2="391.4756" y1="162.6094" y2="162.6094"/><text fill="#000000" font-family="sans-serif" font-size="14" lengthAdjust="spacing" textLength="40.4756" x="341" y="154.5332">State2</text></g><ellipse cx="529" cy="430.5" fill="none" rx="11" ry="11" style="stroke:#222222;stroke-width:1.0;"/><ellipse cx="529" cy="430.5" fill="#222222" rx="6" ry="6" style="stroke:#222222;stroke-width:1.0;"/><!--link *start* to State1--><g id="link_*start*_State1"><path d="M528.25,32 C539.8,32 545.35,32 556.9,32 " fill="none" id="*start*-to-State1" style="stroke:#181818;stroke-width:1.0;"/><polygon fill="#181818" points="562.9,32,553.9,28,557.9,32,553.9,36,562.9,32" style="stroke:#181818;stroke-width:1.0;"/></g><!--link State1 to State2--><g id="link_State1_State2"><path d="M562.67,49.47 C518.21,73.62 441.0724,115.5061 396.6124,139.6561 " fill="none" id="State1-to-State2" style="stroke:#181818;stroke-width:1.0;"/><polygon fill="#181818" points="391.34,142.52,401.1579,141.7391,395.7337,140.1334,397.3393,134.7092,391.34,142.52" style="stroke:#181818;stroke-width:1.0;"/><text fill="#000000" font-family="sans-serif" font-size="13" lengthAdjust="spacing" textLength="65.0508" x="491" y="101.4951">Succeeded</text></g><!--link State1 to *end*--><g id="link_State1_*end*"><path d="M599.73,57.3 C612.77,107.48 639.29,226.23 628,326 C625.54,347.75 629.66,356.15 617,374 C597.05,402.14 563.5113,417.1191 544.9113,423.9591 " fill="none" id="State1-to-*end*" style="stroke:#181818;stroke-width:1.0;"/><polygon fill="#181818" points="539.28,426.03,549.1075,426.6779,543.9727,424.3043,546.3464,419.1695,539.28,426.03" style="stroke:#181818;stroke-width:1.0;"/><text fill="#000000" font-family="sans-serif" font-size="13" lengthAdjust="spacing" textLength="45.5317" x="630" y="229.4951">Aborted</text></g><!--link State2 to State3--><g id="link_State2_State3"><path d="M363.76,185.32 C364.68,199.43 364.68,217.43 361,233 C359.9213,237.5675 358.5319,242.1727 356.9229,246.7394 C356.1185,249.0227 355.2591,251.2964 354.3562,253.551 C353.9048,254.6784 355.7777,250.274 355.3059,251.3905 " fill="none" id="State2-to-State3" style="stroke:#181818;stroke-width:1.0;"/><polygon fill="#181818" points="352.9707,256.9174,360.1582,250.1839,354.9167,252.3117,352.789,247.0702,352.9707,256.9174" style="stroke:#181818;stroke-width:1.0;"/><text fill="#000000" font-family="sans-serif" font-size="13" lengthAdjust="spacing" textLength="65.0508" x="364" y="229.4951">Succeeded</text></g><!--link State3 to State2--><g id="link_State3_State2"><path d="M316.1816,256.7589 C316.1661,256.5845 316.1507,256.4102 316.1354,256.236 C316.1047,255.8876 316.0742,255.5396 316.044,255.1922 C315.9835,254.4973 315.924,253.8045 315.8655,253.1143 C315.7485,251.7339 315.6357,250.3641 315.5277,249.0096 C315.0957,243.5917 314.7414,238.4185 314.5116,233.7917 C314.0519,224.5381 314.09,217.47 315,215 C319.04,204.02 322.4157,198.2183 330.0957,189.6483 " fill="none" id="State3-to-State2" style="stroke:#181818;stroke-width:1.0;"/><polygon fill="#181818" points="334.1,185.18,325.1147,189.2129,330.7631,188.9036,331.0725,194.552,334.1,185.18" style="stroke:#181818;stroke-width:1.0;"/><text fill="#000000" font-family="sans-serif" font-size="13" lengthAdjust="spacing" textLength="36.8608" x="316" y="229.4951">Pause</text></g><!--link State2 to *end*--><g id="link_State2_*end*"><path d="M391.32,175.28 C443.96,202.03 550.42,265.31 590,356 C603.2,386.25 564.3176,411.0631 543.9876,421.8731 " fill="none" id="State2-to-*end*" style="stroke:#181818;stroke-width:1.0;"/><polygon fill="#181818" points="538.69,424.69,548.5144,423.9964,543.1047,422.3426,544.7585,416.9329,538.69,424.69" style="stroke:#181818;stroke-width:1.0;"/><text fill="#000000" font-family="sans-serif" font-size="13" lengthAdjust="spacing" textLength="45.5317" x="574" y="317.4951">Aborted</text></g><!--link *start*State3 to long1--><g id="link_*start*State3_long1"><path d="M233.17,318.42 C222.16,326.2 201.71,341.21 186,356 C170.12,370.94 157.7259,384.7231 145.4459,399.3631 " fill="none" id="*start*State3-to-long1" style="stroke:#181818;stroke-width:1.0;"/><polygon fill="#181818" points="141.59,403.96,150.4385,399.6352,144.8033,400.1292,144.3092,394.494,141.59,403.96" style="stroke:#181818;stroke-width:1.0;"/></g><!--link long1 to long1--><g id="link_long1_long1"><path d="M210.53,418.79 C230.73,419.85 245.5,423.75 245.5,430.5 C245.5,437.25 236.7218,440.8356 216.5218,441.8956 " fill="none" id="long1-to-long1" style="stroke:#181818;stroke-width:1.0;"/><polygon fill="#181818" points="210.53,442.21,219.7272,445.7329,215.5231,441.948,219.308,437.7439,210.53,442.21" style="stroke:#181818;stroke-width:1.0;"/><text fill="#000000" font-family="sans-serif" font-size="13" lengthAdjust="spacing" textLength="57.0781" x="251.5" y="435.9951">New Data</text></g><!--link long1 to ProcessData--><g id="link_long1_ProcessData"><path d="M121,457.3 C121,480 121,506.8 121,528.96 " fill="none" id="long1-to-ProcessData" style="stroke:#181818;stroke-width:1.0;"/><polygon fill="#181818" points="121,534.96,125,525.96,121,529.96,117,525.96,121,534.96" style="stroke:#181818;stroke-width:1.0;"/><text fill="#000000" font-family="sans-serif" font-size="13" lengthAdjust="spacing" textLength="75.8926" x="122" y="501.4951">Enough Data</text></g><!--link State2 to *historical*State3--><g id="link_State2_*historical*State3"><path d="M330.77,160.92 C286.63,162.38 204.24,171.3 153,215 C126.15,237.9 116.8935,275.3079 113.4935,294.9479 " fill="none" id="State2-to-*historical*State3" style="stroke:#181818;stroke-width:1.0;"/><polygon fill="#181818" points="112.47,300.86,117.9466,292.6742,113.3229,295.9333,110.0638,291.3096,112.47,300.86" style="stroke:#181818;stroke-width:1.0;"/><text fill="#000000" font-family="sans-serif" font-size="13" lengthAdjust="spacing" textLength="48.4072" x="154" y="229.4951">Resume</text></g><!--link State2 to *deephistory*State3--><g id="link_State2_*deephistory*State3"><path d="M330.98,166.17 C300.83,172.77 254.7,186.88 225,215 C199.57,239.09 190.7168,275.8851 187.4368,295.1551 " fill="none" id="State2-to-*deephistory*State3" style="stroke:#181818;stroke-width:1.0;"/><polygon fill="#181818" points="186.43,301.07,191.8835,292.8688,187.269,296.1409,183.9969,291.5264,186.43,301.07" style="stroke:#181818;stroke-width:1.0;"/><text fill="#000000" font-family="sans-serif" font-size="13" lengthAdjust="spacing" textLength="79.4854" x="226" y="229.4951">DeepResume</text></g><!--link State3 to State3--><g id="link_State3_State3"><path d="M378,311.7 C389.87,299 413.08,299.1 413.08,312 C413.08,324.9 393.967,329.3835 382.097,316.6835 " fill="none" id="State3-to-State3" style="stroke:#181818;stroke-width:1.0;"/><polygon fill="#181818" points="378,312.3,381.2232,321.6065,381.4142,315.9529,387.0678,316.1439,378,312.3" style="stroke:#181818;stroke-width:1.0;"/><text fill="#000000" font-family="sans-serif" font-size="13" lengthAdjust="spacing" textLength="35.4072" x="419.08" y="317.4951">Failed</text></g><!--link State3 to *end*--><g id="link_State3_*end*"><path d="M395.3176,350.6921 C395.4603,350.7694 395.6029,350.8467 395.7453,350.924 C396.0303,351.0786 396.315,351.2332 396.5993,351.3878 C397.1679,351.6968 397.7351,352.0057 398.3007,352.3144 C400.5633,353.5489 402.8006,354.7794 405,356 C448.77,380.28 494.7233,408.3302 514.9733,420.8202 " fill="none" id="State3-to-*end*" style="stroke:#181818;stroke-width:1.0;"/><polygon fill="#181818" points="520.08,423.97,514.5197,415.8408,515.8244,421.3452,510.32,422.6498,520.08,423.97" style="stroke:#181818;stroke-width:1.0;"/><text fill="#000000" font-family="sans-serif" font-size="13" lengthAdjust="spacing" textLength="145.9771" x="436" y="370.4951">Succeeded / Save Result</text></g><!--link State3 to *end*--><g id="link_State3_*end*"><path d="M395.5911,402.1941 C395.8379,402.3028 396.085,402.4111 396.3322,402.5189 C397.321,402.9503 398.3126,403.3747 399.3066,403.7924 C401.2947,404.6277 403.2923,405.4359 405.2968,406.2179 C409.3058,407.7818 413.3421,409.2406 417.3835,410.6015 C425.4662,413.3233 433.5691,415.6531 441.5138,417.6475 C473.2925,425.625 496.5493,427.9002 511.8493,428.7552 " fill="none" id="State3-to-*end*-1" style="stroke:#181818;stroke-width:1.0;"/><polygon fill="#181818" points="517.84,429.09,509.0772,424.5941,512.8478,428.811,508.6308,432.5816,517.84,429.09" style="stroke:#181818;stroke-width:1.0;"/><text fill="#000000" font-family="sans-serif" font-size="13" lengthAdjust="spacing" textLength="45.5317" x="351" y="370.4951">Aborted</text></g><!--SRC=[RP0n2uCm48LtVyNXA4YfRWu5mHRfKAIEuf36mnQY5fEqG-b_RwB6njefuRtttHsly4hmTv0B8d3hZ0_uHWaWWbnIYbXXPRk5mYA8BrqlZ15yiN2D1NymhWr3l1o0KN1ZIcKZcVxlsqxMLqY882uG3gnhwwrA3gyQTPHS0061N2XLZzThbgbPKVaJFeTX2pFhEugSQrr5h9KgPH-VbX6SaSi6dRSpdRseAYEIuxgD8lKKcI3U9_gNrNqTo8sPiaAhhBb7s41E7ZXSmCGwEBNw0G00]--></g></svg>