<svg xmlns="http://www.w3.org/2000/svg" xmlns:xlink="http://www.w3.org/1999/xlink" contentStyleType="text/css" height="627px" preserveAspectRatio="none" style="width:306px;height:627px;background:#FFFFFF;" version="1.1" viewBox="0 0 306 627" width="306px" zoomAndPan="magnify"><defs/><g><ellipse cx="150" cy="16" fill="#222222" rx="10" ry="10" style="stroke:#222222;stroke-width:1.0;"/><path d="M19.5,86 L280.1689,86 A12.5,12.5 0 0 1 292.6689,98.5 L292.6689,113.6094 L7,113.6094 L7,98.5 A12.5,12.5 0 0 1 19.5,86 " fill="#F1F1F1" style="stroke:#F1F1F1;stroke-width:1.0;"/><rect fill="none" height="535.6094" rx="12.5" ry="12.5" style="stroke:#181818;stroke-width:0.5;" width="285.6689" x="7" y="86"/><line style="stroke:#181818;stroke-width:0.5;" x1="7" x2="292.6689" y1="113.6094" y2="113.6094"/><text fill="#000000" font-family="sans-serif" font-size="14" lengthAdjust="spacing" textLength="38.124" x="130.7725" y="105.5332">Active</text><ellipse cx="28" cy="150.6094" fill="#222222" rx="10" ry="10" style="stroke:#222222;stroke-width:1.0;"/><g id="Active.NumLockOff"><rect fill="#F1F1F1" height="50" rx="12.5" ry="12.5" style="stroke:#181818;stroke-width:0.5;" width="97.7998" x="56" y="125.6094"/><line style="stroke:#181818;stroke-width:0.5;" x1="56" x2="153.7998" y1="153.2188" y2="153.2188"/><text fill="#000000" font-family="sans-serif" font-size="14" lengthAdjust="spacing" textLength="77.7998" x="66" y="145.1426">NumLockOff</text></g><g id="Active.NumLockOn"><rect fill="#F1F1F1" height="50" rx="12.5" ry="12.5" style="stroke:#181818;stroke-width:0.5;" width="97.8066" x="56" y="229.6094"/><line style="stroke:#181818;stroke-width:0.5;" x1="56" x2="153.8066" y1="257.2188" y2="257.2188"/><text fill="#000000" font-family="sans-serif" font-size="14" lengthAdjust="spacing" textLength="77.8066" x="66" y="249.1426">NumLockOn</text></g><!--link *start*Active to NumLockOff--><g id="link_*start*Active_NumLockOff"><path d="M38.23,150.6094 C44.14,150.6094 44.05,150.6094 49.96,150.6094 " fill="none" id="*start*Active-to-NumLockOff" style="stroke:#181818;stroke-width:1.0;"/><polygon fill="#181818" points="55.96,150.6094,46.96,146.6094,50.96,150.6094,46.96,154.6094,55.96,150.6094" style="stroke:#181818;stroke-width:1.0;"/></g><!--link NumLockOff to NumLockOn--><g id="link_NumLockOff_NumLockOn"><path d="M55.93,171.9894 C47.55,177.7194 39.96,184.8494 35,193.6094 C26.01,209.4894 33.7648,220.0328 50.8348,230.2728 " fill="none" id="NumLockOff-to-NumLockOn" style="stroke:#181818;stroke-width:1.0;"/><polygon fill="#181818" points="55.98,233.3594,50.3199,225.2994,51.6923,230.7873,46.2045,232.1597,55.98,233.3594" style="stroke:#181818;stroke-width:1.0;"/><text fill="#000000" font-family="sans-serif" font-size="13" lengthAdjust="spacing" textLength="117.7681" x="36" y="208.1045">EvNumLockPressed</text></g><!--link NumLockOn to NumLockOff--><g id="link_NumLockOn_NumLockOff"><path d="M141.59,229.5794 C152.44,219.3094 160.01,206.6794 154,193.6094 C151,187.0994 150.6785,185.4561 145.5285,180.2961 " fill="none" id="NumLockOn-to-NumLockOff" style="stroke:#181818;stroke-width:1.0;"/><polygon fill="#181818" points="141.29,176.0494,144.8166,185.2452,144.8221,179.5883,150.479,179.5938,141.29,176.0494" style="stroke:#181818;stroke-width:1.0;"/><text fill="#000000" font-family="sans-serif" font-size="13" lengthAdjust="spacing" textLength="117.7681" x="158" y="208.1045">EvNumLockPressed</text></g><line style="stroke:#181818;stroke-width:1.5;stroke-dasharray:8.0,10.0;" x1="12" x2="285.6689" y1="284.6094" y2="284.6094"/><ellipse cx="28" cy="316.6094" fill="#222222" rx="10" ry="10" style="stroke:#222222;stroke-width:1.0;"/><g id="Active.CONC11.CapsLockOff"><rect fill="#F1F1F1" height="50" rx="12.5" ry="12.5" style="stroke:#181818;stroke-width:0.5;" width="100.9238" x="56.5" y="291.6094"/><line style="stroke:#181818;stroke-width:0.5;" x1="56.5" x2="157.4238" y1="319.2188" y2="319.2188"/><text fill="#000000" font-family="sans-serif" font-size="14" lengthAdjust="spacing" textLength="80.9238" x="66.5" y="311.1426">CapsLockOff</text></g><g id="Active.CONC11.CapsLockOn"><rect fill="#F1F1F1" height="50" rx="12.5" ry="12.5" style="stroke:#181818;stroke-width:0.5;" width="100.9307" x="56.5" y="395.6094"/><line style="stroke:#181818;stroke-width:0.5;" x1="56.5" x2="157.4307" y1="423.2188" y2="423.2188"/><text fill="#000000" font-family="sans-serif" font-size="14" lengthAdjust="spacing" textLength="80.9307" x="66.5" y="415.1426">CapsLockOn</text></g><!--link *start*CONC11 to CapsLockOff--><g id="link_*start*CONC11_CapsLockOff"><path d="M38.18,316.6094 C44.28,316.6094 44.37,316.6094 50.46,316.6094 " fill="none" id="*start*CONC11-to-CapsLockOff" style="stroke:#181818;stroke-width:1.0;"/><polygon fill="#181818" points="56.46,316.6094,47.46,312.6094,51.46,316.6094,47.46,320.6094,56.46,316.6094" style="stroke:#181818;stroke-width:1.0;"/></g><!--link CapsLockOff to CapsLockOn--><g id="link_CapsLockOff_CapsLockOn"><path d="M56.17,338.6094 C48.1,344.2194 40.82,351.1494 36,359.6094 C27.05,375.3094 34.381,385.6625 51.241,395.8225 " fill="none" id="CapsLockOff-to-CapsLockOn" style="stroke:#181818;stroke-width:1.0;"/><polygon fill="#181818" points="56.38,398.9194,50.736,390.8481,52.0975,396.3387,46.6069,397.7002,56.38,398.9194" style="stroke:#181818;stroke-width:1.0;"/><text fill="#000000" font-family="sans-serif" font-size="13" lengthAdjust="spacing" textLength="120.6689" x="37" y="374.1045">EvCapsLockPressed</text></g><!--link CapsLockOn to CapsLockOff--><g id="link_CapsLockOn_CapsLockOff"><path d="M145.38,395.4494 C156.5,385.2494 164.18,372.7194 158,359.6094 C154.87,352.9694 154.4243,351.1991 149.0543,346.0091 " fill="none" id="CapsLockOn-to-CapsLockOff" style="stroke:#181818;stroke-width:1.0;"/><polygon fill="#181818" points="144.74,341.8394,148.4317,350.9702,148.3353,345.3141,153.9913,345.2177,144.74,341.8394" style="stroke:#181818;stroke-width:1.0;"/><text fill="#000000" font-family="sans-serif" font-size="13" lengthAdjust="spacing" textLength="120.6689" x="161" y="374.1045">EvCapsLockPressed</text></g><line style="stroke:#181818;stroke-width:1.5;stroke-dasharray:8.0,10.0;" x1="12" x2="285.6689" y1="450.6094" y2="450.6094"/><ellipse cx="28" cy="482.6094" fill="#222222" rx="10" ry="10" style="stroke:#222222;stroke-width:1.0;"/><g id="Active.CONC19.ScrollLockOff"><rect fill="#F1F1F1" height="50" rx="12.5" ry="12.5" style="stroke:#181818;stroke-width:0.5;" width="103.248" x="56.5" y="457.6094"/><line style="stroke:#181818;stroke-width:0.5;" x1="56.5" x2="159.748" y1="485.2188" y2="485.2188"/><text fill="#000000" font-family="sans-serif" font-size="14" lengthAdjust="spacing" textLength="83.248" x="66.5" y="477.1426">ScrollLockOff</text></g><g id="Active.CONC19.ScrollLockOn"><rect fill="#F1F1F1" height="50" rx="12.5" ry="12.5" style="stroke:#181818;stroke-width:0.5;" width="103.2549" x="56.5" y="561.6094"/><line style="stroke:#181818;stroke-width:0.5;" x1="56.5" x2="159.7549" y1="589.2188" y2="589.2188"/><text fill="#000000" font-family="sans-serif" font-size="14" lengthAdjust="spacing" textLength="83.2549" x="66.5" y="581.1426">ScrollLockOn</text></g><!--link *start*CONC19 to ScrollLockOff--><g id="link_*start*CONC19_ScrollLockOff"><path d="M38,482.6094 C44.11,482.6094 44.21,482.6094 50.32,482.6094 " fill="none" id="*start*CONC19-to-ScrollLockOff" style="stroke:#181818;stroke-width:1.0;"/><polygon fill="#181818" points="56.32,482.6094,47.32,478.6094,51.32,482.6094,47.32,486.6094,56.32,482.6094" style="stroke:#181818;stroke-width:1.0;"/></g><!--link ScrollLockOff to ScrollLockOn--><g id="link_ScrollLockOff_ScrollLockOn"><path d="M56.46,505.1094 C48.67,510.6294 41.68,517.3994 37,525.6094 C28.21,541.0294 34.9697,551.1353 51.3697,561.2253 " fill="none" id="ScrollLockOff-to-ScrollLockOn" style="stroke:#181818;stroke-width:1.0;"/><polygon fill="#181818" points="56.48,564.3694,50.9106,556.2464,52.2214,561.7493,46.7186,563.0601,56.48,564.3694" style="stroke:#181818;stroke-width:1.0;"/><text fill="#000000" font-family="sans-serif" font-size="13" lengthAdjust="spacing" textLength="120.6689" x="38" y="540.1045">EvCapsLockPressed</text></g><!--link ScrollLockOn to ScrollLockOff--><g id="link_ScrollLockOn_ScrollLockOff"><path d="M146.38,561.4494 C157.5,551.2494 165.18,538.7194 159,525.6094 C155.87,518.9694 155.4243,517.1991 150.0543,512.0091 " fill="none" id="ScrollLockOn-to-ScrollLockOff" style="stroke:#181818;stroke-width:1.0;"/><polygon fill="#181818" points="145.74,507.8394,149.4317,516.9702,149.3353,511.3141,154.9913,511.2177,145.74,507.8394" style="stroke:#181818;stroke-width:1.0;"/><text fill="#000000" font-family="sans-serif" font-size="13" lengthAdjust="spacing" textLength="120.6689" x="162" y="540.1045">EvCapsLockPressed</text></g><!--link *start* to Active--><g id="link_*start*_Active"><path d="M150,26.34 C150,37.89 150,53.33 150,79.92 " fill="none" id="*start*-to-Active" style="stroke:#181818;stroke-width:1.0;"/><polygon fill="#181818" points="150,85.92,154,76.92,150,80.92,146,76.92,150,85.92" style="stroke:#181818;stroke-width:1.0;"/></g><!--SRC=[fP1BQyCm48Jl_XLx20GAgppRX1m29RIdqXPwh4gGBTbn8bb2ajr2wN-lgpniX-JKYz0iC_Ejr8T7gnMakHGBu3eXtBBKku6HhF2baeFf19rdNk1mJamzYFgmqagnWeFCYpgqMj1FRNSqo_scZDSJRgXGZk_ebbMCpideTho-cyQvft5UX24HNm9mo-mfwxMMZWOcrWnwfEE8Z8VZAPcHFpVgCnWjLSnm7mvNnT4OMZ-3vYeZcIY4hLVdjEU5Chsrgp907yvamwmJ7agVpl_Nkl-LzviFG5p2VUBpIaHH-BE3Wky881YMy5og9vtiNjAqdZKYP8-oW0KyL0VrQeLpWhVSHSTSPo-w4HleYXdNK5igD9tqddkKJLNBWDssAu4s-osnMig6tj6XhpMvja77WkUj5qC_qIy0]--></g></svg>