<svg xmlns="http://www.w3.org/2000/svg" xmlns:xlink="http://www.w3.org/1999/xlink" contentStyleType="text/css" height="299px" preserveAspectRatio="none" style="width:829px;height:299px;background:#FFFFFF;" version="1.1" viewBox="0 0 829 299" width="829px" zoomAndPan="magnify"><defs/><g><ellipse cx="411.5" cy="16" fill="#222222" rx="10" ry="10" style="stroke:#222222;stroke-width:1.0;"/><path d="M19.5,86 L803.606,86 A12.5,12.5 0 0 1 816.106,98.5 L816.106,113.6094 L7,113.6094 L7,98.5 A12.5,12.5 0 0 1 19.5,86 " fill="#F1F1F1" style="stroke:#F1F1F1;stroke-width:1.0;"/><rect fill="none" height="203.6094" rx="12.5" ry="12.5" style="stroke:#181818;stroke-width:0.5;" width="809.106" x="7" y="86"/><line style="stroke:#181818;stroke-width:0.5;" x1="7" x2="816.106" y1="113.6094" y2="113.6094"/><text fill="#000000" font-family="sans-serif" font-size="14" lengthAdjust="spacing" textLength="38.124" x="392.491" y="105.5332">Active</text><ellipse cx="28" cy="150.6094" fill="#222222" rx="10" ry="10" style="stroke:#222222;stroke-width:1.0;"/><g id="Active.NumLockOff"><rect fill="#F1F1F1" height="50" rx="12.5" ry="12.5" style="stroke:#181818;stroke-width:0.5;" width="97.7998" x="56" y="125.6094"/><line style="stroke:#181818;stroke-width:0.5;" x1="56" x2="153.7998" y1="153.2188" y2="153.2188"/><text fill="#000000" font-family="sans-serif" font-size="14" lengthAdjust="spacing" textLength="77.7998" x="66" y="145.1426">NumLockOff</text></g><g id="Active.NumLockOn"><rect fill="#F1F1F1" height="50" rx="12.5" ry="12.5" style="stroke:#181818;stroke-width:0.5;" width="97.8066" x="56" y="229.6094"/><line style="stroke:#181818;stroke-width:0.5;" x1="56" x2="153.8066" y1="257.2188" y2="257.2188"/><text fill="#000000" font-family="sans-serif" font-size="14" lengthAdjust="spacing" textLength="77.8066" x="66" y="249.1426">NumLockOn</text></g><!--link *start*Active to NumLockOff--><g id="link_*start*Active_NumLockOff"><path d="M38.23,150.6094 C44.14,150.6094 44.05,150.6094 49.96,150.6094 " fill="none" id="*start*Active-to-NumLockOff" style="stroke:#181818;stroke-width:1.0;"/><polygon fill="#181818" points="55.96,150.6094,46.96,146.6094,50.96,150.6094,46.96,154.6094,55.96,150.6094" style="stroke:#181818;stroke-width:1.0;"/></g><!--link NumLockOff to NumLockOn--><g id="link_NumLockOff_NumLockOn"><path d="M55.93,171.9894 C47.55,177.7194 39.96,184.8494 35,193.6094 C26.01,209.4894 33.7648,220.0328 50.8348,230.2728 " fill="none" id="NumLockOff-to-NumLockOn" style="stroke:#181818;stroke-width:1.0;"/><polygon fill="#181818" points="55.98,233.3594,50.3199,225.2994,51.6923,230.7873,46.2045,232.1597,55.98,233.3594" style="stroke:#181818;stroke-width:1.0;"/><text fill="#000000" font-family="sans-serif" font-size="13" lengthAdjust="spacing" textLength="117.7681" x="36" y="208.1045">EvNumLockPressed</text></g><!--link NumLockOn to NumLockOff--><g id="link_NumLockOn_NumLockOff"><path d="M141.59,229.5794 C152.44,219.3094 160.01,206.6794 154,193.6094 C151,187.0994 150.6785,185.4561 145.5285,180.2961 " fill="none" id="NumLockOn-to-NumLockOff" style="stroke:#181818;stroke-width:1.0;"/><polygon fill="#181818" points="141.29,176.0494,144.8166,185.2452,144.8221,179.5883,150.479,179.5938,141.29,176.0494" style="stroke:#181818;stroke-width:1.0;"/><text fill="#000000" font-family="sans-serif" font-size="13" lengthAdjust="spacing" textLength="117.7681" x="158" y="208.1045">EvNumLockPressed</text></g><line style="stroke:#181818;stroke-width:1.5;stroke-dasharray:8.0,10.0;" x1="270.7681" x2="270.7681" y1="118.6094" y2="292.6094"/><ellipse cx="286.7681" cy="150.6094" fill="#222222" rx="10" ry="10" style="stroke:#222222;stroke-width:1.0;"/><g id="Active.CONC11.CapsLockOff"><rect fill="#F1F1F1" height="50" rx="12.5" ry="12.5" style="stroke:#181818;stroke-width:0.5;" width="100.9238" x="315.2681" y="125.6094"/><line style="stroke:#181818;stroke-width:0.5;" x1="315.2681" x2="416.1919" y1="153.2188" y2="153.2188"/><text fill="#000000" font-family="sans-serif" font-size="14" lengthAdjust="spacing" textLength="80.9238" x="325.2681" y="145.1426">CapsLockOff</text></g><g id="Active.CONC11.CapsLockOn"><rect fill="#F1F1F1" height="50" rx="12.5" ry="12.5" style="stroke:#181818;stroke-width:0.5;" width="100.9307" x="315.2681" y="229.6094"/><line style="stroke:#181818;stroke-width:0.5;" x1="315.2681" x2="416.1987" y1="257.2188" y2="257.2188"/><text fill="#000000" font-family="sans-serif" font-size="14" lengthAdjust="spacing" textLength="80.9307" x="325.2681" y="249.1426">CapsLockOn</text></g><!--link *start*CONC11 to CapsLockOff--><g id="link_*start*CONC11_CapsLockOff"><path d="M296.9481,150.6094 C303.0481,150.6094 303.1381,150.6094 309.2281,150.6094 " fill="none" id="*start*CONC11-to-CapsLockOff" style="stroke:#181818;stroke-width:1.0;"/><polygon fill="#181818" points="315.2281,150.6094,306.2281,146.6094,310.2281,150.6094,306.2281,154.6094,315.2281,150.6094" style="stroke:#181818;stroke-width:1.0;"/></g><!--link CapsLockOff to CapsLockOn--><g id="link_CapsLockOff_CapsLockOn"><path d="M314.9381,172.6094 C306.8681,178.2194 299.5881,185.1494 294.7681,193.6094 C285.8181,209.3094 293.149,219.6625 310.009,229.8225 " fill="none" id="CapsLockOff-to-CapsLockOn" style="stroke:#181818;stroke-width:1.0;"/><polygon fill="#181818" points="315.1481,232.9194,309.5041,224.8481,310.8655,230.3387,305.375,231.7002,315.1481,232.9194" style="stroke:#181818;stroke-width:1.0;"/><text fill="#000000" font-family="sans-serif" font-size="13" lengthAdjust="spacing" textLength="120.6689" x="295.7681" y="208.1045">EvCapsLockPressed</text></g><!--link CapsLockOn to CapsLockOff--><g id="link_CapsLockOn_CapsLockOff"><path d="M404.1481,229.4494 C415.2681,219.2494 422.9481,206.7194 416.7681,193.6094 C413.6381,186.9694 413.1924,185.1991 407.8224,180.0091 " fill="none" id="CapsLockOn-to-CapsLockOff" style="stroke:#181818;stroke-width:1.0;"/><polygon fill="#181818" points="403.5081,175.8394,407.1998,184.9702,407.1033,179.3141,412.7594,179.2177,403.5081,175.8394" style="stroke:#181818;stroke-width:1.0;"/><text fill="#000000" font-family="sans-serif" font-size="13" lengthAdjust="spacing" textLength="120.6689" x="419.7681" y="208.1045">EvCapsLockPressed</text></g><line style="stroke:#181818;stroke-width:1.5;stroke-dasharray:8.0,10.0;" x1="535.437" x2="535.437" y1="118.6094" y2="292.6094"/><ellipse cx="551.437" cy="150.6094" fill="#222222" rx="10" ry="10" style="stroke:#222222;stroke-width:1.0;"/><g id="Active.CONC19.ScrollLockOff"><rect fill="#F1F1F1" height="50" rx="12.5" ry="12.5" style="stroke:#181818;stroke-width:0.5;" width="103.248" x="579.937" y="125.6094"/><line style="stroke:#181818;stroke-width:0.5;" x1="579.937" x2="683.1851" y1="153.2188" y2="153.2188"/><text fill="#000000" font-family="sans-serif" font-size="14" lengthAdjust="spacing" textLength="83.248" x="589.937" y="145.1426">ScrollLockOff</text></g><g id="Active.CONC19.ScrollLockOn"><rect fill="#F1F1F1" height="50" rx="12.5" ry="12.5" style="stroke:#181818;stroke-width:0.5;" width="103.2549" x="579.937" y="229.6094"/><line style="stroke:#181818;stroke-width:0.5;" x1="579.937" x2="683.1919" y1="257.2188" y2="257.2188"/><text fill="#000000" font-family="sans-serif" font-size="14" lengthAdjust="spacing" textLength="83.2549" x="589.937" y="249.1426">ScrollLockOn</text></g><!--link *start*CONC19 to ScrollLockOff--><g id="link_*start*CONC19_ScrollLockOff"><path d="M561.437,150.6094 C567.547,150.6094 567.647,150.6094 573.757,150.6094 " fill="none" id="*start*CONC19-to-ScrollLockOff" style="stroke:#181818;stroke-width:1.0;"/><polygon fill="#181818" points="579.757,150.6094,570.757,146.6094,574.757,150.6094,570.757,154.6094,579.757,150.6094" style="stroke:#181818;stroke-width:1.0;"/></g><!--link ScrollLockOff to ScrollLockOn--><g id="link_ScrollLockOff_ScrollLockOn"><path d="M579.897,173.1094 C572.107,178.6294 565.117,185.3994 560.437,193.6094 C551.647,209.0294 558.4067,219.1353 574.8067,229.2253 " fill="none" id="ScrollLockOff-to-ScrollLockOn" style="stroke:#181818;stroke-width:1.0;"/><polygon fill="#181818" points="579.917,232.3694,574.3476,224.2464,575.6585,229.7493,570.1556,231.0601,579.917,232.3694" style="stroke:#181818;stroke-width:1.0;"/><text fill="#000000" font-family="sans-serif" font-size="13" lengthAdjust="spacing" textLength="120.6689" x="561.437" y="208.1045">EvCapsLockPressed</text></g><!--link ScrollLockOn to ScrollLockOff--><g id="link_ScrollLockOn_ScrollLockOff"><path d="M669.817,229.4494 C680.937,219.2494 688.617,206.7194 682.437,193.6094 C679.307,186.9694 678.8613,185.1991 673.4913,180.0091 " fill="none" id="ScrollLockOn-to-ScrollLockOff" style="stroke:#181818;stroke-width:1.0;"/><polygon fill="#181818" points="669.177,175.8394,672.8687,184.9702,672.7723,179.3141,678.4283,179.2177,669.177,175.8394" style="stroke:#181818;stroke-width:1.0;"/><text fill="#000000" font-family="sans-serif" font-size="13" lengthAdjust="spacing" textLength="120.6689" x="685.437" y="208.1045">EvCapsLockPressed</text></g><!--link *start* to Active--><g id="link_*start*_Active"><path d="M411.5,26.14 C411.5,38.28 411.5,55.08 411.5,79.78 " fill="none" id="*start*-to-Active" style="stroke:#181818;stroke-width:1.0;"/><polygon fill="#181818" points="411.5,85.78,415.5,76.78,411.5,80.78,407.5,76.78,411.5,85.78" style="stroke:#181818;stroke-width:1.0;"/></g><!--SRC=[fP1BImCn58Ntyolkeb0GaZuSjNPHaA8hKS6bAIKpoKpJvZ4acL6m_dV7z34pfLsv2JcNSyvtapuyMQCW4v9FWPaKCqipxmQ5fDgNIWxY63bFFKV3UrpKWwWFSwCKrGoaq7LeFYMVncv8BlogJ9RNh21SEROXQrfHCi6Zc_7oDaw49udGOOZv5mUqflQOzSP8Hm8JrGnoeACH7W_7CRx3VsvaJc2aL0b5kt2uAeQAWjJF84BbEEUQstfrHdgUgwAtT5KEo8SpNL7hk8VIPvF_jUv-vUDg0GZDu27rek9H5Fvih-0x0WY66RoKwjcaczSigsUD2Dc3r325nsgltYntZhEMMtVCTVQiUxjje7DQk8RQKg7fg7VSWsogMWRKRRiGQBFVKskaREWT7VfQaqiRT2pejFLiw2Vw1G00]--></g></svg>