<svg xmlns="http://www.w3.org/2000/svg" xmlns:xlink="http://www.w3.org/1999/xlink" contentStyleType="text/css" height="283px" preserveAspectRatio="none" style="width:489px;height:283px;background:#FFFFFF;" version="1.1" viewBox="0 0 489 283" width="489px" zoomAndPan="magnify"><defs/><g><g id="S1"><rect fill="#F1F1F1" height="50" rx="12.5" ry="12.5" style="stroke:#181818;stroke-width:0.5;" width="50" x="92" y="117"/><line style="stroke:#181818;stroke-width:0.5;" x1="92" x2="142" y1="144.6094" y2="144.6094"/><text fill="#000000" font-family="sans-serif" font-size="14" lengthAdjust="spacing" textLength="17.124" x="108.438" y="136.5332">S1</text></g><g id="S2"><rect fill="#F1F1F1" height="50" rx="12.5" ry="12.5" style="stroke:#181818;stroke-width:0.5;" width="50" x="92" y="227"/><line style="stroke:#181818;stroke-width:0.5;" x1="92" x2="142" y1="254.6094" y2="254.6094"/><text fill="#000000" font-family="sans-serif" font-size="14" lengthAdjust="spacing" textLength="17.124" x="108.438" y="246.5332">S2</text></g><g id="S3"><rect fill="#F1F1F1" height="50" rx="12.5" ry="12.5" style="stroke:#181818;stroke-width:0.5;" width="50" x="7" y="117"/><line style="stroke:#181818;stroke-width:0.5;" x1="7" x2="57" y1="144.6094" y2="144.6094"/><text fill="#000000" font-family="sans-serif" font-size="14" lengthAdjust="spacing" textLength="17.124" x="23.438" y="136.5332">S3</text></g><g id="S4"><rect fill="#F1F1F1" height="50" rx="12.5" ry="12.5" style="stroke:#181818;stroke-width:0.5;" width="50" x="92" y="7"/><line style="stroke:#181818;stroke-width:0.5;" x1="92" x2="142" y1="34.6094" y2="34.6094"/><text fill="#000000" font-family="sans-serif" font-size="14" lengthAdjust="spacing" textLength="17.124" x="108.438" y="26.5332">S4</text></g><g id="S5"><rect fill="#F1F1F1" height="50" rx="12.5" ry="12.5" style="stroke:#181818;stroke-width:0.5;" width="50" x="177" y="117"/><line style="stroke:#181818;stroke-width:0.5;" x1="177" x2="227" y1="144.6094" y2="144.6094"/><text fill="#000000" font-family="sans-serif" font-size="14" lengthAdjust="spacing" textLength="17.124" x="193.438" y="136.5332">S5</text></g><g id="X1"><rect fill="#F1F1F1" height="50" rx="12.5" ry="12.5" style="stroke:#181818;stroke-width:0.5;" width="50" x="262" y="7"/><line style="stroke:#181818;stroke-width:0.5;" x1="262" x2="312" y1="34.6094" y2="34.6094"/><text fill="#000000" font-family="sans-serif" font-size="14" lengthAdjust="spacing" textLength="17.124" x="278.438" y="26.5332">X1</text></g><g id="X2"><rect fill="#F1F1F1" height="50" rx="12.5" ry="12.5" style="stroke:#181818;stroke-width:0.5;" width="50" x="262" y="117"/><line style="stroke:#181818;stroke-width:0.5;" x1="262" x2="312" y1="144.6094" y2="144.6094"/><text fill="#000000" font-family="sans-serif" font-size="14" lengthAdjust="spacing" textLength="17.124" x="278.438" y="136.5332">X2</text></g><g id="Z1"><rect fill="#F1F1F1" height="50" rx="12.5" ry="12.5" style="stroke:#181818;stroke-width:0.5;" width="50" x="347" y="7"/><line style="stroke:#181818;stroke-width:0.5;" x1="347" x2="397" y1="34.6094" y2="34.6094"/><text fill="#000000" font-family="sans-serif" font-size="14" lengthAdjust="spacing" textLength="16.3379" x="363.8311" y="26.5332">Z1</text></g><g id="Z2"><rect fill="#F1F1F1" height="50" rx="12.5" ry="12.5" style="stroke:#181818;stroke-width:0.5;" width="50" x="347" y="117"/><line style="stroke:#181818;stroke-width:0.5;" x1="347" x2="397" y1="144.6094" y2="144.6094"/><text fill="#000000" font-family="sans-serif" font-size="14" lengthAdjust="spacing" textLength="16.3379" x="363.8311" y="136.5332">Z2</text></g><g id="Y1"><rect fill="#F1F1F1" height="50" rx="12.5" ry="12.5" style="stroke:#181818;stroke-width:0.5;" width="50" x="432" y="7"/><line style="stroke:#181818;stroke-width:0.5;" x1="432" x2="482" y1="34.6094" y2="34.6094"/><text fill="#000000" font-family="sans-serif" font-size="14" lengthAdjust="spacing" textLength="17.124" x="448.438" y="26.5332">Y1</text></g><g id="Y2"><rect fill="#F1F1F1" height="50" rx="12.5" ry="12.5" style="stroke:#181818;stroke-width:0.5;" width="50" x="432" y="117"/><line style="stroke:#181818;stroke-width:0.5;" x1="432" x2="482" y1="144.6094" y2="144.6094"/><text fill="#000000" font-family="sans-serif" font-size="14" lengthAdjust="spacing" textLength="17.124" x="448.438" y="136.5332">Y2</text></g><!--link S1 to S2--><g id="link_S1_S2"><path d="M117,167.24 C117,185.02 117,203.08 117,220.84 " fill="none" id="S1-to-S2" style="stroke:#DD00AA;stroke-width:1.0;"/><polygon fill="#DD00AA" points="117,226.84,121,217.84,117,221.84,113,217.84,117,226.84" style="stroke:#DD00AA;stroke-width:1.0;"/></g><!--reverse link S3 to S1--><g id="link_S3_S1"><path d="M63.23,142 C74.75,142 80.27,142 91.79,142 " fill="none" id="S3-backto-S1" style="stroke:#FFFF00;stroke-width:1.0;"/><polygon fill="#FFFF00" points="57.23,142,66.23,146,62.23,142,66.23,138,57.23,142" style="stroke:#FFFF00;stroke-width:1.0;"/></g><!--reverse link S4 to S1--><g id="link_S4_S1"><path d="M117,63.24 C117,81.02 117,99.08 117,116.84 " fill="none" id="S4-backto-S1" style="stroke:#FF0000;stroke-width:1.0;stroke-dasharray:7.0,7.0;"/><polygon fill="#FF0000" points="117,57.24,113,66.24,117,62.24,121,66.24,117,57.24" style="stroke:#FF0000;stroke-width:1.0;"/></g><!--link S1 to S5--><g id="link_S1_S5"><path d="M142.23,142 C153.75,142 159.27,142 170.79,142 " fill="none" id="S1-to-S5" style="stroke:#0000FF;stroke-width:1.0;stroke-dasharray:1.0,3.0;"/><polygon fill="#0000FF" points="176.79,142,167.79,138,171.79,142,167.79,146,176.79,142" style="stroke:#0000FF;stroke-width:1.0;"/></g><!--link X1 to X2--><g id="link_X1_X2"><path d="M287,57.24 C287,75.02 287,93.08 287,110.84 " fill="none" id="X1-to-X2" style="stroke:#181818;stroke-width:1.0;stroke-dasharray:7.0,7.0;"/><polygon fill="#181818" points="287,116.84,291,107.84,287,111.84,283,107.84,287,116.84" style="stroke:#181818;stroke-width:1.0;"/></g><!--link Z1 to Z2--><g id="link_Z1_Z2"><path d="M372,57.24 C372,75.02 372,93.08 372,110.84 " fill="none" id="Z1-to-Z2" style="stroke:#181818;stroke-width:1.0;stroke-dasharray:1.0,3.0;"/><polygon fill="#181818" points="372,116.84,376,107.84,372,111.84,368,107.84,372,116.84" style="stroke:#181818;stroke-width:1.0;"/></g><!--link Y1 to Y2--><g id="link_Y1_Y2"><path d="M457,57.24 C457,75.02 457,93.08 457,110.84 " fill="none" id="Y1-to-Y2" style="stroke:#0000FF;stroke-width:2.0;"/><polygon fill="#0000FF" points="457,116.84,461,107.84,457,111.84,453,107.84,457,116.84" style="stroke:#0000FF;stroke-width:2.0;"/></g><!--SRC=[dP31Ri8m38RlVOf8874XWNR0K0-Jq3hs05o0Pa9fuxPXILCbBjlUVcqGsdqNo_h-t_OlpyZUMKCgfI4bqfPCEb6XNtHQjDWRlLZ7rAD0eF66TGE8PkJL6YDQIRHgXw4ivM_6bqvr22q7u-KdlugRu5iMhvFBPbKev8Lg0sJm3OHUXIFlAVUsGfxPaezx-UCYZLcoJ5RicOqsQia-vPTQOTCNl3U5e6YjzlVMIDfrV8ZDbQbP3Isu8QhaKmJJJI_-LXEAePQDS1wGz5Xj_x_n_e73-0zoY1zD4XrYGlD9bYsNkzq7VNaW3HNcan_Gsdu5_1Hmt-KJ1t8kXMz01c4L1AVg1dDfSRWudnIwXo2ke-Wu7lZp7vFe74YmZkISHASGOfoQ5rO7Uaf-0G00]--></g></svg>