<svg xmlns="http://www.w3.org/2000/svg" xmlns:xlink="http://www.w3.org/1999/xlink" contentStyleType="text/css" height="262px" preserveAspectRatio="none" style="width:355px;height:262px;background:#FFFFFF;" version="1.1" viewBox="0 0 355 262" width="355px" zoomAndPan="magnify"><defs/><g><ellipse cx="168" cy="16" fill="#222222" rx="10" ry="10" style="stroke:#222222;stroke-width:1.0;"/><g id="Active"><rect fill="#F1F1F1" height="50" rx="12.5" ry="12.5" style="stroke:#181818;stroke-width:0.5;" width="58.124" x="139" y="86"/><line style="stroke:#181818;stroke-width:0.5;" x1="139" x2="197.124" y1="113.6094" y2="113.6094"/><text fill="#000000" font-family="sans-serif" font-size="14" lengthAdjust="spacing" textLength="38.124" x="149" y="105.5332">Active</text></g><g id="Inactive"><rect fill="#F1F1F1" height="50" rx="12.5" ry="12.5" style="stroke:#181818;stroke-width:0.5;" width="68.248" x="134" y="200.5"/><line style="stroke:#181818;stroke-width:0.5;" x1="134" x2="202.248" y1="228.1094" y2="228.1094"/><text fill="#000000" font-family="sans-serif" font-size="14" lengthAdjust="spacing" textLength="48.248" x="144" y="220.0332">Inactive</text></g><g id="elem_GMN7"><path d="M6,89.5 L6,132.2031 A0,0 0 0 0 6,132.2031 L103.5845,132.2031 A0,0 0 0 0 103.5845,132.2031 L103.5845,115 L138.7,111 L103.5845,107 L103.5845,99.5 L93.5845,89.5 L6,89.5 A0,0 0 0 0 6,89.5 " fill="#FEFFDD" style="stroke:#181818;stroke-width:0.5;"/><path d="M93.5845,89.5 L93.5845,99.5 L103.5845,99.5 L93.5845,89.5 " fill="#FEFFDD" style="stroke:#181818;stroke-width:0.5;"/><text fill="#000000" font-family="sans-serif" font-size="13" lengthAdjust="spacing" textLength="76.5845" x="12" y="107.9951">this is a short</text><text fill="#000000" font-family="sans-serif" font-size="13" lengthAdjust="spacing" textLength="25.3018" x="12" y="124.3467">note</text></g><g id="elem_GMN10"><path d="M237.5,196 L237.5,221.5 L202.18,225.5 L237.5,229.5 L237.5,255.0547 A0,0 0 0 0 237.5,255.0547 L348.1162,255.0547 A0,0 0 0 0 348.1162,255.0547 L348.1162,206 L338.1162,196 L237.5,196 A0,0 0 0 0 237.5,196 " fill="#FEFFDD" style="stroke:#181818;stroke-width:0.5;"/><path d="M338.1162,196 L338.1162,206 L348.1162,206 L338.1162,196 " fill="#FEFFDD" style="stroke:#181818;stroke-width:0.5;"/><text fill="#000000" font-family="sans-serif" font-size="13" lengthAdjust="spacing" textLength="89.6162" x="243.5" y="214.4951">A note can also</text><text fill="#000000" font-family="sans-serif" font-size="13" lengthAdjust="spacing" textLength="78.7935" x="243.5" y="230.8467">be defined on</text><text fill="#000000" font-family="sans-serif" font-size="13" lengthAdjust="spacing" textLength="72.2554" x="243.5" y="247.1982">several lines</text></g><!--link *start* to Active--><g id="link_*start*_Active"><path d="M168,26.26 C168,40.04 168,60.42 168,79.91 " fill="none" id="*start*-to-Active" style="stroke:#181818;stroke-width:1.0;"/><polygon fill="#181818" points="168,85.91,172,76.91,168,80.91,164,76.91,168,85.91" style="stroke:#181818;stroke-width:1.0;"/></g><!--link Active to Inactive--><g id="link_Active_Inactive"><path d="M168,136.13 C168,155.12 168,175.43 168,194.41 " fill="none" id="Active-to-Inactive" style="stroke:#181818;stroke-width:1.0;"/><polygon fill="#181818" points="168,200.41,172,191.41,168,195.41,164,191.41,168,200.41" style="stroke:#181818;stroke-width:1.0;"/></g><!--SRC=[FOn12iCm30JlViMU0_b03eKS-uQs1oMMQuEHm19vVnqd50IBHhDwJH_CymFhxkNWSCKWJw6B1L5dL4uEJRU81PwBeG_1iZP_owdTSYlVFEp_4s35EEqae6hQoSQ8d8fmX4hVZGzkL54xii0IHoFy0000]--></g></svg>