<svg xmlns="http://www.w3.org/2000/svg" xmlns:xlink="http://www.w3.org/1999/xlink" contentStyleType="text/css" height="293px" preserveAspectRatio="none" style="width:128px;height:293px;background:#FFFFFF;" version="1.1" viewBox="0 0 128 293" width="128px" zoomAndPan="magnify"><defs/><g><g id="state1"><rect fill="#F1F1F1" height="50" rx="12.5" ry="12.5" style="stroke:#181818;stroke-width:0.5;" width="58.1377" x="44" y="7"/><line style="stroke:#181818;stroke-width:0.5;" x1="44" x2="102.1377" y1="34.6094" y2="34.6094"/><text fill="#000000" font-family="sans-serif" font-size="14" lengthAdjust="spacing" textLength="38.1377" x="54" y="26.5332">state1</text></g><g id="state2"><rect fill="#F1F1F1" height="50" rx="12.5" ry="12.5" style="stroke:#181818;stroke-width:0.5;" width="58.1377" x="7" y="237"/><line style="stroke:#181818;stroke-width:0.5;" x1="7" x2="65.1377" y1="264.6094" y2="264.6094"/><text fill="#000000" font-family="sans-serif" font-size="14" lengthAdjust="spacing" textLength="38.1377" x="17" y="256.5332">state2</text></g><g id="elem_choice1"><polygon fill="#98FB98" points="73,135,85,147,73,159,61,147,73,135" style="stroke:#008000;stroke-width:2.5;"/></g><ellipse cx="111" cy="262" fill="none" rx="11" ry="11" style="stroke:#222222;stroke-width:1.0;"/><ellipse cx="111" cy="262" fill="#222222" rx="6" ry="6" style="stroke:#222222;stroke-width:1.0;"/><!--link state1 to choice1--><g id="link_state1_choice1"><path d="M73,57.24 C73,81.24 73,110.9 73,128.84 " fill="none" id="state1-to-choice1" style="stroke:#181818;stroke-width:1.0;"/><polygon fill="#181818" points="73,134.84,77,125.84,73,129.84,69,125.84,73,134.84" style="stroke:#181818;stroke-width:1.0;"/><text fill="#000000" font-family="sans-serif" font-size="13" lengthAdjust="spacing" textLength="7.23" x="74" y="101.4951">1</text></g><!--link choice1 to state2--><g id="link_choice1_state2"><path d="M70.06,156.46 C67.19,164.74 62.73,177.72 59,189 C53.73,204.95 49.7889,217.2292 45.3589,231.2392 " fill="none" id="choice1-to-state2" style="stroke:#181818;stroke-width:1.0;"/><polygon fill="#181818" points="43.55,236.96,50.0773,229.5847,45.0574,232.1927,42.4495,227.1728,43.55,236.96" style="stroke:#181818;stroke-width:1.0;"/><text fill="#000000" font-family="sans-serif" font-size="13" lengthAdjust="spacing" textLength="7.23" x="60" y="203.4951">2</text></g><!--link choice1 to end3--><g id="link_choice1_end3"><path d="M75.86,156.49 C82.79,177.13 98.5877,224.0929 105.8777,245.7729 " fill="none" id="choice1-to-end3" style="stroke:#181818;stroke-width:1.0;"/><polygon fill="#181818" points="107.79,251.46,108.7129,241.6545,106.1964,246.7208,101.1301,244.2042,107.79,251.46" style="stroke:#181818;stroke-width:1.0;"/><text fill="#000000" font-family="sans-serif" font-size="13" lengthAdjust="spacing" textLength="7.23" x="93" y="203.4951">3</text></g><!--SRC=[LOsn2i8m68JtFCM1SvMqk9JGGTUEla18VjhGcaWI1n7VtRHfn2u_TzznzuiGNpDr3D16tftLU2SDNAIQ1k-ULb_Tx3mE3pdJu8di6lV6qXRiuMqqQh8K0khZcNsOE6qFGfIHi5x-R-hDgD4PHHn2PDML2bdTBEj299LenXoegkxNQi5PqGlFqqYytl4orgBv0W00]--></g></svg>