<svg xmlns="http://www.w3.org/2000/svg" xmlns:xlink="http://www.w3.org/1999/xlink" contentStyleType="text/css" height="115px" preserveAspectRatio="none" style="width:779px;height:115px;background:#FFFFFF;" version="1.1" viewBox="0 0 779 115" width="779px" zoomAndPan="magnify"><defs><linearGradient id="gxmge64h25d5q0" x1="50%" x2="50%" y1="0%" y2="100%"><stop offset="0%" stop-color="#FF0000"/><stop offset="100%" stop-color="#008000"/></linearGradient><linearGradient id="gxmge64h25d5q1" x1="0%" x2="100%" y1="50%" y2="50%"><stop offset="0%" stop-color="#FF0000"/><stop offset="100%" stop-color="#008000"/></linearGradient></defs><g><!--cluster Foo1--><g id="cluster_Foo1"><path d="M19.5,7 L86.5,7 A12.5,12.5 0 0 1 99,19.5 L99,29.6094 L7,29.6094 L7,19.5 A12.5,12.5 0 0 1 19.5,7 " fill="#F1F1F1" style="stroke:#F1F1F1;stroke-width:1.0;"/><rect fill="none" height="102" rx="12.5" ry="12.5" style="stroke:#008000;stroke-width:1.0;stroke-dasharray:1.0,3.0;" width="92" x="7" y="7"/><line style="stroke:#008000;stroke-width:1.0;stroke-dasharray:1.0,3.0;" x1="7" x2="99" y1="29.6094" y2="29.6094"/><text fill="#000000" font-family="sans-serif" font-size="14" lengthAdjust="spacing" textLength="31.9102" x="37.5" y="25.5332">Foo1</text></g><!--cluster Foo2--><g id="cluster_Foo2"><path d="M135.5,7 L202.5,7 A12.5,12.5 0 0 1 215,19.5 L215,29.6094 L123,29.6094 L123,19.5 A12.5,12.5 0 0 1 135.5,7 " fill="#F1F1F1" style="stroke:#F1F1F1;stroke-width:1.0;"/><rect fill="none" height="102" rx="12.5" ry="12.5" style="stroke:#008000;stroke-width:2.0;" width="92" x="123" y="7"/><line style="stroke:#008000;stroke-width:2.0;" x1="123" x2="215" y1="29.6094" y2="29.6094"/><text fill="#000000" font-family="sans-serif" font-size="14" lengthAdjust="spacing" textLength="31.9102" x="153.5" y="25.5332">Foo2</text></g><g id="Foo1.inner1"><rect fill="#F1F1F1" height="50" rx="12.5" ry="12.5" style="stroke:#FFFF00;stroke-width:1.0;stroke-dasharray:1.0,3.0;" width="58.917" x="23.5" y="43"/><line style="stroke:#FFFF00;stroke-width:1.0;stroke-dasharray:1.0,3.0;" x1="23.5" x2="82.417" y1="70.6094" y2="70.6094"/><text fill="#000000" font-family="sans-serif" font-size="14" lengthAdjust="spacing" textLength="38.917" x="33.5" y="62.5332">inner1</text></g><g id="Foo2.inner2"><rect fill="#F1F1F1" height="50" rx="12.5" ry="12.5" style="stroke:#FFFF00;stroke-width:1.0;stroke-dasharray:1.0,3.0;" width="58.917" x="139.5" y="43"/><line style="stroke:#FFFF00;stroke-width:1.0;stroke-dasharray:1.0,3.0;" x1="139.5" x2="198.417" y1="70.6094" y2="70.6094"/><text fill="#000000" font-family="sans-serif" font-size="14" lengthAdjust="spacing" textLength="38.917" x="149.5" y="62.5332">inner2</text></g><g id="FooGradient"><rect fill="url(#gxmge64h25d5q0)" height="50" rx="12.5" ry="12.5" style="stroke:#00FFFF;stroke-width:0.5;" width="97.8203" x="319" y="43"/><line style="stroke:#00FFFF;stroke-width:0.5;" x1="319" x2="416.8203" y1="70.6094" y2="70.6094"/><text fill="#000000" font-family="sans-serif" font-size="14" lengthAdjust="spacing" textLength="77.8203" x="329" y="62.5332">FooGradient</text></g><g id="FooDashed"><rect fill="url(#gxmge64h25d5q1)" height="50" rx="12.5" ry="12.5" style="stroke:#0000FF;stroke-width:1.0;stroke-dasharray:7.0,7.0;" width="92.3789" x="452" y="43"/><line style="stroke:#0000FF;stroke-width:1.0;stroke-dasharray:7.0,7.0;" x1="452" x2="544.3789" y1="70.6094" y2="70.6094"/><text fill="#000000" font-family="sans-serif" font-size="14" lengthAdjust="spacing" textLength="72.3789" x="462" y="62.5332">FooDashed</text></g><g id="FooDotted"><rect fill="#F1F1F1" height="50" rx="12.5" ry="12.5" style="stroke:#0000FF;stroke-width:1.0;stroke-dasharray:1.0,3.0;" width="85.3721" x="579.5" y="43"/><line style="stroke:#0000FF;stroke-width:1.0;stroke-dasharray:1.0,3.0;" x1="579.5" x2="664.8721" y1="70.6094" y2="70.6094"/><text fill="#000000" font-family="sans-serif" font-size="14" lengthAdjust="spacing" textLength="65.3721" x="589.5" y="62.5332">FooDotted</text></g><g id="FooBold"><rect fill="#F1F1F1" height="50" rx="12.5" ry="12.5" style="stroke:#181818;stroke-width:2.0;" width="72.1445" x="700" y="43"/><line style="stroke:#181818;stroke-width:2.0;" x1="700" x2="772.1445" y1="70.6094" y2="70.6094"/><text fill="#000000" font-family="sans-serif" font-size="14" lengthAdjust="spacing" textLength="52.1445" x="710" y="62.5332">FooBold</text></g><g id="out"><rect fill="#F1F1F1" height="50" rx="12.5" ry="12.5" style="stroke:#FFD700;stroke-width:1.0;stroke-dasharray:1.0,3.0;" width="50" x="234" y="43"/><line style="stroke:#FFD700;stroke-width:1.0;stroke-dasharray:1.0,3.0;" x1="234" x2="284" y1="70.6094" y2="70.6094"/><text fill="#000000" font-family="sans-serif" font-size="14" lengthAdjust="spacing" textLength="19.4619" x="249.269" y="62.5332">out</text></g><!--link inner1 to inner2--><g id="link_inner1_inner2"><path d="M82.91,68 C101.74,68 114.57,68 133.41,68 " fill="none" id="inner1-to-inner2" style="stroke:#181818;stroke-width:1.0;"/><polygon fill="#181818" points="139.41,68,130.41,64,134.41,68,130.41,72,139.41,68" style="stroke:#181818;stroke-width:1.0;"/></g><!--link out to inner2--><g id="link_out_inner2"><path d="M233.96,68 C222.15,68 216.34,68 204.53,68 " fill="none" id="out-to-inner2" style="stroke:#181818;stroke-width:1.0;"/><polygon fill="#181818" points="198.53,68,207.53,72,203.53,68,207.53,64,198.53,68" style="stroke:#181818;stroke-width:1.0;"/></g><!--SRC=[VOvB2i8m48RtEKN0TQLsgU12f9uZ9OC6mWmaKqJKkvjNRONKMSqat__mh1XaJtHnIXj0bXi7khaw03nOWx1lspwCy1DuLlu6Ec6l6Tlgz9mbWnr1FiLx8IBcACfeEjRG4za97EBwyxchMAGI0SkGGGHNmnvWBTs3MG5fv9fPY1HpNhTeifhM_KihVPfZOKNC_LuV]--></g></svg>