<svg xmlns="http://www.w3.org/2000/svg" xmlns:xlink="http://www.w3.org/1999/xlink" contentStyleType="text/css" height="66px" preserveAspectRatio="none" style="width:768px;height:66px;background:#FFFFFF;" version="1.1" viewBox="0 0 768 66" width="768px" zoomAndPan="magnify"><defs/><g><g id="alias1"><rect fill="#F1F1F1" height="53.2773" rx="12.5" ry="12.5" style="stroke:#181818;stroke-width:0.5;" width="106.4141" x="7" y="7"/><line style="stroke:#181818;stroke-width:0.5;" x1="7" x2="113.4141" y1="34.6094" y2="34.6094"/><text fill="#000000" font-family="sans-serif" font-size="14" lengthAdjust="spacing" textLength="36.5791" x="41.9175" y="26.5332">alias1</text><text fill="#000000" font-family="monospace" font-size="12" lengthAdjust="spacing" textLength="86.4141" x="12" y="51.6738">state&#160;alias1</text></g><g id="alias2"><rect fill="#F1F1F1" height="53.2773" rx="12.5" ry="12.5" style="stroke:#181818;stroke-width:0.5;" width="117.875" x="148" y="7"/><line style="stroke:#181818;stroke-width:0.5;" x1="148" x2="265.875" y1="34.6094" y2="34.6094"/><text fill="#000000" font-family="sans-serif" font-size="14" lengthAdjust="spacing" textLength="36.5791" x="188.6479" y="26.5332">alias2</text><text fill="#000000" font-family="monospace" font-size="12" lengthAdjust="spacing" textLength="93.6152" x="153" y="51.6738">state&#160;"alias2</text><text fill="#000000" font-family="sans-serif" font-size="12" lengthAdjust="spacing" textLength="4.2598" x="246.6152" y="52.6406">"</text></g><g id="alias3"><rect fill="#F1F1F1" height="53.2773" rx="12.5" ry="12.5" style="stroke:#181818;stroke-width:0.5;" width="214.4316" x="301" y="7"/><line style="stroke:#181818;stroke-width:0.5;" x1="301" x2="515.4316" y1="34.6094" y2="34.6094"/><text fill="#000000" font-family="sans-serif" font-size="14" lengthAdjust="spacing" textLength="65.3789" x="375.5264" y="26.5332">long name</text><text fill="#000000" font-family="monospace" font-size="12" lengthAdjust="spacing" textLength="194.4316" x="306" y="51.6738">state&#160;"long&#160;name"&#160;as&#160;alias3</text></g><g id="alias4"><rect fill="#F1F1F1" height="53.2773" rx="12.5" ry="12.5" style="stroke:#181818;stroke-width:0.5;" width="211.4902" x="550.5" y="7"/><line style="stroke:#181818;stroke-width:0.5;" x1="550.5" x2="761.9902" y1="34.6094" y2="34.6094"/><text fill="#000000" font-family="sans-serif" font-size="14" lengthAdjust="spacing" textLength="65.3789" x="623.5557" y="26.5332">long name</text><text fill="#000000" font-family="monospace" font-size="12" lengthAdjust="spacing" textLength="187.2305" x="555.5" y="51.6738">state&#160;alias4&#160;as&#160;"long&#160;name</text><text fill="#000000" font-family="sans-serif" font-size="12" lengthAdjust="spacing" textLength="4.2598" x="742.7305" y="52.6406">"</text></g><!--link alias1 to alias2--><g id="link_alias1_alias2"><path d="M113.12,33.5 C124.73,33.5 130.34,33.5 141.96,33.5 " fill="none" id="alias1-to-alias2" style="stroke:#181818;stroke-width:1.0;"/><polygon fill="#181818" points="147.96,33.5,138.96,29.5,142.96,33.5,138.96,37.5,147.96,33.5" style="stroke:#181818;stroke-width:1.0;"/></g><!--link alias2 to alias3--><g id="link_alias2_alias3"><path d="M266.28,33.5 C277.81,33.5 283.35,33.5 294.88,33.5 " fill="none" id="alias2-to-alias3" style="stroke:#181818;stroke-width:1.0;"/><polygon fill="#181818" points="300.88,33.5,291.88,29.5,295.88,33.5,291.88,37.5,300.88,33.5" style="stroke:#181818;stroke-width:1.0;"/></g><!--link alias3 to alias4--><g id="link_alias3_alias4"><path d="M515.05,33.5 C526.79,33.5 532.54,33.5 544.29,33.5 " fill="none" id="alias3-to-alias4" style="stroke:#181818;stroke-width:1.0;"/><polygon fill="#181818" points="550.29,33.5,541.29,29.5,545.29,33.5,541.29,37.5,550.29,33.5" style="stroke:#181818;stroke-width:1.0;"/></g><!--SRC=[ROwz2e0m38JtFaN8xj2VoS5toL14g7L8tn-nzJ0Knxll8nTjqZ99EKIzqnwufy28vQexLJapa-XGuyjwI4zjBEV6ELg9sNYUUP1W2CR0ecL_on3JV7v-Wxz7bcqe0Vie8aPHf1i0]--></g></svg>